<?xml version="1.0" encoding="UTF-8"?>
<svg width="32px" height="32px" viewBox="0 0 32 32" version="1.1" xmlns="http://www.w3.org/2000/svg" xmlns:xlink="http://www.w3.org/1999/xlink">
    <title>77A79BFA-D49E-448B-A4C9-BB348E7B99BC</title>
    <g id="style-guide" stroke="none" stroke-width="1" fill="none" fill-rule="evenodd">
        <g id="icon-sheet" transform="translate(-200.000000, -150.000000)" fill-rule="nonzero">
            <g id="icon" transform="translate(200.000000, 150.000000)">
                <path d="M16,0 C7.16406452,0 0,7.16664516 0,16 C0,24.8385161 7.16406452,32 16,32 C24.8359355,32 32,24.8385161 32,16 C32,7.16664516 24.8359355,0 16,0 Z" id="Path" fill="#BA5B08"></path>
                <path d="M16,7.09677419 C17.4965161,7.09677419 18.7096774,8.30993548 18.7096774,9.80645161 C18.7096774,11.3029677 17.4965161,12.516129 16,12.516129 C14.5034839,12.516129 13.2903226,11.3029677 13.2903226,9.80645161 C13.2903226,8.30993548 14.5034839,7.09677419 16,7.09677419 Z" id="Path" fill="#FFFFFF"></path>
                <path d="M19.6129032,23.483871 C19.6129032,23.9114194 19.2662581,24.2580645 18.8387097,24.2580645 L13.1612903,24.2580645 C12.7337419,24.2580645 12.3870968,23.9114194 12.3870968,23.483871 L12.3870968,21.9354839 C12.3870968,21.5079355 12.7337419,21.1612903 13.1612903,21.1612903 L13.9354839,21.1612903 L13.9354839,17.0322581 L13.1612903,17.0322581 C12.7337419,17.0322581 12.3870968,16.6856129 12.3870968,16.2580645 L12.3870968,14.7096774 C12.3870968,14.282129 12.7337419,13.9354839 13.1612903,13.9354839 L17.2903226,13.9354839 C17.717871,13.9354839 18.0645161,14.282129 18.0645161,14.7096774 L18.0645161,21.1612903 L18.8387097,21.1612903 C19.2662581,21.1612903 19.6129032,21.5079355 19.6129032,21.9354839 L19.6129032,23.483871 Z" id="Path" fill="#FFFFFF"></path>
            </g>
        </g>
    </g>
</svg>