<?xml version="1.0" encoding="UTF-8"?>
<svg width="32px" height="32px" viewBox="0 0 32 32" version="1.1" xmlns="http://www.w3.org/2000/svg" xmlns:xlink="http://www.w3.org/1999/xlink">
    <title>34FA431E-2088-4FD1-AAC6-36FFAFCFCD13</title>
    <g id="style-guide" stroke="none" stroke-width="1" fill="none" fill-rule="evenodd">
        <g id="icon-sheet" transform="translate(-126.000000, -226.000000)">
            <g id="icon" transform="translate(126.000000, 226.000000)">
                <polygon id="Container" points="0 0 32 0 32 32 0 32"></polygon>
                <path d="M7.51471863,24.4852814 C12.2010101,29.1715729 19.7989899,29.1715729 24.4852814,24.4852814 C29.1715729,19.7989899 29.1715729,12.2010101 24.4852814,7.51471863 C19.7989899,2.82842712 12.2010101,2.82842712 7.51471863,7.51471863 C2.82842712,12.2010101 2.82842712,19.7989899 7.51471863,24.4852814 Z" id="Path" fill="#35374C"></path>
                <path d="M20.5558558,18.7335135 L17.8223423,16 L20.5558558,13.2664865 C20.8913397,12.9310026 20.8913397,12.3870756 20.5558558,12.0515917 L19.9484083,11.4441442 C19.6129244,11.1086603 19.0689974,11.1086603 18.7335135,11.4441442 L16,14.1776577 L13.2664865,11.4441442 C12.9310026,11.1086603 12.3870756,11.1086603 12.0515917,11.4441442 L11.4441442,12.0515917 C11.1086603,12.3870756 11.1086603,12.9310026 11.4441442,13.2664865 L14.1776577,16 L11.4441442,18.7335135 C11.1086603,19.0689974 11.1086603,19.6129244 11.4441442,19.9484083 L12.0515917,20.5558558 C12.3870756,20.8913397 12.9310026,20.8913397 13.2664865,20.5558558 L16,17.8223423 L18.7335135,20.5558558 C19.0689974,20.8913397 19.6129244,20.8913397 19.9484083,20.5558558 L20.5558558,19.9484083 C20.8913397,19.6129244 20.8913397,19.0689974 20.5558558,18.7335135 Z" id="Path" fill="#FFFFFF" fill-rule="nonzero"></path>
            </g>
        </g>
    </g>
</svg>