<?xml version="1.0" encoding="UTF-8"?>
<svg width="286px" height="123px" viewBox="0 0 286 123" version="1.1" xmlns="http://www.w3.org/2000/svg" xmlns:xlink="http://www.w3.org/1999/xlink">
    <title>2C26334F-0FD2-4922-81DF-57F64D53FC42</title>
    <g id="style-guide" stroke="none" stroke-width="1" fill="none" fill-rule="evenodd">
        <g id="popups" transform="translate(-476.000000, -564.000000)" fill-rule="nonzero">
            <g id="image-3" transform="translate(476.546849, 564.000000)">
                <path d="M232.453151,120.118881 L231.108189,112.202158 L230.01576,105.13294 L229.668483,103.118376 L229.318914,101.0145 L229.179108,100.149532 L228.900574,98.3819503 L228.62474,96.5672018 L228.42145,95.1836024 L228.221141,93.7772456 C228.18804,93.5410404 228.155089,93.3039501 228.122302,93.066006 L227.927648,91.6283497 L227.737553,90.1717179 C227.706285,89.9274487 227.675234,89.6824519 227.644412,89.4367589 L227.462337,87.9545002 L227.286397,86.4570477 L227.117224,84.9459141 C227.089627,84.6930025 227.062338,84.4395838 227.035371,84.1856897 L226.87753,82.6568708 L226.728032,81.1181527 C226.631289,80.089377 226.540528,79.0550102 226.45659,78.0170692 L226.335908,76.4577293 C225.413072,63.9655989 225.533437,51.1040102 228.150436,41.3582195 C235.452329,14.1657231 255.153388,4.18760774 267.980733,7.66667613 C282.52845,11.6153791 287.959548,22.6443765 283.347617,33.1686384 C280.82177,38.9335201 275.352103,42.1367021 270.298599,43.911373 L269.706192,44.1136356 C269.607845,44.1462703 269.509708,44.178373 269.411808,44.209952 L268.82744,44.3932117 C268.730585,44.4227305 268.634017,44.4517429 268.53776,44.4802573 L267.921216,44.6574294 L267.314844,44.8212886 L266.720158,44.9723448 L265.995536,45.1439381 L265.294489,45.29732 L264.75261,45.4075829 L264.229222,45.5073381 L263.48212,45.638385 L262.785128,45.748659 L262.350828,45.8114845 L261.748699,45.8909624 L261.210293,45.954258 L260.740715,46.0030927 L259.941367,46.070474 L259.603887,46.0906059 L260.127651,46.3114792 L260.615978,46.5317447 L260.972257,46.6994002 L261.512037,46.963855 L261.959751,47.1925704 L262.276211,47.359378 L262.774634,47.6309075 L263.120844,47.8260355 L263.476683,48.0323671 L263.840853,48.2498312 L264.212055,48.4783567 L264.588991,48.7178724 L264.970365,48.9683072 L265.354877,49.22959 L265.741229,49.5016496 L266.128125,49.7844148 L266.61053,50.1528179 L267.089219,50.5376984 L267.467793,50.8573733 L267.841068,51.1874338 C270.06223,53.1988107 271.927203,55.7671657 272.174362,58.8233515 C272.656221,64.8355686 269.875208,67.7586526 266.780196,69.1672451 L266.447521,69.3124422 C266.336318,69.3589574 266.224849,69.4036124 266.113248,69.4464792 L265.778184,69.5697865 C265.610589,69.6288295 265.442999,69.6840102 265.275868,69.7355707 L264.942353,69.8339366 L264.546063,69.9395425 C264.414603,69.9726259 264.283859,70.0036317 264.154058,70.0326828 L263.76772,70.1140945 L263.577107,70.1506326 L263.109415,70.2305603 L262.656508,70.2953294 L262.306639,70.3371979 L261.969339,70.3710233 L261.645987,70.3975427 L261.190133,70.4252354 L260.773427,70.4406356 L260.400529,70.4462312 L259.889036,70.4405254 L259.591268,70.4290661 L259.339803,70.4128226 L259.477878,70.5978162 L259.662301,70.859817 L259.839765,71.1249416 L260.043916,71.4452324 L260.191791,71.6877833 L260.34695,71.9524161 L260.507561,72.2381564 L260.671792,72.5440297 L260.879384,72.9531985 L261.086195,73.390399 L261.16271,73.5609428 L261.313156,73.9126222 C261.38733,74.0918925 261.459743,74.2762089 261.529548,74.4651216 L261.665434,74.8489421 C262.522846,77.3818775 262.844526,80.6409124 260.773756,83.637925 C258.485911,86.9529314 256.098952,88.583764 253.685829,89.712673 L253.202878,89.9321128 L252.719358,90.1402697 L252.2354,90.3392456 L251.612733,90.5849636 L249.744427,91.296573 L249.122476,91.5401514 L248.625526,91.7424553 C248.542755,91.7768668 248.460014,91.811657 248.377304,91.8468738 L247.881452,92.0636735 C245.404348,93.1770727 242.961307,94.7600754 240.631712,98.0991904 C236.230511,104.613628 233.072096,112.258632 232.453151,120.118881 Z" id="Path" fill="#BA5B08"></path>
                <path d="M232.453151,120.118881 C227.569771,97.5925583 223.261363,82.9731113 219.527925,76.26054 C218.167248,73.8140971 216.868212,71.7066499 215.564371,69.9315677 L215.13026,69.3515767 C210.577219,63.3838303 206.181032,61.2413173 201.503775,60.7716924 L201.057458,60.7319552 L200.609357,60.7019206 L200.159389,60.6811753 L199.707469,60.6693063 L199.253513,60.6659002 L198.797437,60.6705441 L198.339158,60.6828246 L197.87859,60.7023287 C197.801633,60.7061584 197.724578,60.7102718 197.647421,60.7146604 L197.066837,60.7525996 L196.775079,60.7751864 L196.041245,60.8413946 L195.300811,60.9202577 L194.703496,60.9914006 L194.101589,61.068827 L193.189756,61.1949829 L191.644744,61.4252279 L190.73612,61.5685371 L189.552562,61.7658015 L186.461628,62.3064307 L185.13567,62.5306435 L184.363677,62.6528328 L183.609317,62.7632152 L183.116184,62.8292125 L182.630857,62.8884149 L182.15332,62.9402034 L181.683563,62.9839591 L181.221572,63.0190631 L180.767333,63.0448963 C180.617211,63.0518935 180.468379,63.0572425 180.320835,63.0608399 L179.882063,63.0662749 L179.451007,63.0605823 C175.748571,62.9612391 172.913828,61.5384552 170.909001,56.9791162 C169.461759,53.6798298 169.985121,50.9943804 171.157061,48.9482407 L171.352581,48.6220421 C171.452975,48.4617488 171.557163,48.3056675 171.664441,48.1538117 L171.882906,47.8557382 C171.956962,47.7582611 172.032182,47.662666 172.108357,47.568957 L172.33954,47.2934921 C172.378479,47.2485257 172.417604,47.2040318 172.45689,47.1600109 L172.694324,46.9015659 C172.734148,46.8594391 172.77408,46.8177863 172.814094,46.7766081 L173.054959,46.5352373 C173.095198,46.4959592 173.135468,46.4571567 173.175741,46.4188302 L173.488811,46.1301554 L173.799308,45.8607575 L174.044014,45.6591541 L174.283923,45.4699486 L174.517634,45.2931681 L174.743748,45.1288395 L174.960863,44.9769898 L175.266604,44.7726722 L175.544224,44.5965838 L175.862476,44.4058688 L176.245225,44.1939146 L176.358166,44.1363636 L175.90892,44.2192377 L175.373511,44.3056196 L175.035736,44.355027 L174.340529,44.4459979 L173.768281,44.5109042 L173.005088,44.5842745 L172.453335,44.6282093 L171.719149,44.6750056 L170.939494,44.7101629 L170.615855,44.7203393 L169.949883,44.7330438 L169.490621,44.7352701 L168.783713,44.7280766 L168.301386,44.7156297 L167.81098,44.6965588 C167.728609,44.6928043 167.645929,44.6887558 167.562953,44.6844044 L167.061657,44.6545884 L166.553921,44.6170698 C166.468798,44.6101509 166.383434,44.6028931 166.297843,44.5952873 L165.781675,44.5454061 L165.260705,44.4867439 C165.173513,44.4762112 165.086148,44.4652946 164.998624,44.4539852 L164.47168,44.3813428 L163.941571,44.298841 L163.408955,44.2060485 C163.053187,44.1406608 162.696184,44.0681249 162.338819,43.9878659 L161.80261,43.8616131 C155.724977,42.3634706 149.66915,38.5502119 147.928254,29.5961294 C144.81044,13.5903291 156.755465,3.76075718 166.210905,2.33102154 C172.498547,1.3629023 177.879887,3.18639564 181.858258,5.43807202 L182.369179,5.73400294 C182.62062,5.88298829 182.866002,6.03335777 183.105188,6.18445579 L183.575255,6.48742897 L184.028553,6.79117944 L184.571219,7.17018503 L185.086821,7.54630768 L185.479495,7.84360038 L185.854297,8.13642564 L186.210982,8.42361796 L186.549305,8.70401185 L186.869021,8.97644181 L187.169885,9.23974235 L187.585299,9.61502598 L187.956918,9.9632125 L188.382858,10.3785114 L188.727511,10.7293208 L189.087796,11.1142207 L189.265389,11.3146835 L189.310677,11.0474346 L189.375121,10.7329208 L189.446027,10.4285863 L189.505271,10.1961561 L189.574854,9.94199381 L189.655431,9.6677285 L189.747653,9.37498905 L189.852175,9.06540442 L189.969647,8.74060356 L190.135696,8.31568624 L190.324277,7.8727203 L190.437956,7.62278015 L190.622414,7.24060769 L190.754989,6.98175438 L190.895494,6.72025958 L191.044138,6.45665116 C191.069603,6.41256961 191.095415,6.36842199 191.12158,6.3242193 L191.282832,6.0584302 L191.452754,5.79184716 C191.481809,5.74737982 191.511233,5.70290139 191.541032,5.65842287 L191.724355,5.39163867 C191.75567,5.34720379 191.787368,5.30279081 191.819453,5.25841073 L192.016653,4.99261308 C192.083961,4.90420413 192.152854,4.81601477 192.223369,4.72813297 L192.439813,4.46549827 C192.476709,4.42190893 192.514019,4.37841847 192.551748,4.3350379 L192.783179,4.07616107 L193.024867,3.82044932 L193.277023,3.56843052 C193.491573,3.36010022 193.717247,3.15616661 193.954597,2.95800436 L194.245057,2.72306789 C194.541191,2.49107762 194.854455,2.26818991 195.185802,2.05678017 L195.523211,1.84928441 C198.44302,0.119586966 202.692192,-0.723618865 208.855428,0.778469873 C214.970433,2.26379768 218.163637,7.43287018 219.791983,13.1196316 L219.947149,13.6805431 C220.047293,14.0554484 220.140899,14.4321333 220.228351,14.8097051 L220.354959,15.3766165 C220.375307,15.4711754 220.395283,15.5657619 220.414891,15.6603619 L220.52819,16.2280136 C220.546355,16.3226122 220.564166,16.4171965 220.581628,16.5117526 L220.682261,17.0786381 L220.77481,17.644176 L220.859562,18.2076967 C220.873053,18.3014115 220.886232,18.3950144 220.899103,18.4884913 L220.972697,19.0477308 L221.03921,19.6032792 L221.09893,20.1544671 L221.152144,20.7006249 L221.199139,21.241083 L221.240201,21.775172 L221.292298,22.5802066 C221.307566,22.8455251 221.320795,23.1076832 221.332156,23.3662787 L221.36081,24.1309747 L221.379295,24.871881 L221.388646,25.5865838 L221.390218,25.9333546 L221.387806,26.6042265 L221.378844,27.2428607 L221.364369,27.8468436 L221.334579,28.6825667 L221.310844,29.1893614 L221.258727,30.0712392 L221.195538,30.9017366 L221.164874,31.2405662 L221.136154,31.5214054 L221.294684,31.2717486 L221.550223,30.8959751 L221.759248,30.6047458 L221.921267,30.3871933 L222.197656,30.0305675 L222.403778,29.7754206 L222.627088,29.5085981 L222.930004,29.1615776 L223.258868,28.8030676 L223.540302,28.5105088 L223.687045,28.3629728 L223.992421,28.0665883 L224.20582,27.8677785 L224.426164,27.6694799 L224.653374,27.4722705 L224.887372,27.2767283 L225.128081,27.0834316 L225.375423,26.8929582 L225.629321,26.7058863 L225.889696,26.522794 L226.15647,26.3442593 L226.429567,26.1708603 C226.475606,26.1424206 226.521904,26.1142189 226.568462,26.0862673 L226.850895,25.9216558 L227.139456,25.763625 C227.188056,25.7378671 227.236908,25.7124074 227.28601,25.6872581 L227.583617,25.5401825 L227.887156,25.401133 C227.989316,25.3561851 228.092452,25.3126711 228.196551,25.2706876 L228.511723,25.1494243 C228.564729,25.130011 228.617972,25.1110045 228.671451,25.0924166 L228.995144,24.9860104 C232.260115,23.9741221 236.362543,24.556334 240.952437,29.3339513 C251.330403,41.0362568 250.258869,61.6003107 249.21393,69.9315677 C248.16899,78.2628247 245.217156,84.0481889 243.51722,87.8495126 C241.817284,91.6508364 239.386266,95.0292023 236.712215,100.566583 C234.038164,106.103963 233.437729,108.7913 233.157237,110.96916 C232.726217,114.315783 232.491522,117.36569 232.453151,120.118881 Z" id="Path" fill="#352103"></path>
                <path d="M34.5452804,14.3661081 L35,14.4958105 L35,14.4958105 L34.3364143,15.2591767 L34.3364143,15.2591767 L33.3800881,16.3140556 L33.3800881,16.3140556 L32.4650801,17.2881358 L32.4650801,17.2881358 L31.8295281,17.947221 L31.8295281,17.947221 L30.886959,18.9003837 L30.886959,18.9003837 L30.1122856,19.6631085 L30.1122856,19.6631085 L29.2826536,20.4600495 L29.2826536,20.4600495 L28.4008622,21.2850863 L28.4008622,21.2850863 L27.7854059,21.8476971 L27.7854059,21.8476971 L27.1488409,22.4182613 L27.1488409,22.4182613 L26.4919966,22.9949653 L26.4919966,22.9949653 L25.8157021,23.5759957 L25.8157021,23.5759957 L25.120787,24.159539 L25.120787,24.159539 L24.4080804,24.7437817 L24.4080804,24.7437817 L23.6784117,25.3269105 L23.6784117,25.3269105 L22.9326103,25.9071117 C22.8070118,26.0034673 22.6807756,26.0996252 22.553919,26.1955479 L21.7854734,26.7679576 C21.6562045,26.8627879 21.5263498,26.9573072 21.3959265,27.0514779 L20.6067028,27.6120159 C15.9647129,30.8538884 10.6686005,33.5760872 5.45914221,34.1587693 C-1.36337847,34.9230422 -1.11223719,29.9169714 2.50219462,24.7308794 L2.87471135,24.2118772 L2.87471135,24.2118772 L3.26882549,23.6929172 C3.33626515,23.6064964 3.40457036,23.5201291 3.47372392,23.4338412 L3.89868818,22.9172736 C4.11612305,22.6596733 4.34088395,22.4032534 4.57250709,22.1487128 L5.0447656,21.6423443 C5.12495448,21.5584362 5.20587149,21.4747886 5.28749943,21.3914275 L5.7856609,20.8949053 L5.7856609,20.8949053 L6.30006036,20.4065002 C6.38710096,20.3258447 6.47478379,20.2455793 6.56309166,20.1657297 L7.10030211,19.6918295 C7.19104148,19.6137468 7.28237154,19.5361318 7.37427512,19.4590102 L7.93244137,19.00241 C8.21482817,18.777278 8.50206743,18.5570532 8.79369534,18.3424347 L9.38266529,17.9208794 C10.5717586,17.0935466 11.8261233,16.3633658 13.1160763,15.7750593 C17.7202002,13.6762487 22.4519743,13.1589014 26.3324886,13.2453485 L27.0284384,13.267502 C27.142794,13.2722305 27.2563135,13.2774592 27.3689695,13.2831606 L28.034327,13.3228257 L28.034327,13.3228257 L28.6776552,13.372533 L28.6776552,13.372533 L29.2976465,13.4309765 L29.2976465,13.4309765 L29.8929936,13.4968506 L29.8929936,13.4968506 L30.7369459,13.6067372 L30.7369459,13.6067372 L31.5180939,13.7259971 L31.5180939,13.7259971 L32.0017888,13.8085345 L32.0017888,13.8085345 L32.8743255,13.9750074 L32.8743255,13.9750074 L33.6116749,14.1346385 L33.6116749,14.1346385 L34.5452804,14.3661081 L34.5452804,14.3661081 Z" id="Plant-path" fill="#E78631"></path>
                <path d="M120.277624,94.6614922 L120.128524,95.8891636 L120.034256,96.4897682 L118.956125,95.7625574 L117.460115,94.7074481 L116.07369,93.692406 L115.133027,92.9846301 L113.768976,91.9311389 L112.674257,91.062065 L111.527261,90.1282182 L110.336239,89.1322113 L109.521839,88.4349636 L108.693982,87.7120247 L107.855112,86.9641686 L107.007673,86.1921697 L106.15411,85.396802 L105.296866,84.5788397 L104.438386,83.739057 L103.581115,82.8782282 L103.153696,82.4401633 L103.153696,82.4401633 L102.302819,81.5492167 L101.879972,81.0965284 L101.879972,81.0965284 L101.040989,80.177206 C96.1765868,74.7613861 91.8728618,68.4293931 90.3130176,61.8727431 C88.9940968,56.3329526 91.2015358,54.1741267 94.8634719,54.3599856 L95.2344371,54.3863487 C95.2970471,54.3920324 95.3600419,54.3983578 95.423412,54.4053201 L95.8080589,54.4546982 L95.8080589,54.4546982 L96.2012514,54.519132 C96.2674701,54.5311127 96.3340256,54.5437112 96.4009084,54.5569227 L96.806056,54.6435079 L96.806056,54.6435079 L97.2185983,54.7445729 L97.2185983,54.7445729 L97.6380746,54.8598874 C97.7085396,54.8802812 97.7792744,54.9012591 97.8502693,54.9228163 L98.2792836,55.0590734 C98.3512807,55.0829288 98.4235188,55.1073539 98.4959882,55.132344 L98.9335046,55.2890254 C99.0068612,55.3162561 99.0804299,55.3440421 99.1542013,55.3723786 L99.5991838,55.5489663 L99.5991838,55.5489663 L100.048568,55.7385369 L100.048568,55.7385369 L100.501894,55.9408602 L100.501894,55.9408602 L100.958701,56.1557059 L100.958701,56.1557059 L101.418529,56.3828436 C101.572257,56.4605793 101.726411,56.5403253 101.880916,56.6220432 L102.6016,57.0161013 L103.325615,57.437727 L103.688335,57.6586098 L103.688335,57.6586098 L104.41413,58.1199793 C104.776931,58.3570914 105.139374,58.6037375 105.500494,58.8594352 L106.220684,59.3827563 L106.578921,59.6532005 L106.578921,59.6532005 L107.290604,60.21112 L107.994474,60.7910332 L108.342943,61.0889694 L108.342943,61.0889694 L109.031877,61.7002652 L109.371913,62.0134103 L109.371913,62.0134103 L110.042053,62.6541592 C110.373598,62.9792459 110.699641,63.3112939 111.019217,63.6498209 L111.649462,64.3353704 C112.891565,65.7231749 114.019916,67.2094968 114.972794,68.7634643 C118.372567,74.3100677 119.774188,80.2673674 120.271904,85.2329564 L120.352681,86.1245506 L120.386056,86.5615664 L120.386056,86.5615664 L120.439693,87.4168646 L120.477062,88.2456241 L120.499627,89.0459716 L120.508847,89.816034 L120.500856,90.9102456 L120.471062,91.9257793 L120.441523,92.5559699 L120.365799,93.6955254 L120.277624,94.6614922 Z" id="Plant-path" fill="#EABE90"></path>
                <path d="M58.6161985,53.6001298 L58.5528153,54.1245171 L58.5127416,54.3810593 L58.0544214,54.0704385 L57.4184589,53.6197594 L56.8290812,53.1861945 L56.4291997,52.8838752 L55.8493337,52.4338872 L55.383962,52.0626711 L54.8963675,51.663788 L54.3900569,51.2383538 L54.0438505,50.9405315 L53.6919235,50.6317355 L53.3353148,50.3122964 L52.9750636,49.9825449 L52.6122088,49.6428117 L52.2477894,49.2934275 L51.8828446,48.9347229 L51.5184133,48.5670286 L51.3367149,48.3799136 L50.9750022,47.9993549 L50.7952475,47.8059937 L50.438591,47.4133144 C48.3707045,45.1000022 46.5411654,42.3953558 45.8780664,39.5947496 C45.3173854,37.2284845 46.2557808,36.306364 47.8124916,36.3857517 L47.9701911,36.3970125 C47.996807,36.3994402 48.0235865,36.402142 48.0505255,36.4051159 L48.2140411,36.4262073 L48.3811896,36.4537295 C48.4093395,36.458847 48.4376327,36.4642283 48.466065,36.4698714 L48.6382956,36.5068554 L48.8136698,36.5500243 L48.9919917,36.5992797 C49.0219468,36.6079907 49.0520165,36.6169512 49.0821969,36.6261591 L49.2645734,36.68436 C49.2951798,36.6945495 49.3258887,36.7049825 49.3566959,36.7156567 L49.5426867,36.7825816 C49.573871,36.7942129 49.6051455,36.8060814 49.6365061,36.8181851 L49.8256708,36.8936127 L50.0167068,36.9745859 L50.2094183,37.0610062 L50.4036097,37.1527753 L50.5990851,37.2497949 C50.6644358,37.2829989 50.729968,37.3170616 50.7956489,37.3519666 L51.102016,37.5202845 L51.4097987,37.7003776 L51.5639933,37.7947255 L51.872533,37.9917947 C52.0267621,38.0930748 52.1808387,38.1984271 52.3343529,38.3076458 L52.64051,38.5311771 L52.7927985,38.6466946 L53.0953395,38.8850042 L53.3945586,39.1327082 L53.5426948,39.2599686 L53.8355646,39.5210774 L53.9801161,39.6548342 L54.2649966,39.9285235 C54.4059384,40.067381 54.5445411,40.2092119 54.6803949,40.3538102 L54.9483157,40.6466357 C55.476341,41.2394223 55.95601,41.8742896 56.3610839,42.538051 C57.8063477,44.9072261 58.4021849,47.451826 58.6137672,49.5728267 L58.648106,49.9536621 L58.6622939,50.140329 L58.6850951,50.5056609 L58.7009811,50.859657 L58.7105733,51.2015173 L58.714493,51.5304417 L58.7110958,51.997823 L58.6984303,52.4315979 L58.6858731,52.7007774 L58.6536824,53.1875269 L58.6161985,53.6001298 Z" id="Plant-path" fill="#1B8338" transform="translate(52.214493, 45.381059) rotate(69.000000) translate(-52.214493, -45.381059) "></path>
                <path d="M171.973555,122.188843 L172.113619,121.014906 L172.263898,119.898941 L172.433073,118.748746 L172.554383,117.977356 L172.739864,116.86884 L172.897169,115.986723 L173.070408,115.069064 L173.259883,114.12301 L173.39537,113.480063 L173.538298,112.82979 L173.688757,112.174309 L173.846837,111.515739 C173.873824,111.405837 173.901132,111.295895 173.928763,111.185956 L174.098443,110.526722 L174.275969,109.869692 L174.461431,109.216985 L174.654919,108.570717 C174.687841,108.46366 174.721101,108.35696 174.754701,108.25066 L174.960397,107.618024 L175.174343,106.997121 C175.247043,106.792345 175.321134,106.589877 175.39663,106.390072 C175.445702,106.260198 175.498567,106.127312 175.555069,105.991646 L175.735334,105.576539 C175.798957,105.435544 175.866062,105.292002 175.936496,105.146142 L176.157624,104.701848 C176.196091,104.626718 176.235351,104.551067 176.275385,104.474923 L176.524721,104.012391 C176.567773,103.934395 176.61156,103.855965 176.656063,103.77713 L176.931515,103.299489 L177.223217,102.813516 L177.530238,102.320601 L177.851648,101.822137 C177.906365,101.738674 177.961641,101.655038 178.01746,101.571258 L178.358713,101.067078 L178.892928,100.307358 L179.262605,99.8006087 L179.642025,99.2952661 L180.030258,98.792722 L180.426375,98.2943679 L180.829447,97.8015951 L181.238544,97.315795 L181.652736,96.8383591 L182.071095,96.3706786 L182.49269,95.914145 L182.916592,95.4701498 L183.341873,95.0400842 C183.412816,94.9696447 183.483778,94.8998435 183.554739,94.8307098 L183.980343,94.4241476 C184.192986,94.2251026 184.405275,94.0325856 184.616686,93.8473794 L185.038182,93.4869464 C188.118308,90.9186553 190.934694,90.0352202 191.837873,93.3058997 C192.576837,95.9819103 190.209331,100.474423 186.876244,105.128745 L186.312156,105.905679 L185.73239,106.683908 C185.634578,106.813626 185.536204,106.943328 185.437315,107.072976 L184.83816,107.849954 L184.228834,108.623971 L183.611537,109.393323 L182.988474,110.156309 L182.361846,110.911226 L181.733856,111.656372 L181.106707,112.390044 L180.482601,113.11054 L179.556966,114.162855 L178.950104,114.842964 L178.06066,115.826718 L176.925215,117.061491 L176.121128,117.922447 L174.893479,119.216307 L173.648317,120.503408 L171.973555,122.188843 Z" id="Plant-path" fill="#B5E1C1"></path>
                <path d="M10.501741,92.6830718 L9.77581846,94.8594099 L9.29743499,96.2156271 L8.95798593,95.883714 L8.35872215,95.2683527 L7.71231242,94.5716107 L7.15068732,93.9396402 L6.53793133,93.2209224 L6.10756038,92.6967113 L5.6642732,92.1386364 L5.21199326,91.5485741 L4.75464401,90.9284006 C4.60178531,90.716866 4.44873563,90.5006257 4.29614888,90.2799921 L3.84043134,89.605225 C3.68942437,89.376118 3.53953423,89.1429306 3.39141484,88.9059755 L2.95302282,88.1841197 C2.08947889,86.719053 1.31322255,85.1296069 0.765498008,83.4833268 C0.217773463,81.8370468 0.145095563,79.8401275 0.453658344,77.7926647 L0.538687268,77.2799197 C0.662504423,76.5953188 0.82781308,75.9078806 1.03113894,75.2287198 L1.19070728,74.7210749 C1.21847195,74.636784 1.24681706,74.5526658 1.27573584,74.4687421 L1.45607814,73.967707 L1.45607814,73.967707 L1.6498626,73.4723809 C1.75006109,73.2263187 1.85517825,72.9827882 1.96503086,72.7423755 L2.19099573,72.2658807 C2.30708086,72.0298854 2.42777929,71.7973987 2.55290781,71.5690066 L2.80901738,71.1178556 C4.94793096,67.4808782 8.2361106,65.0405008 11.8752217,66.3506862 C14.1681092,67.1761924 14.7995097,70.338592 14.5767867,74.3162466 L14.5358918,74.9344203 L14.5358918,74.9344203 L14.482173,75.5642266 C14.4721875,75.6700954 14.4616948,75.7763975 14.4507087,75.8831073 L14.3455305,76.8011324 L14.2183597,77.7353508 L14.1471109,78.2074324 L14.1471109,78.2074324 L13.9904539,79.1593395 L13.8164745,80.1186383 L13.6270408,81.0818079 L13.4240207,82.0453276 L13.2092824,83.0056767 L12.9846939,83.9593346 L12.7521232,84.9027803 L12.5134384,85.8324934 L12.0251989,87.6366382 L11.5349196,89.3436034 L11.057545,90.9252231 L10.501741,92.6830718 Z" id="Plant-path" fill="#EABE90"></path>
            </g>
        </g>
    </g>
</svg>