<?xml version="1.0" encoding="UTF-8"?>
<svg width="110px" height="123px" viewBox="0 0 110 123" version="1.1" xmlns="http://www.w3.org/2000/svg" xmlns:xlink="http://www.w3.org/1999/xlink">
    <title>DC280587-F25D-4958-A63A-D64E476BC11A</title>
    <g id="style-guide" stroke="none" stroke-width="1" fill="none" fill-rule="evenodd">
        <g id="popups" transform="translate(-262.000000, -648.000000)" fill="#3EB660" fill-rule="nonzero">
            <path d="M359.403164,769.381237 L358.80073,770.924647 L358.80073,770.924647 L358.61332,769.679716 L358.61332,769.679716 L358.433329,768.594775 L358.433329,768.594775 L358.242209,767.512173 L358.242209,767.512173 L358.007117,766.253371 L358.007117,766.253371 L357.726131,764.831848 L357.726131,764.831848 L357.484118,763.667028 L357.484118,763.667028 L357.214399,762.423945 L357.214399,762.423945 L356.916162,761.108284 L356.916162,761.108284 L356.701094,760.193664 L356.701094,760.193664 L356.353528,758.769677 L356.353528,758.769677 L355.975282,757.288275 L355.975282,757.288275 L355.705674,756.271585 L355.705674,756.271585 L355.421831,755.233588 L355.421831,755.233588 L355.123512,754.175971 L355.123512,754.175971 L354.810477,753.100418 L354.810477,753.100418 L354.482486,752.008612 L354.482486,752.008612 L354.139299,750.902241 L354.139299,750.902241 L353.780676,749.782987 L353.780676,749.782987 L353.406376,748.652535 C353.215267,748.084791 353.018189,747.51348 352.815007,746.939549 L352.400465,745.788475 C350.145742,739.633781 347.186286,733.252922 343.358135,727.796015 C334.864424,715.6885 328.268953,712.977729 321.451577,713.434825 L320.874885,713.480855 L320.874885,713.480855 L320.296852,713.541131 C320.007454,713.574692 319.717445,713.613282 319.426667,713.656431 L318.844039,713.74867 L318.844039,713.74867 L318.259074,713.852231 C318.161369,713.870389 318.063556,713.888983 317.965627,713.907997 L317.376625,714.026977 C317.278212,714.047599 317.179672,714.068607 317.080999,714.089982 L316.189197,714.291804 L316.189197,714.291804 L315.590201,714.435981 L315.590201,714.435981 L314.684307,714.664602 L314.684307,714.664602 L313.768679,714.905542 L313.768679,714.905542 L312.842357,715.155982 L312.842357,715.155982 L311.838778,715.435189 L311.838778,715.435189 L310.536862,715.81125 L310.536862,715.81125 L307.161078,716.812107 L307.161078,716.812107 L306.290224,717.062432 L306.290224,717.062432 L305.439815,717.297324 L305.439815,717.297324 L304.609371,717.513752 L304.609371,717.513752 L304.066597,717.64628 L304.066597,717.64628 L303.532342,717.768354 L303.532342,717.768354 L303.006464,717.879075 L303.006464,717.879075 L302.48882,717.977544 L302.48882,717.977544 L301.97927,718.062863 C297.597823,718.742709 294.112185,717.839639 291.106596,712.720549 C288.789759,708.766847 289.423045,705.424373 290.763363,702.979858 L290.969433,702.619952 C291.074839,702.443402 291.183592,702.271983 291.294744,702.105817 L291.519967,701.780525 L291.519967,701.780525 L291.749908,701.469455 L291.749908,701.469455 L291.982884,701.172822 C292.021873,701.124598 292.060918,701.076985 292.099985,701.029986 L292.334359,700.755412 L292.334359,700.755412 L292.567562,700.495813 L292.567562,700.495813 L292.797912,700.251403 L292.797912,700.251403 L293.023727,700.022399 L293.023727,700.022399 L293.350266,699.708246 L293.350266,699.708246 L293.657136,699.429964 L293.657136,699.429964 L293.847987,699.26473 L293.847987,699.26473 L294.189163,698.983915 L294.189163,698.983915 L294.662319,698.62693 L294.662319,698.62693 L294.781144,698.545028 L294.781144,698.545028 L294.221514,698.715108 L294.221514,698.715108 L293.641795,698.875175 L293.641795,698.875175 L293.087388,699.017057 L293.087388,699.017057 L292.437981,699.171073 L292.437981,699.171073 L291.700348,699.3313 C291.613739,699.349229 291.525621,699.367163 291.436036,699.385066 L290.881267,699.491817 L290.881267,699.491817 L290.293309,699.596064 L290.293309,699.596064 L289.67417,699.696053 L289.67417,699.696053 L289.025858,699.790029 C288.805115,699.820157 288.579845,699.848991 288.350381,699.876238 L287.649747,699.952925 C279.930516,700.725782 268.1359,699.513443 263.752223,686.276759 C258.253795,669.692769 268.973099,657.99357 278.381828,655.448496 C283.820134,653.960852 288.868412,654.78014 292.968555,656.298836 L293.576395,656.531686 C293.87669,656.650532 294.171495,656.772861 294.460574,656.897993 L295.031029,657.151795 L295.031029,657.151795 L295.585796,657.411869 C295.676927,657.45567 295.767386,657.499682 295.857166,657.543881 L296.387618,657.811101 L296.387618,657.811101 L296.901336,658.081578 L296.901336,658.081578 L297.397903,658.354108 C297.479211,658.399633 297.559787,658.445194 297.639623,658.490765 L298.109676,658.764111 L298.109676,658.764111 L298.561531,659.036494 L298.561531,659.036494 L298.994769,659.30671 L298.994769,659.30671 L299.408971,659.573552 L299.408971,659.573552 L299.803719,659.835814 L299.803719,659.835814 L300.358448,660.217984 L300.358448,660.217984 L300.86705,660.583069 L300.86705,660.583069 L301.328114,660.926999 L301.328114,660.926999 L301.740225,661.245705 L301.740225,661.245705 L302.314458,661.70978 L302.314458,661.70978 L302.870896,662.186917 L302.870896,662.186917 L303.13568,662.428598 L303.13568,662.428598 L303.142879,662.141057 L303.142879,662.141057 L303.162687,661.801445 L303.162687,661.801445 L303.202912,661.348883 L303.202912,661.348883 L303.250814,660.943284 L303.250814,660.943284 L303.292882,660.644468 L303.292882,660.644468 L303.373437,660.157747 L303.373437,660.157747 L303.477638,659.629781 L303.477638,659.629781 L303.561744,659.257642 L303.561744,659.257642 L303.658611,658.8713 L303.658611,658.8713 L303.769141,658.472407 C303.788751,658.404971 303.808968,658.33708 303.82981,658.268769 L303.962523,657.854144 C303.985943,657.784292 304.010026,657.714089 304.034791,657.643569 L304.191713,657.216927 C305.873333,652.846371 310.231911,647.553735 321.52757,649.146769 C331.394934,650.530409 335.535125,661.822837 337.263648,670.42048 L337.426007,671.257015 L337.426007,671.257015 L337.573511,672.073503 L337.573511,672.073503 L337.706862,672.86728 C337.727947,672.997536 337.748471,673.126734 337.76845,673.254819 L337.881887,674.009531 L337.881887,674.009531 L338.029012,675.085689 L338.029012,675.085689 L338.150604,676.086757 L338.150604,676.086757 L338.249028,677.003742 L338.249028,677.003742 L338.348313,678.080042 L338.348313,678.080042 L338.416229,678.969546 L338.416229,678.969546 L338.488095,680.312663 L338.488095,680.312663 L338.683366,679.881693 L338.683366,679.881693 L338.927841,679.391253 L338.927841,679.391253 L339.121663,679.027541 L339.121663,679.027541 L339.350905,678.620238 L339.350905,678.620238 L339.523439,678.327919 L339.523439,678.327919 L339.711757,678.021376 L339.711757,678.021376 L339.915875,677.702668 L339.915875,677.702668 L340.135809,677.373855 L340.135809,677.373855 L340.371576,677.036996 L340.371576,677.036996 L340.623193,676.694152 C340.709709,676.579102 340.798869,676.463397 340.890677,676.347381 L341.174042,675.998745 C341.222594,675.940598 341.271809,675.882458 341.321686,675.82437 L341.628907,675.476796 C341.891556,675.188232 342.170793,674.903088 342.46666,674.626727 L342.829686,674.299653 C346.106971,671.453804 351.254746,669.8359 358.324111,675.834172 C366.263495,682.569387 369.886599,696.435956 370.884003,711.025443 L370.962078,712.259935 C370.974062,712.465923 370.985534,712.672019 370.996499,712.878204 L371.056248,714.116247 L371.056248,714.116247 L371.104063,715.355583 L371.104063,715.355583 L371.14017,716.595354 L371.14017,716.595354 L371.164797,717.834698 L371.164797,717.834698 L371.17817,719.072757 L371.17817,719.072757 L371.180516,720.308672 L371.180516,720.308672 L371.172062,721.541583 L371.172062,721.541583 L371.153034,722.77063 L371.153034,722.77063 L371.123659,723.994954 C371.112168,724.402179 371.09899,724.808474 371.084163,725.213696 L371.034775,726.425996 C371.025731,726.627461 371.016285,726.828622 371.006441,727.029462 L370.942637,728.230487 C370.93122,728.429966 370.919414,728.629087 370.907224,728.827832 C370.77121,731.045381 370.368795,733.630992 369.788709,736.410117 L369.563021,737.461019 L369.563021,737.461019 L369.321717,738.528017 L369.321717,738.528017 L369.065835,739.609066 L369.065835,739.609066 L368.796417,740.702121 L368.796417,740.702121 L368.5145,741.805135 L368.5145,741.805135 L368.221127,742.916064 L368.221127,742.916064 L367.917335,744.032862 L367.917335,744.032862 L367.604165,745.153483 L367.604165,745.153483 L367.119101,746.837109 L367.119101,746.837109 L366.787036,747.95834 L366.787036,747.95834 L366.449232,749.076234 L366.449232,749.076234 L365.93404,750.742347 L365.93404,750.742347 L365.411785,752.389448 L365.411785,752.389448 L365.061424,753.473545 L365.061424,753.473545 L364.535196,755.073618 L364.535196,755.073618 L364.011263,756.636271 L364.011263,756.636271 L363.493135,758.154599 L363.493135,758.154599 L362.817392,760.098155 L362.817392,760.098155 L362.166526,761.934274 L362.166526,761.934274 L361.255067,764.451214 L361.255067,764.451214 L360.446372,766.634374 L360.446372,766.634374 L359.403164,769.381237 L359.403164,769.381237 Z" id="image-1"></path>
        </g>
    </g>
</svg>