<?xml version="1.0" encoding="UTF-8"?>
<svg width="32px" height="32px" viewBox="0 0 32 32" version="1.1" xmlns="http://www.w3.org/2000/svg" xmlns:xlink="http://www.w3.org/1999/xlink">
    <g  stroke="none" stroke-width="1" fill="none" fill-rule="evenodd">
        <g transform="translate(-60.000000, -16.000000)" fill="#BA5B08" fill-rule="nonzero">
            <g transform="translate(60.000000, 16.000000)">
                <path d="M16,0 C7.163444,0 0,7.163444 0,16 C0,24.836556 7.163444,32 16,32 C24.836556,32 32,24.836556 32,16 C32,11.7565362 30.3142906,7.68687356 27.3137085,4.6862915 C24.3131264,1.68570945 20.2434638,0 16,0 Z M17.8511828,26.0851613 C17.3750454,26.5780716 16.7162188,26.8520638 16.0309677,26.8421505 C15.3493493,26.8540821 14.6940001,26.5794596 14.2245161,26.0851613 C13.7373229,25.6034042 13.4687293,24.9431115 13.4812903,24.2580645 C13.476671,23.5813551 13.7434508,22.9310224 14.2219678,22.4525054 C14.7004848,21.9739884 15.3508174,21.7072086 16.0275269,21.711828 C16.7096188,21.7006498 17.3668427,21.9677635 17.8477419,22.4516129 C18.3416841,22.9213426 18.6162379,23.5765277 18.6047312,24.2580645 C18.6174564,24.94518 18.3445892,25.6067894 17.8511828,26.0851613 Z M22.1591398,12.3217204 C22.0249186,12.766329 21.8365526,13.1927525 21.5982796,13.5913978 C21.3599886,13.9888389 21.0821628,14.3611947 20.7690323,14.7027957 C20.4524731,15.0491756 20.1164158,15.3932616 19.7608602,15.7350538 C19.4053047,16.0768459 19.1243011,16.3635842 18.9178495,16.5952688 C18.7099898,16.8237484 18.53088,17.0768132 18.3845161,17.3488172 C18.2555338,17.5964092 18.1606238,17.8603055 18.1023656,18.1333333 C18.0383507,18.4503825 18.00836,18.7733589 18.0129032,19.0967742 L18.0129032,19.5716129 L14.1350538,19.5716129 L14.1350538,18.5772043 C14.1302993,18.13372 14.1788187,17.6912693 14.2795699,17.2593548 C14.3794351,16.8507825 14.5333362,16.4573512 14.7372043,16.0894624 C14.9689607,15.6836344 15.2485166,15.3070426 15.5698925,14.9677419 C15.9735716,14.536893 16.4033419,14.1312542 16.8567742,13.7531183 C17.3137338,13.3603237 17.7309404,12.9235246 18.1023656,12.4490323 C18.4069114,12.0274638 18.5630197,11.5167838 18.5462366,10.9969892 C18.5458067,10.4050766 18.3048687,9.83874806 17.8787097,9.42795699 C17.3941388,8.95531622 16.7345517,8.70594492 16.0584946,8.73978495 C15.3132457,8.72755077 14.5920805,9.00368922 14.0455914,9.51053763 C13.7930264,9.74176237 13.578237,10.0111199 13.4090323,10.3088172 C13.2439015,10.5967016 13.1188745,10.9057961 13.0374194,11.2275269 L9.63096774,9.80645161 C9.80318021,9.2210356 10.0568458,8.66273966 10.3845161,8.14795699 C11.1257384,6.96660195 12.2342285,6.06119395 13.5397849,5.57075269 C14.3095744,5.28265356 15.1265547,5.14143269 15.9483871,5.1544086 C16.8350671,5.14481329 17.7165928,5.29037565 18.5531183,5.58451613 C19.2996244,5.84488425 19.988913,6.24677456 20.5832258,6.76817204 C21.1426669,7.26734047 21.5915549,7.87796885 21.9010753,8.56086022 C22.4238244,9.74545846 22.5186973,11.0748946 22.1694624,12.3217204 L22.1591398,12.3217204 Z" id="Shape"></path>
            </g>
        </g>
    </g>
</svg>