<?xml version="1.0" encoding="UTF-8"?>
<svg width="12px" height="12px" viewBox="0 0 12 12" version="1.1" xmlns="http://www.w3.org/2000/svg" xmlns:xlink="http://www.w3.org/1999/xlink">
    <title>icon</title>
    <g  stroke="none" stroke-width="1" fill="none" fill-rule="evenodd">
        <g  transform="translate(-563.000000, -363.000000)">
            <g  transform="translate(563.000000, 362.000000)">
                <g  transform="translate(0.000000, 1.000000)">
                    <polygon points="0 0 12 0 12 12 0 12"></polygon>
                    <path d="M6,1.5 C3.51471863,1.5 1.5,3.51471863 1.5,6 C1.5,8.48528137 3.51471863,10.5 6,10.5 C8.48528137,10.5 10.5,8.48528137 10.5,6 C10.4973132,3.51583239 8.48416761,1.50268682 6,1.5 Z M6,8.625 C5.68933983,8.625 5.4375,8.37316017 5.4375,8.0625 C5.4375,7.75183983 5.68933983,7.5 6,7.5 C6.31066017,7.5 6.5625,7.75183983 6.5625,8.0625 C6.5625,8.37316017 6.31066017,8.625 6,8.625 Z M6.6,6.345 C6.46327947,6.40466971 6.37492768,6.53970069 6.375,6.688875 C6.375,6.89598178 6.20710678,7.063875 6,7.063875 C5.79289322,7.063875 5.625,6.89598178 5.625,6.688875 C5.62493221,6.24148819 5.8899632,5.83657972 6.3,5.657625 C6.64335684,5.50777173 6.82347328,5.12753306 6.72191721,4.76692761 C6.62036115,4.40632217 6.26828423,4.17596327 5.89718787,4.22731899 C5.5260915,4.2786747 5.24980703,4.595992 5.25,4.970625 C5.25,5.17773178 5.08210678,5.345625 4.875,5.345625 C4.66789322,5.345625 4.5,5.17773178 4.5,4.970625 C4.5,4.22145389 5.05273841,3.58714545 5.79487124,3.48469442 C6.53700407,3.3822434 7.24093627,3.84306758 7.44390241,4.5642209 C7.64686854,5.28537421 7.28662667,6.04570655 6.6,6.345375 L6.6,6.345 Z" id="Shape" fill="#052978" fill-rule="nonzero"></path>
                </g>
            </g>
        </g>
    </g>
</svg>