<?xml version="1.0" encoding="UTF-8"?>
<svg width="68px" height="205px" viewBox="0 0 68 205" version="1.1" xmlns="http://www.w3.org/2000/svg" xmlns:xlink="http://www.w3.org/1999/xlink">
    <title>73825C44-47EB-4D08-81F2-CB0C1CA82247</title>
    <g id="style-guide" stroke="none" stroke-width="1" fill="none" fill-rule="evenodd">
        <g id="popups" transform="translate(-291.000000, -534.000000)" fill-rule="nonzero">
            <g id="image-2" transform="translate(291.900984, 534.523781)">
                <path d="M54.0243332,119.437821 C55.2631231,127.355566 56.2007721,135.801449 56.8577723,144.70848 C58.2431658,163.490385 57.9531593,183.555308 57.0990159,203.175 L56.012975,201.052776 C56.864764,181.487135 56.7534881,163.536658 55.3728508,144.819216 C54.0804061,127.297405 51.6982435,111.580812 48.0746769,98.1959807 C47.5224887,96.1560111 46.9653645,94.1798394 46.4038773,92.2663268 C45.6667874,92.9520152 44.1938636,93.8124599 41.4299671,93.8432707 C40.6605081,93.8518485 39.8220968,93.7166715 38.9728562,93.4763921 L38.5476026,93.3476729 C38.3347936,93.2791129 38.1219133,93.2043866 37.9098698,93.1240981 L37.4871675,92.9562834 L37.4871675,92.9562834 L37.0683113,92.7747096 L37.0683113,92.7747096 L36.6549155,92.5804502 L36.6549155,92.5804502 L36.2485948,92.3745789 C36.181554,92.339359 36.1148752,92.3037 36.0485922,92.2676243 L35.6559113,92.0463484 C35.5913456,92.0086953 35.5272428,91.9706702 35.4636367,91.9322955 L35.0882283,91.6980306 C32.5673373,90.0709979 30.994332,87.9314586 32.6874425,86.8210523 C33.9645359,85.9834858 36.79643,86.7149191 39.6118588,87.8220264 L40.2366,88.0737491 L40.2366,88.0737491 L40.8569673,88.3349297 C40.9597845,88.3790862 41.0622598,88.4235156 41.1643134,88.4681572 L41.7709354,88.7380679 L41.7709354,88.7380679 L42.3636041,89.0101611 L42.3636041,89.0101611 L43.2180628,89.4160272 L43.2180628,89.4160272 L43.7590844,89.6808449 L43.7590844,89.6808449 L44.5181109,90.0621567 L44.5181109,90.0621567 L45.6112082,90.6309859 L45.6112082,90.6309859 L45.9770896,90.8266881 L45.9770896,90.8266881 L45.7151154,89.9575108 L45.7151154,89.9575108 L45.1893998,88.2459404 L45.1893998,88.2459404 L44.6614129,86.5699136 C44.2205058,85.1879784 43.777339,83.8428572 43.3321782,82.5340237 L42.7970451,80.9808079 L42.7970451,80.9808079 L42.2600996,79.4622261 L42.2600996,79.4622261 L41.7214438,77.9780761 L41.7214438,77.9780761 L41.1811796,76.5281557 C41.0008349,76.0505314 40.820239,75.5785784 40.6394091,75.1122629 L40.0962342,73.7301954 C40.0055937,73.5026584 39.914899,73.2765223 39.824152,73.051783 L39.2790618,71.7200744 C39.1881148,71.5009053 39.09712,71.2831244 39.0060793,71.0667278 L38.4593033,69.7849233 L38.4593033,69.7849233 L37.9115308,68.5361355 C37.3632941,67.3037888 36.8137157,66.1206638 36.2632546,64.9858509 L35.7125163,63.8671083 L35.7125163,63.8671083 L35.1612915,62.7803716 C34.5179518,61.5311037 33.8738271,60.3467683 33.2296461,59.225921 C31.4659309,56.1571306 29.8319604,53.8010469 28.3766474,52.0750501 C27.8727484,51.4774282 27.4287526,51.0022239 27.0555396,50.6439106 L26.8005084,50.4081625 L26.8005084,50.4081625 L26.6828802,50.3081328 L26.6828802,50.3081328 C26.6092067,50.258793 26.543161,50.1953407 26.4889902,50.118508 L26.4604999,50.0769877 L26.4604999,50.0769877 L26.4357081,50.0248607 L26.4357081,50.0248607 L26.3686016,49.8421978 L26.3686016,49.8421978 L26.3556049,49.7555409 L26.3609766,49.5766261 L26.3802434,49.5277253 L25.6036363,48.902234 L25.6036363,48.902234 L24.9775827,48.3805854 L24.9775827,48.3805854 L24.5404536,48.007333 L24.5404536,48.007333 L23.8564551,47.4085947 L23.8564551,47.4085947 L23.1400926,46.7624691 L23.1400926,46.7624691 L22.6454276,46.3049726 L22.6454276,46.3049726 L22.1377135,45.8257854 L22.1377135,45.8257854 L21.6174844,45.3246556 L21.6174844,45.3246556 L21.0852741,44.8013313 L21.0852741,44.8013313 L20.5416167,44.2555606 L20.5416167,44.2555606 L19.7058354,43.3942666 L19.7058354,43.3942666 L19.1358964,42.791278 L19.1358964,42.791278 L18.5563792,42.1649614 L18.5563792,42.1649614 L17.9678178,41.5150649 L17.9678178,41.5150649 L17.3707461,40.8413367 L17.3707461,40.8413367 L16.7656982,40.1435248 L16.7656982,40.1435248 L16.1532079,39.4213774 L16.1532079,39.4213774 L15.5338094,38.6746427 C15.4300303,38.5481239 15.3259856,38.4205702 15.2216864,38.2919763 L14.5929266,37.5078882 L14.5929266,37.5078882 L13.9585934,36.6985829 C13.8524365,36.5615833 13.7460695,36.4235225 13.6395037,36.2843952 L12.9978117,35.436792 L12.9978117,35.436792 L12.3518813,34.5633419 L12.3518813,34.5633419 L11.7022464,33.6637932 L11.7022464,33.6637932 L11.0494411,32.7378939 L11.0494411,32.7378939 L10.3939993,31.7853921 L10.3939993,31.7853921 L9.73645496,30.8060359 L9.73645496,30.8060359 L9.0773421,29.7995736 C8.63752934,29.1195072 8.19702688,28.4212022 7.75654668,27.7043225 L7.09593208,26.6150301 C6.10530222,24.9600691 5.11658725,23.210224 4.13789696,21.3616695 C-7.89109001,-1.35873518 9.80146592,-2.13486823 13.1381913,1.85095376 C15.5338733,4.69783192 17.746469,10.0140797 19.7485459,16.1717441 L20.1597558,17.4572156 C20.2277872,17.6732839 20.295566,17.8902191 20.3630911,18.1079546 L20.7651883,19.4234365 L20.7651883,19.4234365 L21.1611429,20.7549203 L21.1611429,20.7549203 L21.5509009,22.0992021 L21.5509009,22.0992021 L21.9344082,23.4530779 L21.9344082,23.4530779 L22.3116109,24.8133437 L22.3116109,24.8133437 L22.682455,26.1767956 L22.682455,26.1767956 L23.2266807,28.2209385 L23.2266807,28.2209385 L23.7562959,30.2542277 L23.7562959,30.2542277 L24.2711182,32.2658498 L24.2711182,32.2658498 L26.616961,41.6204832 L26.616961,41.6204832 L27.1763849,43.8054313 L27.1763849,43.8054313 L27.5771593,45.327751 L27.5771593,45.327751 L27.9616224,46.7382917 L27.9616224,46.7382917 L28.2087794,47.6112128 L28.2087794,47.6112128 L28.448552,48.4264444 L28.448552,48.4264444 L28.6808861,49.1807826 L28.6808861,49.1807826 L28.9057279,49.8710233 C29.0162667,50.1995853 29.1239756,50.5029093 29.2288243,50.7791931 L29.51457,51.1127459 L29.51457,51.1127459 C31.0287635,52.9085736 32.713354,55.3376487 34.5202656,58.4815986 C34.9037798,59.1488968 35.2871572,59.8381063 35.6702527,60.5495194 L35.4139387,59.422241 L35.4139387,59.422241 L35.1009787,57.9690438 L35.1009787,57.9690438 L34.8247643,56.6089814 L34.8247643,56.6089814 L34.6099958,55.492302 L34.6099958,55.492302 L34.4658618,54.7084685 L34.4658618,54.7084685 L34.3226235,53.8972593 L34.3226235,53.8972593 L34.1817039,53.062213 L34.1817039,53.062213 L34.0445256,52.2068684 L34.0445256,52.2068684 L33.9125112,51.3347643 C33.8910182,51.1882135 33.8697997,51.0411119 33.8488852,50.8935332 L33.7272846,50.0029248 C33.7077051,49.8537323 33.6884889,49.7042102 33.6696657,49.5544321 L33.56168,48.6532816 C33.3046916,46.3956752 33.1494689,44.1136505 33.1960484,42.0560252 C33.3784376,33.9990682 35.2571496,22.7607952 39.0349023,16.9860051 C42.722195,11.3488408 51.4806553,14.8245947 48.4965298,28.8638014 C48.4364603,29.146406 48.3737153,29.4309022 48.3084269,29.7170993 L48.1050633,30.5806029 L48.1050633,30.5806029 L47.8872311,31.4531682 C47.8497641,31.5992873 47.8117272,31.7457363 47.773137,31.8924914 L47.5350878,32.7765041 L47.5350878,32.7765041 L47.284551,33.6667185 L47.284551,33.6667185 L47.0223189,34.5619906 L47.0223189,34.5619906 L46.7491838,35.4611763 L46.7491838,35.4611763 L46.4659381,36.3631316 L46.4659381,36.3631316 L46.1733741,37.2667126 L46.1733741,37.2667126 L45.8722841,38.1707752 L45.8722841,38.1707752 L45.5634604,39.0741755 L45.5634604,39.0741755 L45.2476954,39.9757693 L45.2476954,39.9757693 L44.9257814,40.8744128 L44.9257814,40.8744128 L44.4331143,42.2143436 L44.4331143,42.2143436 L43.9310689,43.5412009 L43.9310689,43.5412009 L43.4223191,44.8511239 L43.4223191,44.8511239 L42.9095392,46.1402515 L42.9095392,46.1402515 L42.3954033,47.4047226 L42.3954033,47.4047226 L41.7124013,49.0456563 L41.7124013,49.0456563 L41.0380812,50.6267402 L41.0380812,50.6267402 L40.2170464,52.5049889 L40.2170464,52.5049889 L39.5854362,53.9179488 L39.5854362,53.9179488 L38.9831085,55.2413149 L38.9831085,55.2413149 L38.1483872,57.0383554 L38.1483872,57.0383554 L37.4152064,58.5823296 L37.4152064,58.5823296 L36.3390376,60.7875262 L36.3390376,60.7875262 L36.076453,61.3123847 L36.076453,61.3123847 C36.9806509,63.0296077 37.8829899,64.8712404 38.7815564,66.8411386 L39.3202284,68.0385002 C39.4099265,68.2406361 39.499583,68.4440623 39.5891961,68.6487828 L40.1263377,69.892667 L40.1263377,69.892667 L40.6623444,71.1677976 L40.6623444,71.1677976 L41.1971241,72.4743597 C41.7312598,73.7966993 42.2634174,75.1664638 42.7931837,76.5844859 L43.3221374,78.0186248 L43.3221374,78.0186248 L43.8494051,79.4851207 C44.0248698,79.979366 44.2000381,80.479035 44.3748948,80.9841585 L44.8985146,82.5159233 C45.1598418,83.2900184 45.4204333,84.0764555 45.6802376,84.8753387 L46.198781,86.489731 C46.3712687,87.0334139 46.5433912,87.5826593 46.7151331,88.137498 L47.2292021,89.818825 C47.3146849,90.1018532 47.4000688,90.3862873 47.4853517,90.6721314 L47.9958238,92.4041453 C48.0806956,92.6956443 48.1654627,92.988561 48.2501232,93.2828991 L48.7567916,95.0660164 C48.841018,95.3660558 48.925134,95.6675244 49.0091376,95.970426 L49.5117957,97.8050631 L49.5117957,97.8050631 C51.2387218,104.184033 52.6848252,111.082036 53.8668615,118.444296 L53.9498542,115.183632 L53.9498542,115.183632 L54.0547132,111.657232 L54.0547132,111.657232 L54.1735846,108.252807 L54.1735846,108.252807 L54.2735658,105.799095 L54.2735658,105.799095 L54.3858076,103.440547 L54.3858076,103.440547 L54.4589274,102.112751 L54.4589274,102.112751 L54.5363084,100.876889 L54.5363084,100.876889 L54.5902348,100.114736 L54.5902348,100.114736 C54.6109332,99.8383953 54.636793,99.5624689 54.6675915,99.2873602 L54.7357076,98.7383523 C54.7854203,98.3732332 54.8436491,98.0100456 54.9098662,97.6497457 L55.0151169,97.1115811 L55.0151169,97.1115811 L55.1319541,96.5784651 L55.1319541,96.5784651 L55.2599819,96.0511149 L55.2599819,96.0511149 L55.3988044,95.5302474 L55.3988044,95.5302474 L55.5480258,95.01658 C55.5737406,94.9316085 55.5998722,94.846967 55.6264123,94.7626703 L55.7904896,94.2611472 L55.7904896,94.2611472 L55.9639761,93.7686169 L55.9639761,93.7686169 L56.1464758,93.2857963 C56.2087672,93.1265541 56.2724949,92.9690497 56.3375929,92.8134026 L56.5369315,92.3521529 C56.5708177,92.2762464 56.60503,92.2008342 56.6395601,92.1259311 L56.8504887,91.6827419 C56.9220255,91.5371285 56.9947676,91.3936712 57.0686491,91.2524895 L57.2936454,90.8358909 C57.3316924,90.7676354 57.3700078,90.6999788 57.4085833,90.6329359 L57.6430912,90.2381626 C57.9993368,89.6574083 58.3753134,89.1287863 58.7650086,88.6631874 L59.0267718,88.3622445 C61.180025,85.9827463 63.7003215,85.5431203 65.6173557,88.8009958 C67.5590184,92.0953101 66.3846311,97.2662155 64.1595022,102.441289 L63.8181105,103.217347 L63.8181105,103.217347 L63.4625066,103.992063 L63.4625066,103.992063 L63.0942395,104.764033 L63.0942395,104.764033 L62.7148583,105.531853 C62.650788,105.659399 62.5863191,105.786714 62.521484,105.913768 L62.1283358,106.672729 L62.1283358,106.672729 L61.727946,107.424029 C61.6606969,107.548529 61.5932106,107.672651 61.5255194,107.796367 L61.1171713,108.533542 L61.1171713,108.533542 L60.7054539,109.259545 L60.7054539,109.259545 L60.2919163,109.972971 L60.2919163,109.972971 L59.8781073,110.672417 L59.8781073,110.672417 L59.2602735,111.6923 L59.2602735,111.6923 L58.6505423,112.672828 L58.6505423,112.672828 L58.2511379,113.302308 L58.2511379,113.302308 L57.6665283,114.20671 L57.6665283,114.20671 L56.9222422,115.330879 L56.9222422,115.330879 L56.2295363,116.35138 L56.2295363,116.35138 L55.4550666,117.464105 L55.4550666,117.464105 L54.4842344,118.816258 L54.4842344,118.816258 L54.0243332,119.437821 L54.0243332,119.437821 Z" id="Plant-path" fill="#E78631"></path>
                <path d="M34.4622552,62.6200958 L34.8284024,62.7242837 L34.8284024,62.7242837 L34.294073,63.3374843 L34.294073,63.3374843 L33.5240245,64.1848525 L33.5240245,64.1848525 L32.787246,64.9673165 L32.787246,64.9673165 L32.2754898,65.4967497 L32.2754898,65.4967497 L31.5165186,66.2624109 L31.5165186,66.2624109 L30.8927397,66.8750962 L30.8927397,66.8750962 L30.2247074,67.5152669 L30.2247074,67.5152669 L29.5146754,68.1780065 L29.5146754,68.1780065 L29.0191005,68.6299432 L29.0191005,68.6299432 L28.5065286,69.0882688 L28.5065286,69.0882688 L27.9776274,69.5515264 L27.9776274,69.5515264 L27.4330648,70.0182594 L27.4330648,70.0182594 L26.8735084,70.4870109 L26.8735084,70.4870109 L26.2996262,70.9563243 L26.2996262,70.9563243 L25.7120858,71.4247428 L25.7120858,71.4247428 L25.111555,71.8908097 C25.0104212,71.9682106 24.9087738,72.0454529 24.806627,72.1225061 L24.1878628,72.5823142 C24.0837735,72.6584899 23.9792125,72.7344159 23.8741937,72.8100618 L23.2386986,73.2603335 C19.5008971,75.8644807 15.2363861,78.0511819 11.0416504,78.5192416 C5.54805203,79.1331705 5.75027484,75.1118694 8.6606708,70.9459601 L8.96062699,70.5290534 L8.96062699,70.5290534 L9.27797374,70.1121806 C9.33227719,70.0427601 9.38727759,69.9733826 9.4429611,69.9040688 L9.78514885,69.4891179 C9.96023074,69.2821915 10.1412117,69.0762133 10.3277182,68.8717446 L10.707988,68.4649865 C10.7725573,68.3975843 10.8377129,68.3303915 10.903441,68.2634288 L11.3045682,67.86458 L11.3045682,67.86458 L11.7187706,67.4722515 C11.788857,67.4074622 11.8594606,67.3429862 11.9305674,67.2788442 L12.3631375,66.8981673 C12.4362022,66.8354447 12.5097426,66.7730977 12.5837448,66.7111471 L13.0331888,66.3443671 C13.260571,66.1635219 13.4918605,65.9866187 13.7266837,65.8142188 L14.2009314,65.4755898 C15.1584075,64.811006 16.1684412,64.2244627 17.2071312,63.751885 C20.9144424,62.0659421 24.7245395,61.6503648 27.8491892,61.7198065 L28.4095787,61.737602 C28.5016596,61.7414004 28.5930672,61.7456005 28.6837796,61.7501804 L29.2195356,61.7820428 L29.2195356,61.7820428 L29.7375533,61.8219719 L29.7375533,61.8219719 L30.2367799,61.8689187 L30.2367799,61.8689187 L30.7161624,61.9218343 L30.7161624,61.9218343 L31.3957258,62.0101046 L31.3957258,62.0101046 L32.0247182,62.1059042 L32.0247182,62.1059042 L32.4141967,62.1722053 L32.4141967,62.1722053 L33.1167766,62.3059305 L33.1167766,62.3059305 L33.7105017,62.4341597 L33.7105017,62.4341597 L34.4622552,62.6200958 L34.4622552,62.6200958 Z" id="Plant-path" fill="#3EB660"></path>
                <path d="M46.4468303,79.9613435 L44.7860186,81.665062 L44.7860186,81.665062 L44.9249164,80.4783901 L44.9249164,80.4783901 L45.0739439,79.3503193 L45.0739439,79.3503193 L45.2417097,78.1876473 L45.2417097,78.1876473 L45.3620087,77.407889 L45.3620087,77.407889 L45.5459447,76.2873487 L45.5459447,76.2873487 L45.7019399,75.3956624 L45.7019399,75.3956624 L45.8737353,74.4680486 L45.8737353,74.4680486 L46.0616319,73.5117322 L46.0616319,73.5117322 L46.1959902,72.86181 L46.1959902,72.86181 L46.3377276,72.204483 L46.3377276,72.204483 L46.4869333,71.5418918 L46.4869333,71.5418918 L46.6436966,70.8761773 C46.6704586,70.7650835 46.6975391,70.6539488 46.7249402,70.5428178 L46.8932071,69.8764321 L46.8932071,69.8764321 L47.0692545,69.2122748 L47.0692545,69.2122748 L47.2531717,68.5524868 L47.2531717,68.5524868 L47.4450479,67.8992086 C47.4776955,67.7909904 47.5106784,67.6831326 47.5439986,67.5756798 L47.7479805,66.9361804 L47.7479805,66.9361804 L47.9601445,66.3085428 C48.0322394,66.1015451 48.1057129,65.8968812 48.1805797,65.6949078 C48.2292432,65.563625 48.2816676,65.4292976 48.3376993,65.2921598 L48.5164628,64.8725499 C48.5795556,64.730026 48.6461021,64.5849261 48.7159486,64.4374847 L48.935235,63.9883704 C48.9733815,63.9124254 49.0123147,63.8359537 49.0520153,63.7589845 L49.2992742,63.291434 C49.3419677,63.2125921 49.3853901,63.1333114 49.4295224,63.0536211 L49.7026801,62.5707989 L49.7026801,62.5707989 L49.9919515,62.0795538 L49.9919515,62.0795538 L50.2964148,61.5812922 L50.2964148,61.5812922 L50.6151484,61.0774205 C50.6694087,60.9930525 50.7242251,60.9085094 50.7795786,60.8238205 L51.1179894,60.3141709 L51.1179894,60.3141709 L51.6477538,59.5462103 L51.6477538,59.5462103 L52.0143514,59.0339634 L52.0143514,59.0339634 L52.3906107,58.5231389 L52.3906107,58.5231389 L52.77561,58.0151433 L52.77561,58.0151433 L53.1684277,57.5113831 L53.1684277,57.5113831 L53.5681418,57.0132648 L53.5681418,57.0132648 L53.9738309,56.5221948 L53.9738309,56.5221948 L54.3845731,56.0395797 L54.3845731,56.0395797 L54.7994467,55.5668259 L54.7994467,55.5668259 L55.2175301,55.10534 L55.2175301,55.10534 L55.6379015,54.6565283 L55.6379015,54.6565283 L56.0596392,54.2217974 C56.1299915,54.1505938 56.2003623,54.0800355 56.2707324,54.0101518 L56.6927914,53.5991792 C56.9036632,53.397975 57.1141833,53.2033696 57.3238331,53.0161543 L57.741819,52.6518114 C60.7962868,50.0556598 63.5892134,49.1626414 64.4848682,52.4688008 C65.2176767,55.1738403 62.8698922,59.7150868 59.5645696,64.4198982 L59.0051805,65.2052611 L59.0051805,65.2052611 L58.4302434,65.9919321 C58.3332462,66.1230574 58.2356922,66.2541654 58.1376269,66.3852205 L57.5434632,67.1706272 L57.5434632,67.1706272 L56.9392121,67.95304 L56.9392121,67.95304 L56.3270577,68.7307382 L56.3270577,68.7307382 L55.7091844,69.5020007 L55.7091844,69.5020007 L55.0877762,70.2651069 L55.0877762,70.2651069 L54.4650174,71.0183358 L54.4650174,71.0183358 L53.8430923,71.7599667 L53.8430923,71.7599667 L53.224185,72.4882788 L53.224185,72.4882788 L52.3062605,73.5520097 L52.3062605,73.5520097 L51.7044537,74.2394959 L51.7044537,74.2394959 L50.8224185,75.2339218 L50.8224185,75.2339218 L49.6964318,76.4820887 L49.6964318,76.4820887 L48.8990429,77.3523846 L48.8990429,77.3523846 L47.68162,78.6602803 L47.68162,78.6602803 L46.4468303,79.9613435 L46.4468303,79.9613435 Z" id="Plant-path" fill="#3EB660"></path>
                <path d="M50.944267,112.902135 L51.4484489,113.647824 L51.4484489,113.647824 L51.1508671,113.692223 L51.1508671,113.692223 L50.6106287,113.759595 L50.6106287,113.759595 L50.0111947,113.81992 L50.0111947,113.81992 L49.4769076,113.862365 L49.4769076,113.862365 L48.8791872,113.897733 L48.8791872,113.897733 L48.4495445,113.915302 L48.4495445,113.915302 L47.9978268,113.926608 L47.9978268,113.926608 L47.5264812,113.930403 L47.5264812,113.930403 L47.0379547,113.925441 C46.872521,113.922188 46.7046316,113.917268 46.5346945,113.910473 L46.0191474,113.884253 C45.8455225,113.873499 45.6702576,113.860662 45.4937607,113.845533 L44.9609813,113.793067 C43.8896612,113.673556 42.7886676,113.46408 41.7460946,113.119737 C37.4020403,111.684975 33.1224571,103.871366 37.3100816,101.181643 C38.7686922,100.244774 40.9265021,101.47299 43.1194655,103.471694 L43.5441707,103.867787 L43.5441707,103.867787 L43.9686839,104.280874 C44.0393606,104.351014 44.1099848,104.421768 44.1805341,104.493089 L44.6027532,104.927456 L44.6027532,104.927456 L45.0221054,105.373201 L45.0221054,105.373201 L45.4375209,105.828077 L45.4375209,105.828077 L45.8479297,106.289836 L45.8479297,106.289836 L46.2522619,106.756231 L46.2522619,106.756231 L46.6494476,107.225016 L46.6494476,107.225016 L47.0384168,107.693944 L47.0384168,107.693944 L47.4180997,108.160767 L47.4180997,108.160767 L48.1453265,109.079112 L48.1453265,109.079112 L48.8225686,109.962076 L48.8225686,109.962076 L49.4412667,110.791681 L49.4412667,110.791681 L50.119272,111.726267 L50.119272,111.726267 L50.944267,112.902135 L50.944267,112.902135 Z" id="Plant-path" fill="#3EB660"></path>
            </g>
        </g>
    </g>
</svg>