<?xml version="1.0" encoding="UTF-8"?>
<svg width="24px" height="24px" viewBox="0 0 24 24" version="1.1" xmlns="http://www.w3.org/2000/svg" xmlns:xlink="http://www.w3.org/1999/xlink">
    <title>9948C27F-7591-40EC-9D05-A4A386F2934D</title>
    <g id="style-guide" stroke="none" stroke-width="1" fill="none" fill-rule="evenodd">
        <g id="icon-sheet" transform="translate(-500.000000, -154.000000)">
            <g id="icon" transform="translate(500.000000, 154.000000)">
                <polygon id="Container" points="0 0 24 0 24 24 0 24"></polygon>
                <path d="M3.06904232,10.1514477 L17.6792873,10.1514477 L17.6792873,11.9777283 L17.6792873,13.8040089 L3.06904232,13.8040089 C2.4766147,13.8040089 2,13.3140312 2,12.7069042 L2,11.2449889 C1.99607799,10.9580149 2.10666389,10.681306 2.30729219,10.47608 C2.50792049,10.2708539 2.78205315,10.1540278 3.06904232,10.1514477 Z" id="Path" fill="#FFFFFF" fill-rule="nonzero"></path>
                <path d="M12.9714922,2.29042316 C12.9821826,2.30066815 12.9928731,2.31135857 13.003118,2.322049 L21.6436526,11.2008909 C22.0617234,11.6326826 22.0617234,12.3183196 21.6436526,12.7501114 L13.0022272,21.6334076 C12.8110138,21.8335234 12.5480043,21.9492897 12.271283,21.95514 C11.9945618,21.9609904 11.7268945,21.8564434 11.5273942,21.664588 C11.5167038,21.6547884 11.5064588,21.644098 11.4962138,21.6334076 L10.5104677,20.6191537 C10.0887936,20.1790673 10.0967137,19.4825007 10.5282851,19.0521158 L17.6877506,11.9777283 L10.5282851,4.90423163 C10.0921601,4.47577709 10.0841973,3.77545382 10.5104677,3.33719376 L11.4971047,2.32249443 C11.6881816,2.12239301 11.9510308,2.00655122 12.2276439,2.00053426 C12.5042569,1.9945173 12.7718948,2.09881979 12.9714922,2.29042316 Z" id="Path" fill="#FFFFFF" fill-rule="nonzero"></path>
            </g>
        </g>
    </g>
</svg>