<?xml version="1.0" encoding="UTF-8"?>
<svg width="32px" height="32px" viewBox="0 0 32 32" version="1.1" xmlns="http://www.w3.org/2000/svg" xmlns:xlink="http://www.w3.org/1999/xlink">
    <title>AFDD06A4-2973-4FAA-A790-2DA416A32206</title>
    <g id="style-guide" stroke="none" stroke-width="1" fill="none" fill-rule="evenodd">
        <g id="icon-sheet" transform="translate(-422.000000, -302.000000)">
            <g id="icon" transform="translate(422.000000, 302.000000)">
                <polygon id="Container" points="0 0 32 0 32 32 0 32"></polygon>
                <path d="M2.49992023,19.3750463 L2.49992023,12.6251811 C2.49992023,12.0038731 3.00359976,11.5002035 3.62491693,11.5002035 L8.40895501,11.5002035 L12.5808087,7.33075552 C13.2839301,6.62764455 14.5026739,7.12029097 14.5026739,8.12761461 L14.5026739,23.8749565 C14.5026739,24.8799365 13.2867426,25.3749266 12.5808087,24.6718156 L8.40895501,20.5023676 L3.62491693,20.5023676 C3.32614338,20.5023682 3.03964093,20.3835225 2.82859608,20.1720411 C2.61755122,19.9605597 2.49930023,19.6738148 2.49992023,19.3750463 Z" id="Path" fill="#FFFFFF" fill-rule="nonzero"></path>
                <path d="M18.354373,12.3969044 C18.0021891,12.20298 17.5732987,12.2116716 17.2292609,12.4197051 C16.885223,12.6277386 16.6783051,13.0035088 16.6864511,13.4054667 C16.6945972,13.8074246 16.9165696,14.1745032 17.2687535,14.3684275 C17.8722378,14.6891251 18.2494365,15.3167182 18.2494365,16.0001137 C18.2494365,16.6835092 17.8722378,17.3111023 17.2687535,17.6317999 C16.9165696,17.8257242 16.6945972,18.1928028 16.6864511,18.5947607 C16.6783051,18.9967186 16.885223,19.3724888 17.2292609,19.5805223 C17.5732987,19.7885558 18.0021891,19.7972474 18.354373,19.603323 C19.6765419,18.8868921 20.5001389,17.503893 20.5001389,16.0001137 C20.5001389,14.4963345 19.6765419,13.1133354 18.354373,12.3969044 L18.354373,12.3969044 Z M24.9998203,16.0001137 C25.0046623,13.0308921 23.4870631,10.2664503 20.9793596,8.6765099 C20.7274829,8.51566959 20.4217825,8.46213066 20.1302351,8.52779826 C19.8386878,8.59346587 19.5854625,8.77289621 19.4268675,9.02619042 C19.0944135,9.55451536 19.2493452,10.252011 19.7742095,10.5899092 C21.6270511,11.7648286 22.7497756,13.8061776 22.7497756,16.0001137 C22.7497756,18.1940498 21.6270511,20.2353989 19.7742095,21.4103182 C19.2491194,21.7480591 19.0941424,22.4457591 19.4268675,22.974037 C19.5858064,23.2269325 19.8390118,23.4060286 20.1304079,23.4716621 C20.421804,23.5372957 20.7273432,23.4840501 20.9793596,23.3237175 C23.4871966,21.7339024 25.0048396,18.9693807 24.9998203,16.0001137 L24.9998203,16.0001137 Z M23.5162216,4.93783454 C23.1774177,4.71202016 22.7435761,4.68510313 22.3794566,4.86730572 C22.0153371,5.04950831 21.7767984,5.41287926 21.7544302,5.81942142 C21.732062,6.22596357 21.9292957,6.6133103 22.271228,6.83435918 C25.3660768,8.85712225 27.2314644,12.3047769 27.2314644,16.0019887 C27.2314644,19.6992005 25.3660768,23.1468551 22.271228,25.1696182 C21.9089051,25.3813095 21.6930479,25.7757269 21.7100506,26.1950098 C21.7270532,26.6142926 21.9741378,26.9899375 22.3524118,27.1715972 C22.7306858,27.3532568 23.1783459,27.3112514 23.5162216,27.0623929 C27.250795,24.6209233 29.5016746,20.4602438 29.5016746,15.9984731 C29.5016746,11.5367024 27.250795,7.37602295 23.5162216,4.93455335 L23.5162216,4.93783454 Z" id="Shape" fill="#FFFFFF" fill-rule="nonzero"></path>
            </g>
        </g>
    </g>
</svg>