<?xml version="1.0" encoding="UTF-8"?>
<svg width="32px" height="32px" viewBox="0 0 32 32" version="1.1" xmlns="http://www.w3.org/2000/svg" xmlns:xlink="http://www.w3.org/1999/xlink">
    <title>EB3F5825-F8CB-40FB-A113-E91D931BB61C</title>
    <g id="style-guide" stroke="none" stroke-width="1" fill="none" fill-rule="evenodd">
        <g id="icon-sheet" transform="translate(-126.000000, -150.000000)" fill-rule="nonzero">
            <g id="icon" transform="translate(126.000000, 150.000000)">
                <path d="M32,16 C32,24.8365806 24.8365806,32 16,32 C7.16341935,32 0,24.8365806 0,16 C0,7.16341935 7.16341935,0 16,0 C24.8365806,0 32,7.16341935 32,16 Z" id="Path" fill="#1B8338"></path>
                <path d="M14.1492903,23.9718706 L26.0202581,12.1009029 C26.4233548,11.6978061 26.4233548,11.0441932 26.0202581,10.6410964 L24.5604516,9.18128997 C24.1573548,8.77812868 23.5037419,8.77812868 23.1005806,9.18128997 L13.4193548,18.8624513 L8.89941935,14.3425158 C8.49632258,13.939419 7.84270968,13.939419 7.43954839,14.3425158 L5.97974194,15.8023222 C5.57664516,16.205419 5.57664516,16.8590319 5.97974194,17.2621287 L12.6894194,23.9718061 C13.0925806,24.3749674 13.746129,24.3749674 14.1492903,23.9718706 L14.1492903,23.9718706 Z" id="Path" fill="#FFFFFF"></path>
            </g>
        </g>
    </g>
</svg>