<?xml version="1.0" encoding="UTF-8"?>
<svg width="24px" height="24px" viewBox="0 0 24 24" version="1.1" xmlns="http://www.w3.org/2000/svg" xmlns:xlink="http://www.w3.org/1999/xlink">
    <title>4C7A7F76-90F0-4500-B836-14DDC1718415</title>
    <g id="style-guide" stroke="none" stroke-width="1" fill="none" fill-rule="evenodd">
        <g id="icon-sheet" transform="translate(-352.000000, -154.000000)">
            <g id="icon" transform="translate(352.000000, 154.000000)">
                <polygon id="Container" points="0 0 24 0 24 24 0 24"></polygon>
                <path d="M3.42829089,3 L5.12039679,3 C5.23760087,3 5.34973861,3.0478044 5.43067005,3.13263552 C5.51160148,3.21746665 5.55425495,3.33177998 5.54868768,3.4489284 L5.40592405,6.40463976 C7.0859612,4.42361365 9.55214245,3.28285317 12.1486502,3.28571428 C17.0261696,3.28571428 21.0035643,7.26892461 21,12.1496341 C20.9964261,17.0382006 17.0347354,21 12.1486502,21 C9.956856,21.00308 7.84244279,20.1893808 6.21753528,18.7174847 C6.12980736,18.638922 6.07826591,18.5276878 6.07502502,18.4099261 C6.07178413,18.2921643 6.11712961,18.1782602 6.20040364,18.0949853 L7.41389449,16.8807008 C7.5732576,16.7212746 7.82882015,16.7126879 7.99851155,16.861058 C9.96186204,18.5895609 12.7899915,18.9200961 15.0985721,17.6908714 C17.4071527,16.4616466 18.7131918,13.9298359 18.3774023,11.3347233 C18.0416128,8.73961065 16.1342474,6.6241361 13.5889335,6.02379332 C11.0436196,5.42345054 8.39287837,6.46384105 6.9342087,8.63570897 L10.5579065,8.46178057 C10.6749783,8.45620966 10.789217,8.49889103 10.8739926,8.57987539 C10.9587683,8.66085976 11.0066735,8.77307085 11.0065412,8.89035158 L11.0065412,10.5835642 C11.0065412,10.8202574 10.8147888,11.0121352 10.5782503,11.0121352 L3.42829089,11.0121352 C3.19175236,11.0121352 3,10.8202574 3,10.5835642 L3,3.42857128 C3,3.19187805 3.19175236,3 3.42829089,3 Z" id="Path" fill="#35374C" fill-rule="nonzero"></path>
            </g>
        </g>
    </g>
</svg>