<?xml version="1.0" encoding="UTF-8"?>
<svg width="48px" height="48px" viewBox="0 0 48 48" version="1.1" xmlns="http://www.w3.org/2000/svg" xmlns:xlink="http://www.w3.org/1999/xlink">
    <title>6B6BEE4C-6C5B-47EC-9C4F-5B27B8471243</title>
    <g id="style-guide" stroke="none" stroke-width="1" fill="none" fill-rule="evenodd">
        <g id="icon-sheet" transform="translate(-710.000000, -218.000000)" fill-rule="nonzero">
            <g id="icon" transform="translate(710.000000, 218.000000)">
                <path d="M24,0 C10.7419355,0 0,10.7419355 0,24 C0,37.2580645 10.7419355,48 24,48 C37.2580645,48 48,37.2580645 48,24 C48,10.7419355 37.2580645,0 24,0 Z" id="Path" fill="#0056B3"></path>
                <path d="M33.2903226,31.7419355 C33.2903226,32.5935484 32.5935484,33.2903226 31.7419355,33.2903226 L16.2580645,33.2903226 C15.4064516,33.2903226 14.7096774,32.5935484 14.7096774,31.7419355 L14.7096774,16.2580645 C14.7096774,15.4064516 15.4064516,14.7096774 16.2580645,14.7096774 L31.7419355,14.7096774 C32.5935484,14.7096774 33.2903226,15.4064516 33.2903226,16.2580645 L33.2903226,31.7419355 Z" id="Path" fill="#FFFFFF"></path>
            </g>
        </g>
    </g>
</svg>