<?xml version="1.0" encoding="UTF-8"?>
<svg width="32px" height="32px" viewBox="0 0 32 32" version="1.1" xmlns="http://www.w3.org/2000/svg" xmlns:xlink="http://www.w3.org/1999/xlink">
    <title>838DD17A-8372-43A0-B45A-BBA248E217AD</title>
    <g id="style-guide" stroke="none" stroke-width="1" fill="none" fill-rule="evenodd">
        <g id="icon-sheet" transform="translate(-348.000000, -302.000000)">
            <g id="icon" transform="translate(348.000000, 302.000000)">
                <polygon id="Container" points="0 0 32 0 32 32 0 32"></polygon>
                <path d="M19.4268675,9.02619042 C19.5854625,8.77289621 19.8386878,8.59346587 20.1302351,8.52779826 C20.4217825,8.46213066 20.7274829,8.51566959 20.9793596,8.6765099 C24.8543037,11.1440208 26.1382836,16.2018116 23.9095009,20.2187795 L22.0977914,18.817245 C23.5333694,15.8834224 22.5324425,12.3393418 19.7742095,10.5899092 C19.2493452,10.252011 19.0944135,9.55451536 19.4268675,9.02619042 L19.4268675,9.02619042 Z M22.271228,6.83295295 C27.1822106,10.0440361 28.6909786,16.5543768 25.6930855,21.5982832 L27.4987013,22.9941928 C31.2994497,16.8933881 29.5306802,8.87387826 23.5162216,4.93783454 C23.1774177,4.71202016 22.7435761,4.68510313 22.3794566,4.86730572 C22.0153371,5.04950831 21.7767984,5.41287926 21.7544302,5.81942142 C21.732062,6.22596357 21.9292957,6.6133103 22.271228,6.83435918 L22.271228,6.83295295 Z M17.2687535,14.3684275 C17.8169198,14.6656189 18.1814763,15.2158714 18.2414048,15.8365232 L20.2532695,17.3918047 C20.4160285,16.9458467 20.4994746,16.4748431 20.4998308,16.0001137 C20.4949493,14.49776 19.6726239,13.1171792 18.3539042,12.3973731 C18.0017203,12.2034488 17.57283,12.2121404 17.2287921,12.4201739 C16.8847542,12.6282074 16.6778363,13.0039776 16.6859824,13.4059355 C16.6941284,13.8078933 16.9161009,14.1749719 17.2682848,14.3688963 L17.2687535,14.3684275 Z M14.4998614,12.9448622 L14.4998614,8.12527091 C14.4998614,7.11935349 13.2811176,6.62530085 12.5779962,7.32841181 L10.2483206,9.65758407 L14.4998614,12.9448622 Z M2.49992267,12.6251811 L2.49992267,19.3750463 C2.49992267,19.9963543 3.00359976,20.5000239 3.62491693,20.5000239 L8.40895501,20.5000239 L12.5779962,24.6718156 C13.2811176,25.3749266 14.4998614,24.8813427 14.4998614,23.8749565 L14.4998614,20.5281483 L3.05116986,11.6801999 C2.72773401,11.8775398 2.49992267,12.2183142 2.49992267,12.6251811 Z" id="Shape" fill="#35374C" fill-rule="nonzero"></path>
                <path d="M28.8688506,27.8419086 L1.28961635,6.52686531 C0.962686772,6.27262487 0.903718799,5.80151764 1.15789827,5.47454257 L2.07804982,4.29003497 C2.20016279,4.13276473 2.37980332,4.03050689 2.57737802,4.00579943 C2.77495273,3.98109196 2.9742434,4.03596303 3.1313257,4.15831885 L30.7100912,25.4733621 C31.0371716,25.7274609 31.0963518,26.1985869 30.842278,26.5256848 L29.9216577,27.7101925 C29.7995543,27.8673258 29.6200071,27.9694913 29.4225469,27.9941955 C29.2250867,28.0188996 29.0259032,27.9641168 28.8688506,27.8419086 Z" id="Path" fill="#35374C" fill-rule="nonzero"></path>
            </g>
        </g>
    </g>
</svg>