<?xml version="1.0" encoding="UTF-8"?>
<svg width="32px" height="32px" viewBox="0 0 32 32" version="1.1" xmlns="http://www.w3.org/2000/svg" xmlns:xlink="http://www.w3.org/1999/xlink">
    <title>F5947D4D-9BD8-40E7-8691-63F638606F95</title>
    <g id="style-guide" stroke="none" stroke-width="1" fill="none" fill-rule="evenodd">
        <g id="icon-sheet" transform="translate(-274.000000, -150.000000)" fill-rule="nonzero">
            <g id="icon" transform="translate(274.000000, 150.000000)">
                <path d="M16,0 C7.16129032,0 0,7.16645161 0,16 C0,24.8335484 7.16129032,32 16,32 C24.8387097,32 32,24.8387097 32,16 C32,7.16129032 24.8387097,0 16,0 Z" id="Path" fill="#D93025"></path>
                <path d="M17.44,7.74193548 L14.56,7.74193548 C14.2683894,7.74193548 13.9903896,7.86530491 13.7947088,8.08151254 C13.599028,8.29772018 13.5039244,8.58660708 13.5329032,8.87677419 L14.3587097,17.1348387 C14.4114137,17.6625689 14.855451,18.0645161 15.3858065,18.0645161 L16.6116129,18.0645161 C17.1419683,18.0645161 17.5860056,17.6625689 17.6387097,17.1348387 L18.4645161,8.87677419 C18.4934513,8.5870537 18.3986866,8.29858681 18.2035772,8.08246754 C18.0084678,7.86634827 17.7311609,7.74267787 17.44,7.74193548 Z" id="Path" fill="#FFFFFF"></path>
                <path d="M16,20.1290323 C14.8597992,20.1290323 13.9354839,21.0533476 13.9354839,22.1935484 C13.9354839,23.3337492 14.8597992,24.2580645 16,24.2580645 C17.1402008,24.2580645 18.0645161,23.3337492 18.0645161,22.1935484 C18.0645161,21.0533476 17.1402008,20.1290323 16,20.1290323 Z" id="Path" fill="#FFFFFF"></path>
            </g>
        </g>
    </g>
</svg>