<?xml version="1.0" encoding="UTF-8"?>
<svg width="16px" height="16px" viewBox="0 0 16 16" version="1.1" xmlns="http://www.w3.org/2000/svg" xmlns:xlink="http://www.w3.org/1999/xlink">
    <title>3E768421-940C-4BC4-8FC2-C44AD874E514</title>
    <g id="Sim-028---K5-Earth's-Landforms" stroke="none" stroke-width="1" fill="none" fill-rule="evenodd">
        <g id="hotspot-selected" transform="translate(-588.000000, -236.000000)">
            <g id="Line-one-para" transform="translate(564.000000, 236.000000)">
                <g id="icon" transform="translate(24.000000, 0.000000)">
                    <polygon id="Container" points="0 0 16 0 16 16 0 16"></polygon>
                    <path d="M1.24996011,9.68752317 L1.24996011,6.31259054 C1.24996011,6.00193657 1.50179988,5.75010177 1.81245846,5.75010177 L4.2044775,5.75010177 L6.29040436,3.66537776 C6.64196506,3.31382228 7.25133695,3.56014548 7.25133695,4.06380731 L7.25133695,11.9374783 C7.25133695,12.4399682 6.6433713,12.6874633 6.29040436,12.3359078 L4.2044775,10.2511838 L1.81245846,10.2511838 C1.66307169,10.2511841 1.51982046,10.1917612 1.41429804,10.0860205 C1.30877561,9.98027986 1.24965011,9.8369074 1.24996011,9.68752317 Z" id="Path" fill="#35374C" fill-rule="nonzero"></path>
                    <path d="M9.1771865,6.19845219 C9.00109453,6.10149001 8.78664937,6.10583581 8.61463043,6.20985257 C8.44261149,6.31386932 8.33915254,6.50175442 8.34322557,6.70273336 C8.34729859,6.90371229 8.4582848,7.08725159 8.63437677,7.18421377 C8.93611891,7.34456255 9.12471825,7.65835911 9.12471825,8.00005685 C9.12471825,8.3417546 8.93611891,8.65555116 8.63437677,8.81589994 C8.4582848,8.91286212 8.34729859,9.09640142 8.34322557,9.29738035 C8.33915254,9.49835929 8.44261149,9.68624439 8.61463043,9.79026114 C8.78664937,9.8942779 9.00109453,9.8986237 9.1771865,9.80166152 C9.83827095,9.44344603 10.2500694,8.75194648 10.2500694,8.00005685 C10.2500694,7.24816723 9.83827095,6.55666768 9.1771865,6.19845219 L9.1771865,6.19845219 Z M12.4999101,8.00005685 C12.5023311,6.51544603 11.7435316,5.13322517 10.4896798,4.33825495 C10.3637415,4.25783479 10.2108913,4.23106533 10.0651176,4.26389913 C9.91934389,4.29673293 9.79273125,4.38644811 9.71343376,4.51309521 C9.54720677,4.77725768 9.62467258,5.12600548 9.88710475,5.2949546 C10.8135256,5.88241428 11.3748878,6.90308881 11.3748878,8.00005685 C11.3748878,9.0970249 10.8135256,10.1176994 9.88710475,10.7051591 C9.6245597,10.8740295 9.54707118,11.2228795 9.71343376,11.4870185 C9.7929032,11.6134662 9.9195059,11.7030143 10.065204,11.7358311 C10.210902,11.7686478 10.3636716,11.7420251 10.4896798,11.6618588 C11.7435983,10.8669512 12.5024198,9.48469034 12.4999101,8.00005685 L12.4999101,8.00005685 Z M11.7581108,2.46891727 C11.5887088,2.35601008 11.371788,2.34255157 11.1897283,2.43365286 C11.0076685,2.52475415 10.8883992,2.70643963 10.8772151,2.90971071 C10.866031,3.11298179 10.9646478,3.30665515 11.135614,3.41717959 C12.6830384,4.42856113 13.6157322,6.15238844 13.6157322,8.00099434 C13.6157322,9.84960023 12.6830384,11.5734275 11.135614,12.5848091 C10.9544526,12.6906547 10.846524,12.8878635 10.8550253,13.0975049 C10.8635266,13.3071463 10.9870689,13.4949687 11.1762059,13.5857986 C11.3653429,13.6766284 11.5891729,13.6556257 11.7581108,13.5311964 C13.6253975,12.3104616 14.7508373,10.2301219 14.7508373,7.99923656 C14.7508373,5.76835122 13.6253975,3.68801147 11.7581108,2.46727668 L11.7581108,2.46891727 Z" id="Shape" fill="#35374C" fill-rule="nonzero"></path>
                </g>
            </g>
        </g>
    </g>
</svg>