<?xml version="1.0" encoding="UTF-8"?>
<svg width="9px" height="9px" viewBox="0 0 9 9" version="1.1" xmlns="http://www.w3.org/2000/svg" xmlns:xlink="http://www.w3.org/1999/xlink">
    <title>DFB8D941-47E6-4FC0-B5E9-1ABE2639C01E</title>
    <g id="Sim-067---K5--Structures-and-Functions" stroke="none" stroke-width="1" fill="none" fill-rule="evenodd">
        <g id="step-1-selection" transform="translate(-565.000000, -273.000000)" fill-rule="nonzero">
            <g id="Group-4" transform="translate(561.000000, 269.000000)">
                <g id="Group" transform="translate(4.000000, 2.000000)">
                    <g id="icon" transform="translate(0.000000, 2.000000)">
                        <path d="M4.5,0 C2.01489315,0 0,2.01561895 0,4.5 C0,6.98583266 2.01489315,9 4.5,9 C6.98510685,9 9,6.98583266 9,4.5 C9,2.01561895 6.98510685,0 4.5,0 Z" id="Path" fill="#BA5B08"></path>
                        <path d="M4.5,1.99596774 C4.92089516,1.99596774 5.26209677,2.33716935 5.26209677,2.75806452 C5.26209677,3.17895968 4.92089516,3.52016129 4.5,3.52016129 C4.07910484,3.52016129 3.73790323,3.17895968 3.73790323,2.75806452 C3.73790323,2.33716935 4.07910484,1.99596774 4.5,1.99596774 Z" id="Path" fill="#FFFFFF"></path>
                        <path d="M5.51612903,6.60483871 C5.51612903,6.72508669 5.41863508,6.82258065 5.2983871,6.82258065 L3.7016129,6.82258065 C3.58136492,6.82258065 3.48387097,6.72508669 3.48387097,6.60483871 L3.48387097,6.16935484 C3.48387097,6.04910685 3.58136492,5.9516129 3.7016129,5.9516129 L3.91935484,5.9516129 L3.91935484,4.79032258 L3.7016129,4.79032258 C3.58136492,4.79032258 3.48387097,4.69282863 3.48387097,4.57258065 L3.48387097,4.13709677 C3.48387097,4.01684879 3.58136492,3.91935484 3.7016129,3.91935484 L4.86290323,3.91935484 C4.98315121,3.91935484 5.08064516,4.01684879 5.08064516,4.13709677 L5.08064516,5.9516129 L5.2983871,5.9516129 C5.41863508,5.9516129 5.51612903,6.04910685 5.51612903,6.16935484 L5.51612903,6.60483871 Z" id="Path" fill="#FFFFFF"></path>
                    </g>
                </g>
            </g>
        </g>
    </g>
</svg>