<?xml version="1.0" encoding="UTF-8"?>
<svg width="12px" height="12px" viewBox="0 0 12 12" version="1.1" xmlns="http://www.w3.org/2000/svg" xmlns:xlink="http://www.w3.org/1999/xlink">
    <title>F36D6C97-D8D0-4FB5-819C-0F7068BD07F0</title>
    <g id="style-guide" stroke="none" stroke-width="1" fill="none" fill-rule="evenodd">
        <g id="icon-sheet" transform="translate(-876.000000, -160.000000)" fill-rule="nonzero">
            <g id="icon" transform="translate(876.000000, 160.000000)">
                <path d="M12,6 C12,9.31371774 9.31371774,12 6,12 C2.68628226,12 0,9.31371774 0,6 C0,2.68628226 2.68628226,0 6,0 C9.31371774,0 12,2.68628226 12,6 Z" id="Path" fill="#1B8338"></path>
                <path d="M5.30598387,8.98945148 L9.75759677,4.53783858 C9.90875806,4.38667729 9.90875806,4.14157245 9.75759677,3.99041116 L9.21016935,3.44298374 C9.05900806,3.29179825 8.81390323,3.29179825 8.66271774,3.44298374 L5.03225806,7.07341922 L3.33728226,5.37844342 C3.18612097,5.22728212 2.94101613,5.22728212 2.78983065,5.37844342 L2.24240323,5.92587083 C2.09124194,6.07703212 2.09124194,6.32213696 2.24240323,6.47329825 L4.75853226,8.98942729 C4.90971774,9.14061277 5.15479839,9.14061277 5.30598387,8.98945148 L5.30598387,8.98945148 Z" id="Path" fill="#FFFFFF"></path>
            </g>
        </g>
    </g>
</svg>