<?xml version="1.0" encoding="UTF-8"?>
<svg width="12px" height="12px" viewBox="0 0 12 12" version="1.1" xmlns="http://www.w3.org/2000/svg" xmlns:xlink="http://www.w3.org/1999/xlink">
    <title>BEBCEFFE-169B-4BBB-985D-171AAB590158</title>
    <g id="style-guide" stroke="none" stroke-width="1" fill="none" fill-rule="evenodd">
        <g id="icon-sheet" transform="translate(-876.000000, -236.000000)" fill-rule="nonzero">
            <g id="icon" transform="translate(876.000000, 236.000000)">
                <path d="M6,0 C2.68548387,0 0,2.68548387 0,6 C0,9.31451613 2.68548387,12 6,12 C9.31451613,12 12,9.31451613 12,6 C12,2.68548387 9.31451613,0 6,0 Z" id="Path" fill="#C9C9CF"></path>
                <path d="M8.94193548,7.575 C9.05564516,7.68870968 9.05564516,7.87258065 8.94193548,7.98629032 L7.98387097,8.94193548 C7.87016129,9.05564516 7.68629032,9.05564516 7.57258065,8.94193548 L6,7.35483871 L4.425,8.94193548 C4.31129032,9.05564516 4.12741935,9.05564516 4.01370968,8.94193548 L3.05806452,7.98387097 C2.94435484,7.87016129 2.94435484,7.68629032 3.05806452,7.57258065 L4.64516129,6 L3.05806452,4.425 C2.94435484,4.31129032 2.94435484,4.12741935 3.05806452,4.01370968 L4.01612903,3.05564516 C4.12983871,2.94193548 4.31370968,2.94193548 4.42741935,3.05564516 L6,4.64516129 L7.575,3.05806452 C7.68870968,2.94435484 7.87258065,2.94435484 7.98629032,3.05806452 L8.94435484,4.01612903 C9.05806452,4.12983871 9.05806452,4.31370968 8.94435484,4.42741935 L7.35483871,6 L8.94193548,7.575 Z" id="Path" fill="#FFFFFF"></path>
            </g>
        </g>
    </g>
</svg>