<?xml version="1.0" standalone="no"?>
<!DOCTYPE svg PUBLIC "-//W3C//DTD SVG 1.1//EN" "http://www.w3.org/Graphics/SVG/1.1/DTD/svg11.dtd" >
<svg xmlns="http://www.w3.org/2000/svg" xmlns:xlink="http://www.w3.org/1999/xlink" version="1.1">
<metadata>
Created by FontForge 20170731 at Fri Feb 12 11:37:00 2021
 By Aleksey,,,
2008 Mitja Miklavcic published by FSI FontShop International GmbH
</metadata>
<defs>
<font id="TisaPro-Ita" horiz-adv-x="1167" >
  <font-face 
    font-family="TisaPro-Ita"
    font-weight="400"
    font-style="italic"
    font-stretch="normal"
    units-per-em="2048"
    panose-1="2 1 5 4 3 1 1 2 1 2"
    ascent="1493"
    descent="-555"
    x-height="963"
    cap-height="1421"
    bbox="-834 -551 2961 2216"
    underline-thickness="143"
    underline-position="-552"
    slope="-6.5"
    unicode-range="U+000D-FEFF"
  />
<missing-glyph horiz-adv-x="1431" 
d="M684 526q27 2 65 12.5t58 22.5q-25 48 -25 103q0 37 32 75t78 74t92 75.5t78 95t32 118.5q0 85 -63.5 132.5t-176.5 47.5q-64 0 -148 -14t-131 -33q-12 -125 -4 -215q67 0 111 27l12 112q48 23 113 23q63 0 94 -33t31 -78q0 -43 -30 -87t-72.5 -81t-85.5 -74.5t-73 -82.5
t-30 -91q0 -30 12.5 -67.5t30.5 -61.5zM190 0l162 1481h1020l-131 -1481h-1051zM750 403q-42 0 -71.5 -29t-29.5 -71q0 -108 101 -108q44 0 71 28.5t27 79.5q0 47 -26.5 73.5t-71.5 26.5z" />
    <glyph glyph-name="f_b" unicode="fb" horiz-adv-x="1681" 
d="M702 20l158 1344q-61 20 -143 20q-159 0 -241 -81t-105 -271l-9 -69h254q7 -54 -6 -119h-256l-121 -1151q-50 -8 -102 -8q-56 0 -80 8l142 1151h-158q6 51 39 106q64 24 131 35l4 37q28 241 156.5 357t359.5 116q147 0 301 -53l-25 -260q-24 -236 -59 -359h21
q96 174 292 174q58 0 107 -19t89.5 -59t63.5 -111t23 -167q0 -155 -42 -292t-120 -228q-67 -76 -160 -116t-200 -40q-158 0 -314 55zM942 692l-63 -579q66 -25 139 -25q156 0 237 100q105 130 105 404q0 266 -186 266q-64 0 -131.5 -51t-100.5 -115z" />
    <glyph glyph-name="f_f" unicode="ff" horiz-adv-x="1245" 
d="M993 963h252q7 -54 -6 -119h-254l-121 -1151q-50 -8 -102 -8q-56 0 -80 8l141 1151h-469l-88 -840q-50 -8 -100 -8q-54 0 -78 8l105 840h-158q6 51 39 106q58 22 131 35l12 90q28 204 134 302t255 98q98 0 193 -35q0 -50 -17.5 -125t-38.5 -117q-23 0 -55 10t-49 23
l18 129q-22 14 -61 14q-79 0 -140 -62.5t-77 -203.5l-17 -145h469l19 133q28 203 137 301t262 98q102 0 197 -35q0 -50 -17 -124.5t-38 -116.5q-25 0 -58.5 9.5t-50.5 22.5l18 129q-24 15 -63 15q-38 0 -73 -13.5t-68 -42.5t-56 -83.5t-30 -127.5z" />
    <glyph glyph-name="f_f_b" unicode="ffb" horiz-adv-x="2312" 
d="M1333 20l158 1344q-61 20 -143 20q-160 0 -242 -81t-105 -271l-8 -69h254q7 -54 -6 -119h-256l-121 -1151q-50 -8 -102 -8q-56 0 -80 8l141 1151h-469l-88 -840q-50 -8 -100 -8q-54 0 -78 8l105 840h-158q6 51 39 106q58 22 131 35l12 90q28 204 134 302t255 98
q98 0 193 -35q0 -50 -17.5 -125t-38.5 -117q-23 0 -55 10t-49 23l18 129q-22 14 -61 14q-79 0 -140 -62.5t-77 -203.5l-17 -145h469l9 59q34 241 160.5 357t355.5 116q147 0 301 -53l-25 -260q-24 -236 -59 -359h20q96 174 293 174q58 0 107 -19t89.5 -59t63.5 -111t23 -167
q0 -155 -42 -292t-120 -228q-67 -76 -160 -116t-200 -40q-158 0 -314 55zM1573 692l-64 -579q66 -25 140 -25q156 0 237 100q105 130 105 404q0 266 -187 266q-64 0 -131 -51t-100 -115z" />
    <glyph glyph-name="f_f_h" unicode="ffh" horiz-adv-x="2371" 
d="M1327 4l170 1360q-61 20 -147 20q-160 0 -243 -81t-106 -271l-8 -69h254q7 -54 -6 -119h-256l-121 -1151q-50 -8 -102 -8q-56 0 -80 8l141 1151h-469l-88 -840q-50 -8 -100 -8q-54 0 -78 8l105 840h-158q6 51 39 106q58 22 131 35l12 90q28 204 134 302t255 98
q98 0 193 -35q0 -50 -17.5 -125t-38.5 -117q-23 0 -55 10t-49 23l18 129q-22 14 -61 14q-79 0 -140 -62.5t-77 -203.5l-17 -145h472l6 59q48 473 512 473q154 0 311 -53l-27 -260q-17 -172 -57 -348h20q104 163 310 163q237 0 237 -254q0 -55 -15.5 -177.5t-36.5 -263
t-23 -157.5q0 -19 10 -34l157 16q0 -23 -10 -59t-22 -56q-49 -19 -123 -33t-119 -14q-29 33 -50.5 79t-21.5 73q80 444 80 569q0 82 -37 129t-110 47q-82 0 -151.5 -60.5t-96.5 -129.5l-76 -668q-50 -8 -98 -8q-52 0 -76 8z" />
    <glyph glyph-name="f_f_i" unicode="ffi" horiz-adv-x="1820" 
d="M985 844l-121 -1151q-50 -8 -102 -8q-56 0 -80 8l139 1151h-467l-88 -840q-50 -8 -100 -8q-54 0 -78 8l105 840h-158q6 51 39 106q58 22 131 35l12 90q28 204 134 302t255 98q98 0 193 -35q0 -50 -17.5 -125t-38.5 -117q-23 0 -55 10t-49 23l18 129q-22 14 -61 14
q-79 0 -140 -62.5t-77 -203.5l-17 -145h472l6 57q26 244 154.5 359.5t361.5 115.5q159 0 305 -47q0 -53 -19.5 -128t-44.5 -128q-27 0 -64 11t-56 24l20 135q-61 20 -145 20q-160 0 -244 -80.5t-107 -269.5l-8 -69h236q7 -54 -6 -119h-238zM1440 850l-146 -16
q0 17 12.5 54.5t24.5 49.5q88 47 201 47q50 0 82 -8l-103 -832q0 -12 11 -34l159 16q0 -23 -10 -59t-22 -56q-49 -18 -124 -32.5t-120 -14.5q-29 33 -50.5 79t-21.5 73z" />
    <glyph glyph-name="f_f_j" unicode="ffj" horiz-adv-x="1779" 
d="M993 963h236q7 -54 -6 -119h-238l-88 -840q-50 -8 -100 -8q-54 0 -78 8l104 840h-469l-121 -1151q-50 -8 -102 -8q-56 0 -80 8l142 1151h-158q6 51 39 106q58 22 131 35l12 90q28 204 134 302t255 98q98 0 193 -35q0 -50 -17.5 -125t-38.5 -117q-23 0 -55 10t-49 23
l18 129q-22 14 -61 14q-79 0 -140 -62.5t-77 -203.5l-17 -145h472l6 57q26 244 158 359.5t372 115.5q159 0 309 -51q0 -53 -19.5 -129.5t-43.5 -128.5q-27 0 -64.5 11t-56.5 24l21 135q-62 26 -150 26q-167 0 -254 -80t-111 -270zM1458 850l-149 -16q0 17 12.5 54.5
t24.5 49.5q92 47 202 47q52 0 84 -8l-92 -768q-24 -195 -120 -367.5t-242 -310.5q-22 8 -47.5 30t-34.5 42q98 101 172 247t96 306z" />
    <glyph glyph-name="f_f_k" unicode="ffk" horiz-adv-x="2263" 
d="M1333 4l164 1360q-61 20 -147 20q-160 0 -243 -81t-106 -271l-8 -69h254q7 -54 -6 -119h-256l-121 -1151q-50 -8 -102 -8q-56 0 -80 8l141 1151h-469l-88 -840q-50 -8 -100 -8q-54 0 -78 8l105 840h-158q6 51 39 106q58 22 131 35l12 90q28 204 134 302t255 98
q98 0 193 -35q0 -50 -17.5 -125t-38.5 -117q-23 0 -55 10t-49 23l18 129q-22 14 -61 14q-79 0 -140 -62.5t-77 -203.5l-17 -145h472l6 59q48 473 512 473q154 0 311 -53l-111 -998q119 74 236.5 179.5t187.5 193.5q0 16 -6 31l-145 -6q0 25 12.5 60.5t30.5 53.5
q115 23 229 23q16 -21 34.5 -66t18.5 -65q-43 -78 -142.5 -183t-215.5 -188q58 -118 123 -224.5t106 -152.5l121 23q0 -69 -24 -115q-32 -18 -91.5 -34t-103.5 -21q-46 48 -116 175.5t-138 277.5q-65 -42 -127 -70l-35 -332q-50 -8 -98 -8q-52 0 -76 8z" />
    <glyph glyph-name="f_f_l" unicode="ffl" horiz-adv-x="1828" 
d="M1526 111l160 16q0 -23 -10.5 -58.5t-22.5 -56.5q-49 -18 -124 -32.5t-120 -14.5q-29 33 -50.5 79t-21.5 73l164 1247q-61 20 -147 20q-160 0 -245 -81t-108 -271l-8 -69h254q7 -54 -6 -119h-256l-121 -1151q-50 -8 -102 -8q-56 0 -80 8l141 1151h-469l-88 -840
q-50 -8 -100 -8q-54 0 -78 8l105 840h-158q6 51 39 106q58 22 131 35l12 90q28 204 134 302t255 98q98 0 193 -35q0 -50 -17.5 -125t-38.5 -117q-23 0 -55 10t-49 23l18 129q-22 14 -61 14q-79 0 -140 -62.5t-77 -203.5l-17 -145h469l9 59q34 243 160 358t356 115
q156 0 313 -53l-153 -1297q0 -14 10 -34z" />
    <glyph glyph-name="f_h" unicode="fh" horiz-adv-x="1740" 
d="M696 4l170 1360q-61 20 -147 20q-160 0 -242.5 -81t-105.5 -271l-9 -69h254q7 -54 -6 -119h-256l-121 -1151q-50 -8 -102 -8q-56 0 -80 8l142 1151h-158q6 51 39 106q58 22 131 35l4 37q27 242 154.5 357.5t357.5 115.5q154 0 311 -53l-26 -260q-16 -164 -58 -348h21
q104 163 309 163q238 0 238 -254q0 -55 -15.5 -178t-37 -262t-23.5 -158q0 -19 10 -34l158 16q0 -23 -10.5 -58.5t-22.5 -56.5q-49 -19 -123 -33t-119 -14q-29 33 -50 79t-21 73q79 439 79 569q0 82 -37 129t-110 47q-82 0 -151.5 -60.5t-96.5 -129.5l-76 -668
q-50 -8 -98 -8q-52 0 -76 8z" />
    <glyph glyph-name="f_i" unicode="fi" horiz-adv-x="1189" 
d="M354 844l-121 -1151q-50 -8 -102 -8q-56 0 -80 8l142 1151h-158q6 51 39 106q58 22 131 35l4 35q29 247 156 361t360 114q159 0 305 -47q0 -53 -19 -128.5t-44 -127.5q-27 0 -64.5 11t-56.5 24l20 135q-61 20 -145 20q-160 0 -243.5 -80t-106.5 -270l-9 -69h236
q7 -54 -6 -119h-238zM809 850l-145 -16q0 17 12 54.5t24 49.5q88 47 201 47q50 0 82 -8l-102 -832q0 -14 10 -34l160 16q0 -23 -10.5 -58.5t-22.5 -56.5q-49 -18 -124 -32.5t-120 -14.5q-29 33 -50.5 79t-21.5 73z" />
    <glyph glyph-name="f_iacute" unicode="f&#xed;" horiz-adv-x="1189" 
d="M362 963h240q7 -54 -6 -119h-242l-121 -1151q-50 -8 -102 -8q-56 0 -80 8l142 1151h-158q6 51 39 106q58 22 131 35l14 111q13 104 50 182.5t91 125t117 69t135 22.5q100 0 195 -35q0 -50 -18 -124t-39 -117q-23 0 -55.5 10t-53.5 22l18 129q-24 15 -61 15
q-36 0 -68.5 -13t-63 -42t-52.5 -83.5t-31 -128.5zM809 850l-150 -16q0 17 12.5 54.5t24.5 49.5q92 47 203 47q52 0 84 -8l-102 -832q0 -14 10 -34l160 16q0 -23 -10.5 -58.5t-22.5 -56.5q-49 -18 -124 -32.5t-120 -14.5q-29 33 -50.5 79t-21.5 73zM1274 1438l-334 -340
q-22 12 -46 40t-36 56l256 319q39 -6 88 -29t72 -46z" />
    <glyph glyph-name="f_j" unicode="fj" horiz-adv-x="1148" 
d="M362 963h236q7 -54 -6 -119h-238l-88 -840q-50 -8 -100 -8q-54 0 -78 8l105 840h-158q6 51 39 106q58 22 131 35l4 35q30 247 160.5 361t369.5 114q160 0 310 -51q0 -53 -19.5 -129t-44.5 -129q-27 0 -64.5 11t-56.5 24l21 135q-62 26 -150 26q-166 0 -253 -80t-111 -270
zM827 850l-149 -16q0 17 12.5 54.5t24.5 49.5q92 47 203 47q51 0 83 -8l-92 -768q-24 -195 -120 -367.5t-242 -310.5q-22 8 -47.5 30t-34.5 42q98 101 172 247t96 306z" />
    <glyph glyph-name="f_k" unicode="fk" horiz-adv-x="1632" 
d="M702 4l164 1360q-61 20 -147 20q-160 0 -242.5 -81t-105.5 -271l-9 -69h254q7 -54 -6 -119h-256l-121 -1151q-50 -8 -102 -8q-56 0 -80 8l142 1151h-158q6 51 39 106q58 22 131 35l4 37q27 242 154.5 357.5t357.5 115.5q154 0 311 -53l-110 -998q119 74 236.5 179.5
t187.5 193.5q0 14 -7 31l-145 -6q0 25 12.5 60.5t30.5 53.5q115 23 229 23q16 -21 35 -66.5t19 -64.5q-43 -78 -143 -183t-216 -188q58 -118 123 -224.5t107 -152.5l120 23q0 -69 -24 -115q-32 -18 -91.5 -34t-103.5 -21q-46 48 -116 175.5t-138 277.5q-65 -42 -127 -70
l-34 -332q-50 -8 -99 -8q-52 0 -76 8z" />
    <glyph glyph-name="f_l" unicode="fl" horiz-adv-x="1198" 
d="M895 111l160 16q0 -23 -10.5 -58.5t-22.5 -56.5q-49 -18 -124 -32.5t-120 -14.5q-29 33 -50 79t-21 73l163 1247q-61 20 -147 20q-160 0 -244.5 -81t-107.5 -271l-9 -69h254q7 -54 -6 -119h-256l-121 -1151q-50 -8 -102 -8q-56 0 -80 8l142 1151h-158q6 51 39 106
q58 22 131 35l4 37q27 242 156 357.5t360 115.5q156 0 313 -53l-153 -1297q0 -14 10 -34z" />
    <glyph glyph-name=".notdef" horiz-adv-x="1431" 
d="M684 526q27 2 65 12.5t58 22.5q-25 48 -25 103q0 37 32 75t78 74t92 75.5t78 95t32 118.5q0 85 -63.5 132.5t-176.5 47.5q-64 0 -148 -14t-131 -33q-12 -125 -4 -215q67 0 111 27l12 112q48 23 113 23q63 0 94 -33t31 -78q0 -43 -30 -87t-72.5 -81t-85.5 -74.5t-73 -82.5
t-30 -91q0 -30 12.5 -67.5t30.5 -61.5zM190 0l162 1481h1020l-131 -1481h-1051zM750 403q-42 0 -71.5 -29t-29.5 -71q0 -108 101 -108q44 0 71 28.5t27 79.5q0 47 -26.5 73.5t-71.5 26.5z" />
    <glyph glyph-name=".null" horiz-adv-x="0" 
 />
    <glyph glyph-name=".null" horiz-adv-x="0" 
 />
    <glyph glyph-name="nonmarkingreturn" horiz-adv-x="682" 
 />
    <glyph glyph-name="CR" unicode="&#xd;" horiz-adv-x="391" 
 />
    <glyph glyph-name="space" unicode=" " horiz-adv-x="391" 
 />
    <glyph glyph-name="exclam" unicode="!" horiz-adv-x="555" 
d="M420 1421l-135 -991q-24 -6 -68 -6q-42 0 -63 6l43 971q23 12 68.5 20.5t78.5 8.5q40 0 76 -9zM190 242q58 0 92.5 -34t34.5 -93q0 -64 -35.5 -102t-91.5 -38q-127 0 -127 140q0 54 37 90.5t90 36.5z" />
    <glyph glyph-name="quotedbl" unicode="&#x22;" horiz-adv-x="700" 
d="M500 991q-24 0 -60.5 7t-54.5 16q42 204 68 432q95 0 170 -21q-8 -78 -47 -211.5t-76 -222.5zM162 991q-24 0 -60.5 7t-54.5 16q42 204 68 432q95 0 170 -21q-8 -78 -47 -211.5t-76 -222.5z" />
    <glyph glyph-name="numbersign" unicode="#" horiz-adv-x="1044" 
d="M100 840h191l53 219q61 14 137 14l-55 -233h274l54 219q61 14 137 14l-55 -233h178q0 -50 -19 -109h-190l-78 -340h193q0 -49 -19 -108h-205l-63 -279q-30 -6 -80 -6q-43 0 -64 6l66 279h-268l-64 -279q-30 -6 -80 -6q-42 0 -63 6l65 279h-182q6 48 37 108h178l80 340
h-195q6 49 37 109zM395 731l-78 -340h271l80 340h-273z" />
    <glyph glyph-name="dollar" unicode="$" horiz-adv-x="901" 
d="M625 817l14 146q-66 32 -150 32q-91 0 -144.5 -44.5t-53.5 -112.5q0 -42 26 -78t68 -63.5t92.5 -55t101.5 -59.5t93 -68.5t68 -89.5t26 -117q0 -141 -86 -226t-225 -110l-15 -174q-20 -4 -71 -4q-44 0 -68 4l14 162q-182 3 -313 82q-4 28 -4 55q0 55 12.5 116t30.5 99
q94 0 147 -22l-16 -162q69 -53 199 -53q96 0 158.5 50.5t62.5 135.5q0 46 -26.5 84.5t-68.5 66t-93.5 54t-102.5 56t-93 64.5t-68.5 87t-26.5 116q0 121 83.5 204t219.5 104l16 139q47 14 123 14l-14 -149q135 -8 266 -64q0 -130 -47 -252q-93 0 -135 33z" />
    <glyph glyph-name="percent" unicode="%" horiz-adv-x="1775" 
d="M416 1102q133 0 205.5 -66.5t72.5 -193.5q0 -177 -94 -274t-258 -97q-137 0 -209 65.5t-72 194.5q0 168 96 269.5t259 101.5zM354 571q90 0 136.5 69t46.5 191q0 79 -33 124.5t-98 45.5q-93 0 -141 -71t-48 -187q0 -82 35.5 -127t101.5 -45zM1350 1083l-848 -1136
q-23 5 -59 24.5t-48 34.5l842 1108q51 -3 113 -31zM1393 596q133 0 205.5 -66.5t72.5 -193.5q0 -177 -94 -274t-258 -97q-137 0 -209 65.5t-72 194.5q0 168 96 269.5t259 101.5zM1331 66q90 0 136 69t46 191q0 79 -33 124.5t-98 45.5q-93 0 -140.5 -71t-47.5 -187
q0 -82 35.5 -127t101.5 -45z" />
    <glyph glyph-name="ampersand" unicode="&#x26;" horiz-adv-x="1613" 
d="M979 264q-192 232 -453 422q-97 -50 -154 -136.5t-57 -203.5q0 -254 285 -254q234 0 379 172zM477 1094q0 -84 39.5 -143t126.5 -132q93 47 148 131.5t55 179.5q0 90 -46 128t-116 38q-38 0 -72 -9.5t-65.5 -31t-50.5 -63t-19 -98.5zM1020 1147q0 -131 -91 -242.5
t-202 -148.5v-11q93 -68 192 -160t173 -179q92 176 110 405l299 25q-4 -58 -35 -115q-59 -21 -127 -33q-49 -222 -157 -389q51 -66 116 -166q89 -4 154 -18q12 -40 12 -115h-297q-68 107 -110 164q-198 -205 -496 -205q-69 0 -130 10.5t-118 36t-98 64t-65.5 99t-24.5 136.5
q0 156 92.5 275.5t226.5 162.5v11q-145 102 -145 280q0 96 36 171t96 118.5t130 65.5t146 22q60 0 113.5 -14t99.5 -43.5t73 -82.5t27 -124z" />
    <glyph glyph-name="quotesingle" unicode="'" horiz-adv-x="362" 
d="M162 991q-24 0 -60.5 7t-54.5 16q42 204 68 432q95 0 170 -21q-8 -78 -47 -211.5t-76 -222.5z" />
    <glyph glyph-name="parenleft" unicode="(" horiz-adv-x="593" 
d="M420 -379q-22 -14 -61.5 -27t-69.5 -16q-117 359 -117 768q0 299 66.5 577t212.5 590q27 14 78 25.5t85 11.5q-132 -262 -202 -609t-70 -681q0 -341 78 -639z" />
    <glyph glyph-name="parenright" unicode=")" horiz-adv-x="593" 
d="M-43 -379q134 280 203 625t69 688q0 334 -59 573q20 16 56.5 32t70.5 22q102 -324 102 -709q0 -327 -73.5 -623.5t-243.5 -648.5q-69 10 -125 41z" />
    <glyph glyph-name="asterisk" unicode="*" horiz-adv-x="782" 
d="M623 899l-158 123q-31 23 -41 47l-10 -6q17 -38 14 -66l-14 -211q-24 -6 -60 -6q-32 0 -59 6l33 211q6 32 24 64l-8 6q-40 -40 -49 -45l-182 -119q-37 48 -52 101l193 96q36 16 68 20v10q-38 5 -62 19l-164 90q14 57 54 117l165 -117q25 -19 41 -45l11 6q-16 42 -13 62
l17 202q47 15 114 15l-30 -217q-3 -27 -25 -66l8 -6q27 31 51 47l175 111q15 -12 35.5 -41t29.5 -52l-203 -106q-23 -12 -63 -16v-11q35 -4 59 -18l168 -92q-7 -23 -29.5 -60.5t-37.5 -52.5z" />
    <glyph glyph-name="plus" unicode="+" 
d="M633 623h403q8 -46 8 -97q0 -25 -2 -39h-409v-436q-30 -6 -78 -6q-53 0 -88 6v436h-412q0 67 19 136h393v417q76 13 166 13v-430z" />
    <glyph glyph-name="comma" unicode="," horiz-adv-x="372" 
d="M76 35l-78 20q37 87 84 138q33 8 80 8q80 0 141 -25q-37 -110 -113.5 -257.5t-134.5 -225.5q-22 6 -52.5 21.5t-43.5 27.5q84 181 117 293z" />
    <glyph glyph-name="hyphen" unicode="-" horiz-adv-x="671" 
d="M518 479h-465q0 30 9 76.5t20 75.5h444q2 -14 2 -41q0 -63 -10 -111z" />
    <glyph glyph-name="period" unicode="." horiz-adv-x="479" 
d="M188 236q56 0 89.5 -33t33.5 -92q0 -62 -34 -99t-89 -37q-125 0 -125 136q0 54 36 89.5t89 35.5z" />
    <glyph glyph-name="slash" unicode="/" horiz-adv-x="837" 
d="M909 1520l-848 -1862q-24 3 -68 22t-59 33l842 1831q78 0 133 -24z" />
    <glyph glyph-name="zero" unicode="0" horiz-adv-x="1216" 
d="M72 434q0 312 151 493t422 181q416 0 416 -475q0 -308 -152.5 -491t-427.5 -183q-206 0 -307.5 117t-101.5 358zM258 449q0 -183 60 -272t188 -89q93 0 165.5 42t117.5 115.5t68.5 170t23.5 209.5q0 177 -63.5 266.5t-199.5 89.5q-95 0 -166 -42t-112.5 -116.5
t-61.5 -168t-20 -205.5z" />
    <glyph glyph-name="one" unicode="1" horiz-adv-x="837" 
d="M283 152l94 784l-287 -37q9 60 45 127q78 26 196 51.5t232 30.5l-98 -967q124 -11 213 -30q4 -28 4 -54q0 -29 -4 -57h-647q13 56 45 104q100 33 207 48z" />
    <glyph glyph-name="two" unicode="2" horiz-adv-x="1058" 
d="M258 164v-14q304 3 614 24q-4 -105 -26 -174h-789l-8 147q37 31 111.5 87.5t141 105.5t143.5 114.5t132 123.5t91.5 122.5t36.5 120.5q0 154 -193 154q-100 0 -207 -47l-20 -168q-56 -27 -135 -27q-9 47 -9 111q0 92 23 176q184 88 373 88q164 0 262 -61.5t98 -184.5
q0 -71 -38 -148t-91 -138.5t-132.5 -130.5t-139.5 -112t-137 -97t-101 -72z" />
    <glyph glyph-name="three" unicode="3" horiz-adv-x="989" 
d="M543 473v-10q56 -6 102.5 -23.5t85 -48t60.5 -79.5t22 -113q0 -94 -49 -177t-127 -137.5t-173.5 -86t-189.5 -31.5q-141 0 -270 38q-24 57 -24 111q0 17 2 29q110 -35 280 -35q94 0 172 26t131 87t53 149q0 112 -93.5 162.5t-313.5 50.5q0 79 27 131q77 3 149 23t133 55
t98 92t37 127q0 162 -196 162q-103 0 -201 -37l-16 -147q-49 -27 -140 -27q-19 129 9 268q178 76 376 76q75 0 138 -14.5t113.5 -44.5t79 -82.5t28.5 -122.5q0 -130 -89 -231.5t-214 -139.5z" />
    <glyph glyph-name="four" unicode="4" horiz-adv-x="1048" 
d="M741 168l-32 -356q-21 -7 -88 -7q-65 0 -89 7l39 356h-555l-16 106q274 396 645 834l182 -33l-73 -770h172q2 -14 2 -37q0 -52 -10 -100h-177zM588 305l57 492q14 110 25 151h-15q-173 -197 -471 -633v-14q54 4 121 4h283z" />
    <glyph glyph-name="five" unicode="5" horiz-adv-x="983" 
d="M324 903l-54 -358q88 20 179 20q168 0 262 -78.5t94 -240.5q0 -111 -46.5 -203.5t-123.5 -151.5t-173 -91.5t-198 -32.5q-68 0 -141 12t-107 24q-24 53 -24 115q0 13 2 23q46 -13 120 -24t128 -11q157 0 265.5 86.5t108.5 238.5q0 110 -66 158.5t-204 48.5
q-120 0 -240 -26l109 655h672q-7 -97 -41 -182q-167 10 -522 18z" />
    <glyph glyph-name="six" unicode="6" horiz-adv-x="1105" 
d="M285 631h14q38 68 114.5 110.5t184.5 42.5q166 0 258 -101t92 -261q0 -203 -132.5 -333t-334.5 -130q-189 0 -291 126.5t-102 363.5q0 169 53.5 326t143 272t213.5 184t260 69q99 0 188 -36q25 -58 25 -115q0 -19 -2 -31q-80 41 -205 41q-177 0 -304 -134t-175 -394z
M543 655q-79 0 -141.5 -33t-125.5 -102q-8 -63 -8 -112q0 -150 59 -238t169 -88q123 0 197.5 97t74.5 235q0 115 -58.5 178t-166.5 63z" />
    <glyph glyph-name="seven" unicode="7" horiz-adv-x="972" 
d="M893 1067l14 -135q-425 -615 -600 -1118q-42 -11 -92 -11q-61 0 -111 11q101 253 269.5 542t353.5 527v14h-514q-8 -36 -28.5 -89.5t-37.5 -80.5q-23 0 -60 8t-56 17l57 315h805z" />
    <glyph glyph-name="eight" unicode="8" horiz-adv-x="1089" 
d="M375 674v10q-182 76 -182 260q0 71 25.5 131t67.5 101t97.5 69.5t115.5 41.5t122 13q66 0 124 -16t107 -48t77.5 -87t28.5 -127q0 -116 -71 -211.5t-182 -136.5v-10q101 -41 157 -110t56 -189q0 -100 -40 -179.5t-106 -127.5t-147.5 -73.5t-169.5 -25.5q-56 0 -109 9.5
t-104.5 33t-90 58t-62 89t-23.5 121.5q0 136 88 245.5t221 158.5zM473 625q-107 -44 -167 -126.5t-60 -195.5q0 -119 61.5 -173t161.5 -54q40 0 78 8t74 27.5t63 48t43 72.5t16 98q0 48 -14.5 88t-35 67t-60 54t-72 43.5t-88.5 42.5zM604 725q92 44 140.5 120t48.5 159
q0 50 -18 88.5t-47.5 59.5t-62.5 31.5t-67 10.5t-71 -9.5t-76.5 -31t-65 -65.5t-25.5 -105q0 -40 14 -74.5t32.5 -57.5t56 -48.5t64.5 -39.5t77 -38z" />
    <glyph glyph-name="nine" unicode="9" horiz-adv-x="1089" 
d="M739 436h-14q-35 -70 -112 -110.5t-187 -40.5q-168 0 -258 100t-90 260q0 202 132.5 332.5t332.5 130.5q190 0 288.5 -128.5t98.5 -375.5q0 -232 -83 -423t-232.5 -302.5t-335.5 -111.5q-127 0 -232 43q-22 53 -22 112q0 17 2 29q40 -14 111.5 -24.5t123.5 -10.5
q182 0 308.5 132t168.5 388zM748 553q8 78 8 141q0 139 -59.5 217t-168.5 78q-124 0 -198 -92.5t-74 -232.5q0 -117 56.5 -183.5t168.5 -66.5q160 0 267 139z" />
    <glyph glyph-name="colon" unicode=":" horiz-adv-x="444" 
d="M266 946q54 0 87.5 -33t33.5 -90q0 -60 -34.5 -95.5t-86.5 -35.5q-123 0 -123 131q0 54 35 88.5t88 34.5zM201 268q56 0 89.5 -33t33.5 -92q0 -62 -34 -98.5t-89 -36.5q-125 0 -125 135q0 54 36 89.5t89 35.5z" />
    <glyph glyph-name="semicolon" unicode=";" horiz-adv-x="452" 
d="M260 946q54 0 87.5 -33t33.5 -90q0 -60 -34.5 -95.5t-86.5 -35.5q-123 0 -123 131q0 54 35 88.5t88 34.5zM100 35l-77 20q37 89 83 138q33 8 80 8q81 0 142 -25q-37 -110 -113.5 -257.5t-134.5 -225.5q-22 6 -52.5 21.5t-43.5 27.5q81 175 116 293z" />
    <glyph glyph-name="less" unicode="&#x3c;" 
d="M918 969l-566 -412v-14l553 -402q-9 -23 -43.5 -62.5t-56.5 -51.5l-635 465l6 122l612 455q30 -18 70 -48.5t60 -51.5z" />
    <glyph glyph-name="equal" unicode="=" 
d="M991 662h-872q0 74 18 139h848q8 -46 8 -99q0 -28 -2 -40zM991 295h-874q0 74 18 139h850q8 -46 8 -98q0 -29 -2 -41z" />
    <glyph glyph-name="greater" unicode="&#x3e;" 
d="M924 492l-637 -476q-22 12 -57 53t-44 64l555 410v14l-569 401q21 23 60.5 53.5t70.5 47.5l615 -445z" />
    <glyph glyph-name="question" unicode="?" horiz-adv-x="907" 
d="M408 242q58 0 92.5 -34t34.5 -93q0 -64 -35.5 -102t-91.5 -38q-127 0 -127 140q0 54 37 90.5t90 36.5zM326 1286l-19 -194q-61 -33 -141 -33q-2 35 -2 110q0 121 10 213q64 31 174 55.5t193 24.5q170 0 260 -72t90 -198q0 -63 -23.5 -120.5t-61.5 -101.5t-83.5 -84.5
t-91 -78t-83.5 -74t-61.5 -80.5t-23.5 -90q0 -61 31 -121q-26 -20 -74 -37t-90 -22q-49 79 -49 180q0 56 30 111.5t75 99t97.5 92t97.5 91.5t75 98t30 110q0 74 -47.5 122t-149.5 48q-37 0 -85.5 -14.5t-77.5 -34.5z" />
    <glyph glyph-name="at" unicode="@" horiz-adv-x="1976" 
d="M1370 -227q12 -15 26.5 -46t18.5 -53q-121 -65 -275 -101t-302 -36q-370 0 -574.5 215t-204.5 590q0 233 81.5 440t222.5 356.5t340.5 236.5t426.5 87q161 0 298.5 -43.5t239 -125.5t159 -207t57.5 -281q0 -116 -32 -226.5t-96.5 -208.5t-156 -174.5t-218 -125.5
t-273.5 -60q-32 74 -35 142h-10q-55 -70 -136.5 -106t-158.5 -36q-110 0 -170.5 72.5t-60.5 224.5q0 130 43 258t120 219q150 181 383 181q87 0 161 -24.5t118 -61.5l-135 -672q0 -23 8 -51q115 12 212.5 72.5t160.5 149t98 195t35 213.5q0 134 -52.5 240.5t-142.5 171.5
t-202.5 99t-239.5 34q-189 0 -355 -74.5t-284 -202.5t-186 -305.5t-68 -377.5q0 -327 177 -516t499 -189q124 0 254.5 29t228.5 78zM1085 285l111 544q-44 33 -133 33q-151 0 -250 -143q-51 -72 -78.5 -175t-27.5 -196q0 -201 143 -201q65 0 129.5 37t105.5 101z" />
    <glyph glyph-name="A" unicode="A" horiz-adv-x="1458" 
d="M971 459h-516l-76 -174q-37 -88 -82 -158q80 -4 154 -18q4 -15 9 -53t5 -56h-471q10 56 39 109q41 14 102 22l633 1319h117l364 -1315q63 -4 119 -18q12 -54 12 -117h-491q10 61 33 111q55 14 151 24q-40 69 -63 168zM795 1239h-15q-18 -74 -75 -199l-205 -465h446
l-123 469q-28 114 -28 195z" />
    <glyph glyph-name="B" unicode="B" horiz-adv-x="1300" 
d="M881 762v-10q128 -27 201 -104t73 -195q0 -96 -30.5 -174t-83.5 -130.5t-126.5 -87.5t-157.5 -51t-179 -16q-356 0 -553 10q10 60 30 109q66 18 154 26l119 1159q-93 0 -148 7q-2 23 1 61.5t9 60.5q275 17 480 17q210 0 344.5 -87.5t134.5 -248.5q0 -132 -74 -225.5
t-194 -120.5zM444 682l-53 -553q79 -8 184 -8q394 0 394 313q0 124 -91 186t-245 62h-189zM500 1315l-47 -508h186q330 0 330 285q0 112 -91.5 169.5t-246.5 57.5q-90 0 -131 -4z" />
    <glyph glyph-name="C" unicode="C" horiz-adv-x="1243" 
d="M991 1077l21 209q-95 45 -215 45q-229 0 -366.5 -191t-137.5 -526q0 -246 106 -370.5t293 -124.5q81 0 187.5 21t181.5 50q0 -26 -11.5 -67.5t-25.5 -63.5q-88 -43 -201.5 -71.5t-216.5 -28.5q-232 0 -371 171.5t-139 444.5q0 161 37 302.5t103.5 247.5t156.5 182.5
t199.5 115.5t228.5 39q217 0 367 -78q-17 -186 -58 -340q-30 0 -72.5 10t-66.5 23z" />
    <glyph glyph-name="D" unicode="D" horiz-adv-x="1439" 
d="M190 1407q276 29 500 29q183 0 323.5 -69.5t223 -212t82.5 -341.5q0 -207 -54.5 -367t-151 -258t-223 -148t-276.5 -50q-232 0 -587 14q10 60 30 109q66 18 154 26l119 1139q-109 0 -148 6q-2 19 1 61t7 62zM500 1300l-105 -1173q88 -6 187 -6q546 0 546 674
q0 250 -132.5 382t-358.5 132q-87 0 -137 -9z" />
    <glyph glyph-name="E" unicode="E" horiz-adv-x="1181" 
d="M985 0h-971q9 56 31 109q64 17 158 26l119 1155q-92 4 -148 15q-7 57 8 116h924l-31 -301q-58 0 -112 15q-13 93 -13 161h-458l-50 -520h365q11 57 31 111q50 16 118 16l-36 -379q-26 -3 -62 -0.5t-55 8.5q-10 67 -10 121h-359l-47 -524h455q22 110 43 176q54 14 131 14z
" />
    <glyph glyph-name="F" unicode="F" horiz-adv-x="1071" 
d="M207 135l119 1155q-92 4 -148 15q-7 57 8 116h889l-28 -307q-74 0 -117 14q-8 66 -12 168h-422l-50 -536h334q13 64 31 112q53 17 119 17l-37 -381q-62 -7 -117 8q-8 50 -8 121h-332l-45 -504q132 -8 191 -20q4 -22 2.5 -56.5t-6.5 -56.5h-560q9 56 31 109q64 17 158 26z
" />
    <glyph glyph-name="G" unicode="G" horiz-adv-x="1431" 
d="M963 131l38 426q-147 4 -258 21q-12 44 -12 120h625q-7 -48 -29 -125q-61 -12 -153 -16l-44 -500q-92 -35 -234 -66.5t-255 -31.5q-265 0 -405 157.5t-140 438.5q0 274 95 479.5t271 316.5t410 111q227 0 381 -106q-6 -72 -23.5 -170t-33.5 -150q-27 0 -71.5 11t-67.5 22
l20 201q-108 65 -235 65q-119 0 -220.5 -49.5t-176 -142.5t-116.5 -235t-42 -318q0 -239 115 -364.5t307 -125.5q109 0 254 31z" />
    <glyph glyph-name="H" unicode="H" horiz-adv-x="1581" 
d="M1067 135l51 539h-676l-49 -541q108 -6 160 -20q4 -22 2.5 -56.5t-6.5 -56.5h-529q9 56 31 109q64 17 158 26l119 1155q-92 4 -148 15q-7 57 8 116h480q4 -62 -15 -114q-73 -14 -155 -17l-45 -483h682l51 483q-79 4 -146 15q-3 22 0.5 59.5t8.5 56.5h481q2 -10 2 -32
q0 -42 -14 -82q-77 -14 -162 -17l-105 -1157q116 -8 172 -20q4 -22 2.5 -56.5t-6.5 -56.5h-530q8 47 29 109q61 17 149 26z" />
    <glyph glyph-name="I" unicode="I" horiz-adv-x="716" 
d="M494 1290l-105 -1157q116 -8 172 -20q4 -22 2.5 -56.5t-6.5 -56.5h-541q9 56 31 109q64 17 158 26l119 1155q-92 4 -148 15q-7 57 8 116h484q2 -10 2 -32q0 -39 -15 -82q-77 -14 -161 -17z" />
    <glyph glyph-name="J" unicode="J" horiz-adv-x="694" 
d="M178 1421h514q2 -10 2 -32q0 -42 -14 -82q-77 -14 -162 -17l-69 -807q-25 -298 -164 -517.5t-377 -334.5q-13 15 -30 48t-23 55q185 110 285.5 282.5t123.5 415.5l80 858q-95 3 -174 15q-7 57 8 116z" />
    <glyph glyph-name="K" unicode="K" horiz-adv-x="1302" 
d="M457 782h112l303 387q21 28 57 66.5t56 52.5q-65 3 -129 15q-10 58 -10 118h442q-7 -59 -37 -121q-34 -8 -116 -12l-449 -540l399 -623l127 8q0 -30 -8 -70t-20 -63q-109 -24 -219 -35l-424 705h-92l-50 -537q94 -7 148 -20q4 -22 2.5 -56.5t-6.5 -56.5h-514
q10 60 30 109q65 18 156 26l119 1155q-92 4 -148 15q-3 22 0.5 59.5t8.5 56.5h473q3 -20 -1.5 -55.5t-11.5 -58.5q-74 -14 -151 -17z" />
    <glyph glyph-name="L" unicode="L" horiz-adv-x="1159" 
d="M500 1290l-105 -1159h467q13 102 47 205q54 14 131 14l-32 -350h-983q10 60 30 109q72 19 156 26l119 1155q-92 4 -148 15q-7 57 8 116h512q4 -64 -14 -114q-108 -17 -188 -17z" />
    <glyph glyph-name="M" unicode="M" horiz-adv-x="1796" 
d="M733 -27l-235 985q-41 163 -54 328h-14l-98 -1157q82 -7 129 -20q3 -18 1 -54t-7 -55h-439q6 40 27 104q72 20 145 27l115 1159q-83 4 -145 15q-7 57 8 116h397l236 -954q24 -103 35 -262h14q37 132 90 254l422 962h393q2 -10 2 -32q0 -42 -14 -82q-76 -13 -166 -17
l-98 -1157q110 -8 168 -20q10 -45 -5 -113h-514q8 47 29 109q63 18 145 26l113 1151h-14q-34 -142 -101 -295l-438 -1018h-127z" />
    <glyph glyph-name="N" unicode="N" horiz-adv-x="1495" 
d="M575 1421l435 -1024q41 -93 61 -223h14l113 1116q-85 4 -147 15q-4 68 8 116h428q2 -10 2 -32q0 -42 -14 -82q-65 -13 -146 -17l-119 -1302h-227l-467 1134q-33 88 -47 144h-14l-103 -1133q107 -8 162 -20q4 -20 2.5 -56.5t-6.5 -56.5h-492q8 47 29 109q65 17 152 26
l120 1155q-78 3 -145 15q-7 57 8 116h393z" />
    <glyph glyph-name="O" unicode="O" horiz-adv-x="1462" 
d="M1321 854q0 -269 -80.5 -470.5t-235 -313t-364.5 -111.5q-263 0 -402 158.5t-139 462.5q0 262 82.5 461.5t238 310t363.5 110.5q249 0 393 -159t144 -449zM1128 829q0 223 -96 360.5t-260 137.5q-121 0 -214 -56t-149.5 -155.5t-85 -228.5t-28.5 -283q0 -236 94.5 -372
t265.5 -136q151 0 259 95.5t161 259t53 378.5z" />
    <glyph glyph-name="P" unicode="P" horiz-adv-x="1173" 
d="M205 135l98 1153q-104 0 -145 6q-7 53 8 125q247 23 500 23q213 0 342 -97t129 -282q0 -118 -41 -214t-111.5 -157t-160.5 -94t-191 -33q-93 0 -215 17l-29 -449q130 -8 203 -20q4 -20 2.5 -57.5t-6.5 -55.5h-570q9 56 31 109q72 19 156 26zM473 1305l-45 -603
q98 -10 205 -10q148 0 234.5 88t86.5 262q0 134 -89 202.5t-247 68.5q-71 0 -145 -8z" />
    <glyph glyph-name="Q" unicode="Q" horiz-adv-x="1478" 
d="M92 580q0 264 81 462.5t236.5 309t366.5 110.5q250 0 393.5 -159t143.5 -449q0 -273 -87.5 -480.5t-230.5 -295.5v-10q83 -61 194 -117.5t150 -56.5l136 18q0 -36 -10.5 -86t-24.5 -78q-85 -29 -133 -29q-66 0 -212 88.5t-257 184.5q-104 -33 -205 -33
q-264 0 -402.5 158.5t-138.5 462.5zM1120 829q0 224 -94.5 361t-261.5 137q-122 0 -215 -55t-149.5 -154t-84.5 -228.5t-28 -285.5q0 -237 94 -372.5t266 -135.5q152 0 260.5 96.5t160.5 260t52 376.5z" />
    <glyph glyph-name="R" unicode="R" horiz-adv-x="1288" 
d="M319 1292q-85 0 -147 6q-7 53 8 125q273 21 486 21q136 0 241.5 -38t170.5 -120t65 -199q0 -163 -96.5 -275.5t-245.5 -158.5q71 -181 150 -344.5t102 -181.5l121 8q0 -30 -8.5 -71t-20.5 -64q-87 -23 -221 -35q-35 26 -114 205.5t-181 462.5q-115 0 -191 10l-43 -510
q102 -6 154 -18q4 -20 2.5 -58.5t-6.5 -56.5h-520q10 60 30 109q72 19 156 26zM492 1311l-48 -557q68 -6 201 -6q140 0 228 82.5t88 238.5q0 124 -94 186t-251 62q-68 0 -124 -6z" />
    <glyph glyph-name="S" unicode="S" horiz-adv-x="1126" 
d="M838 1118l18 178q-68 41 -176 41q-135 0 -211 -67t-76 -174q0 -68 32.5 -121.5t84 -89t114 -67.5t125 -68t114 -79.5t84 -111.5t32.5 -156q0 -120 -43 -208.5t-119 -138.5t-168 -73.5t-203 -23.5q-219 0 -385 78q13 169 54 344q29 0 77 -7t70 -16l-18 -208
q92 -60 239 -60t227.5 71t80.5 201q0 67 -32 119t-83 87t-112.5 67t-123 67.5t-112.5 78t-83 110t-32 153.5q0 194 120.5 306t342.5 112q77 0 175 -17t177 -44q-24 -208 -59 -311q-30 0 -69 8t-62 20z" />
    <glyph glyph-name="T" unicode="T" horiz-adv-x="1134" 
d="M702 1296l-96 -1163q117 -8 180 -20q4 -22 2.5 -56.5t-6.5 -56.5h-561q8 48 33 109q66 17 168 26l110 1161h-307q-10 -58 -43 -174q-58 -12 -127 -12l31 311h1092l-31 -319q-58 0 -119 14q-12 82 -12 180h-314z" />
    <glyph glyph-name="U" unicode="U" horiz-adv-x="1392" 
d="M979 1421h416q2 -10 2 -32q0 -45 -15 -82q-67 -14 -139 -17l-57 -745q-10 -132 -50.5 -238t-112 -184.5t-182 -121t-253.5 -42.5q-219 0 -327.5 113t-108.5 331q0 49 8 123l71 762q-71 3 -143 17q-11 55 -6 116h508q2 -20 -3 -57.5t-12 -56.5q-80 -14 -172 -17l-57 -747
q-6 -60 -6 -107q0 -167 76.5 -255.5t226.5 -88.5q114 0 199.5 60.5t130.5 157t57 220.5l74 760q-74 4 -133 15q-3 20 -0.5 59t8.5 57z" />
    <glyph glyph-name="V" unicode="V" horiz-adv-x="1394" 
d="M645 127h14q27 106 74 221l303 752q50 122 97 188q-75 3 -148 21q-12 50 -12 112h452q-2 -25 -11.5 -62t-20.5 -59q-41 -6 -113 -10l-571 -1317h-183l-323 1315q-39 2 -113 19q-14 54 -14 114h520q-3 -52 -37 -118q-74 -9 -180 -13q15 -32 36.5 -97t33.5 -118l163 -700
q25 -120 33 -248z" />
    <glyph glyph-name="W" unicode="W" horiz-adv-x="1959" 
d="M526 133h15q16 80 41 158l376 1147h209l127 -1108q11 -107 11 -187h14q10 57 39 152l282 842q29 88 64 151q-73 3 -139 21q-11 57 -11 112h424q-4 -68 -30 -121q-39 -6 -105 -10l-477 -1317h-201l-123 1137q-6 53 -6 190h-14q-10 -72 -47 -196l-363 -1131h-217l-190 1315
q-46 3 -107 19q-14 54 -14 114h502q-3 -47 -35 -118q-101 -12 -176 -15q28 -78 43 -188l98 -764q10 -75 10 -203z" />
    <glyph glyph-name="X" unicode="X" horiz-adv-x="1374" 
d="M117 127l454 625l-284 534q-60 4 -107 17q-16 58 -16 118h489q-3 -52 -30 -121q-63 -6 -154 -10q41 -48 96 -147l168 -309l209 327q49 79 102 129q-58 3 -124 15q-13 47 -13 116h406q0 -24 -8.5 -62t-18.5 -61q-34 -6 -94 -6l-401 -565l325 -596q65 -4 117 -16
q16 -58 16 -115h-495q8 65 30 109q65 14 144 20q-43 41 -103 150l-192 358l-236 -385q-47 -73 -100 -123q83 -3 143 -18q13 -54 13 -111h-482q9 52 33 106q40 12 113 21z" />
    <glyph glyph-name="Y" unicode="Y" horiz-adv-x="1200" 
d="M594 684h14q17 50 66 133l194 332q58 95 101 141q-74 4 -129 17q-13 50 -13 114h402q0 -53 -25 -118q-44 -8 -96 -11l-461 -737l-33 -422q115 -8 177 -20q10 -45 -5 -113h-559q8 48 33 109q66 17 168 26l43 422l-285 729q-49 4 -100 17q-12 44 -12 118h483
q-3 -56 -29 -114q-62 -11 -166 -15q41 -64 70 -139l127 -330q27 -75 35 -139z" />
    <glyph glyph-name="Z" unicode="Z" horiz-adv-x="1144" 
d="M27 0l14 143l819 1129v14h-528q-13 -82 -51 -188q-83 -15 -138 -15l33 338h889l-14 -145l-791 -1122v-15h563q23 120 49 201q59 18 138 18l-35 -358h-948z" />
    <glyph glyph-name="bracketleft" unicode="[" horiz-adv-x="600" 
d="M70 -395l196 1929h295q2 -12 2 -33q0 -34 -12 -80q-54 -12 -141 -16l-154 -1671q91 -4 158 -19q10 -46 -4 -110h-340z" />
    <glyph glyph-name="backslash" unicode="\" horiz-adv-x="796" 
d="M174 1569l494 -1862q-20 -13 -64 -26.5t-78 -16.5l-471 1829q16 20 53.5 44.5t65.5 31.5z" />
    <glyph glyph-name="bracketright" unicode="]" horiz-adv-x="600" 
d="M459 1534l-180 -1929h-338q0 64 20 112q76 12 158 15l170 1673q-84 4 -131 14q-3 23 -0.5 59.5t8.5 55.5h293z" />
    <glyph glyph-name="asciicircum" unicode="^" 
d="M127 758l358 608l127 12l389 -630q-64 -43 -120 -62l-234 387q-46 74 -90 172h-14q-38 -86 -88 -170l-238 -403q-19 11 -47.5 38.5t-42.5 47.5z" />
    <glyph glyph-name="underscore" unicode="_" horiz-adv-x="1024" 
d="M-2 -352h1028q6 -38 6 -86q0 -19 -2 -35h-1048q0 71 16 121z" />
    <glyph glyph-name="grave" unicode="`" horiz-adv-x="858" 
d="M406 1110l-244 315q31 22 86.5 37t103.5 15l185 -324q-20 -14 -62 -28.5t-69 -14.5z" />
    <glyph glyph-name="a" unicode="a" horiz-adv-x="1069" 
d="M600 117h-10q-53 -77 -132 -114.5t-157 -37.5q-121 0 -192.5 90.5t-71.5 276.5q0 130 35 251t100 212q147 202 381 202q174 0 305 -92l-98 -751q0 -18 10 -43l160 14q0 -22 -10.5 -57.5t-22.5 -55.5q-44 -18 -121.5 -32.5t-122.5 -14.5q-39 66 -53 152zM600 254l84 604
q-54 31 -133 31t-144 -43t-106 -111q-43 -72 -65.5 -179t-22.5 -202q0 -126 45.5 -188t126.5 -62q62 0 120 40.5t95 109.5z" />
    <glyph glyph-name="b" unicode="b" horiz-adv-x="1060" 
d="M322 692l-64 -579q66 -25 139 -25q157 0 238 100q104 129 104 404q0 266 -186 266q-64 0 -131 -51t-100 -115zM322 823h20q96 174 293 174q58 0 107 -19t89.5 -59t63.5 -111t23 -167q0 -155 -42 -292t-120 -228q-67 -76 -160.5 -116t-200.5 -40q-157 0 -313 55l156 1332
l-148 -17q0 17 12.5 55t24.5 50q92 47 201 47q52 0 84 -8l-31 -297q-23 -223 -59 -359z" />
    <glyph glyph-name="c" unicode="c" horiz-adv-x="907" 
d="M614 702l15 146q-50 31 -105 31q-68 0 -126 -35t-97 -96q-84 -133 -84 -363q0 -142 46 -206t140 -64q65 0 152.5 28t149.5 62q0 -25 -9 -61.5t-20 -59.5q-65 -48 -156 -83.5t-184 -35.5q-151 0 -227 98t-76 275q0 276 141 469q65 87 166.5 138.5t210.5 51.5
q137 0 229 -73q0 -132 -53 -248q-27 0 -61 7.5t-52 18.5z" />
    <glyph glyph-name="d" unicode="d" horiz-adv-x="1083" 
d="M942 1479l-164 -1325q0 -18 10 -43l158 14q0 -22 -10.5 -57.5t-22.5 -55.5q-45 -19 -120 -33t-121 -14q-38 75 -51 152h-11q-58 -77 -139.5 -114.5t-163.5 -37.5q-124 0 -197 88.5t-73 274.5q0 130 34 252t99 211q68 97 166 151.5t215 54.5q78 0 164 -39l53 394l-147 -17
q0 17 12 55t24 50q92 47 201 47q52 0 84 -8zM621 254l77 594q-56 37 -141 37q-80 0 -145.5 -43t-108.5 -111q-46 -69 -68 -174.5t-22 -202.5q0 -245 180 -245q66 0 126.5 38t101.5 107z" />
    <glyph glyph-name="e" unicode="e" horiz-adv-x="899" 
d="M782 772q0 -326 -561 -348v-62q0 -249 170 -249q68 0 155 27t152 69q0 -63 -24 -113q-65 -57 -158 -94t-199 -37q-135 0 -206.5 91t-71.5 257q0 147 37 283t117 231q65 77 156.5 123.5t197.5 46.5q109 0 172 -60.5t63 -164.5zM510 887q-63 0 -119 -35t-90 -94
q-51 -84 -68 -215q98 3 169.5 18t112 34.5t64 49t30.5 56t7 61.5q0 56 -26 90.5t-80 34.5z" />
    <glyph glyph-name="f" unicode="f" horiz-adv-x="616" 
d="M362 963h254q7 -54 -6 -119h-256l-121 -1151q-50 -8 -102 -8q-56 0 -80 8l142 1151h-158q6 51 39 106q58 22 131 35l14 111q13 104 51 182.5t92.5 125t118.5 69t137 22.5q101 0 199 -35q0 -51 -17.5 -122.5t-39.5 -118.5q-23 0 -55.5 10t-53.5 22l19 129q-24 15 -64 15
q-82 0 -145 -66.5t-80 -216.5z" />
    <glyph glyph-name="g" unicode="g" horiz-adv-x="1040" 
d="M868 905l-88 -831q-11 -99 -29.5 -179t-54.5 -154.5t-86.5 -124.5t-127 -80t-173.5 -30q-157 0 -293 56q-24 53 -24 125q0 31 6 55q168 -100 315 -100q130 0 197.5 85t91.5 238q17 110 39 176h-20q-56 -84 -138 -125t-164 -41q-124 0 -197 89t-73 274q0 129 35 249
t100 210q148 200 383 200q170 0 301 -92zM629 270l71 586q-58 33 -137 33q-78 0 -142.5 -42.5t-107.5 -109.5q-44 -70 -66 -175t-22 -202q0 -124 46.5 -184.5t131.5 -60.5q64 0 125.5 42t100.5 113z" />
    <glyph glyph-name="h" unicode="h" horiz-adv-x="1124" 
d="M80 4l166 1348l-148 -17q0 17 12.5 55t24.5 50q92 47 201 47q52 0 84 -8l-31 -297q-17 -172 -57 -348h20q104 163 310 163q237 0 237 -254q0 -55 -15.5 -178t-37 -262t-23.5 -158q0 -17 11 -34l157 16q0 -23 -10.5 -58.5t-22.5 -56.5q-49 -19 -122.5 -33t-118.5 -14
q-29 33 -50.5 79t-21.5 73q80 444 80 569q0 82 -37 129t-110 47q-82 0 -151.5 -60.5t-96.5 -129.5l-76 -668q-50 -8 -98 -8q-52 0 -76 8z" />
    <glyph glyph-name="i" unicode="i" horiz-adv-x="573" 
d="M193 850l-150 -16q0 17 12.5 54.5t24.5 49.5q92 47 203 47q52 0 84 -8l-103 -832q0 -14 10 -34l160 16q0 -23 -10.5 -58.5t-22.5 -56.5q-49 -18 -123.5 -32.5t-119.5 -14.5q-29 33 -50.5 79t-21.5 73zM326 1448q50 0 80 -30t30 -83q0 -56 -31 -88.5t-79 -32.5
q-113 0 -113 121q0 49 32.5 81t80.5 32z" />
    <glyph glyph-name="j" unicode="j" horiz-adv-x="563" 
d="M-37 -469q-22 8 -47.5 30t-34.5 42q99 101 174 246t95 307l83 694l-149 -16q0 17 12.5 54.5t24.5 49.5q92 47 203 47q52 0 84 -8l-82 -768q-40 -370 -363 -678zM348 1448q50 0 80.5 -30t30.5 -83q0 -56 -31.5 -88.5t-79.5 -32.5q-112 0 -112 121q0 49 32 81t80 32z" />
    <glyph glyph-name="k" unicode="k" horiz-adv-x="1019" 
d="M258 4q-50 -8 -98 -8q-52 0 -76 8l160 1348l-148 -17q0 17 12.5 55t24.5 50q92 47 199 47q52 0 84 -8l-113 -1035q119 74 239.5 182.5t190.5 196.5q0 16 -6 31l-145 -6q0 25 12.5 61t30.5 54q110 22 229 22q16 -21 34.5 -66t18.5 -65q-43 -78 -145.5 -186t-218.5 -191
q58 -118 123 -224.5t106 -152.5l121 23q0 -67 -25 -115q-32 -18 -91 -34t-103 -21q-46 48 -116 175.5t-138 277.5q-65 -42 -127 -70z" />
    <glyph glyph-name="l" unicode="l" horiz-adv-x="581" 
d="M279 111l159 16q0 -23 -10 -59t-22 -56q-49 -18 -124 -32.5t-120 -14.5q-29 33 -50.5 79t-21.5 73l162 1235l-148 -17q0 17 12.5 55t24.5 50q92 47 201 47q52 0 84 -8l-158 -1334q0 -12 11 -34z" />
    <glyph glyph-name="m" unicode="m" horiz-adv-x="1656" 
d="M326 811h20q37 76 117 131t194 55q204 0 226 -186h10q32 78 114 132t197 54q232 0 232 -249q0 -55 -15.5 -178.5t-37 -265t-23.5 -159.5q0 -19 10 -34l158 16q0 -23 -10.5 -58.5t-22.5 -56.5q-47 -19 -121.5 -33t-120.5 -14q-29 33 -50 79t-21 73q80 450 80 573
q0 81 -34.5 126.5t-105.5 45.5q-70 0 -136.5 -56t-100.5 -128l-76 -674q-50 -8 -96 -8q-50 0 -74 8q80 540 80 701q0 76 -35.5 116.5t-103.5 40.5q-75 0 -143 -57t-101 -127l-76 -674q-50 -8 -98 -8q-52 0 -76 8l113 846l-150 -16q0 17 12.5 54.5t24.5 49.5q31 20 83.5 33.5
t104.5 13.5q43 0 70 -8z" />
    <glyph glyph-name="n" unicode="n" horiz-adv-x="1116" 
d="M322 811h20q102 186 315 186q238 0 238 -254q0 -55 -15.5 -178t-37 -262t-23.5 -158q0 -19 10 -34l158 16q0 -23 -10.5 -58.5t-22.5 -56.5q-49 -19 -122.5 -33t-118.5 -14q-29 33 -50.5 79t-21.5 73q80 444 80 569q0 176 -139 176q-78 0 -147.5 -57t-102.5 -127l-76 -674
q-50 -8 -98 -8q-52 0 -76 8l113 846l-150 -16q0 17 12.5 54.5t24.5 49.5q31 20 83.5 33.5t104.5 13.5q43 0 70 -8z" />
    <glyph glyph-name="o" unicode="o" horiz-adv-x="999" 
d="M377 -35q-165 0 -251.5 100t-86.5 293q0 248 102 414q66 105 166 165t219 60q158 0 248 -100t90 -283q0 -281 -127 -462q-62 -88 -156 -137.5t-204 -49.5zM397 86q131 0 211 141q80 140 80 369q0 128 -46 205.5t-132 77.5q-74 0 -133.5 -44.5t-97.5 -119.5
q-62 -124 -62 -338q0 -136 46 -213.5t134 -77.5z" />
    <glyph glyph-name="p" unicode="p" horiz-adv-x="1085" 
d="M340 692l-70 -575q74 -29 152 -29q152 0 233 100q103 121 103 402q0 268 -185 268q-66 0 -132.5 -50t-100.5 -116zM260 6l-49 -465q-50 -8 -98 -8q-52 0 -76 8l164 1309l-146 -16q0 17 12.5 54.5t24.5 49.5q31 20 84 33.5t105 13.5q42 0 69 -8l-20 -154h20
q54 80 125.5 127t179.5 47q57 0 105.5 -19t89 -59.5t63.5 -112t23 -167.5q0 -155 -41 -291t-119 -227q-64 -76 -155 -116t-193 -40q-46 0 -94 11t-74 30z" />
    <glyph glyph-name="q" unicode="q" horiz-adv-x="1050" 
d="M874 905l-124 -1220q0 -15 10 -35l155 14q0 -23 -8 -57t-20 -53q-46 -17 -121 -32.5t-115 -15.5q-26 32 -47.5 79.5t-21.5 72.5l28 299q7 81 35 174h-20q-56 -85 -137.5 -125.5t-165.5 -40.5q-124 0 -198.5 90.5t-74.5 276.5q0 132 34.5 252t100.5 211q150 202 387 202
q172 0 303 -92zM635 260l72 596q-58 33 -140 33q-80 0 -144.5 -42.5t-107.5 -111.5q-46 -71 -68 -176.5t-22 -204.5q0 -126 48 -188t133 -62q65 0 127.5 41.5t101.5 114.5z" />
    <glyph glyph-name="r" unicode="r" horiz-adv-x="751" 
d="M305 770h21q32 97 102.5 162t169.5 65q58 0 98 -18q15 -44 15 -92q0 -47 -15 -94q-62 41 -139 41t-141.5 -52t-100.5 -149l-63 -629q-50 -8 -98 -8q-52 0 -76 8l110 846l-151 -16q0 17 12.5 54.5t24.5 49.5q31 20 83.5 33.5t104.5 13.5q43 0 70 -8z" />
    <glyph glyph-name="s" unicode="s" horiz-adv-x="841" 
d="M557 750l10 112q-56 27 -123 27q-63 0 -104 -32.5t-41 -90.5q0 -41 21 -78t54 -65t73 -55.5t80.5 -57t73.5 -62t54 -77t21 -95.5q0 -103 -54.5 -175t-137 -104t-181.5 -32q-132 0 -211.5 50t-79.5 157q15 30 66 52t100 22q4 -89 46 -126.5t126 -37.5q68 0 115 37t47 100
q0 41 -21 76t-54 62t-73 53.5t-80.5 55.5t-73.5 62t-54 79.5t-21 101.5q0 127 88 207.5t250 80.5q125 0 236 -51q0 -98 -39 -227q-25 0 -60.5 9.5t-52.5 21.5z" />
    <glyph glyph-name="t" unicode="t" horiz-adv-x="710" 
d="M209 985l59 238q22 14 61 23t70 9l-30 -292h282q2 -14 2 -37q0 -32 -8 -82h-295l-57 -582q-8 -84 14.5 -123t83.5 -39q78 0 174 39q0 -58 -26 -108q-117 -66 -238 -66q-188 0 -188 203q0 78 28 284t60 392h-148q7 58 39 106q48 23 117 35z" />
    <glyph glyph-name="u" unicode="u" horiz-adv-x="1134" 
d="M674 123h-10q-103 -158 -318 -158q-37 0 -69.5 7t-63.5 25t-53 45.5t-35.5 71.5t-13.5 101q0 88 28.5 289t53.5 346l-150 -16q0 17 12.5 54.5t24.5 49.5q92 47 203 47q52 0 84 -8q-25 -189 -50.5 -415.5t-25.5 -282.5q0 -175 143 -175q73 0 140 43t106 111l78 592
l-142 -16q0 17 12.5 55.5t24.5 50.5q85 45 195 45q50 0 82 -8l-94 -825q0 -4 3.5 -19.5t6.5 -19.5l153 14q0 -23 -10 -59t-22 -56q-46 -17 -121.5 -32t-120.5 -15q-40 66 -51 158z" />
    <glyph glyph-name="v" unicode="v" horiz-adv-x="974" 
d="M113 852l-142 -14q0 17 11 54.5t22 49.5q27 18 85 30.5t114 12.5q40 0 73 -10l101 -664q17 -110 20 -207h15q172 337 313 721q0 19 -8 35l-168 -14q2 25 14.5 58.5t30.5 51.5q33 16 115.5 28.5t124.5 12.5q25 -25 45 -69t20 -66q-218 -492 -471 -913l-162 43z" />
    <glyph glyph-name="w" unicode="w" horiz-adv-x="1484" 
d="M1405 862q-151 -415 -401 -913l-181 43l-84 813h-14q-52 -183 -148 -440.5t-171 -415.5l-177 43l-82 860l-143 -14q0 17 11 54.5t22 49.5q28 19 84 31t112 12q39 0 72 -10l49 -635q4 -43 4 -234h15q67 168 150 422.5t134 438.5l215 20l74 -647q8 -76 8 -234h15
q177 405 276 719q0 19 -8 35l-137 -10q2 26 15 62t30 53q29 11 93.5 21.5t96.5 10.5q26 -25 48 -69t22 -66z" />
    <glyph glyph-name="x" unicode="x" horiz-adv-x="1011" 
d="M383 977q84 -210 139 -379h10q145 220 205 360q31 9 80 9t94 -9q-58 -105 -153.5 -245t-177.5 -242q54 -129 108 -239t70 -121l141 26q0 -69 -25 -117q-33 -20 -100 -40.5t-115 -26.5q-25 9 -81.5 121.5t-120.5 273.5h-11q-171 -268 -303 -395q-37 9 -87 32t-79 44
q-10 30 -10 67q0 32 8 56l119 -48q68 68 154 175t147 204q-66 162 -145 373l-135 -18q0 17 12 54t23 50q24 18 70.5 30.5t90.5 12.5q48 0 72 -8z" />
    <glyph glyph-name="y" unicode="y" horiz-adv-x="976" 
d="M125 854l-145 -14q0 17 10.5 53.5t21.5 48.5q28 19 83.5 31t111.5 12q41 0 74 -10l129 -590q19 -93 28 -250h15q190 362 290 690q0 19 -8 35l-164 -14q2 25 14.5 58.5t30.5 51.5q34 16 112.5 28.5t119.5 12.5q25 -25 45 -69t20 -66q-93 -250 -245 -551t-252 -442
q-93 -131 -191.5 -214t-216.5 -134q-18 29 -31.5 73.5t-13.5 81.5q255 79 373 283z" />
    <glyph glyph-name="z" unicode="z" horiz-adv-x="921" 
d="M16 0l-8 88l580 746v14h-328q-16 -67 -57 -143q-65 0 -111 18l37 240h674l8 -89l-582 -745v-14q209 0 373 18q15 60 55 143q23 5 58.5 6t58.5 -3l-53 -279h-705z" />
    <glyph glyph-name="braceleft" unicode="{" horiz-adv-x="630" 
d="M432 -297q3 -21 0 -60.5t-10 -56.5q-82 3 -138 26.5t-85 66t-39 95.5t-4 124l28 372q6 83 2.5 140t-34.5 88t-97 37q6 58 35 114q35 4 60.5 16.5t41.5 31t27 49.5t16.5 62.5t10.5 78.5l35 323q16 160 92.5 246.5t249.5 93.5q-1 -23 -14 -62t-25 -61q-67 -9 -98 -55.5
t-42 -148.5l-30 -324q-11 -124 -54 -199t-129 -102v-10q80 -24 106 -91t17 -192l-28 -377q-8 -107 17 -162.5t89 -62.5z" />
    <glyph glyph-name="bar" unicode="|" horiz-adv-x="614" 
d="M344 1548v-1925q-12 -4 -65 -4q-54 0 -70 4v1915q55 10 135 10z" />
    <glyph glyph-name="braceright" unicode="}" horiz-adv-x="630" 
d="M-49 -297q67 3 109 55.5t51 145.5l36 381q13 135 53 207t130 96v10q-76 27 -103.5 97t-19.5 192l22 319q9 122 -17.5 172.5t-105.5 57.5q3 24 18.5 59t29.5 55q63 -6 109.5 -26.5t73 -50t41.5 -71t18.5 -83t0.5 -92.5l-22 -328q-4 -70 -3 -124t29 -88t88 -38
q15 -51 15 -114q-97 -7 -138 -59t-53 -179l-39 -379q-8 -76 -26.5 -131t-54.5 -100.5t-96 -71t-144 -29.5q-6 21 -6 64q0 29 4 53z" />
    <glyph glyph-name="asciitilde" unicode="~" 
d="M180 436q-18 11 -38.5 36.5t-30.5 45.5q44 62 118 103t158 41q54 0 107.5 -16t90.5 -34.5t86.5 -34.5t94.5 -16q52 0 94 25t66 61q48 -10 102 -43q-41 -76 -120.5 -124t-172.5 -48q-62 0 -116.5 15.5t-87.5 34.5t-79.5 34.5t-93.5 15.5q-55 0 -102 -28.5t-76 -67.5z" />
    <glyph glyph-name="uni00A0" unicode="&#xa0;" horiz-adv-x="391" 
 />
    <glyph glyph-name="exclamdown" unicode="&#xa1;" horiz-adv-x="555" 
d="M39 -436l131 958q48 19 129 19l-41 -977q-50 -13 -108 -13q-57 0 -111 13zM256 987q58 0 92.5 -34t34.5 -93q0 -64 -35.5 -101.5t-91.5 -37.5q-127 0 -127 139q0 54 37 90.5t90 36.5z" />
    <glyph glyph-name="cent" unicode="&#xa2;" horiz-adv-x="927" 
d="M664 745l14 146q-53 31 -113 31q-67 0 -126 -31.5t-101 -87.5q-90 -118 -90 -328q0 -128 48.5 -187t147.5 -59q136 0 322 93q0 -25 -9 -61.5t-20 -59.5q-106 -76 -231 -107l-14 -174q-20 -4 -72 -4q-40 0 -64 4l15 160q-152 1 -230 93t-78 255q0 253 148 434
q103 125 268 164l15 123q47 14 122 14l-10 -123q134 -6 223 -73q0 -132 -53 -248q-27 0 -60.5 7.5t-51.5 18.5z" />
    <glyph glyph-name="sterling" unicode="&#xa3;" horiz-adv-x="1040" 
d="M752 481h-357q-8 -111 -47 -207.5t-102 -138.5v-10h479q14 74 49 154q46 14 111 10l-35 -289h-891q8 50 37 98q53 29 129 43q102 142 108 340h-167q0 59 24 121h139q-8 98 -8 141q0 369 420 369q140 0 270 -51q0 -53 -15.5 -133t-31.5 -119q-76 0 -125 27l15 135
q-68 24 -131 24q-232 0 -232 -260q0 -18 1 -40t2.5 -50t2.5 -43h361q10 -55 -6 -121z" />
    <glyph glyph-name="currency" unicode="&#xa4;" horiz-adv-x="1110" 
d="M233 827l-104 158q9 20 35 42.5t51 29.5l104 -156q104 68 242 68q131 0 223 -64l125 146q25 -4 50 -22t36 -38l-139 -160q64 -89 64 -219q0 -229 -123 -368l110 -162q-12 -20 -44.5 -41t-59.5 -27l-103 152q-94 -55 -223 -55q-137 0 -223 59l-139 -160q-23 6 -48 29.5
t-34 46.5l143 164q-55 88 -55 225q0 218 112 352zM487 223q134 0 208.5 104t74.5 269q0 114 -59.5 187t-159.5 73q-137 0 -211 -97.5t-74 -256.5q0 -126 59.5 -202.5t161.5 -76.5z" />
    <glyph glyph-name="yen" unicode="&#xa5;" horiz-adv-x="1089" 
d="M526 516h15q23 51 51 92l149 219q48 69 90 105q-73 11 -116 29q-13 49 -6 106h360q-7 -58 -31 -111q-41 -17 -88 -20l-250 -365h195q6 -43 -6 -98h-256l-49 -72l-6 -63h288q6 -43 -6 -98h-293l-10 -109q89 -7 162 -25q11 -55 0 -106h-518q8 50 37 98q66 30 143 43l10 99
h-311q0 42 18 98h301l7 47l-39 88h-258q0 42 18 98h197l-154 353q-54 16 -100 45q-4 28 -4 59q0 25 2 39h452q-7 -60 -24 -106q-70 -23 -150 -29q38 -47 62 -107l90 -217q18 -43 28 -92z" />
    <glyph glyph-name="brokenbar" unicode="&#xa6;" horiz-adv-x="614" 
d="M336 1548v-700q-12 -4 -68 -4q-55 0 -71 4v690q55 10 139 10zM336 381v-758q-12 -4 -68 -4q-55 0 -71 4v748q55 10 139 10z" />
    <glyph glyph-name="section" unicode="&#xa7;" horiz-adv-x="968" 
d="M82 674q0 92 40 169.5t101 125.5q-2 12 -2 41q0 135 101 212.5t270 77.5q163 0 307 -65q-10 -111 -51 -258q-31 0 -69 8.5t-60 20.5l18 151q-83 33 -157 33q-92 0 -144.5 -38.5t-52.5 -107.5q0 -39 25 -72.5t64.5 -60t87.5 -54t96.5 -64t88 -81.5t64.5 -114.5t25 -155.5
q0 -159 -117 -276q8 -46 8 -72q0 -106 -60.5 -181.5t-158.5 -110.5t-223 -35q-139 0 -224 57t-100 170q19 27 71.5 50.5t94.5 23.5q29 -185 194 -185q113 0 180.5 51t67.5 134q0 43 -21 79.5t-55 61.5t-77.5 52t-89 51t-89 58.5t-77.5 74t-55 98.5t-21 131zM238 711
q0 -61 29 -110t78 -85.5t101 -68t110.5 -72.5t94.5 -82q29 67 29 119q0 58 -22.5 106.5t-57 80.5t-81 64t-90 56.5t-88 60t-71.5 72.5q-32 -69 -32 -141z" />
    <glyph glyph-name="dieresis" unicode="&#xa8;" horiz-adv-x="858" 
d="M236 1370q45 0 73.5 -28t28.5 -76q0 -51 -29 -82t-73 -31q-105 0 -105 113q0 44 30.5 74t74.5 30zM639 1370q45 0 73.5 -28t28.5 -76q0 -51 -29 -82t-73 -31q-104 0 -104 113q0 44 30 74t74 30z" />
    <glyph glyph-name="copyright" unicode="&#xa9;" horiz-adv-x="1628" 
d="M733 -41q-179 0 -321 84t-219.5 230.5t-77.5 328.5q0 222 102 408t277.5 293.5t384.5 107.5q182 0 327.5 -85.5t226 -233t80.5 -328.5q0 -163 -61 -311.5t-164.5 -257t-248.5 -172.5t-306 -64zM758 63q131 0 249 55t202.5 148t134 220.5t49.5 267.5q0 151 -68 277
t-190.5 200t-272.5 74q-171 0 -315 -92t-227.5 -250t-83.5 -345q0 -154 67 -281t187 -200.5t268 -73.5zM967 846l12 115q-39 20 -88 20q-106 0 -173 -89.5t-67 -238.5q0 -247 201 -247q109 0 203 38q0 -21 -10 -52.5t-21 -51.5q-116 -57 -246 -57q-143 0 -223 93t-80 253
q0 104 34.5 190.5t94.5 145t139.5 90.5t169.5 32q120 0 205 -40q-14 -129 -39 -226q-26 0 -60.5 7t-51.5 18z" />
    <glyph glyph-name="ordfeminine" unicode="&#xaa;" horiz-adv-x="768" 
d="M459 733h-10q-37 -49 -93 -73.5t-112 -24.5q-83 0 -134 61.5t-51 188.5q0 80 26 156t73 133q104 126 276 126q137 0 221 -59l-61 -461l6 -30l92 10q0 -48 -18 -86q-35 -15 -89.5 -26t-88.5 -11q-34 47 -37 96zM459 842l49 346q-33 20 -86 20q-89 0 -152 -88
q-61 -84 -61 -215q0 -78 30 -116.5t80 -38.5q40 0 77.5 24.5t62.5 67.5zM623 424h-537q0 62 23 121h520q7 -55 -6 -121z" />
    <glyph glyph-name="guillemotleft" unicode="&#xab;" horiz-adv-x="1064" 
d="M301 512q49 -177 131 -389q-23 -12 -67 -23t-78 -14q-95 192 -178 426q98 185 231 381q31 12 85.5 21.5t96.5 9.5q-134 -229 -221 -412zM674 520q43 -155 129 -387q-23 -12 -67 -23t-79 -14q-98 197 -178 424q98 186 234 381q31 12 85.5 21.5t96.5 9.5
q-122 -202 -221 -412z" />
    <glyph glyph-name="logicalnot" unicode="&#xac;" 
d="M115 625h884v-361q-27 -6 -75 -6q-50 0 -84 6v221h-744q0 66 19 140z" />
    <glyph glyph-name="uni00AD" unicode="&#xad;" horiz-adv-x="671" 
d="M518 479h-465q0 30 9 76.5t20 75.5h444q2 -14 2 -41q0 -63 -10 -111z" />
    <glyph glyph-name="registered" unicode="&#xae;" horiz-adv-x="1028" 
d="M506 676q-172 0 -274.5 105.5t-102.5 277.5q0 222 134.5 366t350.5 144q171 0 273 -103.5t102 -271.5q0 -119 -39.5 -218.5t-106 -164t-153.5 -100t-184 -35.5zM522 762q161 0 265 115t104 288q0 139 -80.5 227.5t-216.5 88.5q-166 0 -266.5 -115.5t-100.5 -290.5
q0 -138 80 -225.5t215 -87.5zM397 958l35 338q-27 0 -51 4q-2 8 -1.5 28t3.5 30q94 8 180 8q97 0 148 -29.5t51 -99.5q0 -52 -36 -90.5t-81 -44.5q53 -118 70 -146l53 2q-3 -30 -14 -55q-58 -13 -109 -16q-47 97 -86 203q-27 0 -55 4l-12 -136q27 0 57 -10q6 -24 2 -49h-225
q3 24 14 45q23 10 57 14zM520 1300l-12 -147q16 -4 65 -4q40 0 69.5 21.5t29.5 58.5q0 41 -29.5 57.5t-93.5 16.5q-11 0 -29 -3z" />
    <glyph glyph-name="macron" unicode="&#xaf;" horiz-adv-x="858" 
d="M688 1186h-504q0 64 25 133h487q2 -12 2 -37q0 -54 -10 -96z" />
    <glyph glyph-name="degree" unicode="&#xb0;" horiz-adv-x="753" 
d="M438 1300q109 0 172.5 -58.5t63.5 -162.5q0 -147 -78.5 -231t-214.5 -84q-117 0 -178.5 57t-61.5 168q0 139 82.5 225t214.5 86zM391 870q72 0 111 53t39 140q0 60 -30 95.5t-83 35.5q-73 0 -112.5 -49t-39.5 -133q0 -65 31.5 -103.5t83.5 -38.5z" />
    <glyph glyph-name="plusminus" unicode="&#xb1;" 
d="M639 821h330q8 -36 8 -88q0 -21 -2 -37h-336v-366q-12 -4 -74 -4t-82 4v366h-340q0 48 17 125h323v353q74 12 156 12v-365zM152 131h809q8 -36 8 -92q0 -23 -2 -39h-832q0 49 17 131z" />
    <glyph glyph-name="twosuperior" unicode="&#xb2;" horiz-adv-x="788" 
d="M68 778l12 123q30 28 91.5 76t114 90.5t105.5 94t84 106.5t31 108q0 49 -27.5 69.5t-91.5 20.5q-65 0 -125 -34l-4 -113q-41 -14 -115 -14q-6 94 -6 208q132 66 273 66q260 0 260 -186q0 -52 -24.5 -106t-58.5 -97t-85 -90.5t-90 -77t-88.5 -66t-65.5 -49.5v-10
q176 0 395 16q-3 -70 -20 -135h-565z" />
    <glyph glyph-name="threesuperior" unicode="&#xb3;" horiz-adv-x="788" 
d="M190 1126q0 60 21 109q289 0 289 147q0 28 -10.5 46.5t-29.5 27t-37.5 11.5t-43.5 3q-49 0 -117 -14t-117 -39q3 61 35 121q89 41 211 41q119 0 195 -42.5t76 -133.5q0 -79 -57.5 -138.5t-143.5 -66.5v-10q80 -6 132 -51t52 -125q0 -84 -52 -141.5t-131 -82t-179 -24.5
q-118 0 -195 22q-14 43 -14 107q0 23 2 37q46 -18 113.5 -33.5t123.5 -15.5q75 0 120.5 28t45.5 88q0 73 -64.5 101t-224.5 28z" />
    <glyph glyph-name="acute" unicode="&#xb4;" horiz-adv-x="858" 
d="M713 1421l-334 -340q-22 12 -46 40.5t-36 56.5l256 319q38 -6 87.5 -29.5t72.5 -46.5z" />
    <glyph glyph-name="mu" unicode="&#xb5;" horiz-adv-x="1159" 
d="M197 166h-15q15 -195 15 -297q0 -193 -25 -420q-41 1 -96 15.5t-86 29.5q142 935 203 1464q24 10 82 17.5t90 7.5q-23 -126 -48.5 -327t-25.5 -298q0 -122 43 -181.5t137 -59.5q78 0 150 47.5t108 111.5q24 367 84 682q21 9 75.5 17t84.5 8q-80 -513 -80 -725
q0 -76 14.5 -111.5t50.5 -35.5q49 0 103 24q-1 -29 -11.5 -67.5t-21.5 -59.5q-71 -43 -139 -43q-135 0 -152 185h-10q-17 -36 -41.5 -66.5t-61 -58.5t-89 -44t-115.5 -16q-194 0 -223 201z" />
    <glyph glyph-name="paragraph" unicode="&#xb6;" horiz-adv-x="1114" 
d="M381 -229l96 958q-27 -2 -69 -2q-71 0 -132.5 16.5t-113 52t-81.5 98t-30 146.5q0 200 151 308t419 108q298 0 485 -18q0 -79 -16 -119q-41 -2 -146 -2l-123 -1376q-8 -4 -63 -4q-56 0 -72 4l139 1396q-24 1 -155 6l-146 -1548q0 -15 11 -37l423 45q0 -56 -28 -110
q-88 -26 -239 -48.5t-238 -25.5q-28 32 -50 80.5t-22 71.5z" />
    <glyph glyph-name="periodcentered" unicode="&#xb7;" horiz-adv-x="604" 
d="M256 645q62 0 98.5 -36.5t36.5 -102.5q0 -68 -37 -109t-98 -41q-139 0 -139 150q0 60 40 99.5t99 39.5z" />
    <glyph glyph-name="cedilla" unicode="&#xb8;" horiz-adv-x="815" 
d="M291 -158l86 172q54 13 110 13l-45 -148q43 -12 76 -46t33 -83q0 -89 -83 -151t-187 -70q-35 35 -48 76q65 11 107.5 45.5t42.5 87.5q0 39 -25.5 67t-66.5 37z" />
    <glyph glyph-name="onesuperior" unicode="&#xb9;" horiz-adv-x="788" 
d="M121 778q7 49 37 96q49 12 129 19l55 553l-176 -16q8 63 35 108q108 30 303 41l-58 -690q83 -4 144 -12q6 -21 6 -54q0 -25 -4 -45h-471z" />
    <glyph glyph-name="ordmasculine" unicode="&#xba;" horiz-adv-x="782" 
d="M354 635q-117 0 -177 65.5t-60 192.5q0 158 71 262q46 69 118.5 107t160.5 38q115 0 177.5 -65t62.5 -191q0 -79 -25 -155.5t-66 -134.5q-90 -119 -262 -119zM379 735q72 0 129 86q49 73 49 211q0 170 -108 170q-46 0 -84 -26.5t-60 -71.5q-39 -79 -39 -189
q0 -180 113 -180zM647 424h-563q0 64 22 121h547q7 -55 -6 -121z" />
    <glyph glyph-name="guillemotright" unicode="&#xbb;" horiz-adv-x="1064" 
d="M309 512q-42 158 -123 377q25 17 65.5 29t74.5 12q129 -273 174 -418q-86 -160 -264 -426q-31 1 -71.5 14.5t-60.5 28.5q128 221 205 383zM686 520q-35 135 -123 377q25 17 66.5 29t75.5 12q129 -273 174 -418q-95 -175 -267 -428q-30 1 -70 15.5t-61 29.5
q128 221 205 383z" />
    <glyph glyph-name="onequarter" unicode="&#xbc;" horiz-adv-x="1896" 
d="M1597 1405l-1093 -1462q-26 6 -57.5 28t-43.5 41l1078 1413q61 0 116 -20zM184 584q7 49 37 96q43 10 129 18l56 553l-177 -16q8 63 35 108q108 30 303 41l-57 -690q81 -4 143 -12q6 -21 6 -53q0 -25 -4 -45h-471zM1556 205l-14 -201q-30 -6 -82 -6q-41 0 -65 6l18 201
h-371l11 98l372 483h181l-41 -467h108q2 -12 2 -34q0 -40 -8 -80h-111zM1421 319l27 228q9 73 20 121h-8l-256 -342v-9q29 2 90 2h127z" />
    <glyph glyph-name="onehalf" unicode="&#xbd;" horiz-adv-x="1896" 
d="M1532 1405l-1094 -1462q-25 6 -56.5 28t-43.5 41l1077 1413q62 0 117 -20zM174 584q7 49 37 96q43 10 129 18l55 553l-176 -16q8 63 35 108q108 30 303 41l-57 -690q81 -4 143 -12q6 -21 6 -53q0 -25 -4 -45h-471zM1071 0l12 123q30 28 91.5 76t114 90.5t105.5 94
t84 106.5t31 108q0 49 -27.5 69.5t-90.5 20.5q-64 0 -125 -35l-4 -112q-44 -15 -115 -15q-6 94 -6 209q132 66 272 66q260 0 260 -187q0 -52 -24 -106t-58.5 -97t-85 -90t-89.5 -76.5t-88.5 -66t-65.5 -49.5v-10q176 0 395 16q-3 -65 -21 -135h-565z" />
    <glyph glyph-name="threequarters" unicode="&#xbe;" horiz-adv-x="1896" 
d="M1618 1405l-1094 -1462q-25 6 -56.5 28t-43.5 41l1077 1413q62 0 117 -20zM295 932q0 61 20 108q289 0 289 148q0 28 -10.5 46.5t-29.5 27t-37.5 11.5t-43.5 3q-49 0 -116.5 -14t-116.5 -39q3 60 35 120q89 41 211 41q119 0 194.5 -42.5t75.5 -133.5q0 -78 -57.5 -137.5
t-143.5 -66.5v-11q80 -7 132.5 -51.5t52.5 -124.5q0 -64 -29.5 -113t-81 -77.5t-115 -43t-137.5 -14.5q-113 0 -194 23q-15 47 -15 106q0 23 2 37q46 -18 114 -33.5t124 -15.5q74 0 120 28.5t46 88.5q0 73 -64.5 101t-224.5 28zM1577 205l-14 -201q-30 -6 -82 -6
q-42 0 -66 6l19 201h-371l10 98l373 483h180l-41 -467h109q2 -12 2 -34q0 -40 -8 -80h-111zM1442 319l26 228q8 64 21 121h-8l-256 -342v-9q29 2 90 2h127z" />
    <glyph glyph-name="questiondown" unicode="&#xbf;" horiz-adv-x="878" 
d="M453 987q58 0 92.5 -34t34.5 -93q0 -64 -35.5 -101.5t-91.5 -37.5q-127 0 -127 139q0 54 37 90.5t90 36.5zM516 -309l19 194q61 33 141 33q2 -31 2 -96q0 -98 -10 -228q-63 -30 -173 -53.5t-194 -23.5q-170 0 -260 71t-90 195q0 62 23.5 118.5t61.5 99t83.5 82.5t91 76.5
t83.5 72.5t61.5 79t23.5 88q0 59 -31 119q26 20 74.5 37.5t89.5 22.5q49 -79 49 -177q0 -48 -22.5 -94.5t-58 -86t-79 -78t-86.5 -77.5t-78.5 -77.5t-58 -84.5t-22.5 -93q0 -73 47 -119.5t149 -46.5q38 0 86.5 13.5t77.5 33.5z" />
    <glyph glyph-name="Agrave" unicode="&#xc0;" horiz-adv-x="1458" 
d="M971 459h-516l-76 -174q-37 -88 -82 -158q80 -4 154 -18q4 -15 9 -53t5 -56h-471q10 56 39 109q41 14 102 22l633 1319h117l364 -1315q63 -4 119 -18q12 -54 12 -117h-491q10 61 33 111q55 14 151 24q-40 69 -63 168zM795 1239h-15q-18 -74 -75 -199l-205 -465h446
l-123 469q-28 114 -28 195zM907 1534l-448 197q26 35 72 71t83 51l357 -200q-3 -25 -23.5 -63.5t-40.5 -55.5z" />
    <glyph glyph-name="Aacute" unicode="&#xc1;" horiz-adv-x="1458" 
d="M971 459h-516l-76 -174q-37 -88 -82 -158q80 -4 154 -18q4 -15 9 -53t5 -56h-471q10 56 39 109q41 14 102 22l633 1319h117l364 -1315q63 -4 119 -18q12 -54 12 -117h-491q10 61 33 111q55 14 151 24q-40 69 -63 168zM795 1239h-15q-18 -74 -75 -199l-205 -465h446
l-123 469q-28 114 -28 195zM1225 1708l-492 -184q-12 38 -12 98q0 25 2 39l412 207q27 -22 53 -70t37 -90z" />
    <glyph glyph-name="Acircumflex" unicode="&#xc2;" horiz-adv-x="1458" 
d="M971 459h-516l-76 -174q-37 -88 -82 -158q80 -4 154 -18q4 -15 9 -53t5 -56h-471q10 56 39 109q41 14 102 22l633 1319h117l364 -1315q63 -4 119 -18q12 -54 12 -117h-491q10 61 33 111q55 14 151 24q-40 69 -63 168zM795 1239h-15q-18 -74 -75 -199l-205 -465h446
l-123 469q-28 114 -28 195zM743 1827h207l230 -205q-11 -25 -35 -54t-47 -42l-264 155l-314 -168q-11 22 -18.5 59t-7.5 64z" />
    <glyph glyph-name="Atilde" unicode="&#xc3;" horiz-adv-x="1458" 
d="M971 459h-516l-76 -174q-37 -88 -82 -158q80 -4 154 -18q4 -15 9 -53t5 -56h-471q10 56 39 109q41 14 102 22l633 1319h117l364 -1315q63 -4 119 -18q12 -54 12 -117h-491q10 61 33 111q55 14 151 24q-40 69 -63 168zM795 1239h-15q-18 -74 -75 -199l-205 -465h446
l-123 469q-28 114 -28 195zM1096 1788q48 0 106 -23q-13 -91 -79.5 -158t-172.5 -67q-48 0 -98.5 22.5t-97 45t-84.5 22.5q-46 0 -80 -28.5t-47 -67.5q-23 4 -51 22.5t-39 34.5q23 84 88.5 138.5t160.5 54.5q57 0 106.5 -21.5t92 -43t82.5 -21.5q45 0 75 26.5t38 63.5z" />
    <glyph glyph-name="Adieresis" unicode="&#xc4;" horiz-adv-x="1458" 
d="M971 459h-516l-76 -174q-37 -88 -82 -158q80 -4 154 -18q4 -15 9 -53t5 -56h-471q10 56 39 109q41 14 102 22l633 1319h117l364 -1315q63 -4 119 -18q12 -54 12 -117h-491q10 61 33 111q55 14 151 24q-40 69 -63 168zM795 1239h-15q-18 -74 -75 -199l-205 -465h446
l-123 469q-28 114 -28 195zM590 1792q52 0 85.5 -30.5t33.5 -82.5q0 -54 -34 -87t-85 -33q-59 0 -90 31t-31 89q0 47 35 80t86 33zM1063 1792q52 0 85.5 -30.5t33.5 -82.5q0 -54 -34 -87t-85 -33q-59 0 -90 31t-31 89q0 47 35 80t86 33z" />
    <glyph glyph-name="Aring" unicode="&#xc5;" horiz-adv-x="1458" 
d="M971 459h-516l-76 -174q-37 -88 -82 -158q80 -4 154 -18q4 -15 9 -53t5 -56h-471q10 56 39 109q41 14 102 22l627 1307q-172 21 -172 184q0 111 71.5 175.5t204.5 64.5q106 0 168 -49.5t62 -137.5q0 -100 -56 -161t-153 -76l362 -1303q63 -4 119 -18q12 -54 12 -117h-491
q10 61 33 111q55 14 151 24q-40 69 -63 168zM795 1239h-15q-18 -74 -75 -199l-205 -465h446l-123 469q-28 114 -28 195zM854 1759q-62 0 -96.5 -32.5t-34.5 -94.5q0 -96 108 -96q59 0 92 32.5t33 94.5q0 96 -102 96z" />
    <glyph glyph-name="AE" unicode="&#xc6;" horiz-adv-x="1828" 
d="M1632 0h-944q7 55 29 109q56 17 145 26l33 338h-401l-111 -186q-76 -122 -104 -158q98 -4 143 -14q12 -40 12 -115h-459q10 61 37 109q37 14 97 22l727 1159q-108 4 -172 15q-3 23 -0.5 60t8.5 56h1081l-31 -301q-58 0 -112 15q-13 93 -13 161h-446l-51 -540h354
q11 55 31 110q53 17 119 17l-37 -379q-26 -3 -62 -0.5t-55 8.5q-10 67 -10 121h-348l-45 -504h442q22 110 43 176q54 14 131 14zM879 1114l-316 -524h344l74 706h-14q-33 -91 -88 -182z" />
    <glyph glyph-name="Ccedilla" unicode="&#xc7;" horiz-adv-x="1243" 
d="M514 -174l61 135q-220 12 -349.5 181t-129.5 433q0 161 37 302.5t103.5 247.5t156.5 182.5t199.5 115.5t228.5 39q217 0 367 -78q-17 -186 -58 -340q-30 0 -72.5 10t-66.5 23l21 209q-95 45 -215 45q-229 0 -366.5 -191t-137.5 -526q0 -246 106 -370.5t293 -124.5
q81 0 187.5 21t181.5 50q0 -26 -11.5 -67.5t-25.5 -63.5q-152 -74 -319 -94l-23 -98q57 -9 94 -46.5t37 -92.5q0 -97 -89.5 -168t-199.5 -82q-40 40 -55 90q77 21 117.5 54.5t40.5 94.5q0 41 -32 69.5t-81 39.5z" />
    <glyph glyph-name="Egrave" unicode="&#xc8;" horiz-adv-x="1181" 
d="M985 0h-971q9 56 31 109q64 17 158 26l119 1155q-92 4 -148 15q-7 57 8 116h924l-31 -301q-58 0 -112 15q-13 93 -13 161h-458l-50 -520h365q11 57 31 111q50 16 118 16l-36 -379q-26 -3 -62 -0.5t-55 8.5q-10 67 -10 121h-359l-47 -524h455q22 110 43 176q54 14 131 14z
M770 1534l-448 197q26 35 72 71t83 51l357 -200q-3 -25 -23.5 -63.5t-40.5 -55.5z" />
    <glyph glyph-name="Eacute" unicode="&#xc9;" horiz-adv-x="1181" 
d="M985 0h-971q9 56 31 109q64 17 158 26l119 1155q-92 4 -148 15q-7 57 8 116h924l-31 -301q-58 0 -112 15q-13 93 -13 161h-458l-50 -520h365q11 57 31 111q50 16 118 16l-36 -379q-26 -3 -62 -0.5t-55 8.5q-10 67 -10 121h-359l-47 -524h455q22 110 43 176q54 14 131 14z
M1085 1708l-491 -184q-12 38 -12 98q0 25 2 39l411 207q27 -22 53 -70t37 -90z" />
    <glyph glyph-name="Ecircumflex" unicode="&#xca;" horiz-adv-x="1181" 
d="M985 0h-971q9 56 31 109q64 17 158 26l119 1155q-92 4 -148 15q-7 57 8 116h924l-31 -301q-58 0 -112 15q-13 93 -13 161h-458l-50 -520h365q11 57 31 111q50 16 118 16l-36 -379q-26 -3 -62 -0.5t-55 8.5q-10 67 -10 121h-359l-47 -524h455q22 110 43 176q54 14 131 14z
M600 1827h207l229 -205q-11 -25 -35 -54t-47 -42l-264 155l-313 -168q-11 22 -19 59.5t-8 63.5z" />
    <glyph glyph-name="Edieresis" unicode="&#xcb;" horiz-adv-x="1181" 
d="M985 0h-971q9 56 31 109q64 17 158 26l119 1155q-92 4 -148 15q-7 57 8 116h924l-31 -301q-58 0 -112 15q-13 93 -13 161h-458l-50 -520h365q11 57 31 111q50 16 118 16l-36 -379q-26 -3 -62 -0.5t-55 8.5q-10 67 -10 121h-359l-47 -524h455q22 110 43 176q54 14 131 14z
M453 1792q52 0 85 -30.5t33 -82.5q0 -54 -33.5 -87t-84.5 -33q-59 0 -90 31t-31 89q0 47 35 80t86 33zM926 1792q52 0 85 -30.5t33 -82.5q0 -54 -33.5 -87t-84.5 -33q-59 0 -90 31t-31 89q0 47 35 80t86 33z" />
    <glyph glyph-name="Igrave" unicode="&#xcc;" horiz-adv-x="716" 
d="M494 1290l-105 -1157q116 -8 172 -20q4 -22 2.5 -56.5t-6.5 -56.5h-541q9 56 31 109q64 17 158 26l119 1155q-92 4 -148 15q-7 57 8 116h484q2 -10 2 -32q0 -39 -15 -82q-77 -14 -161 -17zM506 1534l-449 197q26 35 72.5 71t83.5 51l356 -200q-3 -25 -23 -63.5t-40 -55.5
z" />
    <glyph glyph-name="Iacute" unicode="&#xcd;" horiz-adv-x="716" 
d="M494 1290l-105 -1157q116 -8 172 -20q4 -22 2.5 -56.5t-6.5 -56.5h-541q9 56 31 109q64 17 158 26l119 1155q-92 4 -148 15q-7 57 8 116h484q2 -10 2 -32q0 -39 -15 -82q-77 -14 -161 -17zM829 1708l-491 -184q-12 38 -12 98q0 25 2 39l411 207q27 -22 53 -70t37 -90z
" />
    <glyph glyph-name="Icircumflex" unicode="&#xce;" horiz-adv-x="716" 
d="M494 1290l-105 -1157q116 -8 172 -20q4 -22 2.5 -56.5t-6.5 -56.5h-541q9 56 31 109q64 17 158 26l119 1155q-92 4 -148 15q-7 57 8 116h484q2 -10 2 -32q0 -39 -15 -82q-77 -14 -161 -17zM350 1827h207l229 -205q-11 -26 -34.5 -54.5t-46.5 -41.5l-265 155l-313 -168
q-11 22 -19 59.5t-8 63.5z" />
    <glyph glyph-name="Idieresis" unicode="&#xcf;" horiz-adv-x="716" 
d="M238 1792q52 0 85 -30.5t33 -82.5q0 -54 -33.5 -87t-84.5 -33q-59 0 -90 31t-31 89q0 47 35 80t86 33zM649 1792q52 0 85.5 -30.5t33.5 -82.5q0 -54 -34 -87t-85 -33q-59 0 -90 31t-31 89q0 47 35 80t86 33zM494 1290l-105 -1157q116 -8 172 -20q4 -22 2.5 -56.5
t-6.5 -56.5h-541q9 56 31 109q64 17 158 26l119 1155q-92 4 -148 15q-7 57 8 116h484q2 -10 2 -32q0 -39 -15 -82q-77 -14 -161 -17z" />
    <glyph glyph-name="Eth" unicode="&#xd0;" horiz-adv-x="1449" 
d="M213 1407q276 29 500 29q137 0 251 -40.5t198.5 -117.5t131.5 -196t47 -269q0 -166 -35.5 -302.5t-99 -232.5t-152 -161.5t-193 -96t-224.5 -30.5q-233 0 -588 14q9 56 31 109q66 18 153 26l54 512h-168q0 59 24 125h156l53 502q-108 0 -147 6q-2 19 1 61t7 62zM522 1300
l-47 -524h369q8 -47 -6 -125h-373l-47 -524q88 -6 186 -6q547 0 547 674q0 250 -133 382t-359 132q-87 0 -137 -9z" />
    <glyph glyph-name="Ntilde" unicode="&#xd1;" horiz-adv-x="1495" 
d="M575 1421l435 -1024q41 -93 61 -223h14l113 1116q-85 4 -147 15q-4 68 8 116h428q2 -10 2 -32q0 -42 -14 -82q-65 -13 -146 -17l-119 -1302h-227l-467 1134q-33 88 -47 144h-14l-103 -1133q107 -8 162 -20q4 -20 2.5 -56.5t-6.5 -56.5h-492q8 47 29 109q65 17 152 26
l120 1155q-78 3 -145 15q-7 57 8 116h393zM1108 1788q48 0 106 -23q-13 -91 -79 -158t-172 -67q-48 0 -99 22.5t-97.5 45t-84.5 22.5q-46 0 -80 -28.5t-47 -67.5q-23 4 -51 22.5t-39 34.5q23 84 89 138.5t161 54.5q57 0 106.5 -21.5t91.5 -43t82 -21.5q45 0 75 26.5t38 63.5
z" />
    <glyph glyph-name="Ograve" unicode="&#xd2;" horiz-adv-x="1462" 
d="M1321 854q0 -269 -80.5 -470.5t-235 -313t-364.5 -111.5q-263 0 -402 158.5t-139 462.5q0 262 82.5 461.5t238 310t363.5 110.5q249 0 393 -159t144 -449zM1128 829q0 223 -96 360.5t-260 137.5q-121 0 -214 -56t-149.5 -155.5t-85 -228.5t-28.5 -283q0 -236 94.5 -372
t265.5 -136q151 0 259 95.5t161 259t53 378.5zM874 1534l-448 197q26 35 72.5 71t83.5 51l356 -200q-3 -25 -23.5 -63.5t-40.5 -55.5z" />
    <glyph glyph-name="Oacute" unicode="&#xd3;" horiz-adv-x="1462" 
d="M1321 854q0 -269 -80.5 -470.5t-235 -313t-364.5 -111.5q-263 0 -402 158.5t-139 462.5q0 262 82.5 461.5t238 310t363.5 110.5q249 0 393 -159t144 -449zM1128 829q0 223 -96 360.5t-260 137.5q-121 0 -214 -56t-149.5 -155.5t-85 -228.5t-28.5 -283q0 -236 94.5 -372
t265.5 -136q151 0 259 95.5t161 259t53 378.5zM1171 1708l-491 -184q-12 38 -12 98q0 25 2 39l411 207q27 -22 53 -70t37 -90z" />
    <glyph glyph-name="Ocircumflex" unicode="&#xd4;" horiz-adv-x="1462" 
d="M1321 854q0 -269 -80.5 -470.5t-235 -313t-364.5 -111.5q-263 0 -402 158.5t-139 462.5q0 262 82.5 461.5t238 310t363.5 110.5q249 0 393 -159t144 -449zM1128 829q0 223 -96 360.5t-260 137.5q-121 0 -214 -56t-149.5 -155.5t-85 -228.5t-28.5 -283q0 -236 94.5 -372
t265.5 -136q151 0 259 95.5t161 259t53 378.5zM707 1827h206l230 -205q-11 -25 -35 -54t-47 -42l-264 155l-314 -168q-11 22 -18.5 59t-7.5 64z" />
    <glyph glyph-name="Otilde" unicode="&#xd5;" horiz-adv-x="1462" 
d="M1321 854q0 -269 -80.5 -470.5t-235 -313t-364.5 -111.5q-263 0 -402 158.5t-139 462.5q0 262 82.5 461.5t238 310t363.5 110.5q249 0 393 -159t144 -449zM1128 829q0 223 -96 360.5t-260 137.5q-121 0 -214 -56t-149.5 -155.5t-85 -228.5t-28.5 -283q0 -236 94.5 -372
t265.5 -136q151 0 259 95.5t161 259t53 378.5zM1073 1788q49 0 107 -23q-13 -91 -79.5 -158t-172.5 -67q-48 0 -99 22.5t-97.5 45t-84.5 22.5q-46 0 -80 -28.5t-47 -67.5q-23 4 -51 22.5t-39 34.5q23 84 89 138.5t161 54.5q57 0 106.5 -21.5t92 -43t82.5 -21.5q44 0 74 26.5
t38 63.5z" />
    <glyph glyph-name="Odieresis" unicode="&#xd6;" horiz-adv-x="1462" 
d="M510 1792q52 0 85.5 -30.5t33.5 -82.5q0 -54 -34 -87t-85 -33q-59 0 -90 31t-31 89q0 47 35 80t86 33zM1077 1792q52 0 85.5 -30.5t33.5 -82.5q0 -54 -34 -87t-85 -33q-59 0 -90 31t-31 89q0 47 35 80t86 33zM1321 854q0 -269 -80.5 -470.5t-235 -313t-364.5 -111.5
q-263 0 -402 158.5t-139 462.5q0 262 82.5 461.5t238 310t363.5 110.5q249 0 393 -159t144 -449zM1128 829q0 223 -96 360.5t-260 137.5q-121 0 -214 -56t-149.5 -155.5t-85 -228.5t-28.5 -283q0 -236 94.5 -372t265.5 -136q151 0 259 95.5t161 259t53 378.5z" />
    <glyph glyph-name="multiply" unicode="&#xd7;" 
d="M664 549l348 -344q-12 -19 -45 -52t-54 -47l-344 347l-344 -347q-23 15 -54.5 47.5t-43.5 53.5l346 342l-354 350q17 19 54 44.5t63 37.5l333 -336l332 336q24 -9 62 -35t57 -47z" />
    <glyph glyph-name="Oslash" unicode="&#xd8;" horiz-adv-x="1517" 
d="M1366 854q0 -269 -82 -470.5t-239 -313t-371 -111.5q-268 0 -412 162l-215 -219q-15 19 -32 60t-21 71l196 200q-65 133 -65 347q0 262 83.5 461.5t242 310t370.5 110.5q250 0 398 -157l188 200q27 -13 58 -39t44 -49l-215 -225q72 -141 72 -338zM1174 829q0 117 -31 215
l-746 -782q96 -166 291 -166q155 0 266 95.5t165.5 259.5t54.5 378zM319 604q0 -124 27 -223l741 788q-102 158 -278 158q-124 0 -219.5 -56t-153.5 -155.5t-87.5 -228.5t-29.5 -283z" />
    <glyph glyph-name="Ugrave" unicode="&#xd9;" horiz-adv-x="1392" 
d="M979 1421h416q2 -10 2 -32q0 -45 -15 -82q-67 -14 -139 -17l-57 -745q-10 -132 -50.5 -238t-112 -184.5t-182 -121t-253.5 -42.5q-219 0 -327.5 113t-108.5 331q0 49 8 123l71 762q-71 3 -143 17q-11 55 -6 116h508q2 -20 -3 -57.5t-12 -56.5q-80 -14 -172 -17l-57 -747
q-6 -60 -6 -107q0 -167 76.5 -255.5t226.5 -88.5q114 0 199.5 60.5t130.5 157t57 220.5l74 760q-74 4 -133 15q-3 20 -0.5 59t8.5 57zM866 1534l-448 197q26 35 72 71t83 51l357 -200q-3 -25 -23.5 -63.5t-40.5 -55.5z" />
    <glyph glyph-name="Uacute" unicode="&#xda;" horiz-adv-x="1392" 
d="M979 1421h416q2 -10 2 -32q0 -45 -15 -82q-67 -14 -139 -17l-57 -745q-10 -132 -50.5 -238t-112 -184.5t-182 -121t-253.5 -42.5q-219 0 -327.5 113t-108.5 331q0 49 8 123l71 762q-71 3 -143 17q-11 55 -6 116h508q2 -20 -3 -57.5t-12 -56.5q-80 -14 -172 -17l-57 -747
q-6 -60 -6 -107q0 -167 76.5 -255.5t226.5 -88.5q114 0 199.5 60.5t130.5 157t57 220.5l74 760q-74 4 -133 15q-3 20 -0.5 59t8.5 57zM1174 1708l-492 -184q-12 38 -12 98q0 25 2 39l411 207q27 -22 53.5 -70t37.5 -90z" />
    <glyph glyph-name="Ucircumflex" unicode="&#xdb;" horiz-adv-x="1392" 
d="M979 1421h416q2 -10 2 -32q0 -45 -15 -82q-67 -14 -139 -17l-57 -745q-10 -132 -50.5 -238t-112 -184.5t-182 -121t-253.5 -42.5q-219 0 -327.5 113t-108.5 331q0 49 8 123l71 762q-71 3 -143 17q-11 55 -6 116h508q2 -20 -3 -57.5t-12 -56.5q-80 -14 -172 -17l-57 -747
q-6 -60 -6 -107q0 -167 76.5 -255.5t226.5 -88.5q114 0 199.5 60.5t130.5 157t57 220.5l74 760q-74 4 -133 15q-3 20 -0.5 59t8.5 57zM702 1827h207l230 -205q-11 -25 -35 -54t-47 -42l-264 155l-314 -168q-11 22 -18.5 59t-7.5 64z" />
    <glyph glyph-name="Udieresis" unicode="&#xdc;" horiz-adv-x="1392" 
d="M979 1421h416q2 -10 2 -32q0 -45 -15 -82q-67 -14 -139 -17l-57 -745q-10 -132 -50.5 -238t-112 -184.5t-182 -121t-253.5 -42.5q-219 0 -327.5 113t-108.5 331q0 49 8 123l71 762q-71 3 -143 17q-11 55 -6 116h508q2 -20 -3 -57.5t-12 -56.5q-80 -14 -172 -17l-57 -747
q-6 -60 -6 -107q0 -167 76.5 -255.5t226.5 -88.5q114 0 199.5 60.5t130.5 157t57 220.5l74 760q-74 4 -133 15q-3 20 -0.5 59t8.5 57zM553 1792q52 0 85.5 -30.5t33.5 -82.5q0 -54 -34 -87t-85 -33q-59 0 -90 31t-31 89q0 47 35 80t86 33zM1026 1792q52 0 85.5 -30.5
t33.5 -82.5q0 -54 -34 -87t-85 -33q-59 0 -90 31t-31 89q0 47 35 80t86 33z" />
    <glyph glyph-name="Yacute" unicode="&#xdd;" horiz-adv-x="1200" 
d="M594 684h14q17 50 66 133l194 332q58 95 101 141q-74 4 -129 17q-13 50 -13 114h402q0 -53 -25 -118q-44 -8 -96 -11l-461 -737l-33 -422q115 -8 177 -20q10 -45 -5 -113h-559q8 48 33 109q66 17 168 26l43 422l-285 729q-49 4 -100 17q-12 44 -12 118h483
q-3 -56 -29 -114q-62 -11 -166 -15q41 -64 70 -139l127 -330q27 -75 35 -139zM1071 1708l-491 -184q-13 41 -13 98q0 25 2 39l412 207q27 -22 53 -70t37 -90z" />
    <glyph glyph-name="Thorn" unicode="&#xde;" horiz-adv-x="1173" 
d="M496 1290l-13 -139q98 8 166 8q213 0 342 -96.5t129 -278.5q0 -119 -41 -215.5t-111.5 -158t-160.5 -94.5t-191 -33q-118 0 -210 14l-15 -164q130 -8 203 -20q4 -20 2.5 -57.5t-6.5 -55.5h-572q9 56 31 109q71 18 158 26l119 1155q-92 4 -148 15q-7 52 8 116h486
q3 -21 -2 -57t-13 -57q-77 -14 -161 -17zM471 1022l-55 -604q79 -8 200 -8q148 0 235 88.5t87 263.5q0 132 -89 200t-247 68q-53 0 -131 -8z" />
    <glyph glyph-name="germandbls" unicode="&#xdf;" horiz-adv-x="1234" 
d="M111 963h147q66 532 526 532q59 0 114 -11.5t104.5 -36t79.5 -69.5t30 -106q0 -48 -15 -90t-39 -72t-53 -57.5t-58 -52.5t-53 -50.5t-39 -58t-15 -68.5q0 -40 17 -75t44.5 -61.5t61 -52t66.5 -54t60.5 -60t44.5 -76.5t17 -98q0 -184 -113 -282.5t-297 -98.5
q-130 0 -208 50t-78 157q14 30 67 52t99 22q4 -89 44.5 -126.5t122.5 -37.5q85 0 140 59.5t55 147.5q0 46 -17.5 85t-45.5 67t-62 54.5t-67.5 54.5t-61.5 58.5t-45.5 74t-17.5 95.5q0 66 21 120.5t53 88.5t69 66.5t69 57.5t53 59.5t21 72.5q0 47 -29.5 78t-69 42t-87.5 11
q-159 0 -241.5 -104.5t-106.5 -315.5l-137 -1261q-50 -8 -103 -8q-56 0 -80 8l144 1138q-86 4 -146 15q0 70 15 117z" />
    <glyph glyph-name="agrave" unicode="&#xe0;" horiz-adv-x="1069" 
d="M600 117h-10q-53 -77 -132 -114.5t-157 -37.5q-121 0 -192.5 90.5t-71.5 276.5q0 130 35 251t100 212q147 202 381 202q174 0 305 -92l-98 -751q0 -18 10 -43l160 14q0 -22 -10.5 -57.5t-22.5 -55.5q-44 -18 -121.5 -32.5t-122.5 -14.5q-39 66 -53 152zM600 254l84 604
q-54 31 -133 31t-144 -43t-106 -111q-43 -72 -65.5 -179t-22.5 -202q0 -126 45.5 -188t126.5 -62q62 0 120 40.5t95 109.5zM584 1110l-244 315q31 22 86.5 37t103.5 15l185 -324q-20 -14 -62 -28.5t-69 -14.5z" />
    <glyph glyph-name="aacute" unicode="&#xe1;" horiz-adv-x="1069" 
d="M600 117h-10q-53 -77 -132 -114.5t-157 -37.5q-121 0 -192.5 90.5t-71.5 276.5q0 130 35 251t100 212q147 202 381 202q174 0 305 -92l-98 -751q0 -18 10 -43l160 14q0 -22 -10.5 -57.5t-22.5 -55.5q-44 -18 -121.5 -32.5t-122.5 -14.5q-39 66 -53 152zM600 254l84 604
q-54 31 -133 31t-144 -43t-106 -111q-43 -72 -65.5 -179t-22.5 -202q0 -126 45.5 -188t126.5 -62q62 0 120 40.5t95 109.5zM860 1421l-334 -340q-22 12 -46 40.5t-36 56.5l256 319q38 -6 87.5 -29.5t72.5 -46.5z" />
    <glyph glyph-name="acircumflex" unicode="&#xe2;" horiz-adv-x="1069" 
d="M600 117h-10q-53 -77 -132 -114.5t-157 -37.5q-121 0 -192.5 90.5t-71.5 276.5q0 130 35 251t100 212q147 202 381 202q174 0 305 -92l-98 -751q0 -18 10 -43l160 14q0 -22 -10.5 -57.5t-22.5 -55.5q-44 -18 -121.5 -32.5t-122.5 -14.5q-39 66 -53 152zM600 254l84 604
q-54 31 -133 31t-144 -43t-106 -111q-43 -72 -65.5 -179t-22.5 -202q0 -126 45.5 -188t126.5 -62q62 0 120 40.5t95 109.5zM516 1446l164 14l192 -289q-42 -54 -120 -69l-166 203l-244 -222q-17 13 -32.5 49t-20.5 68z" />
    <glyph glyph-name="atilde" unicode="&#xe3;" horiz-adv-x="1069" 
d="M600 117h-10q-53 -77 -132 -114.5t-157 -37.5q-121 0 -192.5 90.5t-71.5 276.5q0 130 35 251t100 212q147 202 381 202q174 0 305 -92l-98 -751q0 -18 10 -43l160 14q0 -22 -10.5 -57.5t-22.5 -55.5q-44 -18 -121.5 -32.5t-122.5 -14.5q-39 66 -53 152zM600 254l84 604
q-54 31 -133 31t-144 -43t-106 -111q-43 -72 -65.5 -179t-22.5 -202q0 -126 45.5 -188t126.5 -62q62 0 120 40.5t95 109.5zM811 1370q41 0 78 -18q-12 -85 -68.5 -150t-150.5 -65q-48 0 -122.5 45t-109.5 45q-37 0 -69 -26t-45 -60q-19 0 -39 14t-29 33q24 84 78.5 135
t142.5 51q51 0 120 -43t112 -43q76 0 102 82z" />
    <glyph glyph-name="adieresis" unicode="&#xe4;" horiz-adv-x="1069" 
d="M600 117h-10q-53 -77 -132 -114.5t-157 -37.5q-121 0 -192.5 90.5t-71.5 276.5q0 130 35 251t100 212q147 202 381 202q174 0 305 -92l-98 -751q0 -18 10 -43l160 14q0 -22 -10.5 -57.5t-22.5 -55.5q-44 -18 -121.5 -32.5t-122.5 -14.5q-39 66 -53 152zM600 254l84 604
q-54 31 -133 31t-144 -43t-106 -111q-43 -72 -65.5 -179t-22.5 -202q0 -126 45.5 -188t126.5 -62q62 0 120 40.5t95 109.5zM365 1370q45 0 73.5 -28t28.5 -76q0 -51 -29 -82t-73 -31q-105 0 -105 113q0 44 30.5 74t74.5 30zM768 1370q45 0 73.5 -28t28.5 -76q0 -51 -29 -82
t-73 -31q-104 0 -104 113q0 44 30 74t74 30z" />
    <glyph glyph-name="aring" unicode="&#xe5;" horiz-adv-x="1069" 
d="M600 117h-10q-53 -77 -132 -114.5t-157 -37.5q-121 0 -192.5 90.5t-71.5 276.5q0 130 35 251t100 212q147 202 381 202q174 0 305 -92l-98 -751q0 -18 10 -43l160 14q0 -22 -10.5 -57.5t-22.5 -55.5q-44 -18 -121.5 -32.5t-122.5 -14.5q-39 66 -53 152zM600 254l84 604
q-54 31 -133 31t-144 -43t-106 -111q-43 -72 -65.5 -179t-22.5 -202q0 -126 45.5 -188t126.5 -62q62 0 120 40.5t95 109.5zM600 1518q83 0 135.5 -46.5t52.5 -123.5q0 -113 -66 -177.5t-171 -64.5q-94 0 -143.5 42.5t-49.5 125.5q0 110 64.5 177t177.5 67zM592 1430
q-60 0 -90.5 -37t-30.5 -103q0 -46 24 -70t68 -24q55 0 86 37.5t31 105.5q0 41 -24.5 66t-63.5 25z" />
    <glyph glyph-name="ae" unicode="&#xe6;" horiz-adv-x="1460" 
d="M1337 772q0 -53 -13.5 -97.5t-51 -90t-98.5 -78t-162.5 -55t-235.5 -27.5v-62q0 -249 170 -249q68 0 155 27t152 69q0 -63 -24 -113q-150 -131 -352 -131q-102 0 -163 49.5t-75 126.5h-10q-35 -70 -127 -123t-209 -53q-109 0 -179.5 60.5t-70.5 179.5q0 108 57.5 191.5
t148 125t195.5 41.5q109 0 177 -35q18 101 18 158q0 86 -39 128t-121 42q-62 0 -148.5 -28.5t-144.5 -65.5q-6 21 -6 57q0 55 19 99q54 30 154 54.5t177 24.5q214 0 246 -155h10q33 62 122 108.5t198 46.5q107 0 169 -60.5t62 -164.5zM377 106q69 0 132.5 31.5t100.5 79.5
q-6 43 -6 96q0 59 6 121q-63 17 -133 17q-118 0 -190 -55t-72 -146q0 -74 43.5 -109t118.5 -35zM1065 887q-62 0 -118.5 -35t-92.5 -94q-51 -84 -68 -215q99 3 171.5 18t114 34.5t65.5 49t31.5 56.5t7.5 61q0 56 -27.5 90.5t-83.5 34.5z" />
    <glyph glyph-name="ccedilla" unicode="&#xe7;" horiz-adv-x="907" 
d="M231 -158l62 125q-130 13 -195 109.5t-65 261.5q0 276 141 469q65 87 166.5 138.5t210.5 51.5q137 0 229 -73q0 -132 -53 -248q-27 0 -61 7.5t-52 18.5l15 146q-50 31 -105 31q-68 0 -126 -35t-97 -96q-84 -133 -84 -363q0 -142 46 -206t140 -64q65 0 152.5 28t149.5 62
q0 -25 -9 -61.5t-20 -59.5q-121 -89 -266 -113l-27 -92q43 -13 76 -48t33 -81q0 -85 -84.5 -149t-186.5 -72q-33 33 -47 76q63 11 106.5 47t43.5 86q0 36 -26.5 64.5t-66.5 39.5z" />
    <glyph glyph-name="egrave" unicode="&#xe8;" horiz-adv-x="899" 
d="M782 772q0 -326 -561 -348v-62q0 -249 170 -249q68 0 155 27t152 69q0 -63 -24 -113q-65 -57 -158 -94t-199 -37q-135 0 -206.5 91t-71.5 257q0 147 37 283t117 231q65 77 156.5 123.5t197.5 46.5q109 0 172 -60.5t63 -164.5zM510 887q-63 0 -119 -35t-90 -94
q-51 -84 -68 -215q98 3 169.5 18t112 34.5t64 49t30.5 56t7 61.5q0 56 -26 90.5t-80 34.5zM508 1110l-244 315q30 22 86.5 37t104.5 15l184 -324q-20 -14 -62 -28.5t-69 -14.5z" />
    <glyph glyph-name="eacute" unicode="&#xe9;" horiz-adv-x="899" 
d="M782 772q0 -326 -561 -348v-62q0 -249 170 -249q68 0 155 27t152 69q0 -63 -24 -113q-65 -57 -158 -94t-199 -37q-135 0 -206.5 91t-71.5 257q0 147 37 283t117 231q65 77 156.5 123.5t197.5 46.5q109 0 172 -60.5t63 -164.5zM510 887q-63 0 -119 -35t-90 -94
q-51 -84 -68 -215q98 3 169.5 18t112 34.5t64 49t30.5 56t7 61.5q0 56 -26 90.5t-80 34.5zM817 1421l-334 -340q-22 12 -46 40.5t-36 56.5l256 319q38 -6 87.5 -29.5t72.5 -46.5z" />
    <glyph glyph-name="ecircumflex" unicode="&#xea;" horiz-adv-x="899" 
d="M782 772q0 -326 -561 -348v-62q0 -249 170 -249q68 0 155 27t152 69q0 -63 -24 -113q-65 -57 -158 -94t-199 -37q-135 0 -206.5 91t-71.5 257q0 147 37 283t117 231q65 77 156.5 123.5t197.5 46.5q109 0 172 -60.5t63 -164.5zM510 887q-63 0 -119 -35t-90 -94
q-51 -84 -68 -215q98 3 169.5 18t112 34.5t64 49t30.5 56t7 61.5q0 56 -26 90.5t-80 34.5zM471 1446l164 14l192 -289q-42 -54 -120 -69l-166 203l-244 -222q-17 13 -32.5 49t-20.5 68z" />
    <glyph glyph-name="edieresis" unicode="&#xeb;" horiz-adv-x="899" 
d="M782 772q0 -326 -561 -348v-62q0 -249 170 -249q68 0 155 27t152 69q0 -63 -24 -113q-65 -57 -158 -94t-199 -37q-135 0 -206.5 91t-71.5 257q0 147 37 283t117 231q65 77 156.5 123.5t197.5 46.5q109 0 172 -60.5t63 -164.5zM510 887q-63 0 -119 -35t-90 -94
q-51 -84 -68 -215q98 3 169.5 18t112 34.5t64 49t30.5 56t7 61.5q0 56 -26 90.5t-80 34.5zM326 1370q45 0 73.5 -28t28.5 -76q0 -51 -29 -82t-73 -31q-105 0 -105 113q0 44 30.5 74t74.5 30zM729 1370q45 0 73.5 -28t28.5 -76q0 -51 -29 -82t-73 -31q-104 0 -104 113
q0 44 30 74t74 30z" />
    <glyph glyph-name="igrave" unicode="&#xec;" horiz-adv-x="573" 
d="M193 850l-150 -16q0 17 12.5 54.5t24.5 49.5q92 47 203 47q52 0 84 -8l-103 -832q0 -14 10 -34l160 16q0 -23 -10.5 -58.5t-22.5 -56.5q-49 -18 -123.5 -32.5t-119.5 -14.5q-29 33 -50.5 79t-21.5 73zM279 1110l-244 315q31 22 86.5 37t103.5 15l185 -324
q-20 -14 -62 -28.5t-69 -14.5z" />
    <glyph glyph-name="iacute" unicode="&#xed;" horiz-adv-x="573" 
d="M193 850l-150 -16q0 17 12.5 54.5t24.5 49.5q92 47 203 47q52 0 84 -8l-103 -832q0 -14 10 -34l160 16q0 -23 -10.5 -58.5t-22.5 -56.5q-49 -18 -123.5 -32.5t-119.5 -14.5q-29 33 -50.5 79t-21.5 73zM590 1421l-334 -340q-22 12 -46 40.5t-36 56.5l256 319
q38 -6 87.5 -29.5t72.5 -46.5z" />
    <glyph glyph-name="icircumflex" unicode="&#xee;" horiz-adv-x="573" 
d="M193 850l-150 -16q0 17 12.5 54.5t24.5 49.5q92 47 203 47q52 0 84 -8l-103 -832q0 -14 10 -34l160 16q0 -23 -10.5 -58.5t-22.5 -56.5q-49 -18 -123.5 -32.5t-119.5 -14.5q-29 33 -50.5 79t-21.5 73zM248 1446l164 14l192 -289q-42 -54 -121 -69l-166 203l-243 -222
q-17 13 -33 49t-21 68z" />
    <glyph glyph-name="idieresis" unicode="&#xef;" horiz-adv-x="573" 
d="M125 1370q46 0 74 -27.5t28 -76.5q0 -52 -28.5 -82.5t-73.5 -30.5q-105 0 -105 113q0 45 30 74.5t75 29.5zM479 1370q47 0 75 -27.5t28 -76.5q0 -52 -29 -82.5t-74 -30.5q-104 0 -104 113q0 45 29.5 74.5t74.5 29.5zM193 850l-150 -16q0 17 12.5 54.5t24.5 49.5
q92 47 203 47q52 0 84 -8l-103 -832q0 -14 10 -34l160 16q0 -23 -10.5 -58.5t-22.5 -56.5q-49 -18 -123.5 -32.5t-119.5 -14.5q-29 33 -50.5 79t-21.5 73z" />
    <glyph glyph-name="eth" unicode="&#xf0;" horiz-adv-x="1048" 
d="M602 1178l-242 -136q-20 48 -20 115l170 98q-109 71 -293 109q9 30 30.5 64t43.5 53q234 -48 371 -148l215 123q14 -15 31.5 -45.5t23.5 -50.5l-184 -105q165 -182 165 -518q0 -118 -17 -226.5t-56.5 -209.5t-98 -174.5t-147.5 -117.5t-199 -44q-169 0 -264.5 107
t-95.5 305q0 114 32.5 218.5t90.5 184.5t146 128t192 48q88 0 149 -31t84 -73h14q-40 216 -141 326zM524 825q-103 0 -176 -58.5t-107 -153t-34 -214.5q0 -149 54.5 -229t154.5 -80q73 0 131.5 40.5t94.5 104.5t60 151t33.5 173t9.5 176q-93 90 -221 90z" />
    <glyph glyph-name="ntilde" unicode="&#xf1;" horiz-adv-x="1116" 
d="M322 811h20q102 186 315 186q238 0 238 -254q0 -55 -15.5 -178t-37 -262t-23.5 -158q0 -19 10 -34l158 16q0 -23 -10.5 -58.5t-22.5 -56.5q-49 -19 -122.5 -33t-118.5 -14q-29 33 -50.5 79t-21.5 73q80 444 80 569q0 176 -139 176q-78 0 -147.5 -57t-102.5 -127l-76 -674
q-50 -8 -98 -8q-52 0 -76 8l113 846l-150 -16q0 17 12.5 54.5t24.5 49.5q31 20 83.5 33.5t104.5 13.5q43 0 70 -8zM817 1370q41 0 78 -18q-12 -85 -68.5 -150t-150.5 -65q-48 0 -122.5 45t-109.5 45q-37 0 -69 -26t-45 -60q-19 0 -39 14t-29 33q24 84 78.5 135t142.5 51
q51 0 120 -43t112 -43q76 0 102 82z" />
    <glyph glyph-name="ograve" unicode="&#xf2;" horiz-adv-x="999" 
d="M377 -35q-165 0 -251.5 100t-86.5 293q0 248 102 414q66 105 166 165t219 60q158 0 248 -100t90 -283q0 -281 -127 -462q-62 -88 -156 -137.5t-204 -49.5zM397 86q131 0 211 141q80 140 80 369q0 128 -46 205.5t-132 77.5q-74 0 -133.5 -44.5t-97.5 -119.5
q-62 -124 -62 -338q0 -136 46 -213.5t134 -77.5zM561 1110l-244 315q30 22 86.5 37t104.5 15l184 -324q-20 -14 -62 -28.5t-69 -14.5z" />
    <glyph glyph-name="oacute" unicode="&#xf3;" horiz-adv-x="999" 
d="M377 -35q-165 0 -251.5 100t-86.5 293q0 248 102 414q66 105 166 165t219 60q158 0 248 -100t90 -283q0 -281 -127 -462q-62 -88 -156 -137.5t-204 -49.5zM397 86q131 0 211 141q80 140 80 369q0 128 -46 205.5t-132 77.5q-74 0 -133.5 -44.5t-97.5 -119.5
q-62 -124 -62 -338q0 -136 46 -213.5t134 -77.5zM819 1421l-334 -340q-22 12 -46 40.5t-36 56.5l256 319q38 -6 87.5 -29.5t72.5 -46.5z" />
    <glyph glyph-name="ocircumflex" unicode="&#xf4;" horiz-adv-x="999" 
d="M377 -35q-165 0 -251.5 100t-86.5 293q0 248 102 414q66 105 166 165t219 60q158 0 248 -100t90 -283q0 -281 -127 -462q-62 -88 -156 -137.5t-204 -49.5zM397 86q131 0 211 141q80 140 80 369q0 128 -46 205.5t-132 77.5q-74 0 -133.5 -44.5t-97.5 -119.5
q-62 -124 -62 -338q0 -136 46 -213.5t134 -77.5zM475 1446l164 14l192 -289q-42 -54 -120 -69l-166 203l-244 -222q-17 13 -32.5 49t-20.5 68z" />
    <glyph glyph-name="otilde" unicode="&#xf5;" horiz-adv-x="999" 
d="M377 -35q-165 0 -251.5 100t-86.5 293q0 248 102 414q66 105 166 165t219 60q158 0 248 -100t90 -283q0 -281 -127 -462q-62 -88 -156 -137.5t-204 -49.5zM397 86q131 0 211 141q80 140 80 369q0 128 -46 205.5t-132 77.5q-74 0 -133.5 -44.5t-97.5 -119.5
q-62 -124 -62 -338q0 -136 46 -213.5t134 -77.5zM776 1370q40 0 78 -18q-12 -85 -68.5 -150t-150.5 -65q-48 0 -122.5 45t-109.5 45q-37 0 -69 -26t-45 -60q-19 0 -39 14t-29 33q24 84 78.5 135t142.5 51q42 0 81.5 -21.5t77 -43t73.5 -21.5q76 0 102 82z" />
    <glyph glyph-name="odieresis" unicode="&#xf6;" horiz-adv-x="999" 
d="M377 -35q-165 0 -251.5 100t-86.5 293q0 248 102 414q66 105 166 165t219 60q158 0 248 -100t90 -283q0 -281 -127 -462q-62 -88 -156 -137.5t-204 -49.5zM397 86q131 0 211 141q80 140 80 369q0 128 -46 205.5t-132 77.5q-74 0 -133.5 -44.5t-97.5 -119.5
q-62 -124 -62 -338q0 -136 46 -213.5t134 -77.5zM342 1370q45 0 73.5 -28t28.5 -76q0 -51 -29 -82t-73 -31q-104 0 -104 113q0 44 30 74t74 30zM745 1370q45 0 74 -28t29 -76q0 -51 -29.5 -82t-73.5 -31q-104 0 -104 113q0 44 30 74t74 30z" />
    <glyph glyph-name="divide" unicode="&#xf7;" 
d="M1032 483h-942q0 69 19 138h917q8 -46 8 -97q0 -29 -2 -41zM561 1075q51 0 82 -29.5t31 -80.5q0 -56 -31 -87.5t-82 -31.5q-56 0 -85.5 30.5t-29.5 88.5q0 49 32.5 79.5t82.5 30.5zM561 256q50 0 81.5 -29.5t31.5 -81.5q0 -56 -31 -87t-82 -31q-115 0 -115 118
q0 49 32.5 80t82.5 31z" />
    <glyph glyph-name="oslash" unicode="&#xf8;" horiz-adv-x="1056" 
d="M412 -35q-145 0 -234 80l-141 -166q-15 15 -32 46.5t-23 56.5l131 153q-41 90 -41 223q0 249 104 414q66 105 166.5 165t222.5 60q142 0 228 -77l120 139q20 -10 47 -32t37 -38l-137 -160q45 -92 45 -215q0 -281 -127 -462q-64 -89 -158.5 -138t-207.5 -49zM432 86
q133 0 217 141q82 143 82 369q0 46 -6 86l-436 -508q48 -88 143 -88zM248 377q0 -47 6 -90l434 508q-49 84 -139 84q-76 0 -137 -44t-101 -120q-63 -126 -63 -338z" />
    <glyph glyph-name="ugrave" unicode="&#xf9;" horiz-adv-x="1134" 
d="M674 123h-10q-103 -158 -318 -158q-37 0 -69.5 7t-63.5 25t-53 45.5t-35.5 71.5t-13.5 101q0 88 28.5 289t53.5 346l-150 -16q0 17 12.5 54.5t24.5 49.5q92 47 203 47q52 0 84 -8q-25 -189 -50.5 -415.5t-25.5 -282.5q0 -175 143 -175q73 0 140 43t106 111l78 592
l-142 -16q0 17 12.5 55.5t24.5 50.5q85 45 195 45q50 0 82 -8l-94 -825q0 -4 3.5 -19.5t6.5 -19.5l153 14q0 -23 -10 -59t-22 -56q-46 -17 -121.5 -32t-120.5 -15q-40 66 -51 158zM575 1110l-243 315q31 22 86.5 37t103.5 15l185 -324q-20 -14 -62.5 -28.5t-69.5 -14.5z" />
    <glyph glyph-name="uacute" unicode="&#xfa;" horiz-adv-x="1134" 
d="M674 123h-10q-103 -158 -318 -158q-37 0 -69.5 7t-63.5 25t-53 45.5t-35.5 71.5t-13.5 101q0 88 28.5 289t53.5 346l-150 -16q0 17 12.5 54.5t24.5 49.5q92 47 203 47q52 0 84 -8q-25 -189 -50.5 -415.5t-25.5 -282.5q0 -175 143 -175q73 0 140 43t106 111l78 592
l-142 -16q0 17 12.5 55.5t24.5 50.5q85 45 195 45q50 0 82 -8l-94 -825q0 -4 3.5 -19.5t6.5 -19.5l153 14q0 -23 -10 -59t-22 -56q-46 -17 -121.5 -32t-120.5 -15q-40 66 -51 158zM850 1421l-334 -340q-22 12 -46 40.5t-36 56.5l256 319q38 -6 87.5 -29.5t72.5 -46.5z" />
    <glyph glyph-name="ucircumflex" unicode="&#xfb;" horiz-adv-x="1134" 
d="M674 123h-10q-103 -158 -318 -158q-37 0 -69.5 7t-63.5 25t-53 45.5t-35.5 71.5t-13.5 101q0 88 28.5 289t53.5 346l-150 -16q0 17 12.5 54.5t24.5 49.5q92 47 203 47q52 0 84 -8q-25 -189 -50.5 -415.5t-25.5 -282.5q0 -175 143 -175q73 0 140 43t106 111l78 592
l-142 -16q0 17 12.5 55.5t24.5 50.5q85 45 195 45q50 0 82 -8l-94 -825q0 -4 3.5 -19.5t6.5 -19.5l153 14q0 -23 -10 -59t-22 -56q-46 -17 -121.5 -32t-120.5 -15q-40 66 -51 158zM528 1446l164 14l193 -289q-42 -54 -121 -69l-166 203l-244 -222q-17 13 -32.5 49t-20.5 68z
" />
    <glyph glyph-name="udieresis" unicode="&#xfc;" horiz-adv-x="1134" 
d="M674 123h-10q-103 -158 -318 -158q-37 0 -69.5 7t-63.5 25t-53 45.5t-35.5 71.5t-13.5 101q0 88 28.5 289t53.5 346l-150 -16q0 17 12.5 54.5t24.5 49.5q92 47 203 47q52 0 84 -8q-25 -189 -50.5 -415.5t-25.5 -282.5q0 -175 143 -175q73 0 140 43t106 111l78 592
l-142 -16q0 17 12.5 55.5t24.5 50.5q85 45 195 45q50 0 82 -8l-94 -825q0 -4 3.5 -19.5t6.5 -19.5l153 14q0 -23 -10 -59t-22 -56q-46 -17 -121.5 -32t-120.5 -15q-40 66 -51 158zM375 1370q45 0 73.5 -28t28.5 -76q0 -51 -29 -82t-73 -31q-105 0 -105 113q0 44 30.5 74
t74.5 30zM778 1370q45 0 74 -28t29 -76q0 -51 -29.5 -82t-73.5 -31q-104 0 -104 113q0 44 30 74t74 30z" />
    <glyph glyph-name="yacute" unicode="&#xfd;" horiz-adv-x="976" 
d="M125 854l-145 -14q0 17 10.5 53.5t21.5 48.5q28 19 83.5 31t111.5 12q41 0 74 -10l129 -590q19 -93 28 -250h15q190 362 290 690q0 19 -8 35l-164 -14q2 25 14.5 58.5t30.5 51.5q34 16 112.5 28.5t119.5 12.5q25 -25 45 -69t20 -66q-93 -250 -245 -551t-252 -442
q-93 -131 -191.5 -214t-216.5 -134q-18 29 -31.5 73.5t-13.5 81.5q255 79 373 283zM807 1421l-334 -340q-22 12 -46 40.5t-36 56.5l256 319q38 -6 87.5 -29.5t72.5 -46.5z" />
    <glyph glyph-name="thorn" unicode="&#xfe;" horiz-adv-x="1097" 
d="M266 6l-49 -465q-50 -8 -98 -8q-52 0 -76 8l219 1811l-147 -17q0 17 12.5 55t24.5 50q92 47 200 47q52 0 84 -8l-30 -297q-24 -229 -60 -359h21q51 81 119 127.5t180 46.5q57 0 105.5 -19t89.5 -59.5t64 -112t23 -167.5q0 -155 -42 -291t-120 -227q-66 -75 -157 -115.5
t-193 -40.5q-47 0 -95.5 11t-74.5 30zM346 692l-70 -575q74 -29 154 -29q152 0 236 100q104 123 104 402q0 268 -186 268q-67 0 -135.5 -50.5t-102.5 -115.5z" />
    <glyph glyph-name="ydieresis" unicode="&#xff;" horiz-adv-x="976" 
d="M125 854l-145 -14q0 17 10.5 53.5t21.5 48.5q28 19 83.5 31t111.5 12q41 0 74 -10l129 -590q19 -93 28 -250h15q190 362 290 690q0 19 -8 35l-164 -14q2 25 14.5 58.5t30.5 51.5q34 16 112.5 28.5t119.5 12.5q25 -25 45 -69t20 -66q-93 -250 -245 -551t-252 -442
q-93 -131 -191.5 -214t-216.5 -134q-18 29 -31.5 73.5t-13.5 81.5q255 79 373 283zM313 1370q45 0 74 -28t29 -76q0 -51 -29.5 -82t-73.5 -31q-104 0 -104 113q0 44 30 74t74 30zM717 1370q45 0 73.5 -28t28.5 -76q0 -51 -29 -82t-73 -31q-105 0 -105 113q0 44 30.5 74
t74.5 30z" />
    <glyph glyph-name="Amacron" unicode="&#x100;" horiz-adv-x="1458" 
d="M971 459h-516l-76 -174q-37 -88 -82 -158q80 -4 154 -18q4 -15 9 -53t5 -56h-471q10 56 39 109q41 14 102 22l633 1319h117l364 -1315q63 -4 119 -18q12 -54 12 -117h-491q10 61 33 111q55 14 151 24q-40 69 -63 168zM795 1239h-15q-18 -74 -75 -199l-205 -465h446
l-123 469q-28 114 -28 195zM1137 1602h-645q0 67 26 147h627q2 -14 2 -41q0 -58 -10 -106z" />
    <glyph glyph-name="amacron" unicode="&#x101;" horiz-adv-x="1069" 
d="M600 117h-10q-53 -77 -132 -114.5t-157 -37.5q-121 0 -192.5 90.5t-71.5 276.5q0 130 35 251t100 212q147 202 381 202q174 0 305 -92l-98 -751q0 -18 10 -43l160 14q0 -22 -10.5 -57.5t-22.5 -55.5q-44 -18 -121.5 -32.5t-122.5 -14.5q-39 66 -53 152zM600 254l84 604
q-54 31 -133 31t-144 -43t-106 -111q-43 -72 -65.5 -179t-22.5 -202q0 -126 45.5 -188t126.5 -62q62 0 120 40.5t95 109.5zM813 1186h-504q0 64 25 133h487q2 -12 2 -37q0 -54 -10 -96z" />
    <glyph glyph-name="Abreve" unicode="&#x102;" horiz-adv-x="1458" 
d="M971 459h-516l-76 -174q-37 -88 -82 -158q80 -4 154 -18q4 -15 9 -53t5 -56h-471q10 56 39 109q41 14 102 22l633 1319h117l364 -1315q63 -4 119 -18q12 -54 12 -117h-491q10 61 33 111q55 14 151 24q-40 69 -63 168zM795 1239h-15q-18 -74 -75 -199l-205 -465h446
l-123 469q-28 114 -28 195zM618 1817q32 -127 199 -127q85 0 142.5 32.5t80.5 94.5q32 0 70 -11t59 -28q-33 -114 -128 -179t-234 -65q-140 0 -224 59t-96 164q22 22 59 39.5t72 20.5z" />
    <glyph glyph-name="abreve" unicode="&#x103;" horiz-adv-x="1069" 
d="M600 117h-10q-53 -77 -132 -114.5t-157 -37.5q-121 0 -192.5 90.5t-71.5 276.5q0 130 35 251t100 212q147 202 381 202q174 0 305 -92l-98 -751q0 -18 10 -43l160 14q0 -22 -10.5 -57.5t-22.5 -55.5q-44 -18 -121.5 -32.5t-122.5 -14.5q-39 66 -53 152zM600 254l84 604
q-54 31 -133 31t-144 -43t-106 -111q-43 -72 -65.5 -179t-22.5 -202q0 -126 45.5 -188t126.5 -62q62 0 120 40.5t95 109.5zM403 1434q9 -189 146 -189q142 0 196 187q67 -4 111 -33q-27 -133 -111.5 -213t-212.5 -80q-122 0 -184 70.5t-65 203.5q44 44 120 54z" />
    <glyph glyph-name="Aogonek" unicode="&#x104;" horiz-adv-x="1458" 
d="M971 459h-516l-76 -174q-37 -88 -82 -158q80 -4 154 -18q4 -15 9 -53t5 -56h-471q10 56 39 109q41 14 102 22l633 1319h117l364 -1315q63 -4 119 -18q12 -54 12 -117h-170q-109 -57 -162 -119.5t-53 -142.5q0 -56 35.5 -86.5t89.5 -30.5q31 0 49 6q21 -42 21 -100
q-51 -19 -119 -19q-98 0 -165.5 53t-67.5 152q0 92 65 171.5t182 105.5v10h-196q10 61 33 111q55 14 151 24q-40 69 -63 168zM795 1239h-15q-18 -74 -75 -199l-205 -465h446l-123 469q-28 114 -28 195z" />
    <glyph glyph-name="aogonek" unicode="&#x105;" horiz-adv-x="1069" 
d="M819 -311q7 -13 13 -46t6 -57q-52 -20 -123 -20q-87 0 -146 48t-59 136q0 138 143 217q-39 67 -53 150h-10q-53 -77 -132 -114.5t-157 -37.5q-121 0 -192.5 90.5t-71.5 276.5q0 130 35 251t100 212q147 202 381 202q174 0 305 -92l-98 -749q0 -18 10 -43l160 14
q0 -22 -10.5 -57.5t-22.5 -55.5q-231 -85 -231 -233q0 -50 28.5 -75t71.5 -25q21 0 53 8zM600 254l84 604q-54 31 -133 31t-144 -43t-106 -111q-43 -72 -65.5 -179t-22.5 -202q0 -126 45.5 -188t126.5 -62q62 0 120 40.5t95 109.5z" />
    <glyph glyph-name="Cacute" unicode="&#x106;" horiz-adv-x="1243" 
d="M991 1077l21 209q-95 45 -215 45q-229 0 -366.5 -191t-137.5 -526q0 -246 106 -370.5t293 -124.5q81 0 187.5 21t181.5 50q0 -26 -11.5 -67.5t-25.5 -63.5q-88 -43 -201.5 -71.5t-216.5 -28.5q-232 0 -371 171.5t-139 444.5q0 161 37 302.5t103.5 247.5t156.5 182.5
t199.5 115.5t228.5 39q217 0 367 -78q-17 -186 -58 -340q-30 0 -72.5 10t-66.5 23zM1208 1708l-491 -184q-12 38 -12 98q0 25 2 39l411 207q27 -22 53 -70t37 -90z" />
    <glyph glyph-name="cacute" unicode="&#x107;" horiz-adv-x="907" 
d="M614 702l15 146q-50 31 -105 31q-68 0 -126 -35t-97 -96q-84 -133 -84 -363q0 -142 46 -206t140 -64q65 0 152.5 28t149.5 62q0 -25 -9 -61.5t-20 -59.5q-65 -48 -156 -83.5t-184 -35.5q-151 0 -227 98t-76 275q0 276 141 469q65 87 166.5 138.5t210.5 51.5
q137 0 229 -73q0 -132 -53 -248q-27 0 -61 7.5t-52 18.5zM854 1421l-334 -340q-22 12 -46 40.5t-36 56.5l256 319q38 -6 87.5 -29.5t72.5 -46.5z" />
    <glyph glyph-name="Ccircumflex" unicode="&#x108;" horiz-adv-x="1243" 
d="M991 1077l21 209q-95 45 -215 45q-229 0 -366.5 -191t-137.5 -526q0 -246 106 -370.5t293 -124.5q81 0 187.5 21t181.5 50q0 -26 -11.5 -67.5t-25.5 -63.5q-88 -43 -201.5 -71.5t-216.5 -28.5q-232 0 -371 171.5t-139 444.5q0 161 37 302.5t103.5 247.5t156.5 182.5
t199.5 115.5t228.5 39q217 0 367 -78q-17 -186 -58 -340q-30 0 -72.5 10t-66.5 23zM735 1827h207l229 -205q-11 -26 -34.5 -54.5t-46.5 -41.5l-265 155l-313 -168q-11 22 -19 59.5t-8 63.5z" />
    <glyph glyph-name="ccircumflex" unicode="&#x109;" horiz-adv-x="907" 
d="M614 702l15 146q-50 31 -105 31q-68 0 -126 -35t-97 -96q-84 -133 -84 -363q0 -142 46 -206t140 -64q65 0 152.5 28t149.5 62q0 -25 -9 -61.5t-20 -59.5q-65 -48 -156 -83.5t-184 -35.5q-151 0 -227 98t-76 275q0 276 141 469q65 87 166.5 138.5t210.5 51.5
q137 0 229 -73q0 -132 -53 -248q-27 0 -61 7.5t-52 18.5zM485 1446l164 14l193 -289q-42 -54 -121 -69l-166 203l-244 -222q-17 13 -32.5 49t-20.5 68z" />
    <glyph glyph-name="Cdotaccent" unicode="&#x10a;" horiz-adv-x="1243" 
d="M991 1077l21 209q-95 45 -215 45q-229 0 -366.5 -191t-137.5 -526q0 -246 106 -370.5t293 -124.5q81 0 187.5 21t181.5 50q0 -26 -11.5 -67.5t-25.5 -63.5q-88 -43 -201.5 -71.5t-216.5 -28.5q-232 0 -371 171.5t-139 444.5q0 161 37 302.5t103.5 247.5t156.5 182.5
t199.5 115.5t228.5 39q217 0 367 -78q-17 -186 -58 -340q-30 0 -72.5 10t-66.5 23zM825 1806q51 0 81 -29t30 -83q0 -56 -31 -87.5t-80 -31.5q-116 0 -116 119q0 51 32.5 81.5t83.5 30.5z" />
    <glyph glyph-name="cdotaccent" unicode="&#x10b;" horiz-adv-x="907" 
d="M614 702l15 146q-50 31 -105 31q-68 0 -126 -35t-97 -96q-84 -133 -84 -363q0 -142 46 -206t140 -64q65 0 152.5 28t149.5 62q0 -25 -9 -61.5t-20 -59.5q-65 -48 -156 -83.5t-184 -35.5q-151 0 -227 98t-76 275q0 276 141 469q65 87 166.5 138.5t210.5 51.5
q137 0 229 -73q0 -132 -53 -248q-27 0 -61 7.5t-52 18.5zM555 1372q49 0 78 -28.5t29 -81.5q0 -54 -30 -85.5t-77 -31.5q-111 0 -111 117q0 49 31.5 79.5t79.5 30.5z" />
    <glyph glyph-name="Ccaron" unicode="&#x10c;" horiz-adv-x="1243" 
d="M991 1077l21 209q-95 45 -215 45q-229 0 -366.5 -191t-137.5 -526q0 -246 106 -370.5t293 -124.5q81 0 187.5 21t181.5 50q0 -26 -11.5 -67.5t-25.5 -63.5q-88 -43 -201.5 -71.5t-216.5 -28.5q-232 0 -371 171.5t-139 444.5q0 161 37 302.5t103.5 247.5t156.5 182.5
t199.5 115.5t228.5 39q217 0 367 -78q-17 -186 -58 -340q-30 0 -72.5 10t-66.5 23zM911 1534h-213l-235 235q57 43 133 56l240 -148l249 144q20 -7 46.5 -30.5t35.5 -41.5z" />
    <glyph glyph-name="ccaron" unicode="&#x10d;" horiz-adv-x="907" 
d="M614 702l15 146q-50 31 -105 31q-68 0 -126 -35t-97 -96q-84 -133 -84 -363q0 -142 46 -206t140 -64q65 0 152.5 28t149.5 62q0 -25 -9 -61.5t-20 -59.5q-65 -48 -156 -83.5t-184 -35.5q-151 0 -227 98t-76 275q0 276 141 469q65 87 166.5 138.5t210.5 51.5
q137 0 229 -73q0 -132 -53 -248q-27 0 -61 7.5t-52 18.5zM608 1110l-164 -14l-192 309q19 20 55.5 35.5t67.5 17.5l182 -213l225 215q24 -5 53 -20.5t42 -32.5z" />
    <glyph glyph-name="Dcaron" unicode="&#x10e;" horiz-adv-x="1439" 
d="M190 1407q276 29 500 29q183 0 323.5 -69.5t223 -212t82.5 -341.5q0 -207 -54.5 -367t-151 -258t-223 -148t-276.5 -50q-232 0 -587 14q10 60 30 109q66 18 154 26l119 1139q-109 0 -148 6q-2 19 1 61t7 62zM500 1300l-105 -1173q88 -6 187 -6q546 0 546 674
q0 250 -132.5 382t-358.5 132q-87 0 -137 -9zM846 1534h-213l-236 235q57 43 133 56l240 -148l250 144q20 -7 46.5 -30.5t35.5 -41.5z" />
    <glyph glyph-name="dcaron" unicode="&#x10f;" horiz-adv-x="1083" 
d="M942 1479l-164 -1325q0 -18 10 -43l158 14q0 -22 -10.5 -57.5t-22.5 -55.5q-45 -19 -120 -33t-121 -14q-38 75 -51 152h-11q-58 -77 -139.5 -114.5t-163.5 -37.5q-124 0 -197 88.5t-73 274.5q0 130 34 252t99 211q68 97 166 151.5t215 54.5q78 0 164 -39l53 394l-147 -17
q0 17 12 55t24 50q92 47 201 47q52 0 84 -8zM621 254l77 594q-56 37 -141 37q-80 0 -145.5 -43t-108.5 -111q-46 -69 -68 -174.5t-22 -202.5q0 -245 180 -245q66 0 126.5 38t101.5 107zM1100 1329l-70 14q9 27 30 61.5t40 55.5q30 6 69 6q70 0 125 -22q-27 -92 -96 -222.5
t-121 -199.5q-25 6 -49.5 19.5t-34.5 25.5q58 113 107 262z" />
    <glyph glyph-name="Dcroat" unicode="&#x110;" horiz-adv-x="1449" 
d="M213 1407q276 29 500 29q137 0 251 -40.5t198.5 -117.5t131.5 -196t47 -269q0 -166 -35.5 -302.5t-99 -232.5t-152 -161.5t-193 -96t-224.5 -30.5q-233 0 -588 14q9 56 31 109q66 18 153 26l54 512h-168q0 59 24 125h156l53 502q-108 0 -147 6q-2 19 1 61t7 62zM522 1300
l-47 -524h369q8 -47 -6 -125h-373l-47 -524q88 -6 186 -6q547 0 547 674q0 250 -133 382t-359 132q-87 0 -137 -9z" />
    <glyph glyph-name="dcroat" unicode="&#x111;" horiz-adv-x="1103" 
d="M952 1479l-30 -238h151q2 -12 2 -31q0 -40 -8 -80h-158l-121 -976q0 -16 11 -43l157 14q0 -22 -10 -57.5t-22 -55.5q-45 -19 -120.5 -33t-121.5 -14q-38 75 -51 152l-13 -4q-58 -77 -138.5 -114.5t-162.5 -37.5q-124 0 -197 90t-73 277q0 130 34 252t99 211
q68 97 166 151.5t215 54.5q78 0 164 -39l25 172h-293q0 53 20 111h285l16 111l-147 -17q0 17 12.5 55t24.5 50q92 47 200 47q52 0 84 -8zM631 254l78 594q-56 37 -142 37q-80 0 -145.5 -43t-108.5 -111q-46 -69 -68 -174.5t-22 -202.5q0 -126 47.5 -188t132.5 -62
q65 0 126 40t102 110z" />
    <glyph glyph-name="Emacron" unicode="&#x112;" horiz-adv-x="1181" 
d="M985 0h-971q9 56 31 109q64 17 158 26l119 1155q-92 4 -148 15q-7 57 8 116h924l-31 -301q-58 0 -112 15q-13 93 -13 161h-458l-50 -520h365q11 57 31 111q50 16 118 16l-36 -379q-26 -3 -62 -0.5t-55 8.5q-10 67 -10 121h-359l-47 -524h455q22 110 43 176q54 14 131 14z
M997 1602h-645q0 64 27 147h627q2 -14 2 -41q0 -53 -11 -106z" />
    <glyph glyph-name="emacron" unicode="&#x113;" horiz-adv-x="899" 
d="M782 772q0 -326 -561 -348v-62q0 -249 170 -249q68 0 155 27t152 69q0 -63 -24 -113q-65 -57 -158 -94t-199 -37q-135 0 -206.5 91t-71.5 257q0 147 37 283t117 231q65 77 156.5 123.5t197.5 46.5q109 0 172 -60.5t63 -164.5zM510 887q-63 0 -119 -35t-90 -94
q-51 -84 -68 -215q98 3 169.5 18t112 34.5t64 49t30.5 56t7 61.5q0 56 -26 90.5t-80 34.5zM768 1186h-504q0 64 25 133h487q2 -12 2 -37q0 -54 -10 -96z" />
    <glyph glyph-name="Ebreve" unicode="&#x114;" horiz-adv-x="1181" 
d="M985 0h-971q9 56 31 109q64 17 158 26l119 1155q-92 4 -148 15q-7 57 8 116h924l-31 -301q-58 0 -112 15q-13 93 -13 161h-458l-50 -520h365q11 57 31 111q50 16 118 16l-36 -379q-26 -3 -62 -0.5t-55 8.5q-10 67 -10 121h-359l-47 -524h455q22 110 43 176q54 14 131 14z
M475 1817q32 -127 199 -127q85 0 142.5 32.5t80.5 94.5q32 0 70 -11t59 -28q-33 -114 -128 -179t-234 -65q-140 0 -224 59t-96 164q22 22 59 39.5t72 20.5z" />
    <glyph glyph-name="ebreve" unicode="&#x115;" horiz-adv-x="899" 
d="M782 772q0 -326 -561 -348v-62q0 -249 170 -249q68 0 155 27t152 69q0 -63 -24 -113q-65 -57 -158 -94t-199 -37q-135 0 -206.5 91t-71.5 257q0 147 37 283t117 231q65 77 156.5 123.5t197.5 46.5q109 0 172 -60.5t63 -164.5zM510 887q-63 0 -119 -35t-90 -94
q-51 -84 -68 -215q98 3 169.5 18t112 34.5t64 49t30.5 56t7 61.5q0 56 -26 90.5t-80 34.5zM362 1434q9 -189 146 -189q70 0 120.5 48t76.5 139q66 -4 110 -33q-27 -133 -111 -213t-212 -80q-122 0 -184.5 70.5t-65.5 203.5q44 44 120 54z" />
    <glyph glyph-name="Edotaccent" unicode="&#x116;" horiz-adv-x="1181" 
d="M985 0h-971q9 56 31 109q64 17 158 26l119 1155q-92 4 -148 15q-7 57 8 116h924l-31 -301q-58 0 -112 15q-13 93 -13 161h-458l-50 -520h365q11 57 31 111q50 16 118 16l-36 -379q-26 -3 -62 -0.5t-55 8.5q-10 67 -10 121h-359l-47 -524h455q22 110 43 176q54 14 131 14z
M692 1806q51 0 81 -29t30 -83q0 -56 -31 -87.5t-80 -31.5q-117 0 -117 119q0 50 32.5 81t84.5 31z" />
    <glyph glyph-name="edotaccent" unicode="&#x117;" horiz-adv-x="899" 
d="M782 772q0 -326 -561 -348v-62q0 -249 170 -249q68 0 155 27t152 69q0 -63 -24 -113q-65 -57 -158 -94t-199 -37q-135 0 -206.5 91t-71.5 257q0 147 37 283t117 231q65 77 156.5 123.5t197.5 46.5q109 0 172 -60.5t63 -164.5zM510 887q-63 0 -119 -35t-90 -94
q-51 -84 -68 -215q98 3 169.5 18t112 34.5t64 49t30.5 56t7 61.5q0 56 -26 90.5t-80 34.5zM526 1372q49 0 78 -28.5t29 -81.5q0 -54 -30 -85.5t-77 -31.5q-110 0 -110 117q0 49 31 79.5t79 30.5z" />
    <glyph glyph-name="Eogonek" unicode="&#x118;" horiz-adv-x="1181" 
d="M874 -373q21 -42 21 -100q-51 -19 -119 -19q-98 0 -165.5 53t-67.5 152q0 92 65.5 171.5t182.5 105.5v10h-777q9 56 31 109q64 17 158 26l119 1155q-92 4 -148 15q-7 57 8 116h924l-31 -301q-58 0 -112 15q-13 93 -13 161h-458l-50 -520h365q11 57 31 111q50 16 118 16
l-36 -379q-26 -3 -62 -0.5t-55 8.5q-10 67 -10 121h-359l-47 -524h455q22 110 43 176q54 14 131 14l-31 -319h-70q-109 -57 -162 -119.5t-53 -142.5q0 -56 35.5 -86.5t89.5 -30.5q31 0 49 6z" />
    <glyph glyph-name="eogonek" unicode="&#x119;" horiz-adv-x="899" 
d="M479 -311q7 -13 13 -46t6 -57q-52 -20 -123 -20q-87 0 -146 48t-59 136q0 69 37.5 125t107.5 80v10q-131 0 -203.5 92t-72.5 256q0 147 37 283t117 231q65 77 156.5 123.5t197.5 46.5q109 0 172 -60.5t63 -164.5q0 -326 -561 -348v-62q0 -249 170 -249q68 0 155 27
t152 69q0 -63 -24 -113q-56 -46 -135 -84q-112 -53 -162.5 -105.5t-50.5 -125.5q0 -50 28.5 -75t71.5 -25q21 0 53 8zM510 887q-63 0 -119 -35t-90 -94q-51 -84 -68 -215q98 3 169.5 18t112 34.5t64 49t30.5 56t7 61.5q0 56 -26 90.5t-80 34.5z" />
    <glyph glyph-name="Ecaron" unicode="&#x11a;" horiz-adv-x="1181" 
d="M985 0h-971q9 56 31 109q64 17 158 26l119 1155q-92 4 -148 15q-7 57 8 116h924l-31 -301q-58 0 -112 15q-13 93 -13 161h-458l-50 -520h365q11 57 31 111q50 16 118 16l-36 -379q-26 -3 -62 -0.5t-55 8.5q-10 67 -10 121h-359l-47 -524h455q22 110 43 176q54 14 131 14z
M780 1534h-213l-235 235q57 43 133 56l240 -148l249 144q20 -7 46.5 -30.5t35.5 -41.5z" />
    <glyph glyph-name="ecaron" unicode="&#x11b;" horiz-adv-x="899" 
d="M782 772q0 -326 -561 -348v-62q0 -249 170 -249q68 0 155 27t152 69q0 -63 -24 -113q-65 -57 -158 -94t-199 -37q-135 0 -206.5 91t-71.5 257q0 147 37 283t117 231q65 77 156.5 123.5t197.5 46.5q109 0 172 -60.5t63 -164.5zM510 887q-63 0 -119 -35t-90 -94
q-51 -84 -68 -215q98 3 169.5 18t112 34.5t64 49t30.5 56t7 61.5q0 56 -26 90.5t-80 34.5zM586 1110l-164 -14l-193 309q19 20 55.5 35.5t67.5 17.5l183 -213l225 215q24 -5 52.5 -20.5t41.5 -32.5z" />
    <glyph glyph-name="Gcircumflex" unicode="&#x11c;" horiz-adv-x="1431" 
d="M963 131l38 426q-147 4 -258 21q-12 44 -12 120h625q-7 -48 -29 -125q-61 -12 -153 -16l-44 -500q-92 -35 -234 -66.5t-255 -31.5q-265 0 -405 157.5t-140 438.5q0 274 95 479.5t271 316.5t410 111q227 0 381 -106q-6 -72 -23.5 -170t-33.5 -150q-27 0 -71.5 11t-67.5 22
l20 201q-108 65 -235 65q-119 0 -220.5 -49.5t-176 -142.5t-116.5 -235t-42 -318q0 -239 115 -364.5t307 -125.5q109 0 254 31zM770 1827h207l229 -205q-11 -25 -35 -54t-47 -42l-264 155l-313 -168q-11 22 -19 59.5t-8 63.5z" />
    <glyph glyph-name="gcircumflex" unicode="&#x11d;" horiz-adv-x="1040" 
d="M868 905l-88 -831q-11 -99 -29.5 -179t-54.5 -154.5t-86.5 -124.5t-127 -80t-173.5 -30q-157 0 -293 56q-24 53 -24 125q0 31 6 55q168 -100 315 -100q130 0 197.5 85t91.5 238q17 110 39 176h-20q-56 -84 -138 -125t-164 -41q-124 0 -197 89t-73 274q0 129 35 249
t100 210q148 200 383 200q170 0 301 -92zM629 270l71 586q-58 33 -137 33q-78 0 -142.5 -42.5t-107.5 -109.5q-44 -70 -66 -175t-22 -202q0 -124 46.5 -184.5t131.5 -60.5q64 0 125.5 42t100.5 113zM504 1446l164 14l192 -289q-42 -54 -121 -69l-166 203l-243 -222
q-17 13 -33 49t-21 68z" />
    <glyph glyph-name="Gbreve" unicode="&#x11e;" horiz-adv-x="1431" 
d="M963 131l38 426q-147 4 -258 21q-12 44 -12 120h625q-7 -48 -29 -125q-61 -12 -153 -16l-44 -500q-92 -35 -234 -66.5t-255 -31.5q-265 0 -405 157.5t-140 438.5q0 274 95 479.5t271 316.5t410 111q227 0 381 -106q-6 -72 -23.5 -170t-33.5 -150q-27 0 -71.5 11t-67.5 22
l20 201q-108 65 -235 65q-119 0 -220.5 -49.5t-176 -142.5t-116.5 -235t-42 -318q0 -239 115 -364.5t307 -125.5q109 0 254 31zM643 1817q32 -127 199 -127q85 0 142.5 32.5t80.5 94.5q32 0 70 -11t59 -28q-33 -114 -128 -179t-235 -65t-223.5 59t-95.5 164q22 22 59 39.5
t72 20.5z" />
    <glyph glyph-name="gbreve" unicode="&#x11f;" horiz-adv-x="1040" 
d="M868 905l-88 -831q-11 -99 -29.5 -179t-54.5 -154.5t-86.5 -124.5t-127 -80t-173.5 -30q-157 0 -293 56q-24 53 -24 125q0 31 6 55q168 -100 315 -100q130 0 197.5 85t91.5 238q17 110 39 176h-20q-56 -84 -138 -125t-164 -41q-124 0 -197 89t-73 274q0 129 35 249
t100 210q148 200 383 200q170 0 301 -92zM629 270l71 586q-58 33 -137 33q-78 0 -142.5 -42.5t-107.5 -109.5q-44 -70 -66 -175t-22 -202q0 -124 46.5 -184.5t131.5 -60.5q64 0 125.5 42t100.5 113zM399 1434q9 -189 146 -189q142 0 196 187q67 -4 111 -33
q-27 -133 -111.5 -213t-212.5 -80q-122 0 -184 70.5t-65 203.5q44 44 120 54z" />
    <glyph glyph-name="Gdotaccent" unicode="&#x120;" horiz-adv-x="1431" 
d="M963 131l38 426q-147 4 -258 21q-12 44 -12 120h625q-7 -48 -29 -125q-61 -12 -153 -16l-44 -500q-92 -35 -234 -66.5t-255 -31.5q-265 0 -405 157.5t-140 438.5q0 274 95 479.5t271 316.5t410 111q227 0 381 -106q-6 -72 -23.5 -170t-33.5 -150q-27 0 -71.5 11t-67.5 22
l20 201q-108 65 -235 65q-119 0 -220.5 -49.5t-176 -142.5t-116.5 -235t-42 -318q0 -239 115 -364.5t307 -125.5q109 0 254 31zM856 1806q51 0 81 -29t30 -83q0 -56 -31 -87.5t-80 -31.5q-117 0 -117 119q0 50 32.5 81t84.5 31z" />
    <glyph glyph-name="gdotaccent" unicode="&#x121;" horiz-adv-x="1040" 
d="M868 905l-88 -831q-11 -99 -29.5 -179t-54.5 -154.5t-86.5 -124.5t-127 -80t-173.5 -30q-157 0 -293 56q-24 53 -24 125q0 31 6 55q168 -100 315 -100q130 0 197.5 85t91.5 238q17 110 39 176h-20q-56 -84 -138 -125t-164 -41q-124 0 -197 89t-73 274q0 129 35 249
t100 210q148 200 383 200q170 0 301 -92zM629 270l71 586q-58 33 -137 33q-78 0 -142.5 -42.5t-107.5 -109.5q-44 -70 -66 -175t-22 -202q0 -124 46.5 -184.5t131.5 -60.5q64 0 125.5 42t100.5 113zM561 1372q49 0 78 -28.5t29 -81.5q0 -54 -30 -85.5t-77 -31.5
q-110 0 -110 117q0 49 31 79.5t79 30.5z" />
    <glyph glyph-name="Gcommaaccent" unicode="&#x122;" horiz-adv-x="1431" 
d="M963 131l38 426q-147 4 -258 21q-12 44 -12 120h625q-7 -48 -29 -125q-61 -12 -153 -16l-44 -500q-92 -35 -234 -66.5t-255 -31.5q-265 0 -405 157.5t-140 438.5q0 274 95 479.5t271 316.5t410 111q227 0 381 -106q-6 -72 -23.5 -170t-33.5 -150q-27 0 -71.5 11t-67.5 22
l20 201q-108 65 -235 65q-119 0 -220.5 -49.5t-176 -142.5t-116.5 -235t-42 -318q0 -239 115 -364.5t307 -125.5q109 0 254 31zM618 -231l-75 16q11 29 33 65t42 56q40 8 74 8q80 0 135 -25q-28 -93 -100.5 -223t-130.5 -207q-24 6 -52.5 20t-41.5 25q55 100 116 265z" />
    <glyph glyph-name="gcommaaccent" unicode="&#x123;" horiz-adv-x="1040" 
d="M868 905l-88 -831q-11 -99 -29.5 -179t-54.5 -154.5t-86.5 -124.5t-127 -80t-173.5 -30q-157 0 -293 56q-24 53 -24 125q0 31 6 55q168 -100 315 -100q130 0 197.5 85t91.5 238q17 110 39 176h-20q-56 -84 -138 -125t-164 -41q-124 0 -197 89t-73 274q0 129 35 249
t100 210q148 200 383 200q170 0 301 -92zM629 270l71 586q-58 33 -137 33q-78 0 -142.5 -42.5t-107.5 -109.5q-44 -70 -66 -175t-22 -202q0 -124 46.5 -184.5t131.5 -60.5q64 0 125.5 42t100.5 113zM760 1509q-75 -154 -107 -260l84 -18q-7 -25 -35.5 -66.5t-52.5 -64.5
q-116 14 -180 63q31 85 78.5 173.5t93.5 152.5q15 7 52.5 13.5t66.5 6.5z" />
    <glyph glyph-name="Hcircumflex" unicode="&#x124;" horiz-adv-x="1581" 
d="M1067 135l51 539h-676l-49 -541q108 -6 160 -20q4 -22 2.5 -56.5t-6.5 -56.5h-529q9 56 31 109q64 17 158 26l119 1155q-92 4 -148 15q-7 57 8 116h480q4 -62 -15 -114q-73 -14 -155 -17l-45 -483h682l51 483q-79 4 -146 15q-3 22 0.5 59.5t8.5 56.5h481q2 -10 2 -32
q0 -42 -14 -82q-77 -14 -162 -17l-105 -1157q116 -8 172 -20q4 -22 2.5 -56.5t-6.5 -56.5h-530q8 47 29 109q61 17 149 26zM784 1827h207l230 -205q-11 -25 -35 -54t-47 -42l-265 155l-313 -168q-11 22 -18.5 59t-7.5 64z" />
    <glyph glyph-name="hcircumflex" unicode="&#x125;" horiz-adv-x="1124" 
d="M270 1833h203l229 -205q-10 -24 -32.5 -49t-46.5 -39l-265 156l-313 -168q-25 48 -25 114zM80 4l166 1348l-148 -17q0 17 12.5 55t24.5 50q92 47 201 47q52 0 84 -8l-31 -297q-17 -172 -57 -348h20q104 163 310 163q237 0 237 -254q0 -55 -15.5 -178t-37 -262t-23.5 -158
q0 -17 11 -34l157 16q0 -23 -10.5 -58.5t-22.5 -56.5q-49 -19 -122.5 -33t-118.5 -14q-29 33 -50.5 79t-21.5 73q80 444 80 569q0 82 -37 129t-110 47q-82 0 -151.5 -60.5t-96.5 -129.5l-76 -668q-50 -8 -98 -8q-52 0 -76 8z" />
    <glyph glyph-name="Hbar" unicode="&#x126;" horiz-adv-x="1613" 
d="M1083 135l52 539h-676l-49 -541q107 -5 159 -20q4 -22 2.5 -56.5t-6.5 -56.5h-528q9 56 31 109q64 17 157 26l90 877h-139q0 56 23 112h127l18 166q-90 4 -147 15q-7 57 8 116h479q4 -64 -14 -114q-73 -14 -156 -17l-16 -166h686l18 166q-78 3 -145 15q-7 57 8 116h481
q2 -10 2 -32q0 -42 -14 -82q-77 -14 -162 -17l-16 -166h141q7 -51 -6 -112h-145l-78 -879q116 -8 172 -20q4 -22 2.5 -56.5t-6.5 -56.5h-531q8 47 29 109q61 17 149 26zM469 807h682l20 205h-684z" />
    <glyph glyph-name="hbar" unicode="&#x127;" horiz-adv-x="1132" 
d="M88 4l137 1120h-139q0 51 20 109h134l14 119l-148 -17q0 17 12.5 55t24.5 50q92 47 201 47q52 0 84 -8l-27 -246h328q6 -49 -6 -109h-332q-16 -129 -51 -290h20q104 163 310 163q237 0 237 -254q0 -55 -15.5 -178t-37 -262t-23.5 -158q0 -17 11 -34l157 16q0 -23 -10 -59
t-22 -56q-49 -19 -123 -33t-119 -14q-29 33 -50.5 79t-21.5 73q80 444 80 569q0 82 -37 129t-110 47q-82 0 -151.5 -60.5t-96.5 -129.5l-76 -668q-50 -8 -98 -8q-52 0 -76 8z" />
    <glyph glyph-name="Itilde" unicode="&#x128;" horiz-adv-x="716" 
d="M494 1290l-105 -1157q116 -8 172 -20q4 -22 2.5 -56.5t-6.5 -56.5h-541q9 56 31 109q64 17 158 26l119 1155q-92 4 -148 15q-7 57 8 116h484q2 -10 2 -32q0 -39 -15 -82q-77 -14 -161 -17zM694 1788q50 0 107 -23q-13 -91 -79.5 -158t-172.5 -67q-48 0 -99 22.5t-97.5 45
t-84.5 22.5q-46 0 -80 -28.5t-47 -67.5q-23 4 -51 22.5t-39 34.5q23 84 89 138.5t161 54.5q57 0 106.5 -21.5t92 -43t82.5 -21.5q44 0 74 26.5t38 63.5z" />
    <glyph glyph-name="itilde" unicode="&#x129;" horiz-adv-x="573" 
d="M193 850l-150 -16q0 17 12.5 54.5t24.5 49.5q92 47 203 47q52 0 84 -8l-103 -832q0 -14 10 -34l160 16q0 -23 -10.5 -58.5t-22.5 -56.5q-49 -18 -123.5 -32.5t-119.5 -14.5q-29 33 -50.5 79t-21.5 73zM539 1370q39 0 77 -18q-12 -85 -68.5 -150t-150.5 -65q-48 0 -122 45
t-109 45q-37 0 -69.5 -26t-45.5 -60q-19 0 -38.5 14t-28.5 33q24 84 78.5 135t142.5 51q42 0 81.5 -21.5t76.5 -43t73 -21.5q77 0 103 82z" />
    <glyph glyph-name="Imacron" unicode="&#x12a;" horiz-adv-x="716" 
d="M729 1602h-588q0 64 27 147h569q7 -73 -8 -147zM494 1290l-105 -1157q116 -8 172 -20q4 -22 2.5 -56.5t-6.5 -56.5h-541q9 56 31 109q64 17 158 26l119 1155q-92 4 -148 15q-7 57 8 116h484q2 -10 2 -32q0 -39 -15 -82q-77 -14 -161 -17z" />
    <glyph glyph-name="imacron" unicode="&#x12b;" horiz-adv-x="573" 
d="M520 1186h-454q0 67 24 133h438q7 -67 -8 -133zM193 850l-150 -16q0 17 12.5 54.5t24.5 49.5q92 47 203 47q52 0 84 -8l-103 -832q0 -14 10 -34l160 16q0 -23 -10.5 -58.5t-22.5 -56.5q-49 -18 -123.5 -32.5t-119.5 -14.5q-29 33 -50.5 79t-21.5 73z" />
    <glyph glyph-name="Ibreve" unicode="&#x12c;" horiz-adv-x="716" 
d="M494 1290l-105 -1157q116 -8 172 -20q4 -22 2.5 -56.5t-6.5 -56.5h-541q9 56 31 109q64 17 158 26l119 1155q-92 4 -148 15q-7 57 8 116h484q2 -10 2 -32q0 -39 -15 -82q-77 -14 -161 -17zM227 1817q32 -127 199 -127q85 0 142.5 32.5t80.5 94.5q32 0 70 -11t59 -28
q-33 -114 -128 -179t-234 -65q-140 0 -224 59t-96 164q22 22 59 39.5t72 20.5z" />
    <glyph glyph-name="ibreve" unicode="&#x12d;" horiz-adv-x="573" 
d="M193 850l-150 -16q0 17 12.5 54.5t24.5 49.5q92 47 203 47q52 0 84 -8l-103 -832q0 -14 10 -34l160 16q0 -23 -10.5 -58.5t-22.5 -56.5q-49 -18 -123.5 -32.5t-119.5 -14.5q-29 33 -50.5 79t-21.5 73zM139 1434q9 -189 146 -189q142 0 196 187q67 -4 111 -33
q-27 -133 -111.5 -213t-212.5 -80q-122 0 -184.5 70.5t-65.5 203.5q44 44 121 54z" />
    <glyph glyph-name="Iogonek" unicode="&#x12e;" horiz-adv-x="716" 
d="M426 -373q20 -40 20 -100q-51 -19 -118 -19q-98 0 -166 53t-68 152q0 94 65.5 171.5t182.5 105.5v10h-326q9 56 31 109q64 17 158 26l119 1155q-92 4 -148 15q-7 57 8 116h484q2 -10 2 -32q0 -39 -15 -82q-77 -14 -161 -17l-105 -1157q116 -8 172 -20q4 -22 2.5 -56.5
t-6.5 -56.5h-90q-109 -57 -162 -119.5t-53 -142.5q0 -56 35.5 -86.5t89.5 -30.5q31 0 49 6z" />
    <glyph glyph-name="iogonek" unicode="&#x12f;" horiz-adv-x="573" 
d="M330 -311q7 -13 12.5 -45.5t5.5 -57.5q-52 -20 -123 -20q-87 0 -146 48t-59 136q0 69 36.5 123t105.5 84v10q-30 30 -53 76t-23 74l107 733l-150 -16q0 17 12.5 54.5t24.5 49.5q92 47 203 47q52 0 84 -8l-103 -832q0 -14 10 -34l160 16q0 -23 -10.5 -58.5t-22.5 -56.5
q-120 -49 -172.5 -104t-52.5 -127q0 -50 28.5 -75t71.5 -25q22 0 54 8zM326 1448q50 0 80 -30t30 -83q0 -56 -31 -88.5t-79 -32.5q-113 0 -113 121q0 49 32.5 81t80.5 32z" />
    <glyph glyph-name="Idotaccent" unicode="&#x130;" horiz-adv-x="716" 
d="M494 1290l-105 -1157q116 -8 172 -20q4 -22 2.5 -56.5t-6.5 -56.5h-541q9 56 31 109q64 17 158 26l119 1155q-92 4 -148 15q-7 57 8 116h484q2 -10 2 -32q0 -39 -15 -82q-77 -14 -161 -17zM432 1806q51 0 81 -29t30 -83q0 -56 -31 -87.5t-80 -31.5q-117 0 -117 119
q0 50 32.5 81t84.5 31z" />
    <glyph glyph-name="dotlessi" unicode="&#x131;" horiz-adv-x="573" 
d="M193 850l-150 -16q0 17 12.5 54.5t24.5 49.5q92 47 203 47q52 0 84 -8l-103 -832q0 -14 10 -34l160 16q0 -23 -10.5 -58.5t-22.5 -56.5q-49 -18 -123.5 -32.5t-119.5 -14.5q-29 33 -50.5 79t-21.5 73z" />
    <glyph glyph-name="IJ" unicode="&#x132;" horiz-adv-x="1411" 
d="M494 1290l-105 -1157q116 -8 172 -20q4 -22 2.5 -56.5t-6.5 -56.5h-541q9 56 31 109q64 17 158 26l119 1155q-92 4 -148 15q-7 57 8 116h484q2 -10 2 -32q0 -39 -15 -82q-77 -14 -161 -17zM895 1421h514q2 -10 2 -32q0 -42 -14 -82q-77 -14 -162 -17l-70 -807
q-25 -298 -163.5 -517.5t-376.5 -334.5q-13 15 -30.5 48t-23.5 55q364 215 410 698l80 858q-95 3 -174 15q-7 57 8 116z" />
    <glyph glyph-name="ij" unicode="&#x133;" horiz-adv-x="1136" 
d="M193 850l-150 -16q0 17 12.5 54.5t24.5 49.5q92 47 203 47q52 0 84 -8l-103 -832q0 -14 10 -34l160 16q0 -23 -10.5 -58.5t-22.5 -56.5q-49 -18 -123.5 -32.5t-119.5 -14.5q-29 33 -50.5 79t-21.5 73zM326 1448q50 0 80 -30t30 -83q0 -56 -31 -88.5t-79 -32.5
q-113 0 -113 121q0 49 32.5 81t80.5 32zM537 -469q-22 8 -47.5 30t-34.5 42q99 100 173 245.5t95 307.5l84 694l-150 -16q0 17 12.5 54.5t24.5 49.5q92 47 203 47q52 0 84 -8l-82 -768q-41 -371 -362 -678zM922 1448q50 0 80 -30t30 -83q0 -56 -31 -88.5t-79 -32.5
q-113 0 -113 121q0 49 32.5 81t80.5 32z" />
    <glyph glyph-name="Jcircumflex" unicode="&#x134;" horiz-adv-x="694" 
d="M178 1421h514q2 -10 2 -32q0 -42 -14 -82q-77 -14 -162 -17l-69 -807q-25 -298 -164 -517.5t-377 -334.5q-13 15 -30 48t-23 55q185 110 285.5 282.5t123.5 415.5l80 858q-95 3 -174 15q-7 57 8 116zM365 1827h206l230 -205q-11 -25 -35 -54t-47 -42l-264 155l-314 -168
q-11 22 -18.5 59t-7.5 64z" />
    <glyph glyph-name="jcircumflex" unicode="&#x135;" horiz-adv-x="563" 
d="M266 1446l164 14l193 -289q-42 -54 -121 -69l-166 203l-244 -222q-17 13 -32.5 49t-20.5 68zM-37 -469q-22 8 -47.5 30t-34.5 42q99 101 174 246t95 307l83 694l-149 -16q0 17 12.5 54.5t24.5 49.5q92 47 203 47q52 0 84 -8l-82 -768q-40 -370 -363 -678z" />
    <glyph glyph-name="Kcommaaccent" unicode="&#x136;" horiz-adv-x="1302" 
d="M457 782h112l303 387q21 28 57 66.5t56 52.5q-65 3 -129 15q-10 58 -10 118h442q-7 -59 -37 -121q-34 -8 -116 -12l-449 -540l399 -623l127 8q0 -30 -8 -70t-20 -63q-109 -24 -219 -35l-424 705h-92l-50 -537q94 -7 148 -20q4 -22 2.5 -56.5t-6.5 -56.5h-514
q10 60 30 109q65 18 156 26l119 1155q-92 4 -148 15q-3 22 0.5 59.5t8.5 56.5h473q3 -20 -1.5 -55.5t-11.5 -58.5q-74 -14 -151 -17zM598 -231l-76 16q11 28 33.5 64.5t42.5 56.5q40 8 74 8q80 0 135 -25q-28 -92 -101 -222t-131 -208q-24 6 -52.5 20t-41.5 25
q58 105 117 265z" />
    <glyph glyph-name="kcommaaccent" unicode="&#x137;" horiz-adv-x="1019" 
d="M258 4q-50 -8 -98 -8q-52 0 -76 8l160 1348l-148 -17q0 17 12.5 55t24.5 50q92 47 199 47q52 0 84 -8l-113 -1035q119 74 239.5 182.5t190.5 196.5q0 16 -6 31l-145 -6q0 25 12.5 61t30.5 54q110 22 229 22q16 -21 34.5 -66t18.5 -65q-43 -78 -145.5 -186t-218.5 -191
q58 -118 123 -224.5t106 -152.5l121 23q0 -67 -25 -115q-32 -18 -91 -34t-103 -21q-46 48 -116 175.5t-138 277.5q-65 -42 -127 -70zM371 -244l-72 15q25 65 70 114q34 9 73 9q64 0 121 -23q-29 -90 -96.5 -218.5t-116.5 -193.5q-45 11 -84 45q47 93 105 252z" />
    <glyph glyph-name="kgreenlandic" unicode="&#x138;" horiz-adv-x="1071" 
d="M295 4q-50 -8 -98 -8q-52 0 -76 8l104 846l-145 -16q0 17 12.5 54.5t24.5 49.5q92 47 198 47q52 0 84 -8l-61 -543q124 76 250.5 188t195.5 201q0 16 -6 31l-145 -6q0 25 12.5 61t30.5 54q110 22 229 22q16 -21 34.5 -66t18.5 -65q-43 -78 -150 -189.5t-224 -195.5
q58 -114 124.5 -220t106.5 -149l125 23q0 -60 -25 -115q-77 -42 -196 -55q-47 45 -120.5 171t-141.5 271q-53 -34 -129 -71z" />
    <glyph glyph-name="Lacute" unicode="&#x139;" horiz-adv-x="1159" 
d="M500 1290l-105 -1159h467q13 102 47 205q54 14 131 14l-32 -350h-983q10 60 30 109q72 19 156 26l119 1155q-92 4 -148 15q-7 57 8 116h512q4 -64 -14 -114q-108 -17 -188 -17zM797 1708l-492 -184q-12 38 -12 98q0 25 2 39l412 207q27 -22 53 -70t37 -90z" />
    <glyph glyph-name="lacute" unicode="&#x13a;" horiz-adv-x="581" 
d="M717 1737l-492 -185q-20 61 -10 121l412 207q28 -24 54 -64t36 -79zM279 111l159 16q0 -23 -10 -59t-22 -56q-49 -18 -124 -32.5t-120 -14.5q-29 33 -50.5 79t-21.5 73l162 1235l-148 -17q0 17 12.5 55t24.5 50q92 47 201 47q52 0 84 -8l-158 -1334q0 -12 11 -34z" />
    <glyph glyph-name="Lcommaaccent" unicode="&#x13b;" horiz-adv-x="1159" 
d="M500 1290l-105 -1159h467q13 102 47 205q54 14 131 14l-32 -350h-983q10 60 30 109q72 19 156 26l119 1155q-92 4 -148 15q-7 57 8 116h512q4 -64 -14 -114q-108 -17 -188 -17zM516 -231l-76 16q11 28 33.5 64.5t42.5 56.5q40 8 74 8q80 0 135 -25q-28 -93 -100.5 -223
t-130.5 -207q-60 15 -95 45q58 105 117 265z" />
    <glyph glyph-name="lcommaaccent" unicode="&#x13c;" horiz-adv-x="581" 
d="M279 111l159 16q0 -23 -10 -59t-22 -56q-49 -18 -124 -32.5t-120 -14.5q-29 33 -50.5 79t-21.5 73l162 1235l-148 -17q0 17 12.5 55t24.5 50q92 47 201 47q52 0 84 -8l-158 -1334q0 -12 11 -34zM109 -244l-72 15q25 67 69 114q34 9 74 9q64 0 121 -23
q-29 -90 -96.5 -218.5t-116.5 -193.5q-45 11 -84 45q47 93 105 252z" />
    <glyph glyph-name="Lcaron" unicode="&#x13d;" horiz-adv-x="1159" 
d="M870 1282l-71 16q9 28 31 64.5t42 56.5q31 8 78 8q78 0 131 -24q-30 -99 -105.5 -239t-133.5 -216q-26 6 -54.5 20t-37.5 25q83 179 120 289zM500 1290l-105 -1159h467q13 102 47 205q54 14 131 14l-32 -350h-983q10 60 30 109q72 19 156 26l119 1155q-92 4 -148 15
q-7 57 8 116h512q4 -64 -14 -114q-108 -17 -188 -17z" />
    <glyph glyph-name="lcaron" unicode="&#x13e;" horiz-adv-x="581" 
d="M279 111l159 16q0 -23 -10 -59t-22 -56q-49 -18 -124 -32.5t-120 -14.5q-29 33 -50.5 79t-21.5 73l162 1235l-148 -17q0 17 12.5 55t24.5 50q92 47 201 47q52 0 84 -8l-158 -1334q0 -12 11 -34zM580 1329l-70 14q9 27 30 61.5t40 55.5q30 6 69 6q70 0 125 -22
q-27 -92 -96 -222.5t-121 -199.5q-25 6 -49.5 19.5t-34.5 25.5q58 113 107 262z" />
    <glyph glyph-name="Ldot" unicode="&#x13f;" horiz-adv-x="1159" 
d="M500 1290l-105 -1159h467q13 102 47 205q54 14 131 14l-32 -350h-983q10 60 30 109q72 19 156 26l119 1155q-92 4 -148 15q-7 57 8 116h512q4 -64 -14 -114q-108 -17 -188 -17zM928 840q51 0 80.5 -29.5t29.5 -83.5q0 -56 -30.5 -87.5t-79.5 -31.5q-117 0 -117 119
q0 51 33 82t84 31z" />
    <glyph glyph-name="ldot" unicode="&#x140;" horiz-adv-x="743" 
d="M621 813q48 0 77 -29t29 -82q0 -54 -29.5 -85t-76.5 -31q-111 0 -111 116q0 49 31.5 80t79.5 31zM279 111l159 16q0 -23 -10 -59t-22 -56q-49 -18 -124 -32.5t-120 -14.5q-29 33 -50.5 79t-21.5 73l162 1235l-148 -17q0 17 12.5 55t24.5 50q92 47 201 47q52 0 84 -8
l-158 -1334q0 -12 11 -34z" />
    <glyph glyph-name="Lslash" unicode="&#x141;" horiz-adv-x="1181" 
d="M522 1290l-45 -499l346 208q16 -19 35 -50.5t25 -51.5l-420 -260l-45 -506h467q13 102 47 205q54 14 131 14l-33 -350h-983q9 56 31 109q73 19 155 26l43 414l-167 -105q-7 22 -13 67t-6 73l203 123l59 583q-90 4 -147 15q-7 57 8 116h512q4 -64 -14 -114
q-108 -17 -189 -17z" />
    <glyph glyph-name="lslash" unicode="&#x142;" horiz-adv-x="630" 
d="M8 604l187 113l84 635l-148 -17q0 17 12.5 55t24.5 50q92 47 201 47q52 0 84 -8l-64 -525q-9 -89 -27 -153l164 98q12 -14 28.5 -43.5t20.5 -46.5l-219 -133l-61 -531q0 -14 10 -34l160 16q0 -23 -10.5 -58.5t-22.5 -56.5q-49 -18 -124 -32.5t-120 -14.5q-29 33 -50 79
t-21 73l43 336q14 99 26 137l-161 -98q-17 53 -17 112z" />
    <glyph glyph-name="Nacute" unicode="&#x143;" horiz-adv-x="1495" 
d="M575 1421l435 -1024q41 -93 61 -223h14l113 1116q-85 4 -147 15q-4 68 8 116h428q2 -10 2 -32q0 -42 -14 -82q-65 -13 -146 -17l-119 -1302h-227l-467 1134q-33 88 -47 144h-14l-103 -1133q107 -8 162 -20q4 -20 2.5 -56.5t-6.5 -56.5h-492q8 47 29 109q65 17 152 26
l120 1155q-78 3 -145 15q-7 57 8 116h393zM1241 1708l-491 -184q-13 41 -13 98q0 25 2 39l412 207q27 -22 53 -70t37 -90z" />
    <glyph glyph-name="nacute" unicode="&#x144;" horiz-adv-x="1116" 
d="M322 811h20q102 186 315 186q238 0 238 -254q0 -55 -15.5 -178t-37 -262t-23.5 -158q0 -19 10 -34l158 16q0 -23 -10.5 -58.5t-22.5 -56.5q-49 -19 -122.5 -33t-118.5 -14q-29 33 -50.5 79t-21.5 73q80 444 80 569q0 176 -139 176q-78 0 -147.5 -57t-102.5 -127l-76 -674
q-50 -8 -98 -8q-52 0 -76 8l113 846l-150 -16q0 17 12.5 54.5t24.5 49.5q31 20 83.5 33.5t104.5 13.5q43 0 70 -8zM872 1421l-333 -340q-22 12 -46 40.5t-36 56.5l256 319q38 -6 87 -29.5t72 -46.5z" />
    <glyph glyph-name="Ncommaaccent" unicode="&#x145;" horiz-adv-x="1495" 
d="M575 1421l435 -1024q41 -93 61 -223h14l113 1116q-85 4 -147 15q-4 68 8 116h428q2 -10 2 -32q0 -42 -14 -82q-65 -13 -146 -17l-119 -1302h-227l-467 1134q-33 88 -47 144h-14l-103 -1133q107 -8 162 -20q4 -20 2.5 -56.5t-6.5 -56.5h-492q8 47 29 109q65 17 152 26
l120 1155q-78 3 -145 15q-7 57 8 116h393zM621 -231l-76 16q11 28 33.5 64.5t42.5 56.5q40 8 73 8q80 0 135 -25q-28 -93 -100.5 -223t-130.5 -207q-24 6 -52.5 20t-41.5 25q58 105 117 265z" />
    <glyph glyph-name="ncommaaccent" unicode="&#x146;" horiz-adv-x="1116" 
d="M322 811h20q102 186 315 186q238 0 238 -254q0 -55 -15.5 -178t-37 -262t-23.5 -158q0 -19 10 -34l158 16q0 -23 -10.5 -58.5t-22.5 -56.5q-49 -19 -122.5 -33t-118.5 -14q-29 33 -50.5 79t-21.5 73q80 444 80 569q0 176 -139 176q-78 0 -147.5 -57t-102.5 -127l-76 -674
q-50 -8 -98 -8q-52 0 -76 8l113 846l-150 -16q0 17 12.5 54.5t24.5 49.5q31 20 83.5 33.5t104.5 13.5q43 0 70 -8zM381 -244l-72 15q25 65 70 114q35 9 74 9q63 0 120 -23q-29 -90 -96.5 -218.5t-116.5 -193.5q-45 11 -84 45q47 93 105 252z" />
    <glyph glyph-name="Ncaron" unicode="&#x147;" horiz-adv-x="1495" 
d="M575 1421l435 -1024q41 -93 61 -223h14l113 1116q-85 4 -147 15q-4 68 8 116h428q2 -10 2 -32q0 -42 -14 -82q-65 -13 -146 -17l-119 -1302h-227l-467 1134q-33 88 -47 144h-14l-103 -1133q107 -8 162 -20q4 -20 2.5 -56.5t-6.5 -56.5h-492q8 47 29 109q65 17 152 26
l120 1155q-78 3 -145 15q-7 57 8 116h393zM940 1534h-213l-235 235q57 43 133 56l239 -148l250 144q20 -7 46.5 -30.5t35.5 -41.5z" />
    <glyph glyph-name="ncaron" unicode="&#x148;" horiz-adv-x="1116" 
d="M322 811h20q102 186 315 186q238 0 238 -254q0 -55 -15.5 -178t-37 -262t-23.5 -158q0 -19 10 -34l158 16q0 -23 -10.5 -58.5t-22.5 -56.5q-49 -19 -122.5 -33t-118.5 -14q-29 33 -50.5 79t-21.5 73q80 444 80 569q0 176 -139 176q-78 0 -147.5 -57t-102.5 -127l-76 -674
q-50 -8 -98 -8q-52 0 -76 8l113 846l-150 -16q0 17 12.5 54.5t24.5 49.5q31 20 83.5 33.5t104.5 13.5q43 0 70 -8zM645 1110l-164 -14l-192 309q19 20 55.5 35.5t67.5 17.5l182 -213l225 215q24 -5 52.5 -20.5t41.5 -32.5z" />
    <glyph glyph-name="napostrophe" unicode="&#x149;" horiz-adv-x="1148" 
d="M354 811h21q102 186 315 186q238 0 238 -254q0 -55 -15.5 -178t-37 -262t-23.5 -158q0 -19 10 -34l158 16q0 -23 -10.5 -58.5t-22.5 -56.5q-49 -19 -123 -33t-119 -14q-29 33 -50 79t-21 73q80 444 80 569q0 83 -34.5 129.5t-105.5 46.5q-78 0 -146.5 -57t-102.5 -127
l-76 -674q-50 -8 -99 -8q-51 0 -75 8l112 846l-149 -16q0 17 12.5 54.5t24.5 49.5q31 20 83.5 33.5t104.5 13.5q43 0 70 -8zM4 1292l-74 21q37 87 78 135q31 8 70 8q74 0 137 -24q-35 -110 -112 -262.5t-136 -235.5q-44 15 -80 51q88 184 117 307z" />
    <glyph glyph-name="Eng" unicode="&#x14a;" horiz-adv-x="1484" 
d="M588 1421l391 -782q36 -70 65.5 -173t34.5 -167h15l100 991q-85 4 -147 15q-4 68 8 116h428q2 -10 2 -32q0 -39 -15 -82q-66 -13 -145 -17l-113 -1157q-39 -383 -348 -639q-45 19 -67 64q86 76 161 193t97 233l-539 1138q-25 53 -47 144h-14l-103 -1133q107 -8 162 -20
q4 -20 2.5 -56.5t-6.5 -56.5h-492q8 47 29 109q65 17 152 26l120 1155q-78 3 -145 15q-7 57 8 116h406z" />
    <glyph glyph-name="eng" unicode="&#x14b;" horiz-adv-x="1058" 
d="M322 811h20q106 186 320 186q237 0 237 -254q0 -80 -18.5 -224.5t-34.5 -223.5q-86 -416 -365 -680q-21 8 -45.5 30t-34.5 44q83 82 157.5 230.5t105.5 293.5q21 100 41 250t20 223q0 176 -139 176q-78 0 -148.5 -57t-105.5 -127l-76 -674q-50 -8 -98 -8q-52 0 -76 8
l113 846l-150 -16q0 17 12.5 54.5t24.5 49.5q31 20 83.5 33.5t104.5 13.5q43 0 70 -8z" />
    <glyph glyph-name="Omacron" unicode="&#x14c;" horiz-adv-x="1462" 
d="M1165 1602h-749q0 67 26 147h732q7 -70 -9 -147zM1321 854q0 -269 -80.5 -470.5t-235 -313t-364.5 -111.5q-263 0 -402 158.5t-139 462.5q0 262 82.5 461.5t238 310t363.5 110.5q249 0 393 -159t144 -449zM1128 829q0 223 -96 360.5t-260 137.5q-121 0 -214 -56
t-149.5 -155.5t-85 -228.5t-28.5 -283q0 -236 94.5 -372t265.5 -136q151 0 259 95.5t161 259t53 378.5z" />
    <glyph glyph-name="omacron" unicode="&#x14d;" horiz-adv-x="999" 
d="M377 -35q-165 0 -251.5 100t-86.5 293q0 248 102 414q66 105 166 165t219 60q158 0 248 -100t90 -283q0 -281 -127 -462q-62 -88 -156 -137.5t-204 -49.5zM397 86q131 0 211 141q80 140 80 369q0 128 -46 205.5t-132 77.5q-74 0 -133.5 -44.5t-97.5 -119.5
q-62 -124 -62 -338q0 -136 46 -213.5t134 -77.5zM778 1186h-504q0 64 25 133h487q2 -12 2 -37q0 -54 -10 -96z" />
    <glyph glyph-name="Obreve" unicode="&#x14e;" horiz-adv-x="1462" 
d="M1321 854q0 -269 -80.5 -470.5t-235 -313t-364.5 -111.5q-263 0 -402 158.5t-139 462.5q0 262 82.5 461.5t238 310t363.5 110.5q249 0 393 -159t144 -449zM1128 829q0 223 -96 360.5t-260 137.5q-121 0 -214 -56t-149.5 -155.5t-85 -228.5t-28.5 -283q0 -236 94.5 -372
t265.5 -136q151 0 259 95.5t161 259t53 378.5zM598 1817q32 -127 199 -127q85 0 142.5 32.5t80.5 94.5q32 0 70 -11t59 -28q-33 -114 -128 -179t-235 -65t-223.5 59t-95.5 164q22 22 59 39.5t72 20.5z" />
    <glyph glyph-name="obreve" unicode="&#x14f;" horiz-adv-x="999" 
d="M377 -35q-165 0 -251.5 100t-86.5 293q0 248 102 414q66 105 166 165t219 60q158 0 248 -100t90 -283q0 -281 -127 -462q-62 -88 -156 -137.5t-204 -49.5zM397 86q131 0 211 141q80 140 80 369q0 128 -46 205.5t-132 77.5q-74 0 -133.5 -44.5t-97.5 -119.5
q-62 -124 -62 -338q0 -136 46 -213.5t134 -77.5zM385 1434q9 -189 145 -189q70 0 120.5 48t76.5 139q67 -4 111 -33q-27 -133 -111.5 -213t-212.5 -80q-122 0 -184.5 70.5t-65.5 203.5q44 44 121 54z" />
    <glyph glyph-name="Ohungarumlaut" unicode="&#x150;" horiz-adv-x="1462" 
d="M1321 854q0 -269 -80.5 -470.5t-235 -313t-364.5 -111.5q-263 0 -402 158.5t-139 462.5q0 262 82.5 461.5t238 310t363.5 110.5q249 0 393 -159t144 -449zM1128 829q0 223 -96 360.5t-260 137.5q-121 0 -214 -56t-149.5 -155.5t-85 -228.5t-28.5 -283q0 -236 94.5 -372
t265.5 -136q151 0 259 95.5t161 259t53 378.5zM936 1782l-354 -277q-17 15 -36.5 48.5t-23.5 56.5l266 266q39 -11 81 -38.5t67 -55.5zM1358 1782l-354 -277q-17 15 -36.5 48.5t-23.5 56.5l266 266q39 -11 81 -38.5t67 -55.5z" />
    <glyph glyph-name="ohungarumlaut" unicode="&#x151;" horiz-adv-x="999" 
d="M377 -35q-165 0 -251.5 100t-86.5 293q0 248 102 414q66 105 166 165t219 60q158 0 248 -100t90 -283q0 -281 -127 -462q-62 -88 -156 -137.5t-204 -49.5zM397 86q131 0 211 141q80 140 80 369q0 128 -46 205.5t-132 77.5q-74 0 -133.5 -44.5t-97.5 -119.5
q-62 -124 -62 -338q0 -136 46 -213.5t134 -77.5zM655 1423l-295 -350q-23 10 -48 37t-36 51l216 326q40 -5 89.5 -24t73.5 -40zM1001 1423l-294 -350q-23 10 -48 36.5t-36 51.5l215 326q40 -5 89.5 -24t73.5 -40z" />
    <glyph glyph-name="OE" unicode="&#x152;" horiz-adv-x="1894" 
d="M1698 0h-785q-102 -35 -237 -35q-289 0 -432.5 157t-143.5 478q0 257 88.5 449.5t257 298.5t398.5 106q116 0 211 -33h764l-31 -301q-59 0 -113 15q-12 86 -12 161h-446l-52 -520h355q12 63 30 111q50 16 119 16l-37 -379q-26 -3 -61.5 -0.5t-54.5 8.5q-11 74 -11 121
h-348l-45 -524h442q22 110 43 176q54 14 132 14zM702 96q132 0 226 41l114 1123q-98 67 -237 67q-126 0 -224 -54.5t-159.5 -150.5t-93 -222t-31.5 -275q0 -264 99 -396.5t306 -132.5z" />
    <glyph glyph-name="oe" unicode="&#x153;" horiz-adv-x="1511" 
d="M377 -35q-165 0 -251.5 100t-86.5 293q0 248 102 414q66 105 166 165t219 60q111 0 184.5 -47.5t100.5 -128.5h10q45 74 140.5 125t205.5 51q108 0 171 -60.5t63 -164.5q0 -53 -13.5 -98t-51.5 -90t-98.5 -77.5t-161.5 -55t-234 -27.5v-62q0 -249 168 -249q68 0 155 27
t152 69q0 -61 -25 -113q-150 -131 -352 -131q-91 0 -149.5 42.5t-79.5 113.5h-11q-49 -70 -133.5 -113t-189.5 -43zM397 86q131 0 211 141q80 140 80 369q0 128 -46 205.5t-132 77.5q-74 0 -133.5 -44.5t-97.5 -119.5q-62 -124 -62 -338q0 -136 46 -213.5t134 -77.5z
M1128 887q-62 0 -118 -35t-90 -94q-51 -84 -68 -215q98 3 169.5 18t112 34.5t64 49t30.5 56t7 61.5q0 56 -26.5 90.5t-80.5 34.5z" />
    <glyph glyph-name="Racute" unicode="&#x154;" horiz-adv-x="1288" 
d="M319 1292q-85 0 -147 6q-7 53 8 125q273 21 486 21q136 0 241.5 -38t170.5 -120t65 -199q0 -163 -96.5 -275.5t-245.5 -158.5q71 -181 150 -344.5t102 -181.5l121 8q0 -30 -8.5 -71t-20.5 -64q-87 -23 -221 -35q-35 26 -114 205.5t-181 462.5q-115 0 -191 10l-43 -510
q102 -6 154 -18q4 -20 2.5 -58.5t-6.5 -56.5h-520q10 60 30 109q72 19 156 26zM492 1311l-48 -557q68 -6 201 -6q140 0 228 82.5t88 238.5q0 124 -94 186t-251 62q-68 0 -124 -6zM1102 1708l-492 -184q-12 38 -12 98q0 25 2 39l412 207q27 -22 53 -70t37 -90z" />
    <glyph glyph-name="racute" unicode="&#x155;" horiz-adv-x="751" 
d="M305 770h21q32 97 102.5 162t169.5 65q58 0 98 -18q15 -44 15 -92q0 -47 -15 -94q-62 41 -139 41t-141.5 -52t-100.5 -149l-63 -629q-50 -8 -98 -8q-52 0 -76 8l110 846l-151 -16q0 17 12.5 54.5t24.5 49.5q31 20 83.5 33.5t104.5 13.5q43 0 70 -8zM786 1421l-333 -340
q-22 12 -46 40.5t-36 56.5l256 319q38 -6 87 -29.5t72 -46.5z" />
    <glyph glyph-name="Rcommaaccent" unicode="&#x156;" horiz-adv-x="1288" 
d="M319 1292q-85 0 -147 6q-7 53 8 125q273 21 486 21q136 0 241.5 -38t170.5 -120t65 -199q0 -163 -96.5 -275.5t-245.5 -158.5q71 -181 150 -344.5t102 -181.5l121 8q0 -30 -8.5 -71t-20.5 -64q-87 -23 -221 -35q-35 26 -114 205.5t-181 462.5q-115 0 -191 10l-43 -510
q102 -6 154 -18q4 -20 2.5 -58.5t-6.5 -56.5h-520q10 60 30 109q72 19 156 26zM492 1311l-48 -557q68 -6 201 -6q140 0 228 82.5t88 238.5q0 124 -94 186t-251 62q-68 0 -124 -6zM549 -231l-76 16q11 28 33.5 64.5t42.5 56.5q40 8 74 8q80 0 135 -25q-28 -92 -101 -222
t-131 -208q-24 6 -52.5 20t-41.5 25q58 105 117 265z" />
    <glyph glyph-name="rcommaaccent" unicode="&#x157;" horiz-adv-x="751" 
d="M305 770h21q32 97 102.5 162t169.5 65q58 0 98 -18q15 -44 15 -92q0 -47 -15 -94q-62 41 -139 41t-141.5 -52t-100.5 -149l-63 -629q-50 -8 -98 -8q-52 0 -76 8l110 846l-151 -16q0 17 12.5 54.5t24.5 49.5q31 20 83.5 33.5t104.5 13.5q43 0 70 -8zM53 -244l-71 15
q25 67 69 114q35 9 74 9q63 0 121 -23q-29 -90 -96.5 -218.5t-116.5 -193.5q-45 11 -84 45q43 86 104 252z" />
    <glyph glyph-name="Rcaron" unicode="&#x158;" horiz-adv-x="1288" 
d="M319 1292q-85 0 -147 6q-7 53 8 125q273 21 486 21q136 0 241.5 -38t170.5 -120t65 -199q0 -163 -96.5 -275.5t-245.5 -158.5q71 -181 150 -344.5t102 -181.5l121 8q0 -30 -8.5 -71t-20.5 -64q-87 -23 -221 -35q-35 26 -114 205.5t-181 462.5q-115 0 -191 10l-43 -510
q102 -6 154 -18q4 -20 2.5 -58.5t-6.5 -56.5h-520q10 60 30 109q72 19 156 26zM492 1311l-48 -557q68 -6 201 -6q140 0 228 82.5t88 238.5q0 124 -94 186t-251 62q-68 0 -124 -6zM803 1534h-213l-236 235q57 43 133 56l240 -148l250 144q20 -7 46.5 -30.5t35.5 -41.5z" />
    <glyph glyph-name="rcaron" unicode="&#x159;" horiz-adv-x="751" 
d="M305 770h21q32 97 102.5 162t169.5 65q58 0 98 -18q15 -44 15 -92q0 -47 -15 -94q-62 41 -139 41t-141.5 -52t-100.5 -149l-63 -629q-50 -8 -98 -8q-52 0 -76 8l110 846l-151 -16q0 17 12.5 54.5t24.5 49.5q31 20 83.5 33.5t104.5 13.5q43 0 70 -8zM563 1110l-164 -14
l-192 309q19 20 55.5 35.5t67.5 17.5l182 -213l225 215q24 -5 52.5 -20.5t41.5 -32.5z" />
    <glyph glyph-name="Sacute" unicode="&#x15a;" horiz-adv-x="1126" 
d="M838 1118l18 178q-68 41 -176 41q-135 0 -211 -67t-76 -174q0 -68 32.5 -121.5t84 -89t114 -67.5t125 -68t114 -79.5t84 -111.5t32.5 -156q0 -120 -43 -208.5t-119 -138.5t-168 -73.5t-203 -23.5q-219 0 -385 78q13 169 54 344q29 0 77 -7t70 -16l-18 -208
q92 -60 239 -60t227.5 71t80.5 201q0 67 -32 119t-83 87t-112.5 67t-123 67.5t-112.5 78t-83 110t-32 153.5q0 194 120.5 306t342.5 112q77 0 175 -17t177 -44q-24 -208 -59 -311q-30 0 -69 8t-62 20zM1047 1708l-492 -184q-12 38 -12 98q0 25 2 39l411 207q27 -22 53.5 -70
t37.5 -90z" />
    <glyph glyph-name="sacute" unicode="&#x15b;" horiz-adv-x="841" 
d="M557 750l10 112q-56 27 -123 27q-63 0 -104 -32.5t-41 -90.5q0 -41 21 -78t54 -65t73 -55.5t80.5 -57t73.5 -62t54 -77t21 -95.5q0 -103 -54.5 -175t-137 -104t-181.5 -32q-132 0 -211.5 50t-79.5 157q15 30 66 52t100 22q4 -89 46 -126.5t126 -37.5q68 0 115 37t47 100
q0 41 -21 76t-54 62t-73 53.5t-80.5 55.5t-73.5 62t-54 79.5t-21 101.5q0 127 88 207.5t250 80.5q125 0 236 -51q0 -98 -39 -227q-25 0 -60.5 9.5t-52.5 21.5zM764 1421l-334 -340q-22 12 -46 40.5t-36 56.5l256 319q38 -6 87.5 -29.5t72.5 -46.5z" />
    <glyph glyph-name="Scircumflex" unicode="&#x15c;" horiz-adv-x="1126" 
d="M838 1118l18 178q-68 41 -176 41q-135 0 -211 -67t-76 -174q0 -68 32.5 -121.5t84 -89t114 -67.5t125 -68t114 -79.5t84 -111.5t32.5 -156q0 -120 -43 -208.5t-119 -138.5t-168 -73.5t-203 -23.5q-219 0 -385 78q13 169 54 344q29 0 77 -7t70 -16l-18 -208
q92 -60 239 -60t227.5 71t80.5 201q0 67 -32 119t-83 87t-112.5 67t-123 67.5t-112.5 78t-83 110t-32 153.5q0 194 120.5 306t342.5 112q77 0 175 -17t177 -44q-24 -208 -59 -311q-30 0 -69 8t-62 20zM580 1827h206l230 -205q-11 -25 -35 -54t-47 -42l-264 155l-314 -168
q-11 22 -18.5 59t-7.5 64z" />
    <glyph glyph-name="scircumflex" unicode="&#x15d;" horiz-adv-x="841" 
d="M557 750l10 112q-56 27 -123 27q-63 0 -104 -32.5t-41 -90.5q0 -41 21 -78t54 -65t73 -55.5t80.5 -57t73.5 -62t54 -77t21 -95.5q0 -103 -54.5 -175t-137 -104t-181.5 -32q-132 0 -211.5 50t-79.5 157q15 30 66 52t100 22q4 -89 46 -126.5t126 -37.5q68 0 115 37t47 100
q0 41 -21 76t-54 62t-73 53.5t-80.5 55.5t-73.5 62t-54 79.5t-21 101.5q0 127 88 207.5t250 80.5q125 0 236 -51q0 -98 -39 -227q-25 0 -60.5 9.5t-52.5 21.5zM414 1446l164 14l192 -289q-42 -54 -121 -69l-166 203l-243 -222q-17 13 -33 49t-21 68z" />
    <glyph glyph-name="Scedilla" unicode="&#x15e;" horiz-adv-x="1126" 
d="M352 -174l60 133q-197 6 -351 78q13 169 54 344q29 0 77 -7t70 -16l-18 -208q92 -60 239 -60t227.5 71t80.5 201q0 67 -32 119t-83 87t-112.5 67t-123 67.5t-112.5 78t-83 110t-32 153.5q0 194 120.5 306t342.5 112q77 0 175 -17t177 -44q-24 -208 -59 -311q-30 0 -69 8
t-62 20l18 178q-68 41 -176 41q-135 0 -211 -67t-76 -174q0 -68 32.5 -121.5t84 -89t114 -67.5t125 -68t114 -79.5t84 -111.5t32.5 -156q0 -106 -33.5 -188t-95 -133t-137.5 -80t-170 -39l-23 -96q57 -9 94 -46.5t37 -92.5q0 -97 -89.5 -168t-199.5 -82q-40 40 -55 90
q77 21 117.5 54.5t40.5 94.5q0 41 -32 69.5t-81 39.5z" />
    <glyph glyph-name="scedilla" unicode="&#x15f;" horiz-adv-x="841" 
d="M209 -158l61 125q-118 5 -188 55.5t-70 149.5q15 30 66 52t100 22q4 -89 46 -126.5t126 -37.5q68 0 115 37t47 100q0 41 -21 76t-54 62t-73 53.5t-80.5 55.5t-73.5 62t-54 79.5t-21 101.5q0 127 88 207.5t250 80.5q125 0 236 -51q0 -98 -39 -227q-25 0 -60.5 9.5
t-52.5 21.5l10 112q-56 27 -123 27q-63 0 -104 -32.5t-41 -90.5q0 -41 21 -78t54 -65t73 -55.5t80.5 -57t73.5 -62t54 -77t21 -95.5q0 -129 -80.5 -206t-206.5 -99l-29 -92q43 -13 76 -48t33 -81q0 -85 -84 -149t-186 -72q-33 33 -47 76q63 11 106 47t43 86q0 36 -26.5 64.5
t-65.5 39.5z" />
    <glyph glyph-name="Scaron" unicode="&#x160;" horiz-adv-x="1126" 
d="M838 1118l18 178q-68 41 -176 41q-135 0 -211 -67t-76 -174q0 -68 32.5 -121.5t84 -89t114 -67.5t125 -68t114 -79.5t84 -111.5t32.5 -156q0 -120 -43 -208.5t-119 -138.5t-168 -73.5t-203 -23.5q-219 0 -385 78q13 169 54 344q29 0 77 -7t70 -16l-18 -208
q92 -60 239 -60t227.5 71t80.5 201q0 67 -32 119t-83 87t-112.5 67t-123 67.5t-112.5 78t-83 110t-32 153.5q0 194 120.5 306t342.5 112q77 0 175 -17t177 -44q-24 -208 -59 -311q-30 0 -69 8t-62 20zM760 1534h-213l-236 235q57 43 133 56l240 -148l250 144
q20 -7 46.5 -30.5t35.5 -41.5z" />
    <glyph glyph-name="scaron" unicode="&#x161;" horiz-adv-x="841" 
d="M557 750l10 112q-56 27 -123 27q-63 0 -104 -32.5t-41 -90.5q0 -41 21 -78t54 -65t73 -55.5t80.5 -57t73.5 -62t54 -77t21 -95.5q0 -103 -54.5 -175t-137 -104t-181.5 -32q-132 0 -211.5 50t-79.5 157q15 30 66 52t100 22q4 -89 46 -126.5t126 -37.5q68 0 115 37t47 100
q0 41 -21 76t-54 62t-73 53.5t-80.5 55.5t-73.5 62t-54 79.5t-21 101.5q0 127 88 207.5t250 80.5q125 0 236 -51q0 -98 -39 -227q-25 0 -60.5 9.5t-52.5 21.5zM522 1110l-164 -14l-192 309q19 20 55.5 35.5t67.5 17.5l182 -213l225 215q24 -5 53 -20.5t42 -32.5z" />
    <glyph glyph-name="Tcommaaccent" unicode="&#x162;" horiz-adv-x="1134" 
d="M371 -158l78 158h-228q8 48 33 109q66 17 168 26l110 1161h-307q-10 -58 -43 -174q-58 -12 -127 -12l31 311h1092l-31 -319q-58 0 -119 14q-12 82 -12 180h-314l-96 -1163q117 -8 180 -20q4 -22 2.5 -56.5t-6.5 -56.5h-223l-37 -121q43 -12 76 -46t33 -83
q0 -89 -83.5 -151t-187.5 -70q-33 33 -47 76q65 11 107.5 45.5t42.5 87.5q0 39 -25.5 67t-66.5 37z" />
    <glyph glyph-name="tcommaaccent" unicode="&#x163;" horiz-adv-x="710" 
d="M174 -158l64 131q-125 28 -125 195q0 78 28 284t60 392h-148q7 58 39 106q48 23 117 35l59 238q22 14 61 23t70 9l-30 -292h282q2 -14 2 -37q0 -32 -8 -82h-295l-57 -582q-8 -84 14.5 -123t83.5 -39q78 0 174 39q0 -58 -26 -108q-86 -48 -187 -62l-26 -90
q43 -12 75.5 -46t32.5 -83q0 -89 -83 -151t-187 -70q-33 33 -47 76q64 11 106.5 45.5t42.5 87.5q0 39 -25.5 67t-66.5 37z" />
    <glyph glyph-name="Tcaron" unicode="&#x164;" horiz-adv-x="1134" 
d="M702 1296l-96 -1163q117 -8 180 -20q4 -22 2.5 -56.5t-6.5 -56.5h-561q8 48 33 109q66 17 168 26l110 1161h-307q-10 -58 -43 -174q-58 -12 -127 -12l31 311h1092l-31 -319q-58 0 -119 14q-12 82 -12 180h-314zM737 1534h-213l-235 235q57 43 133 56l240 -148l249 144
q20 -7 46.5 -30.5t35.5 -41.5z" />
    <glyph glyph-name="tcaron" unicode="&#x165;" horiz-adv-x="753" 
d="M739 1329l-69 14q9 27 29.5 61.5t39.5 55.5q30 6 70 6q70 0 125 -22q-27 -92 -96 -222.5t-121 -199.5q-25 6 -49.5 19.5t-34.5 25.5q55 107 106 262zM209 985l59 238q22 14 61 23t70 9l-30 -292h282q2 -14 2 -37q0 -32 -8 -82h-295l-57 -582q-8 -84 14.5 -123t83.5 -39
q78 0 174 39q0 -58 -26 -108q-117 -66 -238 -66q-188 0 -188 203q0 78 28 284t60 392h-148q7 58 39 106q48 23 117 35z" />
    <glyph glyph-name="Tbar" unicode="&#x166;" horiz-adv-x="1134" 
d="M702 1296l-43 -510h248q8 -47 -6 -124h-252l-43 -529q117 -8 180 -20q4 -22 2.5 -56.5t-6.5 -56.5h-561q8 48 33 109q66 17 168 26l49 527h-250q0 55 25 124h237l49 510h-307q-10 -58 -43 -174q-58 -12 -127 -12l31 311h1092l-31 -319q-58 0 -119 14q-12 82 -12 180h-314
z" />
    <glyph glyph-name="tbar" unicode="&#x167;" horiz-adv-x="710" 
d="M209 985l59 238q22 14 61 23t70 9l-30 -292h282q2 -14 2 -39q0 -44 -8 -80h-295l-28 -283h262q6 -49 -6 -108h-267l-18 -191q-8 -84 14.5 -123t83.5 -39q78 0 174 39q0 -58 -26 -108q-117 -66 -238 -66q-188 0 -188 203q0 88 26 285h-129q0 47 21 108h125q18 129 45 283
h-148q7 58 39 106q48 23 117 35z" />
    <glyph glyph-name="Utilde" unicode="&#x168;" horiz-adv-x="1392" 
d="M979 1421h416q2 -10 2 -32q0 -45 -15 -82q-67 -14 -139 -17l-57 -745q-10 -132 -50.5 -238t-112 -184.5t-182 -121t-253.5 -42.5q-219 0 -327.5 113t-108.5 331q0 49 8 123l71 762q-71 3 -143 17q-11 55 -6 116h508q2 -20 -3 -57.5t-12 -56.5q-80 -14 -172 -17l-57 -747
q-6 -60 -6 -107q0 -167 76.5 -255.5t226.5 -88.5q114 0 199.5 60.5t130.5 157t57 220.5l74 760q-74 4 -133 15q-3 20 -0.5 59t8.5 57zM1055 1788q49 0 106 -23q-13 -91 -79.5 -158t-172.5 -67q-48 0 -98.5 22.5t-97 45t-84.5 22.5q-46 0 -80 -28.5t-47 -67.5q-23 4 -51 22.5
t-39 34.5q23 84 89 138.5t161 54.5q57 0 106.5 -21.5t91.5 -43t82 -21.5q44 0 74.5 26.5t38.5 63.5z" />
    <glyph glyph-name="utilde" unicode="&#x169;" horiz-adv-x="1134" 
d="M674 123h-10q-103 -158 -318 -158q-37 0 -69.5 7t-63.5 25t-53 45.5t-35.5 71.5t-13.5 101q0 88 28.5 289t53.5 346l-150 -16q0 17 12.5 54.5t24.5 49.5q92 47 203 47q52 0 84 -8q-25 -189 -50.5 -415.5t-25.5 -282.5q0 -175 143 -175q73 0 140 43t106 111l78 592
l-142 -16q0 17 12.5 55.5t24.5 50.5q85 45 195 45q50 0 82 -8l-94 -825q0 -4 3.5 -19.5t6.5 -19.5l153 14q0 -23 -10 -59t-22 -56q-46 -17 -121.5 -32t-120.5 -15q-40 66 -51 158zM819 1370q41 0 78 -18q-12 -85 -68.5 -150t-150.5 -65q-48 0 -122.5 45t-109.5 45
q-37 0 -69 -26t-45 -60q-19 0 -39 14t-29 33q24 84 78.5 135t142.5 51q51 0 120 -43t112 -43q76 0 102 82z" />
    <glyph glyph-name="Umacron" unicode="&#x16a;" horiz-adv-x="1392" 
d="M979 1421h416q2 -10 2 -32q0 -45 -15 -82q-67 -14 -139 -17l-57 -745q-10 -132 -50.5 -238t-112 -184.5t-182 -121t-253.5 -42.5q-219 0 -327.5 113t-108.5 331q0 49 8 123l71 762q-71 3 -143 17q-11 55 -6 116h508q2 -20 -3 -57.5t-12 -56.5q-80 -14 -172 -17l-57 -747
q-6 -60 -6 -107q0 -167 76.5 -255.5t226.5 -88.5q114 0 199.5 60.5t130.5 157t57 220.5l74 760q-74 4 -133 15q-3 20 -0.5 59t8.5 57zM1110 1602h-645q0 64 27 147h626q2 -14 2 -41q0 -58 -10 -106z" />
    <glyph glyph-name="umacron" unicode="&#x16b;" horiz-adv-x="1134" 
d="M674 123h-10q-103 -158 -318 -158q-37 0 -69.5 7t-63.5 25t-53 45.5t-35.5 71.5t-13.5 101q0 88 28.5 289t53.5 346l-150 -16q0 17 12.5 54.5t24.5 49.5q92 47 203 47q52 0 84 -8q-25 -189 -50.5 -415.5t-25.5 -282.5q0 -175 143 -175q73 0 140 43t106 111l78 592
l-142 -16q0 17 12.5 55.5t24.5 50.5q85 45 195 45q50 0 82 -8l-94 -825q0 -4 3.5 -19.5t6.5 -19.5l153 14q0 -23 -10 -59t-22 -56q-46 -17 -121.5 -32t-120.5 -15q-40 66 -51 158zM823 1186h-504q0 64 25 133h487q3 -18 3 -37q0 -50 -11 -96z" />
    <glyph glyph-name="Ubreve" unicode="&#x16c;" horiz-adv-x="1392" 
d="M979 1421h416q2 -10 2 -32q0 -45 -15 -82q-67 -14 -139 -17l-57 -745q-10 -132 -50.5 -238t-112 -184.5t-182 -121t-253.5 -42.5q-219 0 -327.5 113t-108.5 331q0 49 8 123l71 762q-71 3 -143 17q-11 55 -6 116h508q2 -20 -3 -57.5t-12 -56.5q-80 -14 -172 -17l-57 -747
q-6 -60 -6 -107q0 -167 76.5 -255.5t226.5 -88.5q114 0 199.5 60.5t130.5 157t57 220.5l74 760q-74 4 -133 15q-3 20 -0.5 59t8.5 57zM586 1817q32 -127 198 -127q85 0 143 33t81 94q32 0 70 -11t59 -28q-33 -114 -128 -179t-235 -65t-223.5 59t-95.5 164q22 22 59 39.5
t72 20.5z" />
    <glyph glyph-name="ubreve" unicode="&#x16d;" horiz-adv-x="1134" 
d="M674 123h-10q-103 -158 -318 -158q-37 0 -69.5 7t-63.5 25t-53 45.5t-35.5 71.5t-13.5 101q0 88 28.5 289t53.5 346l-150 -16q0 17 12.5 54.5t24.5 49.5q92 47 203 47q52 0 84 -8q-25 -189 -50.5 -415.5t-25.5 -282.5q0 -175 143 -175q73 0 140 43t106 111l78 592
l-142 -16q0 17 12.5 55.5t24.5 50.5q85 45 195 45q50 0 82 -8l-94 -825q0 -4 3.5 -19.5t6.5 -19.5l153 14q0 -23 -10 -59t-22 -56q-46 -17 -121.5 -32t-120.5 -15q-40 66 -51 158zM432 1434q9 -189 146 -189q142 0 196 187q67 -4 111 -33q-27 -133 -111.5 -213t-212.5 -80
q-122 0 -184.5 70.5t-65.5 203.5q44 44 121 54z" />
    <glyph glyph-name="Uring" unicode="&#x16e;" horiz-adv-x="1392" 
d="M979 1421h416q2 -10 2 -32q0 -45 -15 -82q-67 -14 -139 -17l-57 -745q-10 -132 -50.5 -238t-112 -184.5t-182 -121t-253.5 -42.5q-219 0 -327.5 113t-108.5 331q0 49 8 123l71 762q-71 3 -143 17q-11 55 -6 116h508q2 -20 -3 -57.5t-12 -56.5q-80 -14 -172 -17l-57 -747
q-6 -60 -6 -107q0 -167 76.5 -255.5t226.5 -88.5q114 0 199.5 60.5t130.5 157t57 220.5l74 760q-74 4 -133 15q-3 20 -0.5 59t8.5 57zM825 1931q106 0 168 -49t62 -137q0 -116 -74.5 -179t-196.5 -63q-235 0 -235 189q0 111 71.5 175t204.5 64zM813 1829q-62 0 -96.5 -32.5
t-34.5 -94.5q0 -46 28 -71t81 -25q59 0 91.5 32.5t32.5 94.5q0 96 -102 96z" />
    <glyph glyph-name="uring" unicode="&#x16f;" horiz-adv-x="1134" 
d="M674 123h-10q-103 -158 -318 -158q-37 0 -69.5 7t-63.5 25t-53 45.5t-35.5 71.5t-13.5 101q0 88 28.5 289t53.5 346l-150 -16q0 17 12.5 54.5t24.5 49.5q92 47 203 47q52 0 84 -8q-25 -189 -50.5 -415.5t-25.5 -282.5q0 -175 143 -175q73 0 140 43t106 111l78 592
l-142 -16q0 17 12.5 55.5t24.5 50.5q85 45 195 45q50 0 82 -8l-94 -825q0 -4 3.5 -19.5t6.5 -19.5l153 14q0 -23 -10 -59t-22 -56q-46 -17 -121.5 -32t-120.5 -15q-40 66 -51 158zM614 1518q83 0 136 -46.5t53 -123.5q0 -113 -66.5 -177.5t-171.5 -64.5q-94 0 -143 42.5
t-49 125.5q0 110 64.5 177t176.5 67zM606 1430q-60 0 -90.5 -37t-30.5 -103q0 -46 24.5 -70t68.5 -24q54 0 85 37.5t31 105.5q0 41 -24.5 66t-63.5 25z" />
    <glyph glyph-name="Uhungarumlaut" unicode="&#x170;" horiz-adv-x="1392" 
d="M979 1421h416q2 -10 2 -32q0 -45 -15 -82q-67 -14 -139 -17l-57 -745q-10 -132 -50.5 -238t-112 -184.5t-182 -121t-253.5 -42.5q-219 0 -327.5 113t-108.5 331q0 49 8 123l71 762q-71 3 -143 17q-11 55 -6 116h508q2 -20 -3 -57.5t-12 -56.5q-80 -14 -172 -17l-57 -747
q-6 -60 -6 -107q0 -167 76.5 -255.5t226.5 -88.5q114 0 199.5 60.5t130.5 157t57 220.5l74 760q-74 4 -133 15q-3 20 -0.5 59t8.5 57zM918 1782l-355 -277q-17 15 -35.5 48.5t-23.5 56.5l266 266q39 -11 81 -38.5t67 -55.5zM1339 1782l-354 -277q-17 15 -35.5 48.5
t-23.5 56.5l266 266q39 -11 80.5 -38.5t66.5 -55.5z" />
    <glyph glyph-name="uhungarumlaut" unicode="&#x171;" horiz-adv-x="1134" 
d="M674 123h-10q-103 -158 -318 -158q-37 0 -69.5 7t-63.5 25t-53 45.5t-35.5 71.5t-13.5 101q0 88 28.5 289t53.5 346l-150 -16q0 17 12.5 54.5t24.5 49.5q92 47 203 47q52 0 84 -8q-25 -189 -50.5 -415.5t-25.5 -282.5q0 -175 143 -175q73 0 140 43t106 111l78 592
l-142 -16q0 17 12.5 55.5t24.5 50.5q85 45 195 45q50 0 82 -8l-94 -825q0 -4 3.5 -19.5t6.5 -19.5l153 14q0 -23 -10 -59t-22 -56q-46 -17 -121.5 -32t-120.5 -15q-40 66 -51 158zM719 1423l-295 -350q-23 10 -48 37t-36 51l215 326q40 -5 90 -24t74 -40zM1065 1423
l-295 -350q-23 10 -48 36.5t-36 51.5l215 326q40 -5 90 -24t74 -40z" />
    <glyph glyph-name="Uogonek" unicode="&#x172;" horiz-adv-x="1392" 
d="M784 -373q21 -42 21 -100q-51 -19 -119 -19q-98 0 -165.5 51.5t-67.5 147.5q0 76 43.5 141.5t126.5 100.5v10h-35q-219 0 -327.5 113t-108.5 329q0 49 8 123l71 764q-71 3 -143 17q-11 55 -6 116h508q2 -20 -3 -57.5t-12 -56.5q-80 -14 -172 -17l-57 -749q-6 -60 -6 -107
q0 -166 77 -254t226 -88q114 0 199.5 60.5t130.5 156.5t57 219l74 762q-74 4 -133 15q-3 20 -0.5 59t8.5 57h416q2 -10 2 -32q0 -45 -15 -82q-67 -14 -139 -17l-57 -747q-31 -403 -336 -539q-240 -108 -240 -272q0 -53 35.5 -82t89.5 -29q31 0 49 6z" />
    <glyph glyph-name="uogonek" unicode="&#x173;" horiz-adv-x="1134" 
d="M899 -311q7 -13 13 -46t6 -57q-52 -20 -123 -20q-87 0 -146 48t-59 136q0 67 38 124t109 85v10q-23 20 -40.5 64.5t-22.5 89.5h-10q-103 -158 -318 -158q-37 0 -69.5 7t-63.5 25t-53 45.5t-35.5 71.5t-13.5 101q0 88 28.5 289t53.5 346l-150 -16q0 17 12.5 54.5
t24.5 49.5q92 47 203 47q52 0 84 -8q-25 -189 -50.5 -415.5t-25.5 -282.5q0 -175 143 -175q73 0 140 43t106 111l78 592l-142 -16q0 17 12.5 55.5t24.5 50.5q85 45 195 45q50 0 82 -8l-94 -825q0 -4 3.5 -19.5t6.5 -19.5l153 14q0 -23 -10 -59t-22 -56q-222 -82 -222 -231
q0 -50 29 -75t72 -25q21 0 53 8z" />
    <glyph glyph-name="Wcircumflex" unicode="&#x174;" horiz-adv-x="1959" 
d="M526 133h15q16 80 41 158l376 1147h209l127 -1108q11 -107 11 -187h14q10 57 39 152l282 842q29 88 64 151q-73 3 -139 21q-11 57 -11 112h424q-4 -68 -30 -121q-39 -6 -105 -10l-477 -1317h-201l-123 1137q-6 53 -6 190h-14q-10 -72 -47 -196l-363 -1131h-217l-190 1315
q-46 3 -107 19q-14 54 -14 114h502q-3 -47 -35 -118q-101 -12 -176 -15q28 -78 43 -188l98 -764q10 -75 10 -203zM987 1827h207l229 -205q-11 -25 -35 -54t-47 -42l-264 155l-313 -168q-11 22 -19 59.5t-8 63.5z" />
    <glyph glyph-name="wcircumflex" unicode="&#x175;" horiz-adv-x="1484" 
d="M1405 862q-151 -415 -401 -913l-181 43l-84 813h-14q-52 -183 -148 -440.5t-171 -415.5l-177 43l-82 860l-143 -14q0 17 11 54.5t22 49.5q28 19 84 31t112 12q39 0 72 -10l49 -635q4 -43 4 -234h15q67 168 150 422.5t134 438.5l215 20l74 -647q8 -76 8 -234h15
q177 405 276 719q0 19 -8 35l-137 -10q2 26 15 62t30 53q29 11 93.5 21.5t96.5 10.5q26 -25 48 -69t22 -66zM715 1446l164 14l192 -289q-42 -54 -121 -69l-166 203l-243 -222q-17 13 -33 49t-21 68z" />
    <glyph glyph-name="Ycircumflex" unicode="&#x176;" horiz-adv-x="1200" 
d="M594 684h14q17 50 66 133l194 332q58 95 101 141q-74 4 -129 17q-13 50 -13 114h402q0 -53 -25 -118q-44 -8 -96 -11l-461 -737l-33 -422q115 -8 177 -20q10 -45 -5 -113h-559q8 48 33 109q66 17 168 26l43 422l-285 729q-49 4 -100 17q-12 44 -12 118h483
q-3 -56 -29 -114q-62 -11 -166 -15q41 -64 70 -139l127 -330q27 -75 35 -139zM596 1827h207l229 -205q-11 -25 -35 -54t-47 -42l-264 155l-313 -168q-11 22 -19 59.5t-8 63.5z" />
    <glyph glyph-name="ycircumflex" unicode="&#x177;" horiz-adv-x="976" 
d="M125 854l-145 -14q0 17 10.5 53.5t21.5 48.5q28 19 83.5 31t111.5 12q41 0 74 -10l129 -590q19 -93 28 -250h15q190 362 290 690q0 19 -8 35l-164 -14q2 25 14.5 58.5t30.5 51.5q34 16 112.5 28.5t119.5 12.5q25 -25 45 -69t20 -66q-93 -250 -245 -551t-252 -442
q-93 -131 -191.5 -214t-216.5 -134q-18 29 -31.5 73.5t-13.5 81.5q255 79 373 283zM461 1446l164 14l192 -289q-42 -54 -121 -69l-166 203l-243 -222q-17 13 -33 49t-21 68z" />
    <glyph glyph-name="Ydieresis" unicode="&#x178;" horiz-adv-x="1200" 
d="M594 684h14q17 50 66 133l194 332q58 95 101 141q-74 4 -129 17q-13 50 -13 114h402q0 -53 -25 -118q-44 -8 -96 -11l-461 -737l-33 -422q115 -8 177 -20q10 -45 -5 -113h-559q8 48 33 109q66 17 168 26l43 422l-285 729q-49 4 -100 17q-12 44 -12 118h483
q-3 -56 -29 -114q-62 -11 -166 -15q41 -64 70 -139l127 -330q27 -75 35 -139zM442 1792q52 0 85.5 -30.5t33.5 -82.5q0 -54 -34 -87t-85 -33q-58 0 -89 30.5t-31 89.5q0 47 34.5 80t85.5 33zM915 1792q52 0 85.5 -30.5t33.5 -82.5q0 -54 -34 -87t-85 -33q-59 0 -89.5 30.5
t-30.5 89.5q0 47 34.5 80t85.5 33z" />
    <glyph glyph-name="Zacute" unicode="&#x179;" horiz-adv-x="1144" 
d="M27 0l14 143l819 1129v14h-528q-13 -82 -51 -188q-83 -15 -138 -15l33 338h889l-14 -145l-791 -1122v-15h563q23 120 49 201q59 18 138 18l-35 -358h-948zM1077 1708l-491 -184q-13 41 -13 98q0 25 2 39l412 207q27 -22 53 -70t37 -90z" />
    <glyph glyph-name="zacute" unicode="&#x17a;" horiz-adv-x="921" 
d="M16 0l-8 88l580 746v14h-328q-16 -67 -57 -143q-65 0 -111 18l37 240h674l8 -89l-582 -745v-14q209 0 373 18q15 60 55 143q23 5 58.5 6t58.5 -3l-53 -279h-705zM815 1421l-334 -340q-22 12 -46 40.5t-36 56.5l256 319q38 -6 87.5 -29.5t72.5 -46.5z" />
    <glyph glyph-name="Zdotaccent" unicode="&#x17b;" horiz-adv-x="1144" 
d="M27 0l14 143l819 1129v14h-528q-13 -82 -51 -188q-83 -15 -138 -15l33 338h889l-14 -145l-791 -1122v-15h563q23 120 49 201q59 18 138 18l-35 -358h-948zM676 1806q51 0 80.5 -29t29.5 -83q0 -56 -30.5 -87.5t-79.5 -31.5q-117 0 -117 119q0 50 32.5 81t84.5 31z" />
    <glyph glyph-name="zdotaccent" unicode="&#x17c;" horiz-adv-x="921" 
d="M16 0l-8 88l580 746v14h-328q-16 -67 -57 -143q-65 0 -111 18l37 240h674l8 -89l-582 -745v-14q209 0 373 18q15 60 55 143q23 5 58.5 6t58.5 -3l-53 -279h-705zM512 1372q48 0 77 -28.5t29 -81.5q0 -54 -29.5 -85.5t-76.5 -31.5q-111 0 -111 117q0 49 31.5 79.5
t79.5 30.5z" />
    <glyph glyph-name="Zcaron" unicode="&#x17d;" horiz-adv-x="1144" 
d="M27 0l14 143l819 1129v14h-528q-13 -82 -51 -188q-83 -15 -138 -15l33 338h889l-14 -145l-791 -1122v-15h563q23 120 49 201q59 18 138 18l-35 -358h-948zM766 1534h-213l-236 235q57 43 134 56l239 -148l250 144q20 -7 46.5 -30.5t35.5 -41.5z" />
    <glyph glyph-name="zcaron" unicode="&#x17e;" horiz-adv-x="921" 
d="M16 0l-8 88l580 746v14h-328q-16 -67 -57 -143q-65 0 -111 18l37 240h674l8 -89l-582 -745v-14q209 0 373 18q15 60 55 143q23 5 58.5 6t58.5 -3l-53 -279h-705zM575 1110l-163 -14l-193 309q19 20 55.5 35.5t67.5 17.5l182 -213l226 215q24 -5 52.5 -20.5t41.5 -32.5z
" />
    <glyph glyph-name="longs" unicode="&#x17f;" horiz-adv-x="561" 
d="M381 1112l-148 -1419q-50 -8 -102 -8q-56 0 -80 8l135 1138q-85 4 -145 15q0 73 14 117h148l16 133q13 104 51 182.5t92.5 125t118.5 69t137 22.5q101 0 199 -35q0 -51 -17.5 -122.5t-39.5 -118.5q-23 0 -55.5 10t-53.5 22l19 129q-24 15 -64 15q-83 0 -146 -66.5
t-79 -216.5z" />
    <glyph glyph-name="uni018F" unicode="&#x18f;" horiz-adv-x="1400" 
d="M119 465q0 149 51 311h909q-2 275 -93 402t-292 127q-83 0 -199.5 -16.5t-203.5 -39.5q3 70 41 123q67 35 193 62.5t237 27.5q518 0 518 -655q0 -98 -16.5 -195t-50.5 -193t-90.5 -178t-131 -146t-179 -100t-226.5 -36q-230 0 -348.5 133t-118.5 373zM610 90
q90 0 164.5 32.5t125 85.5t87.5 127t57 151t29 163h-739q-27 -103 -27 -200q0 -77 16 -139t50 -113t94.5 -79t142.5 -28z" />
    <glyph glyph-name="florin" unicode="&#x192;" horiz-adv-x="968" 
d="M111 532h241l33 173q24 132 90 225.5t149 135.5t175 42q93 0 178 -35q-28 -151 -72 -244q-21 1 -52 11.5t-46 21.5l22 127q-24 15 -59 15q-73 0 -135.5 -62.5t-85.5 -204.5l-33 -205h281q10 -54 -6 -120h-295l-54 -334q-17 -105 -60 -185t-102 -126.5t-125 -69.5
t-137 -23q-102 0 -190 35q16 127 66 262q59 -8 110 -32l-20 -148q20 -12 57 -12q33 0 64 13.5t62 42t55.5 82t37.5 126.5l70 369h-244q0 55 25 120z" />
    <glyph glyph-name="uni01B5" unicode="&#x1b5;" horiz-adv-x="1144" 
d="M213 786h295l352 486v14h-528q-12 -70 -47 -176q-77 -14 -140 -14l31 325h889l-14 -145l-346 -490h243q8 -47 -6 -124h-326l-356 -508v-15h563q24 116 45 189q59 18 140 18l-33 -346h-948l14 143l375 519h-228q0 55 25 124z" />
    <glyph glyph-name="uni01B6" unicode="&#x1b6;" horiz-adv-x="921" 
d="M139 557h234l215 277v14h-328q-10 -46 -49 -125q-67 0 -117 18l35 222h674l8 -89l-248 -317h170q6 -49 -6 -108h-250l-248 -320v-14q209 0 373 18q14 61 47 125q23 5 60.5 5.5t60.5 -3.5l-49 -260h-705l-8 88l281 361h-170q0 50 20 108z" />
    <glyph glyph-name="Aringacute" unicode="&#x1fa;" horiz-adv-x="1458" 
d="M1143 2056l-492 -184q-12 37 -12 98q0 25 2 39l412 207q27 -22 53 -70t37 -90zM971 459h-516l-76 -174q-37 -88 -82 -158q80 -4 154 -18q4 -15 9 -53t5 -56h-471q10 56 39 109q41 14 102 22l627 1307q-172 21 -172 184q0 111 71.5 175.5t204.5 64.5q106 0 168 -49.5
t62 -137.5q0 -100 -56 -161t-153 -76l362 -1303q63 -4 119 -18q12 -54 12 -117h-491q10 61 33 111q55 14 151 24q-40 69 -63 168zM795 1239h-15q-18 -74 -75 -199l-205 -465h446l-123 469q-28 114 -28 195zM854 1759q-62 0 -96.5 -32.5t-34.5 -94.5q0 -96 108 -96
q59 0 92 32.5t33 94.5q0 96 -102 96z" />
    <glyph glyph-name="aringacute" unicode="&#x1fb;" horiz-adv-x="1069" 
d="M600 117h-10q-53 -77 -132 -114.5t-157 -37.5q-121 0 -192.5 90.5t-71.5 276.5q0 130 35 251t100 212q147 202 381 202q174 0 305 -92l-98 -751q0 -18 10 -43l160 14q0 -22 -10.5 -57.5t-22.5 -55.5q-44 -18 -121.5 -32.5t-122.5 -14.5q-39 66 -53 152zM600 254l84 604
q-54 31 -133 31t-144 -43t-106 -111q-43 -72 -65.5 -179t-22.5 -202q0 -126 45.5 -188t126.5 -62q62 0 120 40.5t95 109.5zM600 1518q83 0 135.5 -46.5t52.5 -123.5q0 -113 -66 -177.5t-171 -64.5q-94 0 -143.5 42.5t-49.5 125.5q0 110 64.5 177t177.5 67zM592 1430
q-60 0 -90.5 -37t-30.5 -103q0 -46 24 -70t68 -24q55 0 86 37.5t31 105.5q0 41 -24.5 66t-63.5 25zM856 1898l-334 -339q-22 12 -46 40t-36 56l256 319q38 -6 87.5 -29.5t72.5 -46.5z" />
    <glyph glyph-name="AEacute" unicode="&#x1fc;" horiz-adv-x="1828" 
d="M1632 0h-944q7 55 29 109q56 17 145 26l33 338h-401l-111 -186q-76 -122 -104 -158q98 -4 143 -14q12 -40 12 -115h-459q10 61 37 109q37 14 97 22l727 1159q-108 4 -172 15q-3 23 -0.5 60t8.5 56h1081l-31 -301q-58 0 -112 15q-13 93 -13 161h-446l-51 -540h354
q11 55 31 110q53 17 119 17l-37 -379q-26 -3 -62 -0.5t-55 8.5q-10 67 -10 121h-348l-45 -504h442q22 110 43 176q54 14 131 14zM879 1114l-316 -524h344l74 706h-14q-33 -91 -88 -182zM1458 1708l-491 -184q-13 41 -13 98q0 25 2 39l412 207q27 -22 53 -70t37 -90z" />
    <glyph glyph-name="aeacute" unicode="&#x1fd;" horiz-adv-x="1460" 
d="M1337 772q0 -53 -13.5 -97.5t-51 -90t-98.5 -78t-162.5 -55t-235.5 -27.5v-62q0 -249 170 -249q68 0 155 27t152 69q0 -63 -24 -113q-150 -131 -352 -131q-102 0 -163 49.5t-75 126.5h-10q-35 -70 -127 -123t-209 -53q-109 0 -179.5 60.5t-70.5 179.5q0 108 57.5 191.5
t148 125t195.5 41.5q109 0 177 -35q18 101 18 158q0 86 -39 128t-121 42q-62 0 -148.5 -28.5t-144.5 -65.5q-6 21 -6 57q0 55 19 99q54 30 154 54.5t177 24.5q214 0 246 -155h10q33 62 122 108.5t198 46.5q107 0 169 -60.5t62 -164.5zM377 106q69 0 132.5 31.5t100.5 79.5
q-6 43 -6 96q0 59 6 121q-63 17 -133 17q-118 0 -190 -55t-72 -146q0 -74 43.5 -109t118.5 -35zM1065 887q-62 0 -118.5 -35t-92.5 -94q-51 -84 -68 -215q99 3 171.5 18t114 34.5t65.5 49t31.5 56.5t7.5 61q0 56 -27.5 90.5t-83.5 34.5zM1096 1421l-334 -340
q-22 12 -46 40.5t-36 56.5l256 319q38 -6 87.5 -29.5t72.5 -46.5z" />
    <glyph glyph-name="Oslashacute" unicode="&#x1fe;" horiz-adv-x="1517" 
d="M1366 854q0 -269 -82 -470.5t-239 -313t-371 -111.5q-268 0 -412 162l-215 -219q-15 19 -32 60t-21 71l196 200q-65 133 -65 347q0 262 83.5 461.5t242 310t370.5 110.5q250 0 398 -157l188 200q27 -13 58 -39t44 -49l-215 -225q72 -141 72 -338zM1174 829q0 117 -31 215
l-746 -782q96 -166 291 -166q155 0 266 95.5t165.5 259.5t54.5 378zM319 604q0 -124 27 -223l741 788q-102 158 -278 158q-124 0 -219.5 -56t-153.5 -155.5t-87.5 -228.5t-29.5 -283zM1194 1708l-492 -184q-12 38 -12 98q0 25 2 39l412 207q27 -22 53 -70t37 -90z" />
    <glyph glyph-name="oslashacute" unicode="&#x1ff;" horiz-adv-x="1056" 
d="M412 -35q-145 0 -234 80l-141 -166q-15 15 -32 46.5t-23 56.5l131 153q-41 90 -41 223q0 249 104 414q66 105 166.5 165t222.5 60q142 0 228 -77l120 139q20 -10 47 -32t37 -38l-137 -160q45 -92 45 -215q0 -281 -127 -462q-64 -89 -158.5 -138t-207.5 -49zM432 86
q133 0 217 141q82 143 82 369q0 46 -6 86l-436 -508q48 -88 143 -88zM248 377q0 -47 6 -90l434 508q-49 84 -139 84q-76 0 -137 -44t-101 -120q-63 -126 -63 -338zM852 1421l-334 -340q-22 12 -46 40.5t-36 56.5l256 319q38 -6 87.5 -29.5t72.5 -46.5z" />
    <glyph glyph-name="Scommaaccent" unicode="&#x218;" horiz-adv-x="1126" 
d="M838 1118l18 178q-68 41 -176 41q-135 0 -211 -67t-76 -174q0 -68 32.5 -121.5t84 -89t114 -67.5t125 -68t114 -79.5t84 -111.5t32.5 -156q0 -120 -43 -208.5t-119 -138.5t-168 -73.5t-203 -23.5q-219 0 -385 78q13 169 54 344q29 0 77 -7t70 -16l-18 -208
q92 -60 239 -60t227.5 71t80.5 201q0 67 -32 119t-83 87t-112.5 67t-123 67.5t-112.5 78t-83 110t-32 153.5q0 194 120.5 306t342.5 112q77 0 175 -17t177 -44q-24 -208 -59 -311q-30 0 -69 8t-62 20zM442 -231l-75 16q11 29 33 65t42 56q40 8 74 8q80 0 135 -25
q-28 -93 -100.5 -223t-130.5 -207q-24 6 -52.5 20t-41.5 25q55 100 116 265z" />
    <glyph glyph-name="scommaaccent" unicode="&#x219;" horiz-adv-x="841" 
d="M557 750l10 112q-56 27 -123 27q-63 0 -104 -32.5t-41 -90.5q0 -41 21 -78t54 -65t73 -55.5t80.5 -57t73.5 -62t54 -77t21 -95.5q0 -103 -54.5 -175t-137 -104t-181.5 -32q-132 0 -211.5 50t-79.5 157q15 30 66 52t100 22q4 -89 46 -126.5t126 -37.5q68 0 115 37t47 100
q0 41 -21 76t-54 62t-73 53.5t-80.5 55.5t-73.5 62t-54 79.5t-21 101.5q0 127 88 207.5t250 80.5q125 0 236 -51q0 -98 -39 -227q-25 0 -60.5 9.5t-52.5 21.5zM289 -244l-72 15q25 65 70 114q35 9 73 9q64 0 121 -23q-29 -90 -96.5 -218.5t-116.5 -193.5q-45 11 -84 45
q47 93 105 252z" />
    <glyph glyph-name="uni021A" unicode="&#x21a;" horiz-adv-x="1134" 
d="M702 1296l-96 -1163q117 -8 180 -20q4 -22 2.5 -56.5t-6.5 -56.5h-561q8 48 33 109q66 17 168 26l110 1161h-307q-10 -58 -43 -174q-58 -12 -127 -12l31 311h1092l-31 -319q-58 0 -119 14q-12 82 -12 180h-314zM391 -231l-76 16q11 28 33.5 64.5t42.5 56.5q40 8 74 8
q80 0 135 -25q-28 -93 -100.5 -223t-130.5 -207q-60 15 -95 45q58 105 117 265z" />
    <glyph glyph-name="uni021B" unicode="&#x21b;" horiz-adv-x="710" 
d="M209 985l59 238q22 14 61 23t70 9l-30 -292h282q2 -14 2 -37q0 -32 -8 -82h-295l-57 -582q-8 -84 14.5 -123t83.5 -39q78 0 174 39q0 -58 -26 -108q-117 -66 -238 -66q-188 0 -188 203q0 78 28 284t60 392h-148q7 58 39 106q48 23 117 35zM221 -244l-71 15q25 67 69 114
q34 9 74 9q64 0 121 -23q-29 -90 -96.5 -218.5t-116.5 -193.5q-45 11 -84 45q43 86 104 252z" />
    <glyph glyph-name="dotlessj" unicode="&#x237;" horiz-adv-x="563" 
d="M-37 -469q-22 8 -47.5 30t-34.5 42q99 101 174 246t95 307l83 694l-149 -16q0 17 12.5 54.5t24.5 49.5q92 47 203 47q52 0 84 -8l-82 -768q-40 -370 -363 -678z" />
    <glyph glyph-name="uni0259" unicode="&#x259;" horiz-adv-x="888" 
d="M25 199q0 340 561 360q-2 158 -40.5 226.5t-129.5 68.5q-70 0 -156.5 -21t-150.5 -55q0 61 26 115q146 104 354 104q143 0 211 -99t68 -298q0 -137 -36.5 -262.5t-113.5 -214.5q-63 -72 -153 -115t-193 -43q-118 0 -182.5 62t-64.5 172zM510 197q56 93 70 243
q-97 -3 -168 -17t-113 -34.5t-67 -51t-33.5 -60.5t-8.5 -68q0 -127 119 -127q59 0 113.5 31.5t87.5 83.5z" />
    <glyph glyph-name="uni02BB" unicode="&#x2bb;" horiz-adv-x="456" 
d="M453 1452q-40 -75 -86.5 -178.5t-67.5 -165.5l78 -21q-9 -26 -38.5 -69.5t-53.5 -67.5q-115 13 -183 66q41 108 103.5 222t122.5 196q69 18 125 18z" />
    <glyph glyph-name="afii57929" unicode="&#x2bc;" horiz-adv-x="518" 
d="M268 1292l-73 21q38 90 77 135q31 8 70 8q74 0 137 -24q-35 -110 -112 -262.5t-136 -235.5q-43 15 -79 51q86 180 116 307z" />
    <glyph glyph-name="circumflex" unicode="&#x2c6;" horiz-adv-x="858" 
d="M362 1446l164 14l193 -289q-42 -54 -121 -69l-166 203l-244 -222q-17 13 -32.5 49t-20.5 68z" />
    <glyph glyph-name="caron" unicode="&#x2c7;" horiz-adv-x="858" 
d="M510 1110l-164 -14l-192 309q19 20 55 35.5t67 17.5l183 -213l225 215q24 -5 52.5 -20.5t41.5 -32.5z" />
    <glyph glyph-name="breve" unicode="&#x2d8;" horiz-adv-x="858" 
d="M309 1434q9 -189 146 -189q142 0 196 187q67 -4 111 -33q-27 -133 -111.5 -213t-212.5 -80q-122 0 -184.5 70.5t-65.5 203.5q44 44 121 54z" />
    <glyph glyph-name="dotaccent" unicode="&#x2d9;" horiz-adv-x="858" 
d="M440 1372q49 0 78 -28.5t29 -81.5q0 -54 -30 -85.5t-77 -31.5q-110 0 -110 117q0 49 31 79.5t79 30.5z" />
    <glyph glyph-name="ring" unicode="&#x2da;" horiz-adv-x="858" 
d="M453 1518q83 0 135.5 -46.5t52.5 -123.5q0 -113 -66.5 -177.5t-171.5 -64.5q-94 0 -143 42.5t-49 125.5q0 110 64.5 177t177.5 67zM444 1430q-60 0 -90 -37t-30 -103q0 -46 24 -70t68 -24q54 0 85 37.5t31 105.5q0 41 -24.5 66t-63.5 25z" />
    <glyph glyph-name="ogonek" unicode="&#x2db;" horiz-adv-x="815" 
d="M479 -311q7 -13 13 -46t6 -57q-52 -20 -123 -20q-87 0 -146 48t-59 136q0 83 58 150t178 108q54 8 143 8q-117 -55 -170 -108t-53 -127q0 -50 28.5 -75t71.5 -25q21 0 53 8z" />
    <glyph glyph-name="tilde" unicode="&#x2dc;" horiz-adv-x="858" 
d="M698 1370q40 0 78 -18q-12 -85 -68.5 -150t-150.5 -65q-48 0 -122 45t-109 45q-37 0 -69.5 -26t-45.5 -60q-19 0 -39 14t-29 33q24 84 79 135t143 51q42 0 81.5 -21.5t76.5 -43t73 -21.5q76 0 102 82z" />
    <glyph glyph-name="hungarumlaut" unicode="&#x2dd;" horiz-adv-x="815" 
d="M487 1423l-294 -350q-23 10 -48 37t-36 51l215 326q40 -5 89.5 -24t73.5 -40zM834 1423l-295 -350q-23 10 -48 36.5t-36 51.5l215 326q40 -5 90 -24t74 -40z" />
    <glyph glyph-name="gravecomb" unicode="&#x300;" horiz-adv-x="2" 
d="M-129 1110l-244 315q30 22 86.5 37t104.5 15l184 -324q-20 -14 -62 -28.5t-69 -14.5z" />
    <glyph glyph-name="acutecomb" unicode="&#x301;" horiz-adv-x="2" 
d="M2 1421l-334 -340q-22 12 -46 40.5t-36 56.5l256 319q38 -6 87.5 -29.5t72.5 -46.5z" />
    <glyph glyph-name="uni0302" unicode="&#x302;" horiz-adv-x="2" 
d="M-354 1446l164 14l192 -289q-42 -54 -121 -69l-166 203l-243 -222q-17 13 -33 49t-21 68z" />
    <glyph glyph-name="tildecomb" unicode="&#x303;" horiz-adv-x="2" 
d="M-76 1370q40 0 78 -18q-12 -85 -68.5 -150t-150.5 -65q-48 0 -122.5 45t-109.5 45q-37 0 -69 -26t-45 -60q-19 0 -39 14t-29 33q24 84 78.5 135t142.5 51q42 0 81.5 -21.5t77 -43t73.5 -21.5q76 0 102 82z" />
    <glyph glyph-name="uni0304" unicode="&#x304;" horiz-adv-x="2" 
d="M-8 1186h-504q0 64 25 133h487q2 -12 2 -37q0 -54 -10 -96z" />
    <glyph glyph-name="uni0306" unicode="&#x306;" horiz-adv-x="2" 
d="M-451 1434q9 -189 146 -189q142 0 196 187q67 -4 111 -33q-27 -133 -111.5 -213t-212.5 -80q-122 0 -184 70.5t-65 203.5q44 44 120 54z" />
    <glyph glyph-name="uni0307" unicode="&#x307;" horiz-adv-x="2" 
d="M-104 1372q48 0 77 -28.5t29 -81.5q0 -54 -29.5 -85.5t-76.5 -31.5q-111 0 -111 117q0 49 31.5 79.5t79.5 30.5z" />
    <glyph glyph-name="uni0308" unicode="&#x308;" horiz-adv-x="2" 
d="M-504 1370q45 0 74 -28t29 -76q0 -51 -29.5 -82t-73.5 -31q-104 0 -104 113q0 44 30 74t74 30zM-100 1370q45 0 73.5 -28t28.5 -76q0 -51 -29 -82t-73 -31q-105 0 -105 113q0 44 30.5 74t74.5 30z" />
    <glyph glyph-name="uni030A" unicode="&#x30a;" horiz-adv-x="2" 
d="M-186 1518q83 0 135.5 -46.5t52.5 -123.5q0 -113 -66.5 -177.5t-171.5 -64.5q-94 0 -143 42.5t-49 125.5q0 110 64.5 177t177.5 67zM-195 1430q-60 0 -90 -37t-30 -103q0 -46 24 -70t68 -24q55 0 86 37.5t31 105.5q0 41 -25 66t-64 25z" />
    <glyph glyph-name="uni030B" unicode="&#x30b;" horiz-adv-x="2" 
d="M-344 1423l-295 -350q-23 10 -48 37t-36 51l215 326q40 -5 90 -24t74 -40zM2 1423l-295 -350q-23 10 -48 36.5t-36 51.5l215 326q40 -5 90 -24t74 -40z" />
    <glyph glyph-name="uni030C" unicode="&#x30c;" horiz-adv-x="2" 
d="M-266 1110l-164 -14l-193 309q19 20 55.5 35.5t67.5 17.5l183 -213l225 215q24 -5 52.5 -20.5t41.5 -32.5z" />
    <glyph glyph-name="uni0312" unicode="&#x312;" horiz-adv-x="2" 
d="M2 1509q-72 -149 -106 -260l84 -18q-7 -25 -36 -66.5t-53 -64.5q-116 14 -180 63q31 85 78.5 173.5t93.5 152.5q15 7 52.5 13.5t66.5 6.5z" />
    <glyph glyph-name="uni0313" unicode="&#x313;" horiz-adv-x="2" 
d="M-193 1329l-69 14q9 27 29.5 61.5t39.5 55.5q30 6 70 6q70 0 125 -22q-27 -92 -96 -222.5t-121 -199.5q-25 6 -49.5 19.5t-34.5 25.5q55 107 106 262z" />
    <glyph glyph-name="uni0326" unicode="&#x326;" horiz-adv-x="2" 
d="M-190 -244l-72 15q25 67 69 114q34 9 74 9q64 0 121 -23q-29 -90 -96.5 -218.5t-116.5 -193.5q-45 11 -84 45q47 93 105 252z" />
    <glyph glyph-name="uni0394" unicode="&#x394;" horiz-adv-x="1255" 
d="M621 1442h159l367 -1323l-8 -119h-1170l8 96zM170 127h762l-213 827q-53 199 -53 295h-15q-24 -95 -112 -288z" />
    <glyph glyph-name="uni03A9" unicode="&#x3a9;" horiz-adv-x="1591" 
d="M838 0l12 131q147 82 246.5 279t99.5 436q0 99 -20.5 183.5t-62.5 153.5t-113.5 108.5t-165.5 39.5q-97 0 -177 -38.5t-134.5 -103.5t-91.5 -153t-54 -184.5t-17 -200.5q0 -172 61 -308t159 -212l-13 -131h-600l31 313q73 0 127 -12q10 -68 10 -156h258v15
q-98 64 -160.5 196t-62.5 310q0 359 187 577.5t489 218.5q250 0 396.5 -162.5t146.5 -431.5q0 -122 -30.5 -240t-80 -209.5t-112 -159t-128.5 -99.5v-15h275q12 70 37 160q61 14 133 14l-29 -319h-616z" />
    <glyph glyph-name="uni03BC" unicode="&#x3bc;" horiz-adv-x="1159" 
d="M197 166h-15q15 -195 15 -297q0 -193 -25 -420q-41 1 -96 15.5t-86 29.5q142 935 203 1464q24 10 82 17.5t90 7.5q-23 -126 -48.5 -327t-25.5 -298q0 -122 43 -181.5t137 -59.5q78 0 150 47.5t108 111.5q24 367 84 682q21 9 75.5 17t84.5 8q-80 -513 -80 -725
q0 -76 14.5 -111.5t50.5 -35.5q49 0 103 24q-1 -29 -11.5 -67.5t-21.5 -59.5q-71 -43 -139 -43q-135 0 -152 185h-10q-17 -36 -41.5 -66.5t-61 -58.5t-89 -44t-115.5 -16q-194 0 -223 201z" />
    <glyph glyph-name="pi" unicode="&#x3c0;" horiz-adv-x="1138" 
d="M262 807q-72 -8 -142.5 -41.5t-115.5 -83.5q-4 20 -4 37q0 69 23 123q119 143 485 143q319 0 557 -14q2 -16 2 -37q0 -81 -16 -137q-24 1 -65.5 4t-76.5 5t-67 3q-23 -124 -41.5 -288.5t-18.5 -262.5q0 -70 13 -101.5t45 -31.5q33 0 73 16q0 -37 -10.5 -83.5t-23.5 -69.5
q-48 -23 -109 -23q-145 0 -145 260q0 110 23.5 282.5t51.5 305.5q-79 6 -182 6q-71 0 -108 -2q-14 -242 -52 -475t-102 -391q-43 6 -91 25t-75 40q68 149 113 363.5t59 427.5z" />
    <glyph glyph-name="Wgrave" unicode="&#x1e80;" horiz-adv-x="1959" 
d="M526 133h15q16 80 41 158l376 1147h209l127 -1108q11 -107 11 -187h14q10 57 39 152l282 842q29 88 64 151q-73 3 -139 21q-11 57 -11 112h424q-4 -68 -30 -121q-39 -6 -105 -10l-477 -1317h-201l-123 1137q-6 53 -6 190h-14q-10 -72 -47 -196l-363 -1131h-217l-190 1315
q-46 3 -107 19q-14 54 -14 114h502q-3 -47 -35 -118q-101 -12 -176 -15q28 -78 43 -188l98 -764q10 -75 10 -203zM1139 1534l-449 197q26 35 72.5 71t83.5 51l356 -200q-3 -25 -23 -63.5t-40 -55.5z" />
    <glyph glyph-name="wgrave" unicode="&#x1e81;" horiz-adv-x="1484" 
d="M1405 862q-151 -415 -401 -913l-181 43l-84 813h-14q-52 -183 -148 -440.5t-171 -415.5l-177 43l-82 860l-143 -14q0 17 11 54.5t22 49.5q28 19 84 31t112 12q39 0 72 -10l49 -635q4 -43 4 -234h15q67 168 150 422.5t134 438.5l215 20l74 -647q8 -76 8 -234h15
q177 405 276 719q0 19 -8 35l-137 -10q2 26 15 62t30 53q29 11 93.5 21.5t96.5 10.5q26 -25 48 -69t22 -66zM786 1110l-243 315q31 22 86.5 37t103.5 15l185 -324q-20 -14 -62.5 -28.5t-69.5 -14.5z" />
    <glyph glyph-name="Wacute" unicode="&#x1e82;" horiz-adv-x="1959" 
d="M526 133h15q16 80 41 158l376 1147h209l127 -1108q11 -107 11 -187h14q10 57 39 152l282 842q29 88 64 151q-73 3 -139 21q-11 57 -11 112h424q-4 -68 -30 -121q-39 -6 -105 -10l-477 -1317h-201l-123 1137q-6 53 -6 190h-14q-10 -72 -47 -196l-363 -1131h-217l-190 1315
q-46 3 -107 19q-14 54 -14 114h502q-3 -47 -35 -118q-101 -12 -176 -15q28 -78 43 -188l98 -764q10 -75 10 -203zM1454 1708l-491 -184q-13 41 -13 98q0 25 2 39l412 207q27 -22 53 -70t37 -90z" />
    <glyph glyph-name="wacute" unicode="&#x1e83;" horiz-adv-x="1484" 
d="M1405 862q-151 -415 -401 -913l-181 43l-84 813h-14q-52 -183 -148 -440.5t-171 -415.5l-177 43l-82 860l-143 -14q0 17 11 54.5t22 49.5q28 19 84 31t112 12q39 0 72 -10l49 -635q4 -43 4 -234h15q67 168 150 422.5t134 438.5l215 20l74 -647q8 -76 8 -234h15
q177 405 276 719q0 19 -8 35l-137 -10q2 26 15 62t30 53q29 11 93.5 21.5t96.5 10.5q26 -25 48 -69t22 -66zM1067 1421l-334 -340q-22 12 -46 40.5t-36 56.5l256 319q38 -6 87.5 -29.5t72.5 -46.5z" />
    <glyph glyph-name="Wdieresis" unicode="&#x1e84;" horiz-adv-x="1959" 
d="M778 1792q52 0 85.5 -30.5t33.5 -82.5q0 -54 -34 -87t-85 -33q-59 0 -90 31t-31 89q0 47 35 80t86 33zM1333 1792q52 0 85.5 -30.5t33.5 -82.5q0 -54 -34 -87t-85 -33q-59 0 -90 31t-31 89q0 47 35 80t86 33zM526 133h15q16 80 41 158l376 1147h209l127 -1108
q11 -107 11 -187h14q10 57 39 152l282 842q29 88 64 151q-73 3 -139 21q-11 57 -11 112h424q-4 -68 -30 -121q-39 -6 -105 -10l-477 -1317h-201l-123 1137q-6 53 -6 190h-14q-10 -72 -47 -196l-363 -1131h-217l-190 1315q-46 3 -107 19q-14 54 -14 114h502q-3 -47 -35 -118
q-101 -12 -176 -15q28 -78 43 -188l98 -764q10 -75 10 -203z" />
    <glyph glyph-name="wdieresis" unicode="&#x1e85;" horiz-adv-x="1484" 
d="M530 1370q45 0 74 -28t29 -76q0 -51 -29.5 -82t-73.5 -31q-104 0 -104 113q0 44 30 74t74 30zM1004 1370q45 0 73.5 -28t28.5 -76q0 -51 -29 -82t-73 -31q-105 0 -105 113q0 44 30.5 74t74.5 30zM1405 862q-151 -415 -401 -913l-181 43l-84 813h-14q-52 -183 -148 -440.5
t-171 -415.5l-177 43l-82 860l-143 -14q0 17 11 54.5t22 49.5q28 19 84 31t112 12q39 0 72 -10l49 -635q4 -43 4 -234h15q67 168 150 422.5t134 438.5l215 20l74 -647q8 -76 8 -234h15q177 405 276 719q0 19 -8 35l-137 -10q2 26 15 62t30 53q29 11 93.5 21.5t96.5 10.5
q26 -25 48 -69t22 -66z" />
    <glyph glyph-name="uni1E8A" unicode="&#x1e8a;" horiz-adv-x="1374" 
d="M117 127l454 625l-284 534q-60 4 -107 17q-16 58 -16 118h489q-3 -52 -30 -121q-63 -6 -154 -10q41 -48 96 -147l168 -309l209 327q49 79 102 129q-58 3 -124 15q-13 47 -13 116h406q0 -24 -8.5 -62t-18.5 -61q-34 -6 -94 -6l-401 -565l325 -596q65 -4 117 -16
q16 -58 16 -115h-495q8 65 30 109q65 14 144 20q-43 41 -103 150l-192 358l-236 -385q-47 -73 -100 -123q83 -3 143 -18q13 -54 13 -111h-482q9 52 33 106q40 12 113 21zM801 1806q51 0 80.5 -29t29.5 -83q0 -56 -30.5 -87.5t-79.5 -31.5q-117 0 -117 119q0 50 32.5 81
t84.5 31z" />
    <glyph glyph-name="uni1E8B" unicode="&#x1e8b;" horiz-adv-x="1011" 
d="M383 977q84 -210 139 -379h10q145 220 205 360q31 9 80 9t94 -9q-58 -105 -153.5 -245t-177.5 -242q54 -129 108 -239t70 -121l141 26q0 -69 -25 -117q-33 -20 -100 -40.5t-115 -26.5q-25 9 -81.5 121.5t-120.5 273.5h-11q-171 -268 -303 -395q-37 9 -87 32t-79 44
q-10 30 -10 67q0 32 8 56l119 -48q68 68 154 175t147 204q-66 162 -145 373l-135 -18q0 17 12 54t23 50q24 18 70.5 30.5t90.5 12.5q48 0 72 -8zM578 1372q48 0 77 -28.5t29 -81.5q0 -54 -29.5 -85.5t-76.5 -31.5q-111 0 -111 117q0 49 31.5 79.5t79.5 30.5z" />
    <glyph glyph-name="Ygrave" unicode="&#x1ef2;" horiz-adv-x="1200" 
d="M594 684h14q17 50 66 133l194 332q58 95 101 141q-74 4 -129 17q-13 50 -13 114h402q0 -53 -25 -118q-44 -8 -96 -11l-461 -737l-33 -422q115 -8 177 -20q10 -45 -5 -113h-559q8 48 33 109q66 17 168 26l43 422l-285 729q-49 4 -100 17q-12 44 -12 118h483
q-3 -56 -29 -114q-62 -11 -166 -15q41 -64 70 -139l127 -330q27 -75 35 -139zM756 1534l-449 197q26 35 72.5 71t83.5 51l356 -200q-3 -25 -23 -63.5t-40 -55.5z" />
    <glyph glyph-name="ygrave" unicode="&#x1ef3;" horiz-adv-x="976" 
d="M125 854l-145 -14q0 17 10.5 53.5t21.5 48.5q28 19 83.5 31t111.5 12q41 0 74 -10l129 -590q19 -93 28 -250h15q190 362 290 690q0 19 -8 35l-164 -14q2 25 14.5 58.5t30.5 51.5q34 16 112.5 28.5t119.5 12.5q25 -25 45 -69t20 -66q-93 -250 -245 -551t-252 -442
q-93 -131 -191.5 -214t-216.5 -134q-18 29 -31.5 73.5t-13.5 81.5q255 79 373 283zM514 1110l-244 315q30 22 86.5 37t104.5 15l184 -324q-20 -14 -62 -28.5t-69 -14.5z" />
    <glyph glyph-name="uni2007" unicode="&#x2007;" horiz-adv-x="1216" 
 />
    <glyph glyph-name="uni2008" unicode="&#x2008;" horiz-adv-x="479" 
 />
    <glyph glyph-name="uni200B" unicode="&#x200b;" horiz-adv-x="0" 
 />
    <glyph glyph-name="endash" unicode="&#x2013;" horiz-adv-x="1024" 
d="M41 629h864q2 -12 2 -37q0 -58 -10 -103h-883q0 28 8.5 71t18.5 69z" />
    <glyph glyph-name="emdash" unicode="&#x2014;" horiz-adv-x="2048" 
d="M41 629h1888q2 -12 2 -37q0 -58 -10 -103h-1907q0 28 8.5 71t18.5 69z" />
    <glyph glyph-name="quoteleft" unicode="&#x2018;" horiz-adv-x="456" 
d="M453 1452q-40 -75 -86.5 -178.5t-67.5 -165.5l78 -21q-9 -26 -38.5 -69.5t-53.5 -67.5q-115 13 -183 66q41 108 103.5 222t122.5 196q69 18 125 18z" />
    <glyph glyph-name="quoteright" unicode="&#x2019;" horiz-adv-x="518" 
d="M268 1292l-73 21q38 90 77 135q31 8 70 8q74 0 137 -24q-35 -110 -112 -262.5t-136 -235.5q-43 15 -79 51q86 180 116 307z" />
    <glyph glyph-name="quotesinglbase" unicode="&#x201a;" horiz-adv-x="518" 
d="M127 37l-80 20q37 87 82 136q31 8 74 8q71 0 141 -25q-36 -110 -116 -262.5t-140 -235.5q-47 15 -84 52q89 181 123 307z" />
    <glyph glyph-name="quotereversed" unicode="&#x201b;" horiz-adv-x="528" 
d="M379 1315l-90 -23q3 -118 39 -307q-13 -10 -44 -23t-53 -18q-33 85 -67.5 232t-44.5 258q68 20 147 20q37 0 64 -6q34 -53 49 -133z" />
    <glyph glyph-name="quotedblleft" unicode="&#x201c;" horiz-adv-x="792" 
d="M395 1452q-101 -199 -147 -344l71 -21q-10 -27 -38 -70t-50 -67q-103 13 -174 66q86 233 217 418q69 18 121 18zM743 1452q-101 -199 -147 -344l72 -21q-10 -27 -38 -70t-50 -67q-101 12 -172 66q86 233 217 418q69 18 118 18z" />
    <glyph glyph-name="quotedblright" unicode="&#x201d;" horiz-adv-x="792" 
d="M227 1292l-71 21q32 85 75 135q27 8 66 8q70 0 133 -24q-35 -111 -109.5 -262.5t-130.5 -233.5q-41 15 -77 51q33 69 66.5 157t47.5 148zM588 1292l-72 21q35 85 76 135q27 8 67 8q72 0 132 -24q-33 -109 -107 -260t-131 -236q-21 7 -44 22.5t-34 28.5q87 182 113 305z
" />
    <glyph glyph-name="quotedblbase" unicode="&#x201e;" horiz-adv-x="868" 
d="M117 37l-74 20q37 89 78 136q27 8 67 8q70 0 136 -25q-35 -110 -111 -262.5t-133 -235.5q-43 15 -80 52q90 193 117 307zM473 37l-74 20q37 89 78 136q27 8 68 8q69 0 135 -25q-35 -110 -111 -262.5t-133 -235.5q-43 15 -80 52q90 193 117 307z" />
    <glyph glyph-name="dagger" unicode="&#x2020;" horiz-adv-x="1024" 
d="M926 854h-330l-135 -1192q-21 -6 -58 -6q-38 0 -59 6l92 1192h-293q0 60 23 119h283l34 432q75 22 185 22l-54 -454h318q2 -14 2 -35q0 -45 -8 -84z" />
    <glyph glyph-name="daggerdbl" unicode="&#x2021;" horiz-adv-x="1024" 
d="M541 248l-66 -586q-21 -6 -57 -6q-39 0 -60 6l45 586h-307q0 58 23 117h297l35 491h-293q0 60 22 117h283l35 432q75 22 184 22l-53 -454h309q2 -14 2 -35q0 -43 -8 -82h-322l-53 -491h328q6 -53 -6 -117h-338z" />
    <glyph glyph-name="bullet" unicode="&#x2022;" horiz-adv-x="1087" 
d="M510 770q120 0 189 -69t69 -197q0 -131 -71 -208t-187 -77q-134 0 -200 70.5t-66 214.5q0 115 76.5 190.5t189.5 75.5z" />
    <glyph glyph-name="ellipsis" unicode="&#x2026;" horiz-adv-x="1517" 
d="M711 236q56 0 89.5 -33t33.5 -92q0 -62 -34 -99t-89 -37q-125 0 -125 136q0 54 36 89.5t89 35.5zM188 236q56 0 89.5 -33t33.5 -92q0 -62 -34 -99t-89 -37q-125 0 -125 136q0 54 36 89.5t89 35.5zM1227 236q56 0 89.5 -33t33.5 -92q0 -62 -34 -99t-89 -37
q-125 0 -125 136q0 54 36 89.5t89 35.5z" />
    <glyph glyph-name="perthousand" unicode="&#x2030;" horiz-adv-x="2564" 
d="M416 1102q133 0 205.5 -66.5t72.5 -193.5q0 -177 -94 -274t-258 -97q-137 0 -209 65.5t-72 194.5q0 168 96 269.5t259 101.5zM354 571q90 0 136.5 69t46.5 191q0 79 -33 124.5t-98 45.5q-93 0 -141 -71t-48 -187q0 -82 35.5 -127t101.5 -45zM1350 1083l-848 -1136
q-23 5 -59 24.5t-48 34.5l842 1108q51 -3 113 -31zM1372 596q133 0 206 -67t73 -193q0 -177 -94.5 -274t-258.5 -97q-136 0 -208 65.5t-72 194.5q0 168 95.5 269.5t258.5 101.5zM1311 66q90 0 136 69t46 191q0 79 -33 124.5t-98 45.5q-93 0 -140.5 -71t-47.5 -187
q0 -82 35.5 -127t101.5 -45zM2181 596q133 0 206 -67t73 -193q0 -177 -94.5 -274t-258.5 -97q-136 0 -208 65.5t-72 194.5q0 168 95.5 269.5t258.5 101.5zM2120 66q90 0 136 69t46 191q0 79 -33 124.5t-98 45.5q-93 0 -141 -71t-48 -187q0 -82 36 -127t102 -45z" />
    <glyph glyph-name="guilsinglleft" unicode="&#x2039;" horiz-adv-x="692" 
d="M301 512q48 -173 131 -389q-57 -29 -143 -37q-102 206 -180 426q95 180 233 383q31 12 84.5 21.5t95.5 9.5q-129 -221 -221 -414z" />
    <glyph glyph-name="guilsinglright" unicode="&#x203a;" horiz-adv-x="686" 
d="M309 512q-40 151 -123 377q25 17 65.5 29t74.5 12q129 -273 174 -418q-97 -179 -264 -426q-31 1 -71.5 14.5t-60.5 28.5q128 221 205 383z" />
    <glyph glyph-name="uni203E" unicode="&#x203e;" horiz-adv-x="1024" 
d="M-2 1481h1030q6 -37 6 -86q0 -19 -2 -35h-1050q0 71 16 121z" />
    <glyph glyph-name="fraction" unicode="&#x2044;" horiz-adv-x="229" 
d="M723 1405l-1094 -1462q-25 6 -56.5 28t-43.5 41l1077 1413q62 0 117 -20z" />
    <glyph glyph-name="uni2070" unicode="&#x2070;" horiz-adv-x="788" 
d="M414 1579q266 0 266 -322q0 -72 -12 -140t-40 -133t-69 -113t-104.5 -77.5t-141.5 -29.5q-264 0 -264 328q0 71 12 138t39.5 131t68.5 112t104 77t141 29zM334 866q54 0 93 38.5t58.5 100t28 121.5t8.5 119q0 232 -127 232q-45 0 -79.5 -26.5t-55 -67t-33.5 -94
t-17.5 -100t-4.5 -93.5q0 -230 129 -230z" />
    <glyph glyph-name="uni2074" unicode="&#x2074;" horiz-adv-x="788" 
d="M559 983l-14 -201q-30 -6 -82 -6q-42 0 -66 6l19 201h-371l10 98l373 484h180l-41 -467h109q2 -12 2 -35q0 -40 -8 -80h-111zM424 1098l27 227q9 73 20 121h-8l-256 -342v-8q29 2 90 2h127z" />
    <glyph glyph-name="uni2075" unicode="&#x2075;" horiz-adv-x="788" 
d="M319 1427l-22 -159q58 10 104 10q242 0 242 -217q0 -146 -101 -221.5t-268 -75.5q-120 0 -194 22q-17 50 -17 105q0 19 5 39q120 -49 225 -49q79 0 131.5 38t52.5 123q0 70 -40 99.5t-115 29.5q-96 0 -191 -18l74 412h487q-3 -75 -24 -138h-349z" />
    <glyph glyph-name="uni2076" unicode="&#x2076;" horiz-adv-x="788" 
d="M244 1202h10q44 86 180 86q112 0 170 -60t58 -167q0 -136 -90.5 -216.5t-239.5 -80.5q-136 0 -202.5 73.5t-66.5 223.5q0 99 29 191t83.5 165.5t140 117.5t190.5 44q100 0 158 -20q14 -32 14 -78q0 -40 -6 -64q-31 17 -84 29t-99 12q-91 0 -155.5 -63.5t-89.5 -192.5z
M236 1112q-7 -51 -7 -80q0 -168 119 -168q69 0 110.5 55t41.5 130q0 63 -31 96t-90 33q-74 0 -143 -66z" />
    <glyph glyph-name="uni2077" unicode="&#x2077;" horiz-adv-x="788" 
d="M721 1565l-12 -127q-122 -161 -206 -317t-157 -339q-43 -6 -92 -6q-48 0 -92 6q136 307 401 637v11h-293q-1 -14 -11.5 -45.5t-18.5 -47.5q-61 -14 -129 -14l22 242h588z" />
    <glyph glyph-name="uni2078" unicode="&#x2078;" horiz-adv-x="788" 
d="M666 1403q0 -62 -40 -114t-98 -81v-10q121 -67 121 -180q0 -126 -93 -190t-243 -64q-75 0 -134 15.5t-101.5 60.5t-42.5 116q0 74 49 136.5t125 89.5v10q-98 61 -98 160q0 78 43 131t108 74.5t148 21.5q105 0 180.5 -44.5t75.5 -131.5zM326 866q63 0 110 31.5t47 97.5
q0 51 -46.5 84t-133.5 66q-44 -25 -75 -69t-31 -99q0 -111 129 -111zM399 1485q-51 0 -90 -27t-39 -80q0 -42 41 -69.5t119 -55.5q80 59 80 140q0 92 -111 92z" />
    <glyph glyph-name="uni2079" unicode="&#x2079;" horiz-adv-x="788" 
d="M494 1149h-11q-44 -86 -178 -86q-110 0 -167.5 58t-57.5 161q0 136 90.5 216.5t237.5 80.5q133 0 199.5 -75.5t66.5 -221.5q0 -102 -27.5 -193t-80.5 -164.5t-141 -117t-200 -43.5q-101 0 -159 20q-15 38 -15 84q0 34 6 58q30 -17 85 -28t104 -11q210 0 248 262z
M504 1239q6 43 6 80q0 168 -119 168q-68 0 -109.5 -55t-41.5 -129q0 -63 31.5 -96t88.5 -33q76 0 144 65z" />
    <glyph glyph-name="uni2080" unicode="&#x2080;" horiz-adv-x="788" 
d="M426 610q266 0 266 -321q0 -92 -20 -175.5t-61 -157t-114.5 -117.5t-170.5 -44q-265 0 -265 328q0 71 12 138t39.5 131t68.5 112t104 77t141 29zM346 -102q43 0 77.5 26.5t55 66.5t33.5 92.5t18 99.5t5 93q0 232 -127 232q-55 0 -95 -38.5t-59.5 -101t-28 -122
t-8.5 -119.5q0 -229 129 -229z" />
    <glyph glyph-name="uni2081" unicode="&#x2081;" horiz-adv-x="788" 
d="M133 -190q7 49 37 96q43 10 129 18l55 553l-176 -16q8 63 35 108q108 30 303 41l-57 -690q81 -4 143 -12q6 -21 6 -53q0 -25 -4 -45h-471z" />
    <glyph glyph-name="uni2082" unicode="&#x2082;" horiz-adv-x="788" 
d="M80 -190l12 122q29 28 91 76t114.5 91t105.5 94t84 106.5t31 108.5q0 49 -27.5 69.5t-91.5 20.5t-125 -35l-4 -113q-41 -14 -114 -14q-6 95 -6 209q130 65 272 65q260 0 260 -186q0 -52 -24 -106t-58.5 -97t-85.5 -90t-90 -76.5t-88 -66t-66 -49.5v-11q163 0 396 17
q-3 -65 -21 -135h-565z" />
    <glyph glyph-name="uni2083" unicode="&#x2083;" horiz-adv-x="788" 
d="M203 158q0 61 20 108q289 0 289 148q0 28 -10.5 46.5t-29.5 27t-37.5 11.5t-43.5 3q-49 0 -116.5 -14t-116.5 -39q3 60 35 120q89 41 210 41q119 0 195 -42.5t76 -133.5q0 -79 -57.5 -138.5t-143.5 -66.5v-10q80 -6 132 -51t52 -125q0 -84 -52 -141.5t-131 -82
t-179 -24.5q-115 0 -195 23q-14 43 -14 106q0 23 2 37q46 -18 114 -33.5t124 -15.5q74 0 120 28.5t46 88.5q0 73 -64.5 101t-224.5 28z" />
    <glyph glyph-name="uni2084" unicode="&#x2084;" horiz-adv-x="788" 
d="M571 14l-14 -200q-35 -7 -82 -7q-37 0 -65 7l18 200h-371l11 99l372 483h181l-41 -467h108q2 -12 2 -35q0 -40 -8 -80h-111zM436 129l27 227q9 73 20 121h-8l-256 -342v-8q29 2 90 2h127z" />
    <glyph glyph-name="uni2085" unicode="&#x2085;" horiz-adv-x="788" 
d="M332 459l-23 -160q58 10 105 10q241 0 241 -217q0 -146 -100.5 -221.5t-267.5 -75.5q-118 0 -195 23q-16 47 -16 104q0 23 4 39q120 -49 225 -49q79 0 131.5 38.5t52.5 123.5q0 70 -40 99.5t-115 29.5q-90 0 -191 -19l74 412h488q-3 -70 -25 -137h-348z" />
    <glyph glyph-name="uni2086" unicode="&#x2086;" horiz-adv-x="788" 
d="M256 233h10q44 86 180 86q112 0 170 -60t58 -167q0 -136 -90.5 -216.5t-239.5 -80.5q-136 0 -202 73.5t-66 223.5q0 99 29 191t83 165.5t139.5 117.5t190.5 44q100 0 158 -20q14 -32 14 -78q0 -39 -6 -63q-30 17 -83 28.5t-99 11.5q-91 0 -156 -63.5t-90 -192.5zM248 143
q-6 -44 -6 -80q0 -167 118 -167q69 0 110.5 54.5t41.5 129.5q0 63 -31 96t-90 33q-74 0 -143 -66z" />
    <glyph glyph-name="uni2087" unicode="&#x2087;" horiz-adv-x="788" 
d="M733 596l-12 -127q-122 -161 -206 -316.5t-157 -338.5q-51 -7 -92 -7t-92 7q136 307 401 637v10h-292q-4 -37 -31 -92q-66 -15 -129 -15l22 242h588z" />
    <glyph glyph-name="uni2088" unicode="&#x2088;" horiz-adv-x="788" 
d="M678 434q0 -62 -39.5 -113.5t-97.5 -80.5v-11q121 -67 121 -180q0 -126 -93 -190t-243 -64q-55 0 -102 9.5t-88.5 30.5t-65 60t-23.5 93q0 74 49 136t125 89v10q-98 61 -98 160q0 78 43 131t108 74.5t148 21.5q105 0 180.5 -44.5t75.5 -131.5zM338 -102q63 0 110.5 31.5
t47.5 97.5q0 27 -14 49.5t-43.5 41t-55.5 30.5t-68 28q-44 -25 -75 -69t-31 -99q0 -110 129 -110zM412 516q-51 0 -90 -26.5t-39 -79.5q0 -42 40.5 -70t118.5 -55q80 59 80 139q0 92 -110 92z" />
    <glyph glyph-name="uni2089" unicode="&#x2089;" horiz-adv-x="788" 
d="M506 180h-10q-44 -86 -179 -86q-110 0 -167.5 58t-57.5 161q0 136 90.5 216.5t237.5 80.5q133 0 199.5 -75.5t66.5 -221.5q0 -81 -16.5 -155.5t-52.5 -141t-87.5 -115.5t-126.5 -77.5t-165 -28.5q-99 0 -160 21q-15 38 -15 84q0 29 7 57q30 -17 85 -28t103 -11
q210 0 248 262zM516 270q6 44 6 80q0 168 -119 168q-68 0 -109.5 -55t-41.5 -129q0 -62 31.5 -95.5t89.5 -33.5q75 0 143 65z" />
    <glyph glyph-name="Euro" unicode="&#x20ac;" horiz-adv-x="1177" 
d="M791 580h-740q0 47 21 104h137q67 191 220.5 307.5t348.5 116.5q165 0 283 -80q0 -147 -51 -252q-29 0 -67.5 8t-59.5 19l16 145q-66 39 -141 39q-130 0 -226 -80t-139 -223h404q6 -45 -6 -104zM772 334h-393q29 -108 104.5 -162.5t188.5 -54.5q135 0 303 53
q0 -26 -11.5 -67.5t-25.5 -63.5q-69 -34 -165.5 -57t-182.5 -23q-169 0 -279 103.5t-137 271.5h-147q0 50 20 104h731q6 -45 -6 -104z" />
    <glyph glyph-name="afii61289" unicode="&#x2113;" horiz-adv-x="1015" 
d="M233 541l46 442q11 107 46 190t85 132.5t108 74.5t121 25q94 0 153.5 -62.5t59.5 -183.5q0 -352 -459 -680q-18 -106 -18 -198q0 -185 141 -185q72 0 125.5 26.5t110.5 92.5q17 -9 40 -27.5t35 -33.5q-129 -189 -338 -189q-128 0 -205 71t-77 218q0 62 10 127
q-98 -53 -111 -59q-16 49 -16 133q99 56 143 86zM410 651q146 117 214 235t68 255q0 71 -24 107t-62 36q-61 0 -105 -72t-57 -213z" />
    <glyph glyph-name="afii61352" unicode="&#x2116;" horiz-adv-x="2064" 
d="M1636 365q-117 0 -177 65.5t-60 192.5q0 158 71 262q46 69 118.5 107t160.5 38q115 0 177.5 -65t62.5 -191q0 -79 -25 -156.5t-66 -134.5q-89 -118 -262 -118zM1661 465q72 0 129 86q49 73 49 211q0 170 -108 170q-46 0 -84 -26.5t-60 -71.5q-39 -79 -39 -189
q0 -180 113 -180zM1929 154h-563q0 61 23 120h546q7 -55 -6 -120zM539 1067l292 -711q42 -96 62 -209h14l84 795q-97 4 -157 14q-2 23 1.5 59t10.5 52h422q0 -17 -7.5 -56t-13.5 -59q-54 -6 -125 -10l-100 -938l-219 -27l-336 828q-30 78 -39 113h-14l-84 -787
q68 -6 147 -25q11 -55 0 -106h-454q3 19 14.5 50t21.5 48q51 28 129 43l95 801q-69 3 -133 14q-2 24 0.5 59.5t9.5 51.5h379z" />
    <glyph glyph-name="trademark" unicode="&#x2122;" horiz-adv-x="1769" 
d="M1036 838h-276q4 39 22 71q41 11 84 15l47 407q-73 6 -92 10q0 53 8 80h267l94 -356q19 -70 22 -143h11q28 90 55 143l178 356h252q0 -44 -12 -80q-54 -8 -90 -8l-33 -409q59 -3 98 -15q4 -38 -4 -71h-319q4 39 22 71q41 11 84 15l43 409h-10q-17 -71 -68 -174l-157 -332
h-132l-90 334q-23 87 -26 172h-10l-39 -411q36 0 75 -11q5 -42 -4 -73zM506 1339l-33 -413q61 -3 117 -15q2 -11 1 -36.5t-5 -36.5h-369q4 32 25 71q43 11 102 15l43 415h-121q-14 -79 -30 -118q-31 -15 -82 -15l22 215h569l-20 -213q-47 0 -84 6q-8 49 -8 125h-127z" />
    <glyph glyph-name="Omega" unicode="&#x2126;" horiz-adv-x="1591" 
d="M838 0l12 131q147 82 246.5 279t99.5 436q0 99 -20.5 183.5t-62.5 153.5t-113.5 108.5t-165.5 39.5q-97 0 -177 -38.5t-134.5 -103.5t-91.5 -153t-54 -184.5t-17 -200.5q0 -172 61 -308t159 -212l-13 -131h-600l31 313q73 0 127 -12q10 -68 10 -156h258v15
q-98 64 -160.5 196t-62.5 310q0 359 187 577.5t489 218.5q250 0 396.5 -162.5t146.5 -431.5q0 -122 -30.5 -240t-80 -209.5t-112 -159t-128.5 -99.5v-15h275q12 70 37 160q61 14 133 14l-29 -319h-616z" />
    <glyph glyph-name="estimated" unicode="&#x212e;" horiz-adv-x="1800" 
d="M1712 666h-1296q-10 0 -10 -9v-391q0 -27 18 -45q92 -101 219.5 -158t271.5 -57q153 0 286 63.5t231 176.5h114q-109 -131 -275.5 -206t-357.5 -75q-163 0 -312 57t-256 153.5t-170.5 229.5t-63.5 279q0 148 63.5 282.5t170.5 232t255.5 155t312.5 57.5q163 0 311 -57.5
t255 -155t170 -232t63 -282.5v-18zM1421 723v389q0 30 -22 49q-94 97 -219 151t-265 54q-143 0 -269 -56t-220 -157q-20 -14 -20 -49v-381q0 -10 10 -10h997q8 0 8 10z" />
    <glyph glyph-name="uni2150" unicode="&#x2150;" horiz-adv-x="1806" 
d="M121 584q7 49 37 96q43 10 129 18l55 553l-176 -16q8 63 35 108q108 30 303 41l-58 -690q83 -4 144 -12q6 -21 6 -53q0 -25 -4 -45h-471zM1511 1405l-1093 -1462q-26 6 -57.5 28t-43.5 41l1078 1413q61 0 116 -20zM1739 786l-13 -127q-122 -160 -205.5 -315.5
t-156.5 -339.5q-44 -6 -92 -6t-92 6q136 307 401 637v10h-293q-4 -37 -31 -92q-61 -14 -129 -14l23 241h588z" />
    <glyph glyph-name="uni2151" unicode="&#x2151;" horiz-adv-x="1806" 
d="M121 584q7 49 37 96q43 10 129 18l55 553l-176 -16q8 63 35 108q108 30 303 41l-58 -690q83 -4 144 -12q6 -21 6 -53q0 -25 -4 -45h-471zM1511 1405l-1093 -1462q-26 6 -57.5 28t-43.5 41l1078 1413q61 0 116 -20zM1511 371h-10q-44 -86 -178 -86q-110 0 -167.5 58
t-57.5 161q0 136 90 216.5t237 80.5q133 0 200 -75.5t67 -221.5q0 -102 -27.5 -193t-80.5 -164.5t-141 -117t-200 -43.5q-102 0 -160 20q-14 35 -14 84q0 33 6 57q30 -17 85 -27.5t104 -10.5q209 0 247 262zM1522 461q6 43 6 80q0 168 -119 168q-68 0 -110 -55.5t-42 -129.5
q0 -62 31.5 -95.5t89.5 -33.5q75 0 144 66z" />
    <glyph glyph-name="uni2152" unicode="&#x2152;" horiz-adv-x="2492" 
d="M121 584q7 49 37 96q43 10 129 18l55 553l-176 -16q8 63 35 108q108 30 303 41l-58 -690q83 -4 144 -12q6 -21 6 -53q0 -25 -4 -45h-471zM1511 1405l-1093 -1462q-26 6 -57.5 28t-43.5 41l1078 1413q61 0 116 -20zM1139 0q7 49 37 96q49 12 129 19l55 553l-176 -17
q8 64 35 109q108 30 303 41l-58 -690q71 -3 144 -13q6 -21 6 -53q0 -25 -4 -45h-471zM2118 801q266 0 266 -322q0 -72 -12 -140t-40 -133t-69 -113t-104.5 -77.5t-141.5 -29.5q-264 0 -264 327q0 71 12 138t39.5 131.5t68.5 112.5t104 77t141 29zM2038 88q54 0 93 38.5
t58.5 100t28 121.5t8.5 119q0 231 -127 231q-45 0 -79.5 -26.5t-55 -67t-33.5 -94t-17.5 -100t-4.5 -93.5q0 -229 129 -229z" />
    <glyph glyph-name="onethird" unicode="&#x2153;" horiz-adv-x="1806" 
d="M121 584q7 49 37 96q43 10 129 18l55 553l-176 -16q8 63 35 108q108 30 303 41l-58 -690q83 -4 144 -12q6 -21 6 -53q0 -25 -4 -45h-471zM1511 1405l-1093 -1462q-26 6 -57.5 28t-43.5 41l1078 1413q61 0 116 -20zM1208 348q0 60 21 109q289 0 289 147q0 28 -10.5 46.5
t-29.5 27t-37.5 11.5t-43.5 3q-49 0 -117 -14t-117 -39q3 61 35 121q89 41 211 41q119 0 194.5 -42.5t75.5 -133.5q0 -79 -57 -138.5t-143 -66.5v-10q79 -6 131.5 -51.5t52.5 -125.5q0 -84 -52.5 -141.5t-131.5 -81.5t-179 -24q-117 0 -194 22q-14 43 -14 107q0 23 2 37
q128 -50 237 -50q74 0 120 28.5t46 88.5q0 73 -64.5 101t-224.5 28z" />
    <glyph glyph-name="twothirds" unicode="&#x2154;" horiz-adv-x="1806" 
d="M68 584l12 123q30 28 91.5 76t114 90.5t105.5 94t84 106.5t31 108q0 49 -27.5 69.5t-91.5 20.5t-125 -35l-4 -113q-41 -14 -115 -14q-6 95 -6 209q130 65 273 65q260 0 260 -186q0 -52 -24 -106t-58.5 -97t-85.5 -90t-90 -76.5t-88 -66t-66 -49.5v-11q162 0 395 17
q-3 -70 -20 -135h-565zM1511 1405l-1093 -1462q-26 6 -57.5 28t-43.5 41l1078 1413q61 0 116 -20zM1208 348q0 60 21 109q289 0 289 147q0 28 -10.5 46.5t-29.5 27t-37.5 11.5t-43.5 3q-49 0 -117 -14t-117 -39q3 61 35 121q89 41 211 41q119 0 194.5 -42.5t75.5 -133.5
q0 -79 -57 -138.5t-143 -66.5v-10q79 -6 131.5 -51.5t52.5 -125.5q0 -84 -52.5 -141.5t-131.5 -81.5t-179 -24q-117 0 -194 22q-14 43 -14 107q0 23 2 37q128 -50 237 -50q74 0 120 28.5t46 88.5q0 73 -64.5 101t-224.5 28z" />
    <glyph glyph-name="uni2155" unicode="&#x2155;" horiz-adv-x="1806" 
d="M121 584q7 49 37 96q43 10 129 18l55 553l-176 -16q8 63 35 108q108 30 303 41l-58 -690q83 -4 144 -12q6 -21 6 -53q0 -25 -4 -45h-471zM1511 1405l-1093 -1462q-26 6 -57.5 28t-43.5 41l1078 1413q61 0 116 -20zM1337 649l-22 -160q64 11 104 11q242 0 242 -217
q0 -146 -101 -221.5t-268 -75.5q-120 0 -194 22q-17 50 -17 105q0 23 4 39q123 -50 226 -50q79 0 131.5 38.5t52.5 123.5q0 70 -40.5 99.5t-115.5 29.5q-95 0 -190 -18l74 411h487q-3 -74 -24 -137h-349z" />
    <glyph glyph-name="uni2156" unicode="&#x2156;" horiz-adv-x="1806" 
d="M68 584l12 123q30 28 91.5 76t114 90.5t105.5 94t84 106.5t31 108q0 49 -27.5 69.5t-91.5 20.5t-125 -35l-4 -113q-41 -14 -115 -14q-6 95 -6 209q130 65 273 65q260 0 260 -186q0 -52 -24 -106t-58.5 -97t-85.5 -90t-90 -76.5t-88 -66t-66 -49.5v-11q162 0 395 17
q-3 -70 -20 -135h-565zM1511 1405l-1093 -1462q-26 6 -57.5 28t-43.5 41l1078 1413q61 0 116 -20zM1337 649l-22 -160q64 11 104 11q242 0 242 -217q0 -146 -101 -221.5t-268 -75.5q-120 0 -194 22q-17 50 -17 105q0 23 4 39q123 -50 226 -50q79 0 131.5 38.5t52.5 123.5
q0 70 -40.5 99.5t-115.5 29.5q-95 0 -190 -18l74 411h487q-3 -74 -24 -137h-349z" />
    <glyph glyph-name="uni2157" unicode="&#x2157;" horiz-adv-x="1806" 
d="M190 932q0 58 21 108q289 0 289 148q0 28 -10.5 46.5t-29.5 27t-37.5 11.5t-43.5 3q-49 0 -117 -14t-117 -39q3 60 35 120q89 41 211 41q119 0 195 -42.5t76 -133.5q0 -78 -57.5 -137.5t-143.5 -66.5v-11q80 -6 132 -51t52 -125q0 -84 -52 -141.5t-131 -82t-179 -24.5
q-115 0 -195 23q-14 43 -14 106q0 23 2 37q46 -18 113.5 -33.5t123.5 -15.5q74 0 120 28.5t46 88.5q0 73 -64.5 101t-224.5 28zM1511 1405l-1093 -1462q-26 6 -57.5 28t-43.5 41l1078 1413q61 0 116 -20zM1337 649l-22 -160q64 11 104 11q242 0 242 -217q0 -146 -101 -221.5
t-268 -75.5q-120 0 -194 22q-17 50 -17 105q0 23 4 39q123 -50 226 -50q79 0 131.5 38.5t52.5 123.5q0 70 -40.5 99.5t-115.5 29.5q-95 0 -190 -18l74 411h487q-3 -74 -24 -137h-349z" />
    <glyph glyph-name="uni2158" unicode="&#x2158;" horiz-adv-x="1806" 
d="M559 788l-14 -200q-30 -6 -82 -6q-42 0 -66 6l19 200h-371l10 99l373 483h180l-41 -467h109q2 -12 2 -35q0 -40 -8 -80h-111zM424 903l27 227q9 73 20 121h-8l-256 -342v-8q29 2 90 2h127zM1511 1405l-1093 -1462q-26 6 -57.5 28t-43.5 41l1078 1413q61 0 116 -20z
M1337 649l-22 -160q64 11 104 11q242 0 242 -217q0 -146 -101 -221.5t-268 -75.5q-120 0 -194 22q-17 50 -17 105q0 23 4 39q123 -50 226 -50q79 0 131.5 38.5t52.5 123.5q0 70 -40.5 99.5t-115.5 29.5q-95 0 -190 -18l74 411h487q-3 -74 -24 -137h-349z" />
    <glyph glyph-name="uni2159" unicode="&#x2159;" horiz-adv-x="1806" 
d="M121 584q7 49 37 96q43 10 129 18l55 553l-176 -16q8 63 35 108q108 30 303 41l-58 -690q83 -4 144 -12q6 -21 6 -53q0 -25 -4 -45h-471zM1511 1405l-1093 -1462q-26 6 -57.5 28t-43.5 41l1078 1413q61 0 116 -20zM1262 424h10q44 86 180 86q112 0 169.5 -60t57.5 -167
q0 -136 -90 -216.5t-239 -80.5q-136 0 -202.5 73.5t-66.5 223.5q0 99 29 191t83.5 165.5t140 117.5t190.5 44q96 0 157 -21q15 -34 15 -78q0 -39 -6 -63q-31 17 -84 29t-99 12q-91 0 -155.5 -63.5t-89.5 -192.5zM1253 334q-6 -43 -6 -80q0 -168 119 -168q69 0 110.5 54.5
t41.5 129.5q0 63 -31 96t-90 33q-76 0 -144 -65z" />
    <glyph glyph-name="uni215A" unicode="&#x215a;" horiz-adv-x="1806" 
d="M319 1233l-22 -160q58 10 104 10q242 0 242 -217q0 -146 -101 -221.5t-268 -75.5q-117 0 -194 23q-17 50 -17 104q0 19 5 39q120 -49 225 -49q79 0 131.5 38.5t52.5 123.5q0 70 -40 99.5t-115 29.5q-90 0 -191 -19l74 412h487q-3 -74 -24 -137h-349zM1511 1405
l-1093 -1462q-26 6 -57.5 28t-43.5 41l1078 1413q61 0 116 -20zM1262 424h10q44 86 180 86q112 0 169.5 -60t57.5 -167q0 -136 -90 -216.5t-239 -80.5q-136 0 -202.5 73.5t-66.5 223.5q0 99 29 191t83.5 165.5t140 117.5t190.5 44q96 0 157 -21q15 -34 15 -78q0 -39 -6 -63
q-31 17 -84 29t-99 12q-91 0 -155.5 -63.5t-89.5 -192.5zM1253 334q-6 -43 -6 -80q0 -168 119 -168q69 0 110.5 54.5t41.5 129.5q0 63 -31 96t-90 33q-76 0 -144 -65z" />
    <glyph glyph-name="oneeighth" unicode="&#x215b;" horiz-adv-x="1806" 
d="M121 584q7 49 37 96q43 10 129 18l55 553l-176 -16q8 63 35 108q108 30 303 41l-58 -690q83 -4 144 -12q6 -21 6 -53q0 -25 -4 -45h-471zM1511 1405l-1093 -1462q-26 6 -57.5 28t-43.5 41l1078 1413q61 0 116 -20zM1683 625q0 -62 -40 -114t-97 -81v-10q121 -67 121 -180
q0 -126 -93 -190t-243 -64q-75 0 -134 15.5t-101.5 60.5t-42.5 116q0 74 49 136t125 89v11q-46 29 -72.5 66t-26.5 93q0 59 24 104.5t66.5 71.5t95 39t113.5 13q105 0 180.5 -44.5t75.5 -131.5zM1343 88q63 0 110.5 31.5t47.5 97.5q0 51 -46.5 84t-133.5 66
q-44 -25 -75.5 -69t-31.5 -99q0 -111 129 -111zM1417 707q-51 0 -90 -27t-39 -80q0 -42 41 -69.5t119 -55.5q80 59 80 139q0 93 -111 93z" />
    <glyph glyph-name="threeeighths" unicode="&#x215c;" horiz-adv-x="1806" 
d="M190 932q0 58 21 108q289 0 289 148q0 28 -10.5 46.5t-29.5 27t-37.5 11.5t-43.5 3q-49 0 -117 -14t-117 -39q3 60 35 120q89 41 211 41q119 0 195 -42.5t76 -133.5q0 -78 -57.5 -137.5t-143.5 -66.5v-11q80 -6 132 -51t52 -125q0 -84 -52 -141.5t-131 -82t-179 -24.5
q-115 0 -195 23q-14 43 -14 106q0 23 2 37q46 -18 113.5 -33.5t123.5 -15.5q74 0 120 28.5t46 88.5q0 73 -64.5 101t-224.5 28zM1511 1405l-1093 -1462q-26 6 -57.5 28t-43.5 41l1078 1413q61 0 116 -20zM1683 625q0 -62 -40 -114t-97 -81v-10q121 -67 121 -180
q0 -126 -93 -190t-243 -64q-75 0 -134 15.5t-101.5 60.5t-42.5 116q0 74 49 136t125 89v11q-46 29 -72.5 66t-26.5 93q0 59 24 104.5t66.5 71.5t95 39t113.5 13q105 0 180.5 -44.5t75.5 -131.5zM1343 88q63 0 110.5 31.5t47.5 97.5q0 51 -46.5 84t-133.5 66
q-44 -25 -75.5 -69t-31.5 -99q0 -111 129 -111zM1417 707q-51 0 -90 -27t-39 -80q0 -42 41 -69.5t119 -55.5q80 59 80 139q0 93 -111 93z" />
    <glyph glyph-name="fiveeighths" unicode="&#x215d;" horiz-adv-x="1806" 
d="M319 1233l-22 -160q58 10 104 10q242 0 242 -217q0 -146 -101 -221.5t-268 -75.5q-117 0 -194 23q-17 50 -17 104q0 19 5 39q120 -49 225 -49q79 0 131.5 38.5t52.5 123.5q0 70 -40 99.5t-115 29.5q-90 0 -191 -19l74 412h487q-3 -74 -24 -137h-349zM1511 1405
l-1093 -1462q-26 6 -57.5 28t-43.5 41l1078 1413q61 0 116 -20zM1683 625q0 -62 -40 -114t-97 -81v-10q121 -67 121 -180q0 -126 -93 -190t-243 -64q-75 0 -134 15.5t-101.5 60.5t-42.5 116q0 74 49 136t125 89v11q-46 29 -72.5 66t-26.5 93q0 59 24 104.5t66.5 71.5t95 39
t113.5 13q105 0 180.5 -44.5t75.5 -131.5zM1343 88q63 0 110.5 31.5t47.5 97.5q0 51 -46.5 84t-133.5 66q-44 -25 -75.5 -69t-31.5 -99q0 -111 129 -111zM1417 707q-51 0 -90 -27t-39 -80q0 -42 41 -69.5t119 -55.5q80 59 80 139q0 93 -111 93z" />
    <glyph glyph-name="seveneighths" unicode="&#x215e;" horiz-adv-x="1683" 
d="M721 1370l-12 -127q-122 -161 -206 -316.5t-157 -338.5q-43 -6 -92 -6q-48 0 -92 6q136 307 401 637v10h-293q-1 -14 -11.5 -45t-18.5 -47q-66 -15 -129 -15l22 242h588zM1389 1405l-1094 -1462q-25 6 -56.5 28t-43.5 41l1077 1413q62 0 117 -20zM1561 625
q0 -62 -40 -114t-98 -81v-10q121 -67 121 -180q0 -126 -93 -190t-243 -64q-75 0 -134 15.5t-101.5 60.5t-42.5 116q0 74 49 136t125 89v11q-98 61 -98 159q0 59 24 104.5t66.5 71.5t95 39t113.5 13q105 0 180.5 -44.5t75.5 -131.5zM1221 88q63 0 110 31.5t47 97.5
q0 51 -46.5 84t-133.5 66q-44 -25 -75 -69t-31 -99q0 -111 129 -111zM1294 707q-51 0 -90 -27t-39 -80q0 -42 41 -69.5t119 -55.5q80 59 80 139q0 93 -111 93z" />
    <glyph glyph-name="uni215F" unicode="&#x215f;" horiz-adv-x="1017" 
d="M121 584q7 49 37 96q43 10 129 18l55 553l-176 -16q8 63 35 108q108 30 303 41l-58 -690q83 -4 144 -12q6 -21 6 -53q0 -25 -4 -45h-471zM1511 1405l-1093 -1462q-26 6 -57.5 28t-43.5 41l1078 1413q61 0 116 -20z" />
    <glyph glyph-name="uni2189" unicode="&#x2189;" horiz-adv-x="1806" 
d="M414 1384q266 0 266 -321q0 -91 -20 -175t-61.5 -157.5t-115 -117.5t-170.5 -44q-264 0 -264 328q0 71 12 138t39.5 131t68.5 112t104 77t141 29zM334 672q54 0 93 38.5t58.5 100t28 121.5t8.5 119q0 231 -127 231q-45 0 -79.5 -26.5t-55 -67t-33.5 -94t-17.5 -100
t-4.5 -93.5q0 -229 129 -229zM1511 1405l-1093 -1462q-26 6 -57.5 28t-43.5 41l1078 1413q61 0 116 -20zM1208 348q0 60 21 109q289 0 289 147q0 28 -10.5 46.5t-29.5 27t-37.5 11.5t-43.5 3q-49 0 -117 -14t-117 -39q3 61 35 121q89 41 211 41q119 0 194.5 -42.5
t75.5 -133.5q0 -79 -57 -138.5t-143 -66.5v-10q79 -6 131.5 -51.5t52.5 -125.5q0 -84 -52.5 -141.5t-131.5 -81.5t-179 -24q-117 0 -194 22q-14 43 -14 107q0 23 2 37q128 -50 237 -50q74 0 120 28.5t46 88.5q0 73 -64.5 101t-224.5 28z" />
    <glyph glyph-name="partialdiff" unicode="&#x2202;" horiz-adv-x="1097" 
d="M813 866q0 111 -20 197.5t-53 141.5t-80.5 90t-98.5 49t-110 14q-54 0 -122.5 -19.5t-119.5 -46.5q-3 38 10 92t33 89q105 43 235 43q99 0 185 -39t155.5 -116t109.5 -205t40 -292q0 -132 -19.5 -257.5t-62.5 -242t-105 -204t-155 -139.5t-205 -52q-179 0 -283 97.5
t-104 267.5q0 146 58.5 274t169 208.5t247.5 80.5q105 0 180 -42.5t99 -98.5h14q2 37 2 110zM545 760q-80 0 -144.5 -35.5t-104 -96t-60.5 -136.5t-21 -160q0 -112 54.5 -175t158.5 -63q80 0 145 45.5t108 124.5t70 169.5t42 195.5q-96 131 -248 131z" />
    <glyph glyph-name="Delta" unicode="&#x2206;" horiz-adv-x="1255" 
d="M621 1442h159l367 -1323l-8 -119h-1170l8 96zM170 127h762l-213 827q-53 199 -53 295h-15q-24 -95 -112 -288z" />
    <glyph glyph-name="product" unicode="&#x220f;" horiz-adv-x="1568" 
d="M1507 -344h-528q2 37 22 108q62 19 146 27v1501h-725v-1503q112 -8 166 -20q6 -18 7.5 -57.5t-1.5 -55.5h-528q2 37 22 108q67 19 152 27v1495q-93 4 -148 12q-4 20 -5.5 62.5t1.5 60.5h1407q3 -19 1.5 -58.5t-5.5 -59.5q-62 -13 -162 -17v-1497q119 -9 172 -20
q8 -31 8 -80q0 -23 -2 -33z" />
    <glyph glyph-name="summation" unicode="&#x2211;" horiz-adv-x="1239" 
d="M47 -344v129l588 741l-551 774v121h1079v-331q-67 0 -123 16q-24 100 -28 186h-709v-14q79 -69 176 -211l355 -508l-410 -528q-105 -140 -184 -205v-12h764q7 100 26 194q54 15 135 15v-367h-1118z" />
    <glyph glyph-name="minus" unicode="&#x2212;" 
d="M111 621h901q8 -50 8 -101q0 -25 -2 -41h-926q0 68 19 142z" />
    <glyph glyph-name="uni2219" unicode="&#x2219;" 
d="M588 821q120 0 189 -68.5t69 -197.5q0 -131 -71 -208t-187 -77q-134 0 -200 70.5t-66 214.5q0 115 76.5 190.5t189.5 75.5z" />
    <glyph glyph-name="radical" unicode="&#x221a;" horiz-adv-x="1050" 
d="M29 795l243 59l189 -575q35 -109 53 -242h14q20 120 60 248l407 1306q25 0 73.5 -8t76.5 -16l-522 -1667l-209 -25l-273 803l-131 -33q0 76 19 150z" />
    <glyph glyph-name="infinity" unicode="&#x221e;" horiz-adv-x="1697" 
d="M862 659q221 242 445 242q142 0 218.5 -82.5t76.5 -216.5q0 -112 -49 -207t-140.5 -153t-206.5 -58q-118 0 -213.5 63t-197.5 187q-111 -119 -221 -183.5t-234 -64.5q-141 0 -218 85.5t-77 220.5q0 108 45.5 200.5t137.5 151.5t212 59q119 0 215 -57t207 -187zM721 524
q-177 221 -313 221q-91 0 -152 -59t-61 -154q0 -88 54.5 -144t145.5 -56q87 0 171.5 52.5t154.5 139.5zM936 571q45 -58 75 -92.5t69.5 -69.5t79 -51t83.5 -16q99 0 155 63.5t56 157.5q0 89 -55 141t-144 52q-153 0 -319 -185z" />
    <glyph glyph-name="integral" unicode="&#x222b;" horiz-adv-x="700" 
d="M655 1638q23 -67 23 -141q-50 35 -133 35q-42 0 -72 -16.5t-48 -44t-28.5 -72.5t-14 -92t-3.5 -111q0 -141 22.5 -539.5t22.5 -547.5q0 -78 -9.5 -145t-33 -128t-60 -103.5t-93 -67.5t-128.5 -25q-85 0 -143 28q0 28 12 76t25 74q56 -35 112 -35q86 0 116 77t30 240
q0 151 -23.5 549t-23.5 541q0 100 18.5 183.5t56.5 148t102 101t148 36.5q78 0 125 -21z" />
    <glyph glyph-name="approxequal" unicode="&#x2248;" 
d="M1016 711q-115 -111 -260 -111q-67 0 -125.5 16.5t-94.5 37t-89.5 37t-110.5 16.5q-99 0 -193 -72q-27 49 -39 121q120 96 248 96q63 0 123 -17t99 -37.5t92 -37.5t104 -17q50 0 89.5 17t88.5 55q17 -15 39.5 -49.5t28.5 -54.5zM1016 338q-115 -111 -260 -111
q-67 0 -125.5 16.5t-94.5 37t-89.5 37t-110.5 16.5q-99 0 -193 -72q-27 49 -39 121q120 96 248 96q63 0 123 -17t99 -37t92 -37t104 -17q50 0 89.5 16.5t88.5 54.5q17 -15 39.5 -49.5t28.5 -54.5z" />
    <glyph glyph-name="notequal" unicode="&#x2260;" 
d="M848 948l-90 -149h225q8 -46 8 -94q0 -27 -2 -39h-303l-141 -236h438q8 -46 8 -94q0 -27 -2 -39h-516l-117 -197q-20 6 -52.5 24.5t-45.5 31.5l84 141h-225q0 72 18 133h279l143 236h-440q0 72 18 133h494l104 172q59 0 115 -23z" />
    <glyph glyph-name="lessequal" unicode="&#x2264;" 
d="M926 1149l-557 -385v-14l549 -377q-7 -20 -43 -62t-54 -53l-635 447l7 110l610 432q51 -26 123 -98zM143 131h809q9 -52 9 -92q0 -21 -3 -39h-831q0 54 16 131z" />
    <glyph glyph-name="greaterequal" unicode="&#x2265;" 
d="M922 705l-637 -453q-19 12 -53.5 53t-43.5 62l553 383v14l-567 377q18 19 59.5 50.5t69.5 47.5l612 -426zM156 131h809q8 -46 8 -92q0 -27 -2 -39h-832q0 49 17 131z" />
    <glyph glyph-name="dotmath" unicode="&#x22c5;" 
d="M518 692q62 0 98.5 -36t36.5 -103q0 -68 -37 -109t-98 -41q-139 0 -139 150q0 60 40 99.5t99 39.5z" />
    <glyph glyph-name="H18543" unicode="&#x25aa;" 
d="M23 0l112 973h924l-115 -973h-921z" />
    <glyph glyph-name="H18551" unicode="&#x25ab;" 
d="M33 0l112 973h924l-115 -973h-921zM289 838l-82 -703h606l82 703h-606z" />
    <glyph glyph-name="uni25B8" unicode="&#x25b8;" 
d="M76 -66q6 204 47 558.5t82 545.5q178 -90 464 -264t425 -280q-168 -111 -495.5 -290t-522.5 -270z" />
    <glyph glyph-name="uni25B9" unicode="&#x25b9;" 
d="M74 -66q11 209 51.5 563.5t77.5 540.5q178 -90 464 -264t425 -280q-168 -111 -495.5 -290t-522.5 -270zM250 188q108 50 297 150.5t274 155.5q-72 52 -236 147.5t-261 144.5q-23 -101 -45 -288.5t-29 -309.5z" />
    <glyph glyph-name="uni25C2" unicode="&#x25c2;" 
d="M870 -66q-173 90 -458.5 269.5t-429.5 290.5q165 107 491.5 281t525.5 263q-9 -201 -50 -556t-79 -548z" />
    <glyph glyph-name="uni25C3" unicode="&#x25c3;" 
d="M885 -66q-174 90 -459.5 269.5t-429.5 290.5q165 107 491.5 280.5t526.5 263.5q-11 -201 -52 -556.5t-77 -547.5zM766 188q20 105 42 295t28 303q-107 -47 -295.5 -143t-274.5 -149q73 -56 238.5 -156.5t261.5 -149.5z" />
    </font>
</defs>
</svg>
