
<svg xmlns="http://www.w3.org/2000/svg" version="1.1" xmlns:xlink="http://www.w3.org/1999/xlink" preserveAspectRatio="none" x="0px" y="0px" width="37px" height="78px" viewBox="0 0 37 78">
<defs>
<g id="Layer1_0_FILL">
<path fill="#CCCCCC" stroke="none" d="
M 28.9 6.8
Q 28.55 6.4 28.3 6.05 27.05 4.55 26.6 4.25 24.6203125 2.50859375 22.4 3.15
L 22.35 3.15
Q 20.4 3.5 20.1 6.05 20 6.5 20 7.05 19.95 7.95 20.05 8.75 19.2 9 18.75 9.7 17.65 10.75 18.1 13.2
L 18.1 13.25
Q 18.65 16.4 18.65 16.8 18.3 17.2 16.9 18.3 16.75 18.4 16.6 18.5 16.5 18.55 16.45 18.6 14.65 20.1 13.15 22.95
L 13.1 23
Q 12.15 25 10.3 26.4
L 10.4 26.35
Q 7.8 28 6.7 28.75 1.8 31.95 3.4 37.75 3.45 38.1 5.9 41.8 7.55 44.55 7.9 45.15 7.9 45.2 7.95 45.25
L 7.95 45.3
Q 7.9 46.7 6.4 50.6
L 6.4 50.65
Q 4.2 56.4 4.7 57.9 5.35 61.1 5.8 63
L 5.8 63.05
Q 6.2 64.8 6.4 65.35
L 6.35 65.3
Q 6.65 66.4 7.9 70.95 8.45 74.05 15.25 74.8 20.15 75.35 22.9 74.55 28.8 73.25 30.45 60.95 31 56.85 31.1 44.55
L 31.1 44.5
Q 31.1498046875 41.8142578125 31.65 37.15 31.7 36.8 31.7 36.5 32.25 31.25 32.35 29.95 32.45 28.75 32.15 26.55
L 32.15 26.6
Q 32.1 26.2 31.65 23.5 34.3 21.65 34.4 19 34.5 18.15 33.7 15.25 33.3 13.75 31.25 10.55 30.35 9.15 29.8 8.3 29.3 7.5 29.15 7.15 29.05 6.95 28.9 6.8 Z"/>
</g>

<g id="Layer0_0_FILL">
<path fill="#3C6F7C" stroke="none" d="
M 28.3 6.05
Q 27.05 4.55 26.6 4.25 24.6205078125 2.50859375 22.4 3.15
L 22.35 3.15
Q 20.4 3.5 20.1 6.05 20 6.5 20 7.05 19.95 7.95 20.05 8.75 19.2 9 18.75 9.7 17.65 10.75 18.1 13.2
L 18.1 13.25
Q 18.65 16.4 18.65 16.8 18.3 17.2 16.9 18.3 16.75 18.4 16.6 18.5 16.5 18.55 16.45 18.6 14.65 20.1 13.15 22.95
L 13.1 23
Q 12.15 25 10.3 26.4
L 10.4 26.35
Q 7.8 28 6.7 28.75 1.8 31.95 3.4 37.75 3.45 38.1 5.9 41.8 7.55 44.55 7.9 45.15 7.9 45.2 7.95 45.25
L 7.95 45.3
Q 7.9 46.7 6.4 50.6
L 6.4 50.65
Q 4.2 56.4 4.7 57.9 5.35 61.1 5.8 63
L 5.8 63.05
Q 6.2 64.8 6.4 65.35
L 6.35 65.3
Q 6.65 66.4 7.9 70.95 8.45 74.05 15.25 74.8 20.15 75.35 22.9 74.55 28.8 73.25 30.45 60.95 31 56.85 31.1 44.55
L 31.1 44.5
Q 31.1498046875 41.8142578125 31.65 37.15 31.7 36.8 31.7 36.5 32.25 31.25 32.35 29.95 32.45 28.75 32.15 26.55
L 32.15 26.6
Q 32.1 26.2 31.65 23.5 34.3 21.65 34.4 19 34.5 18.15 33.7 15.25 33.3 13.75 31.25 10.55 30.35 9.15 29.8 8.3 29.3 7.5 29.15 7.15 29.05 6.95 28.9 6.8 28.55 6.4 28.3 6.05
M 25.65 5.4
Q 25.85 5.6 26.3 6.05 26.85 6.65 27.75 7.75 27.95 8.2 28.55 9.1 29.1 9.95 30 11.35 31.9 14.3 32.25 15.65 32.95 18.15 32.9 18.9 32.75 21.2 30 22.75 30.6 26.3 30.65 26.75 30.95 28.75 30.85 29.8 30.75 31.1 30.2 36.35 30.2 36.6 30.15 36.95 29.65 41.75 29.6 44.5 29.5 56.7 28.95 60.75 27.5 71.75 22.5 73.1 19.95 73.8 15.4 73.3 9.95 72.7 9.35 70.55 8.1 66 7.8 64.9 7.7 64.55 7.5 63.7 7.35 63.7 7.25 63.7 6.85 63.7 6.55 63.4 6.25 63.1 6.25 62.7 6.25 62.3 6.55 62
L 7 61.55
Q 6.65 59.9 6.15 57.55 5.85 56.25 7.8 51.15 9.65 46.35 9.4 44.85 9.35 44.8 9.35 44.75 9.25 44.45 7.15 40.95 4.9 37.55 4.85 37.35 3.55 32.6 7.5 30 8.65 29.25 11.2 27.6 13.35 25.95 14.45 23.65 15.5 21.65 16.75 20.4
L 16.7 19.65
Q 16.7 19.2 16.95 18.9 17.2 18.6 17.65 18.55 18.05 18.5 18.35 18.8 18.4 18.85 18.5 18.95 19.55 18.05 19.85 17.7 20.3 17.1 19.55 12.95 19 9.8 22 10.1 21.4 8.9 21.5 7.05 21.5 6.5 21.6 6.05 21.85 4.85 22.75 4.6 24.3 4.2 25.65 5.4 Z"/>

<path fill="#8159F9" stroke="none" d="
M 17.4 41.65
Q 17.4 41.7 17.45 41.8 17.5 42.2 17.3 42.55
L 16.8 43.3
Q 16.6 43.65 16.2 43.75 15.75 43.8 15.45 43.6 15.05 43.4 15 43 14.95 42.8 14.95 42.65
L 12.65 43.55 12.4 43.7 11.3 44.1
Q 11.25 45.4 10.25 48.15 10.2 48.15 10.2 48.2 10.15 48.25 10.15 48.3 9.7 49.65 9.1 51.4 8.7 52.85 8.8 53.4 9.7 57.5 10.05 58.75 10.15 58.7 10.3 58.7 10.7 58.7 11 59 11.3 59.3 11.3 59.7 11.3 60.1 11 60.4
L 10.6 60.8
Q 10.9 61.85 11.3 63.45 11.8 65.2 16 65.65 19.5 66 21.5 65.45 23.2 65 24.35 63.2
L 20.1 58.9
Q 19.8 58.6 19.8 58.2 19.8 57.8 20.1 57.5 20.4 57.2 20.8 57.2 21.2 57.2 21.5 57.5
L 25.3 61.3
Q 26.05 59.15 26.45 55.95 26.7 54.5 26.85 51.7
L 25.9 52.6
Q 25.6 52.9 25.2 52.9 24.8 52.9 24.5 52.6 24.2 52.3 24.2 51.9 24.2 51.5 24.5 51.2
L 26.95 48.75
Q 27 46.35 27.05 43.3 27.05 41.25 27.5 37.55
L 26.15 38.1
Q 26.1 38.4 25.9 38.6 25.55 38.9 25.15 38.9 24.8 38.9 24.6 38.75
L 22.65 39.5 22.55 39.55 22.45 39.55 17.4 41.65
M 19.6 43.2
Q 19.3 42.9 19.3 42.5 19.3 42.1 19.6 41.8 19.9 41.5 20.3 41.5 20.7 41.5 21 41.8
L 25.8 46.65
Q 26.1 46.95 26.1 47.35 26.1 47.75 25.8 48.05 25.5 48.35 25.1 48.35 24.7 48.35 24.4 48.05
L 19.6 43.2
M 10.55 49
Q 10.55 48.6 10.85 48.3 11.15 48 11.55 48 11.95 48 12.25 48.3
L 17.05 53.15
Q 17.35 53.45 17.35 53.85 17.35 54.25 17.05 54.55 16.75 54.85 16.35 54.85 15.95 54.85 15.65 54.55
L 10.85 49.7
Q 10.55 49.4 10.55 49
M 22.3 53.6
Q 22.3 54 22.05 54.3
L 17.2 59.15
Q 16.85 59.45 16.45 59.45 16.05 59.45 15.75 59.2 15.45 58.85 15.45 58.45 15.45 58.05 15.75 57.75
L 20.6 52.9
Q 20.9 52.6 21.3 52.6 21.7 52.6 22 52.9 22.3 53.2 22.3 53.6 Z"/>

<path fill="#000000" stroke="none" d="
M 22.05 54.3
Q 22.3 54 22.3 53.6 22.3 53.2 22 52.9 21.7 52.6 21.3 52.6 20.9 52.6 20.6 52.9
L 15.75 57.75
Q 15.45 58.05 15.45 58.45 15.45 58.85 15.75 59.2 16.05 59.45 16.45 59.45 16.85 59.45 17.2 59.15
L 22.05 54.3
M 10.85 48.3
Q 10.55 48.6 10.55 49 10.55 49.4 10.85 49.7
L 15.65 54.55
Q 15.95 54.85 16.35 54.85 16.75 54.85 17.05 54.55 17.35 54.25 17.35 53.85 17.35 53.45 17.05 53.15
L 12.25 48.3
Q 11.95 48 11.55 48 11.15 48 10.85 48.3
M 19.3 42.5
Q 19.3 42.9 19.6 43.2
L 24.4 48.05
Q 24.7 48.35 25.1 48.35 25.5 48.35 25.8 48.05 26.1 47.75 26.1 47.35 26.1 46.95 25.8 46.65
L 21 41.8
Q 20.7 41.5 20.3 41.5 19.9 41.5 19.6 41.8 19.3 42.1 19.3 42.5
M 16.25 41.05
Q 15.8 41.1 15.6 41.5
L 15.1 42.25
Q 15 42.4 14.95 42.65 14.95 42.8 15 43 15.05 43.4 15.45 43.6 15.75 43.8 16.2 43.75 16.6 43.65 16.8 43.3
L 17.3 42.55
Q 17.5 42.2 17.45 41.8 17.4 41.7 17.4 41.65 17.25 41.35 17 41.15 16.65 40.95 16.25 41.05
M 9.45 63.7
Q 9.15 63.95 9.15 64.35 9.15 64.75 9.45 65.05
L 9.95 65.55 13.05 68.7 14.05 69.7
Q 14.35 70 14.75 70 15.15 70 15.45 69.7 15.7 69.45 15.75 69.15 15.75 69.05 15.75 69 15.75 68.6 15.45 68.3
L 15.35 68.2 14.25 67.1 13.05 65.9 10.9 63.7 10.85 63.65
Q 10.65 63.4 10.35 63.4 10.25 63.35 10.15 63.35 10 63.35 9.85 63.4 9.65 63.45 9.45 63.65
L 9.45 63.7
M 10.2 61.2
L 10.6 60.8 11 60.4
Q 11.3 60.1 11.3 59.7 11.3 59.3 11 59 10.7 58.7 10.3 58.7 10.15 58.7 10.05 58.75 9.8 58.8 9.65 59
L 9.25 59.35 8.9 59.7 8.5 60.1 8.1 60.5 7 61.55 6.55 62
Q 6.25 62.3 6.25 62.7 6.25 63.1 6.55 63.4 6.85 63.7 7.25 63.7 7.35 63.7 7.5 63.7 7.75 63.6 7.95 63.4
L 8.6 62.8 9.05 62.35 9.45 61.95 9.85 61.55 10.2 61.2
M 25.3 61.3
L 21.5 57.5
Q 21.2 57.2 20.8 57.2 20.4 57.2 20.1 57.5 19.8 57.8 19.8 58.2 19.8 58.6 20.1 58.9
L 24.35 63.2 24.7 63.55 24.8 63.65
Q 24.95 63.8 25.1 63.9 25.3 63.95 25.5 63.95 25.55 63.95 25.6 63.95 25.9 63.9 26.15 63.75 26.15 63.7 26.2 63.65 26.5 63.35 26.5 62.95 26.5 62.8 26.45 62.65 26.4 62.45 26.2 62.25
L 25.9 61.95 25.6 61.6 25.3 61.3
M 27.65 48.1
L 27.4 48.35 27.2 48.55 26.95 48.75 24.5 51.2
Q 24.2 51.5 24.2 51.9 24.2 52.3 24.5 52.6 24.8 52.9 25.2 52.9 25.6 52.9 25.9 52.6
L 26.85 51.7 27.1 51.45 27.3 51.25 27.55 50.95 27.85 50.65 28.3 50.25 29 49.5
Q 29.3 49.2 29.3 48.8 29.3 48.4 29 48.1 28.7 47.8 28.3 47.8 28.1 47.8 27.9 47.9 27.75 47.95 27.65 48.1 Z"/>

<path fill="#028EEB" stroke="none" d="
M 8.1 33.85
L 8.1 33.1
Q 6.7 34.95 7.4 37.65 7.45 37.75 9.25 40.6 10.95 43.45 11 43.5 11 43.55 11.05 43.65 11.1 43.9 11.05 44.2
L 11.3 44.1
Q 11.35 43.75 11.3 43.5 11.3 43.45 11.3 43.4 11.25 43.35 9.55 40.55 8.8578125 39.4423828125 8.45 38.75
L 8.45 38.75
Q 8.4 38.7 8.4 38.65 8.3 38.5 8.2 38.35 7.8 37.7 7.8 37.65 7.2 35.45 8.1 33.85
M 27.65 26.15
Q 27.45 26.25 27.3 26.35 27.75 29.15 27.8 29.5 28.1 30.95 28 31.85 27.95 32.9 27.55 36.95 27.55 37.15 27.55 37.45
L 27.75 37.4 27.8 37.4 27.8 37.35
Q 27.75 37.05 27.8 36.9 28.25 32.65 28.3 31.6 28.35 30.75 28.05 29.2 28.05 28.9 27.65 26.15
M 19.45 21.9
Q 19.3 22.1 18.85 22.55
L 18.85 23.05
Q 19.3 22.65 19.5 22.4 19.65 22.2 19.6 21.3 19.55 21.75 19.45 21.9
M 17.35 24.3
Q 17.25 24.2 17.15 24.1
L 17.1 24.05
Q 16.05 25.05 15.2 26.75 14.25 28.5 12.55 29.9 10.95 30.9 10.05 31.45
L 10.05 31.9
Q 10.9 31.35 12.8 30.15 14.45 28.85 15.3 27.1 16.25 25.3 17.35 24.3
M 19.85 19.45
Q 19.6541015625 19.5478515625 19.5 19.7 19.553125 19.65 19.6 19.65
L 19.85 19.45
M 21.15 15.2
Q 21.15 15.1 21.2 15 21.15 14.7 21.1 14.4
L 21.15 17.95 21.1 18.05 21.1 18.1
Q 21.15 18.05 21.15 18 21.35 17.1 21.15 15.2
M 21.25 11.85
Q 21.05 12 20.95 12.3 20.95 12.35 20.9 12.4 20.9 12.55 20.8 12.7 20.9 12.9 20.9 13.1 20.95 13 21 12.8 21.3 12.35 21.75 12.25 22.9 11.9 24 12.9 24.25 13.1 24.8 13.8 24.9 13.75 25.05 13.75 25.45 13.75 25.75 14.05 26.05 14.35 26.05 14.75
L 26.05 15.5
Q 26.15 15.6 26.25 15.75 26.65 16.5 27.35 17.55 28.8 19.8 29.1 20.85 29.2 21.3 29.3 21.65 29.3 21.6 29.35 21.6 29.4 21.6 29.45 21.6 29.55 21.5 29.75 21.45 29.6 20.95 29.45 20.3 29.15 19.2 27.55 16.9 26.85 15.8 26.45 15.05 25.95 14.35 25.8 14 24.5 12.4 24.1 12.1 23.2 11.3 22.25 11.35 22.15 11.35 22 11.35 21.89375 11.353125 21.8 11.4 21.5 11.5 21.25 11.85 Z"/>

<path fill="#FFFFFF" stroke="none" d="
M 9.5 30.25
Q 9.25 30.15 9.05 30.15 8.6 30.15 8.35 30.45 8.05 30.75 8.05 31.2
L 8.05 31.5 8.1 32.55 8.1 33.1 8.1 33.85 8.15 38.05
Q 8.15 38.2 8.2 38.35 8.3 38.5 8.4 38.65 8.4 38.7 8.45 38.75
L 8.45 38.75
Q 8.76015625 39 9.2 39 9.6 39 9.9 38.7 10.15 38.4 10.15 38
L 10.05 31.9 10.05 31.45 10.05 31.15
Q 10.05 31.1 10.05 31.05 10 30.7 9.75 30.45 9.75 30.4 9.7 30.4 9.6 30.3 9.5 30.25
M 18.5 18.95
Q 18.4 18.85 18.35 18.8 18.05 18.5 17.65 18.55 17.2 18.6 16.95 18.9 16.7 19.2 16.7 19.65
L 16.75 20.4 16.85 22.3 16.85 22.6 16.85 23.4
Q 16.85 23.55 16.9 23.65 16.95 23.85 17.1 24.05
L 17.15 24.1
Q 17.25 24.2 17.35 24.3 17.6 24.4 17.85 24.4 18.25 24.4 18.55 24.1 18.85 23.8 18.85 23.4
L 18.85 23.05 18.85 22.55 18.85 21.95 18.85 20.9 18.8 20.35 18.7 19.5
Q 18.65 19.15 18.5 18.95
M 17.05 28.65
Q 16.75 28.95 16.75 29.35
L 16.85 38.05
Q 16.85 38.45 17.15 38.8 17.45 39.05 17.85 39.05 18.25 39.05 18.6 38.75 18.85 38.45 18.85 38.05
L 18.75 29.35
Q 18.75 28.95 18.45 28.65 18.15 28.35 17.75 28.35 17.35 28.35 17.05 28.65
M 26.05 29.2
Q 26.05 28.8 25.75 28.5 25.45 28.2 25.05 28.2 24.65 28.2 24.35 28.5 24.05 28.8 24.05 29.2
L 24.15 37.9
Q 24.15 38.3 24.45 38.65 24.5 38.7 24.6 38.75 24.8 38.9 25.15 38.9 25.55 38.9 25.9 38.6 26.1 38.4 26.15 38.1 26.15 38 26.15 37.9
L 26.05 29.2
M 26.05 14.75
Q 26.05 14.35 25.75 14.05 25.45 13.75 25.05 13.75 24.9 13.75 24.8 13.8 24.55 13.85 24.35 14.05 24.05 14.35 24.05 14.75
L 24.15 23.45
Q 24.15 23.85 24.45 24.2 24.75 24.45 25.15 24.45 25.55 24.45 25.9 24.15 26.15 23.85 26.15 23.45
L 26.05 15.5 26.05 14.75 Z"/>

<path fill="#027AC9" stroke="none" d="
M 19.6 21.15
Q 19.5 21.3 19.45 21.35 19.3 21.55 18.85 21.95
L 18.85 22.55
Q 19.3 22.1 19.45 21.9 19.55 21.75 19.6 21.3 19.6 21.2 19.6 21.15
M 27.65 26.15
Q 28.05 28.9 28.05 29.2 28.35 30.75 28.3 31.6 28.25 32.65 27.8 36.9 27.75 37.05 27.8 37.35
L 28.05 37.25
Q 28 37 28.05 36.85 28.45 32.5 28.55 31.4 28.6 30.5 28.35 28.9 28.35 28.6 27.85 26 27.75 26.05 27.65 26.15
M 8.1 33.1
L 8.1 32.55
Q 6.25 34.5 7.1 37.6 7.1 37.75 8.9 40.65 10.7 43.55 10.7 43.7 10.75 43.75 10.75 43.8 10.8 44 10.85 44.3
L 11.05 44.2
Q 11.1 43.9 11.05 43.65 11 43.55 11 43.5 10.95 43.45 9.25 40.6 7.45 37.75 7.4 37.65 6.7 34.95 8.1 33.1
M 17.1 24.05
Q 16.95 23.85 16.9 23.65 15.85 24.7 15 26.35 14.45 27.55 13.55 28.55 13 29.15 12.35 29.55 10.95 30.5 10.05 31.05 10.05 31.1 10.05 31.15
L 10.05 31.45
Q 10.95 30.9 12.55 29.9 14.25 28.5 15.2 26.75 16.05 25.05 17.1 24.05
M 22.75 11.1
Q 22.5 11.3 22.25 11.35 23.2 11.3 24.1 12.1 24.5 12.4 25.8 14 25.95 14.35 26.45 15.05 26.85 15.8 27.55 16.9 29.15 19.2 29.45 20.3 29.6 20.95 29.75 21.45 29.9 21.3 30.05 21.2 29.95 20.6 29.7 19.75 29.4 18.65 27.85 16.25 27.1 15 26.6 14.3 26.15 13.55 25.95 13.2 24.8 11.8 24.4 11.4 24.3 11.3 24.25 11.25 23.7 10.75 23.15 10.55 23 10.9 22.75 11.1
M 21.15 11.4
L 21.05 11.4
Q 20.9 11.65 20.9 11.95 20.8 12.1 20.8 12.25
L 20.8 12.3
Q 20.8 12.35 20.85 12.4 20.8 12.4 20.8 12.45
L 20.85 12.55 20.8 12.7
Q 20.9 12.55 20.9 12.4 20.95 12.35 20.95 12.3 21.05 12 21.25 11.85 21.5 11.5 21.8 11.4 21.89375 11.353125 22 11.35 21.94375 11.35 21.9 11.35 21.45 11.3 21.15 11.4 Z"/>

<path fill="#0270B7" stroke="none" d="
M 19.5 20.7
Q 19.4501953125 20.5009765625 19.45 20.2 19.4484375 20.2515625 19.4 20.3 19.25 20.5 18.85 20.9
L 18.85 21.95
Q 19.3 21.55 19.45 21.35 19.5 21.3 19.6 21.15
L 19.6 21.05
Q 19.55 20.95 19.55 20.9 19.55 20.8 19.5 20.7
M 28.2 25.8
Q 28.05 25.95 27.85 26 28.35 28.6 28.35 28.9 28.6 30.5 28.55 31.4 28.45 32.5 28.05 36.85 28 37 28.05 37.25
L 28.25 37.15 28.5 37.05
Q 28.55 36.85 28.55 36.7 29.05 32.05 29.1 30.9 29.15 29.95 28.85 28.3 28.9 27.9 28.45 25.6 28.3 25.65 28.2 25.8
M 8.1 32.55
L 8.05 31.5
Q 5.35 33.6 6.15 37.15 6.25 37.3 6.4 37.45
L 7.55 39.35
Q 7.7 39.5 7.75 39.65 8 40 8.2 40.3
L 8.2 40.35
Q 10.25 43.65 10.55 44.35
L 10.6 44.45 10.85 44.3
Q 10.8 44 10.75 43.8 10.75 43.75 10.7 43.7 10.7 43.55 8.9 40.65 7.1 37.75 7.1 37.6 6.25 34.5 8.1 32.55
M 15.65 24.1
Q 15.65 24.2 15.65 24.25 15.05 25.45 14.2 26.45 14.15 26.5 14.15 26.55 13.3 27.9 11.9 29 10.6 29.8 9.7 30.4 9.75 30.4 9.75 30.45 10 30.7 10.05 31.05 10.95 30.5 12.35 29.55 13 29.15 13.55 28.55 14.45 27.55 15 26.35 15.85 24.7 16.9 23.65 16.85 23.55 16.85 23.4
L 16.85 22.6
Q 16.45 22.95 16.1 23.4 15.85 23.7 15.65 24.1
M 21.1 18.1
L 21.1 18.05 21.05 18.1 21.1 18.1
M 20.85 11.5
Q 20.8 11.5 20.85 11.55 20.85 11.6 20.85 11.65 20.8 11.7 20.8 11.85 20.75 12.05 20.8 12.3
L 20.8 12.25
Q 20.8 12.1 20.9 11.95 20.9 11.65 21.05 11.4 20.9 11.45 20.85 11.5
M 22.9 8.75
Q 22.9 8.85 23 9.05
L 23.1 9.4
Q 23.1 9.45 23.2 9.55 23.2 9.65 23.2 9.7 23.3 10.05 23.2 10.4 23.15 10.5 23.15 10.55 23.7 10.75 24.25 11.25 24.3 11.3 24.4 11.4 24.8 11.8 25.95 13.2 26.15 13.55 26.6 14.3 27.1 15 27.85 16.25 29.4 18.65 29.7 19.75 29.95 20.6 30.05 21.2
L 30.45 20.95
Q 30.55 20.8 30.7 20.7 30.7 20.65 30.85 20.55 30.7 19.8 30.35 18.5 30 17.3 28.3 14.75 27.6 13.5 27.1 12.7 26.75 12.3 26.6 12 26.4 11.7 26.3 11.6 24.95 9.85 24.5 9.5 23.65 8.75 22.9 8.75 Z"/>

<path fill="#0364A3" stroke="none" d="
M 18.8 20.35
L 18.85 20.9
Q 19.25 20.5 19.4 20.3 19.4484375 20.2515625 19.45 20.2 19.45 20.05 19.4 19.85 19.1 20.1 18.8 20.35
M 29 25
Q 28.75 25.25 28.45 25.6 28.9 27.9 28.85 28.3 29.15 29.95 29.1 30.9 29.05 32.05 28.55 36.7 28.55 36.85 28.5 37.05
L 28.9 36.95
Q 28.9 36.85 28.9 36.8
L 28.9 36.75
Q 28.95 36.5 29 36.3 29 36.25 29 36.2 29.5 31 29.6 29.7 29.55 28.85 29.35 27.65 29.35 27.35 29 25
M 8.05 31.2
Q 5.05 33.25 6.05 37 6.05 37.05 6.15 37.15 5.35 33.6 8.05 31.5
L 8.05 31.2
M 11.9 29
Q 13.3 27.9 14.15 26.55 13.25 27.65 11.95 28.65
L 11.9 28.65
Q 10.45 29.6 9.5 30.25 9.6 30.3 9.7 30.4 10.6 29.8 11.9 29
M 16.85 22.6
L 16.85 22.3
Q 16.45 22.8 16.1 23.4 16.45 22.95 16.85 22.6
M 20.8 12.45
Q 20.8 12.4 20.85 12.4 20.8 12.35 20.8 12.3 20.75 12.35 20.8 12.45
M 22.75 7.15
Q 22.7 8 22.9 8.75 23.65 8.75 24.5 9.5 24.95 9.85 26.3 11.6 26.4 11.7 26.6 12 26.75 12.3 27.1 12.7 27.6 13.5 28.3 14.75 30 17.3 30.35 18.5 30.7 19.8 30.85 20.55 31.15 20.15 31.4 19.7 31.25 18.9 30.85 17.45 30.5 16.2 28.75 13.5 28 12.15 27.5 11.3 26.9 10.5 26.65 10.1 25.2 8.35 24.8 7.95 23.8 7.05 22.75 7.15 Z"/>

<path fill="#0099FF" stroke="none" d="
M 27.35 17.55
Q 26.65 16.5 26.25 15.75 26.15 15.6 26.05 15.5
L 26.15 23.45
Q 26.15 23.85 25.9 24.15 25.55 24.45 25.15 24.45 24.75 24.45 24.45 24.2 24.15 23.85 24.15 23.45
L 24.05 14.75
Q 24.05 14.35 24.35 14.05 24.55 13.85 24.8 13.8 24.25 13.1 24 12.9 22.9 11.9 21.75 12.25 21.3 12.35 21 12.8 20.95 13 20.9 13.1 20.9 13.35 20.95 13.6
L 20.95 13.65
Q 21 13.95 21.1 14.25 21.1 14.3 21.1 14.4 21.15 14.7 21.2 15 21.15 15.1 21.15 15.2 21.35 17.1 21.15 18 21.15 18.05 21.1 18.1
L 21.05 18.1 21.05 18.15 21 18.2
Q 20.95 18.35 20.85 18.45
L 20.8 18.45 20.1 19.3
Q 20.05 19.3 20 19.3
L 19.85 19.45 19.6 19.65
Q 19.553125 19.65 19.5 19.7 19.5 19.75 19.45 19.8 19.4 19.8 19.4 19.85 19.45 20.05 19.45 20.2 19.4501953125 20.5009765625 19.5 20.7 19.55 20.8 19.55 20.9 19.55 20.95 19.6 21.05
L 19.6 21.15
Q 19.6 21.2 19.6 21.3 19.65 22.2 19.5 22.4 19.3 22.65 18.85 23.05
L 18.85 23.4
Q 18.85 23.8 18.55 24.1 18.25 24.4 17.85 24.4 17.6 24.4 17.35 24.3 16.25 25.3 15.3 27.1 14.45 28.85 12.8 30.15 10.9 31.35 10.05 31.9
L 10.15 38
Q 10.15 38.4 9.9 38.7 9.6 39 9.2 39 8.76015625 39 8.45 38.75 8.8578125 39.4423828125 9.55 40.55 11.25 43.35 11.3 43.4 11.3 43.45 11.3 43.5 11.35 43.75 11.3 44.1
L 12.4 43.7 12.65 43.55 14.95 42.65
Q 15 42.4 15.1 42.25
L 15.6 41.5
Q 15.8 41.1 16.25 41.05 16.65 40.95 17 41.15 17.25 41.35 17.4 41.65
L 22.45 39.55 22.55 39.55 22.65 39.5 24.6 38.75
Q 24.5 38.7 24.45 38.65 24.15 38.3 24.15 37.9
L 24.05 29.2
Q 24.05 28.8 24.35 28.5 24.65 28.2 25.05 28.2 25.45 28.2 25.75 28.5 26.05 28.8 26.05 29.2
L 26.15 37.9
Q 26.15 38 26.15 38.1
L 27.5 37.55 27.5 37.5 27.55 37.5 27.55 37.45
Q 27.55 37.15 27.55 36.95 27.95 32.9 28 31.85 28.1 30.95 27.8 29.5 27.75 29.15 27.3 26.35 27.45 26.25 27.65 26.15 27.75 26.05 27.85 26 28.05 25.95 28.2 25.8 28.3 25.65 28.45 25.6 28.75 25.25 29 25 29.05 24.95 29.05 24.9
L 29.05 24.75
Q 29 24.6 29 24.5 29 24.4 28.95 24.3 28.9 24.1 28.9 23.9 28.85 23.4 28.7 22.9 28.65 22.55 28.85 22.15 29 21.85 29.3 21.65 29.2 21.3 29.1 20.85 28.8 19.8 27.35 17.55
M 16.75 29.35
Q 16.75 28.95 17.05 28.65 17.35 28.35 17.75 28.35 18.15 28.35 18.45 28.65 18.75 28.95 18.75 29.35
L 18.85 38.05
Q 18.85 38.45 18.6 38.75 18.25 39.05 17.85 39.05 17.45 39.05 17.15 38.8 16.85 38.45 16.85 38.05
L 16.75 29.35
M 8.2 38.35
Q 8.15 38.2 8.15 38.05
L 8.1 33.85
Q 7.2 35.45 7.8 37.65 7.8 37.7 8.2 38.35 Z"/>

<path fill="#5A27F4" stroke="none" d="
M 10.25 66.65
Q 10.6 68 13.05 68.7
L 9.95 65.55
Q 10.1 66.05 10.25 66.65
M 9.45 61.95
L 9.05 62.35
Q 9.2 62.85 9.45 63.7
L 9.45 63.65
Q 9.65 63.45 9.85 63.4 9.6 62.5 9.45 61.95
M 7.85 55.05
L 7.7 55.35 7.65 55.6
Q 7.6 55.75 7.55 55.95
L 7.55 56
Q 8.15 58.65 8.5 60.1
L 8.9 59.7
Q 8.55 58.15 7.85 55.05
M 26.15 63.75
Q 25.9 63.9 25.6 63.95 24.15 67.35 21.65 68 19.5 68.6 15.6 68.2 15.45 68.2 15.35 68.2
L 15.45 68.3
Q 15.75 68.6 15.75 69 15.75 69.05 15.75 69.15 19.5 69.55 21.7 68.95 24.6 68.15 26.15 63.75
M 27.85 50.65
L 27.55 50.95
Q 27.4 55.45 27.15 57.55 26.8 60.25 26.2 62.25 26.4 62.45 26.45 62.65 27 60.7 27.35 58.1 27.7 55.8 27.85 50.65
M 28.25 37.15
Q 28.3 37.2 28.25 37.3 27.75 41.4 27.7 43.7 27.7 46.05 27.65 48.1 27.75 47.95 27.9 47.9 27.95 46.05 27.95 43.9 28 41.45 28.5 37.25 28.55 37.15 28.5 37.05
L 28.25 37.15 Z"/>

<path fill="#7042F9" stroke="none" d="
M 10.85 63.65
L 10.9 63.7
Q 10.45 62.2 10.2 61.2
L 9.85 61.55
Q 10.05 62.3 10.35 63.4 10.65 63.4 10.85 63.65
M 8.5 52.95
L 8.2 53.75
Q 8.15 53.95 8.1 54.15 8.1 54.2 8.1 54.25
L 8.1 54.3
Q 8.9 57.8 9.25 59.35
L 9.65 59
Q 9.3 57.55 8.5 53.8 8.4 53.55 8.5 53.05 8.5 53 8.5 52.95
M 25.1 63.9
Q 24.95 63.8 24.8 63.65
L 24.7 63.55
Q 23.45 65.8 21.55 66.3 19.5 66.85 15.85 66.45 14.15 66.25 13.05 65.9
L 14.25 67.1
Q 14.9 67.2 15.75 67.3 19.5 67.7 21.6 67.15 23.75 66.6 25.1 63.9
M 27.3 51.25
L 27.1 51.45
Q 26.9 54.75 26.65 56.45 26.3 59.5 25.6 61.6
L 25.9 61.95
Q 26.55 59.85 26.9 57 27.15 55.1 27.3 51.25
M 28 37.4
Q 28.05 37.3 28.05 37.25
L 27.8 37.35 27.8 37.4 27.75 37.4
Q 27.75 37.416015625 27.75 37.45 27.3 41.3 27.25 43.4 27.2 46.25 27.2 48.55
L 27.4 48.35
Q 27.4 46.15 27.45 43.55 27.55 41.35 28 37.4
M 11.05 44.2
L 10.85 44.3
Q 10.75 44.65 10.7 45.05
L 10.7 45.1
Q 10.7 45.45 10.7 45.95
L 10.3 47.75
Q 10.5 47 10.65 46.4 11 45 11.05 44.2 Z"/>

<path fill="#6633FF" stroke="none" d="
M 9.45 61.95
Q 9.6 62.5 9.85 63.4 10 63.35 10.15 63.35 10.25 63.35 10.35 63.4 10.05 62.3 9.85 61.55
L 9.45 61.95
M 8.1 54.25
Q 8.1 54.2 8.1 54.15 8.15 53.95 8.2 53.75 7.95 54.45 7.85 55 7.8 55.05 7.85 55.05 8.55 58.15 8.9 59.7
L 9.25 59.35
Q 8.9 57.8 8.1 54.3
L 8.1 54.25
M 25.6 63.95
Q 25.55 63.95 25.5 63.95 25.3 63.95 25.1 63.9 23.75 66.6 21.6 67.15 19.5 67.7 15.75 67.3 14.9 67.2 14.25 67.1
L 15.35 68.2
Q 15.45 68.2 15.6 68.2 19.5 68.6 21.65 68 24.15 67.35 25.6 63.95
M 27.55 50.95
L 27.3 51.25
Q 27.15 55.1 26.9 57 26.55 59.85 25.9 61.95
L 26.2 62.25
Q 26.8 60.25 27.15 57.55 27.4 55.45 27.55 50.95
M 28.05 37.25
Q 28.05 37.3 28 37.4 27.55 41.35 27.45 43.55 27.4 46.15 27.4 48.35
L 27.65 48.1
Q 27.7 46.05 27.7 43.7 27.75 41.4 28.25 37.3 28.3 37.2 28.25 37.15
L 28.05 37.25
M 10.65 44.55
Q 10.65 44.6 10.65 44.7 10.7 44.85 10.7 45.05 10.75 44.65 10.85 44.3
L 10.6 44.45
Q 10.6 44.5 10.65 44.55 Z"/>

<path fill="#4B19E5" stroke="none" d="
M 7.55 56
Q 7.4 56.85 7.4 57.35 7.8 59.15 8.1 60.5
L 8.5 60.1
Q 8.15 58.65 7.55 56
M 28.3 50.25
L 27.85 50.65
Q 27.7 55.8 27.35 58.1 27 60.7 26.45 62.65 26.5 62.8 26.5 62.95 26.5 63.35 26.2 63.65 26.15 63.7 26.15 63.75 24.6 68.15 21.7 68.95 19.5 69.55 15.75 69.15 15.7 69.45 15.45 69.7 15.15 70 14.75 70 14.35 70 14.05 69.7
L 13.05 68.7
Q 10.6 68 10.25 66.65 10.1 66.05 9.95 65.55
L 9.45 65.05
Q 9.15 64.75 9.15 64.35 9.15 63.95 9.45 63.7 9.2 62.85 9.05 62.35
L 8.6 62.8
Q 8.85 64.15 9 64.55 9.25 65.5 10.2 68.8 11.35 70.15 15.3 70.6 19.5 71.05 21.85 70.4 26.5 69.15 27.8 59.05 27.9 58.55 28 57.95 28.15 55.05 28.3 50.25
M 28.9 36.95
L 28.5 37.05
Q 28.55 37.15 28.5 37.25 28 41.45 27.95 43.9 27.95 46.05 27.9 47.9 28.1 47.8 28.3 47.8 28.35 46.25 28.35 44.5 28.35 41.75 28.9 36.95 Z"/>

<path fill="#784DF8" stroke="none" d="
M 9.1 51.4
Q 9 51.45 9 51.65 9 51.7 8.9 51.8
L 8.5 52.95
Q 8.5 53 8.5 53.05 8.4 53.55 8.5 53.8 9.3 57.55 9.65 59 9.8 58.8 10.05 58.75 9.7 57.5 8.8 53.4 8.7 52.85 9.1 51.4
M 24.7 63.55
L 24.35 63.2
Q 23.2 65 21.5 65.45 19.5 66 16 65.65 11.8 65.2 11.3 63.45 10.9 61.85 10.6 60.8
L 10.2 61.2
Q 10.45 62.2 10.9 63.7
L 13.05 65.9
Q 14.15 66.25 15.85 66.45 19.5 66.85 21.55 66.3 23.45 65.8 24.7 63.55
M 27.1 51.45
L 26.85 51.7
Q 26.7 54.5 26.45 55.95 26.05 59.15 25.3 61.3
L 25.6 61.6
Q 26.3 59.5 26.65 56.45 26.9 54.75 27.1 51.45
M 27.5 37.5
L 27.5 37.55
Q 27.05 41.25 27.05 43.3 27 46.35 26.95 48.75
L 27.2 48.55
Q 27.2 46.25 27.25 43.4 27.3 41.3 27.75 37.45 27.75 37.416015625 27.75 37.4
L 27.55 37.45 27.55 37.5 27.5 37.5
M 11.3 44.1
L 11.05 44.2
Q 11 45 10.65 46.4 10.5 47 10.3 47.75 10.3 47.85 10.25 47.95 10.25 48.05 10.25 48.15 11.25 45.4 11.3 44.1 Z"/>

<path fill="#3904DB" stroke="none" d="
M 30.15 36.95
Q 30.2 36.6 30.2 36.35
L 28.9 36.95
Q 28.35 41.75 28.35 44.5 28.35 46.25 28.3 47.8 28.7 47.8 29 48.1 29.3 48.4 29.3 48.8 29.3 49.2 29 49.5
L 28.3 50.25
Q 28.15 55.05 28 57.95 27.9 58.55 27.8 59.05 26.5 69.15 21.85 70.4 19.5 71.05 15.3 70.6 11.35 70.15 10.2 68.8 9.25 65.5 9 64.55 8.85 64.15 8.6 62.8
L 7.95 63.4
Q 7.75 63.6 7.5 63.7 7.7 64.55 7.8 64.9 8.1 66 9.35 70.55 9.95 72.7 15.4 73.3 19.95 73.8 22.5 73.1 27.5 71.75 28.95 60.75 29.5 56.7 29.6 44.5 29.65 41.75 30.15 36.95
M 10.65 44.7
Q 10.65 44.6 10.65 44.55 10.6 44.5 10.6 44.45
L 9.4 44.85
Q 9.65 46.35 7.8 51.15 5.85 56.25 6.15 57.55 6.65 59.9 7 61.55
L 8.1 60.5
Q 7.8 59.15 7.4 57.35 7.4 56.85 7.55 56
L 7.55 55.95
Q 7.6 55.75 7.65 55.6
L 7.7 55.35 7.85 55.05
Q 7.8 55.05 7.85 55 7.95 54.45 8.2 53.75
L 8.5 52.95 8.9 51.8
Q 9 51.7 9 51.65 9 51.45 9.1 51.4 9.7 49.65 10.15 48.3 10.15 48.25 10.2 48.2 10.2 48.15 10.25 48.15 10.25 48.05 10.25 47.95 10.3 47.85 10.3 47.75
L 10.7 45.95
Q 10.7 45.45 10.7 45.1
L 10.7 45.05
Q 10.7 44.85 10.65 44.7 Z"/>

<path fill="#025387" stroke="none" d="
M 15.65 24.25
Q 15.65 24.2 15.65 24.1 15.85 23.7 16.1 23.4 16.45 22.8 16.85 22.3
L 16.75 20.4
Q 15.5 21.65 14.45 23.65 13.35 25.95 11.2 27.6 8.65 29.25 7.5 30 3.55 32.6 4.85 37.35 4.9 37.55 7.15 40.95 9.25 44.45 9.35 44.75 9.35 44.8 9.4 44.85
L 10.6 44.45 10.55 44.35
Q 10.25 43.65 8.2 40.35
L 8.2 40.3
Q 8 40 7.75 39.65 7.7 39.5 7.55 39.35
L 6.4 37.45
Q 6.25 37.3 6.15 37.15 6.05 37.05 6.05 37 5.05 33.25 8.05 31.2 8.05 30.75 8.35 30.45 8.6 30.15 9.05 30.15 9.25 30.15 9.5 30.25 10.45 29.6 11.9 28.65
L 11.95 28.65
Q 13.25 27.65 14.15 26.55 14.15 26.5 14.2 26.45 15.05 25.45 15.65 24.25
M 26.3 6.05
Q 25.85 5.6 25.65 5.4 24.3 4.2 22.75 4.6 21.85 4.85 21.6 6.05 21.5 6.5 21.5 7.05 21.4 8.9 22 10.1 19 9.8 19.55 12.95 20.3 17.1 19.85 17.7 19.55 18.05 18.5 18.95 18.65 19.15 18.7 19.5
L 18.8 20.35
Q 19.1 20.1 19.4 19.85 19.4 19.8 19.45 19.8 19.5 19.75 19.5 19.7 19.6541015625 19.5478515625 19.85 19.45
L 20 19.3
Q 20.05 19.3 20.1 19.3
L 20.8 18.45 20.85 18.45
Q 20.95 18.35 21 18.2
L 21.05 18.15 21.05 18.1 21.1 18.05 21.15 17.95 21.1 14.4
Q 21.1 14.3 21.1 14.25 21 13.95 20.95 13.65
L 20.95 13.6
Q 20.9 13.35 20.9 13.1 20.9 12.9 20.8 12.7
L 20.85 12.55 20.8 12.45
Q 20.75 12.35 20.8 12.3 20.75 12.05 20.8 11.85 20.8 11.7 20.85 11.65 20.85 11.6 20.85 11.55 20.8 11.5 20.85 11.5 20.9 11.45 21.05 11.4
L 21.15 11.4
Q 21.45 11.3 21.9 11.35 21.94375 11.35 22 11.35 22.15 11.35 22.25 11.35 22.5 11.3 22.75 11.1 23 10.9 23.15 10.55 23.15 10.5 23.2 10.4 23.3 10.05 23.2 9.7 23.2 9.65 23.2 9.55 23.1 9.45 23.1 9.4
L 23 9.05
Q 22.9 8.85 22.9 8.75 22.7 8 22.75 7.15 23.8 7.05 24.8 7.95 25.2 8.35 26.65 10.1 26.9 10.5 27.5 11.3 28 12.15 28.75 13.5 30.5 16.2 30.85 17.45 31.25 18.9 31.4 19.7 31.15 20.15 30.85 20.55 30.7 20.65 30.7 20.7 30.55 20.8 30.45 20.95
L 30.05 21.2
Q 29.9 21.3 29.75 21.45 29.55 21.5 29.45 21.6 29.4 21.6 29.35 21.6 29.3 21.6 29.3 21.65 29 21.85 28.85 22.15 28.65 22.55 28.7 22.9 28.85 23.4 28.9 23.9 28.9 24.1 28.95 24.3 29 24.4 29 24.5 29 24.6 29.05 24.75
L 29.05 24.9
Q 29.05 24.95 29 25 29.35 27.35 29.35 27.65 29.55 28.85 29.6 29.7 29.5 31 29 36.2 29 36.25 29 36.3 28.95 36.5 28.9 36.75
L 28.9 36.8
Q 28.9 36.85 28.9 36.95
L 30.2 36.35
Q 30.75 31.1 30.85 29.8 30.95 28.75 30.65 26.75 30.6 26.3 30 22.75 32.75 21.2 32.9 18.9 32.95 18.15 32.25 15.65 31.9 14.3 30 11.35 29.1 9.95 28.55 9.1 27.95 8.2 27.75 7.75 26.85 6.65 26.3 6.05 Z"/>
</g>

<path id="Layer1_0_1_STROKES" stroke="#FFFF00" stroke-opacity="0" stroke-width="6" stroke-linejoin="round" stroke-linecap="round" fill="none" d="
M 22.4 3.15
L 22.35 3.15
Q 20.4 3.5 20.1 6.05 20 6.5 20 7.05 19.95 7.95 20.05 8.75 19.2 9 18.75 9.7 17.65 10.75 18.1 13.2
L 18.1 13.25
Q 18.65 16.4 18.65 16.8 18.3 17.2 16.9 18.3 16.75 18.4 16.6 18.5 16.5 18.55 16.45 18.6 14.65 20.1 13.15 22.95
L 13.1 23
Q 12.15 25 10.3 26.4
L 10.4 26.35
Q 7.8 28 6.7 28.75 1.8 31.95 3.4 37.75 3.45 38.1 5.9 41.8 7.55 44.55 7.9 45.15 7.9 45.2 7.95 45.25
L 7.95 45.3
Q 7.9 46.7 6.4 50.6
L 6.4 50.65
Q 4.2 56.4 4.7 57.9 5.35 61.1 5.8 63
L 5.8 63.05
Q 6.2 64.8 6.4 65.35
L 6.35 65.3
Q 6.65 66.4 7.9 70.95 8.45 74.05 15.25 74.8 20.15 75.35 22.9 74.55 28.8 73.25 30.45 60.95 31 56.85 31.1 44.55
L 31.1 44.5
Q 31.1498046875 41.8142578125 31.65 37.15 31.7 36.8 31.7 36.5 32.25 31.25 32.35 29.95 32.45 28.75 32.15 26.55
L 32.15 26.6
Q 32.1 26.2 31.65 23.5 34.3 21.65 34.4 19 34.5 18.15 33.7 15.25 33.3 13.75 31.25 10.55 30.35 9.15 29.8 8.3 29.3 7.5 29.15 7.15 29.05 6.95 28.9 6.8 28.55 6.4 28.3 6.05 27.05 4.55 26.6 4.25 24.6203125 2.50859375 22.4 3.15 Z"/>
</defs>

<g transform="matrix( 1, 0, 0, 1, 0,0) ">
<use xlink:href="#Layer1_0_FILL"/>

<use xlink:href="#Layer1_0_1_STROKES"/>
</g>

<g transform="matrix( 1, 0, 0, 1, 0,0) ">
<use xlink:href="#Layer0_0_FILL"/>
</g>
</svg>
