<?xml version="1.0" encoding="UTF-8"?>
<svg width="48px" height="48px" viewBox="0 0 48 48" version="1.1" xmlns="http://www.w3.org/2000/svg" xmlns:xlink="http://www.w3.org/1999/xlink">
    <title>70F58640-9DE8-4FDE-BE24-6A55D12FF4C4</title>
    <g id="style-guide" stroke="none" stroke-width="1" fill="none" fill-rule="evenodd">
        <g id="icon-sheet" transform="translate(-784.000000, -142.000000)" fill-rule="nonzero">
            <g id="icon" transform="translate(784.000000, 142.000000)">
                <path d="M48,24 C48,37.254871 37.254871,48 24,48 C10.745129,48 0,37.254871 0,24 C0,10.745129 10.745129,0 24,0 C37.254871,0 48,10.745129 48,24 Z" id="Path" fill="#1B8338"></path>
                <path d="M21.2239355,35.9578059 L39.0303871,18.1513543 C39.6350323,17.5467091 39.6350323,16.5662898 39.0303871,15.9616446 L36.8406774,13.771935 C36.2360323,13.167193 35.2556129,13.167193 34.650871,13.771935 L20.1290323,28.2936769 L13.349129,21.5137737 C12.7444839,20.9091285 11.7640645,20.9091285 11.1593226,21.5137737 L8.9696129,23.7034833 C8.36496774,24.3081285 8.36496774,25.2885479 8.9696129,25.893193 L19.034129,35.9577091 C19.638871,36.5624511 20.6191935,36.5624511 21.2239355,35.9578059 L21.2239355,35.9578059 Z" id="Path" fill="#FFFFFF"></path>
            </g>
        </g>
    </g>
</svg>