<?xml version="1.0" encoding="UTF-8"?>
<svg width="24px" height="24px" viewBox="0 0 24 24" version="1.1" xmlns="http://www.w3.org/2000/svg" xmlns:xlink="http://www.w3.org/1999/xlink">
    <title>46B56A55-CB36-4214-AF31-EE47C263A791</title>
    <g id="style-guide" stroke="none" stroke-width="1" fill="none" fill-rule="evenodd">
        <g id="icon-sheet" transform="translate(-500.000000, -230.000000)">
            <g id="icon" transform="translate(500.000000, 230.000000)">
                <path d="M12,0 C18.627417,-1.21743675e-15 24,5.372583 24,12 C24,18.627417 18.627417,24 12,24 C5.372583,24 8.11624501e-16,18.627417 0,12 C-8.11624501e-16,5.372583 5.372583,1.21743675e-15 12,0 Z" id="Path" fill="#F0F0F0"></path>
                <path d="M13.5642817,10 C13.8783701,10 14.1128449,10.078032 14.2677064,10.2340959 C14.4225688,10.3901599 14.5,10.6220577 14.5,10.9297893 L14.5,17.5636153 C14.5,17.8801405 14.4225688,18.1153358 14.2677064,18.2692011 C14.1128439,18.423067 13.8783691,18.5 13.5642817,18.5 L6.92917397,18.5 C6.62381055,18.5 6.39260777,18.423067 6.23556564,18.2692011 C6.07852188,18.1153352 6,17.8801399 6,17.5636153 L6,10.9297893 C6,10.6220567 6.07852188,10.3901589 6.23556564,10.2340959 C6.39260939,10.078032 6.62381217,10 6.92917397,10 L13.5642817,10 Z M13,11.5 L7.5,11.5 L7.5,17 L13,17 L13,11.5 Z" id="Shape" fill="#35374C" fill-rule="nonzero"></path>
                <path d="M14.1877167,8.22221915 C14.3001735,8.31332837 14.4145044,8.35681236 14.5307094,8.3526711 C14.6469147,8.34852976 14.7443772,8.30711641 14.8230969,8.22843104 C14.9018166,8.14974559 14.9411765,8.03585906 14.9411765,7.88677145 L14.9411765,3.46382902 C14.9411765,3.24847973 14.856834,3.10560382 14.6881491,3.03520127 C14.5194643,2.96479873 14.3526534,3 14.1877167,3.14080509 L11.4212801,5.20318986 C11.2188581,5.35227785 11.1176471,5.50964836 11.1176471,5.67530139 C11.1176471,5.8409548 11.2188581,5.99832532 11.4212801,6.14741293 L14.1877167,8.22221915 Z" id="Path" fill="#35374C" fill-rule="nonzero"></path>
                <path d="M18,10.5841104 C18,9.84414166 18,9.3857335 18,9.20888593 C18,8.5480351 17.8486481,7.96513607 17.5459443,7.46018883 C17.2432405,6.95524375 16.8194534,6.56082751 16.2745831,6.27694009 C15.729715,5.99305267 15.0870493,5.85110896 14.3465859,5.85110896 L13.382589,5.85110896" id="Path" stroke="#35374C" stroke-width="2" stroke-linecap="round" stroke-linejoin="round"></path>
            </g>
        </g>
    </g>
</svg>