<?xml version="1.0" encoding="UTF-8"?>
<svg width="16px" height="16px" viewBox="0 0 16 16" version="1.1" xmlns="http://www.w3.org/2000/svg" xmlns:xlink="http://www.w3.org/1999/xlink">
    <title>90BD9882-126C-4B6E-9C5E-D2C48FB00697@2x</title>
    <g id="Sim-016---K5---Materials-Uses" stroke="none" stroke-width="1" fill="none" fill-rule="evenodd">
        <g id="click-to-review" transform="translate(-576.000000, -434.000000)">
            <g id="info-box" transform="translate(564.000000, 328.000000)">
                <g id="Group-3" transform="translate(12.000000, 104.000000)">
                    <g id="icon" transform="translate(0.000000, 2.000000)">
                        <polygon id="Container" points="0 0 16 0 16 16 0 16"></polygon>
                        <path d="M4.5,11.5 L7.5,11.5 C7.775,11.5 8,11.275 8,11 L8,8 C8,7.725 7.775,7.5 7.5,7.5 L4.5,7.5 C4.225,7.5 4,7.725 4,8 L4,11 C4,11.275 4.225,11.5 4.5,11.5 Z M13.5,2 L12,2 L12,0.5 C12,0.225 11.775,0 11.5,0 L10.5,0 C10.225,0 10,0.225 10,0.5 L10,2 L6,2 L6,0.5 C6,0.225 5.775,0 5.5,0 L4.5,0 C4.225,0 4,0.225 4,0.5 L4,2 L2.5,2 C1.671875,2 1,2.671875 1,3.5 L1,14.5 C1,15.328125 1.671875,16 2.5,16 L13.5,16 C14.328125,16 15,15.328125 15,14.5 L15,3.5 C15,2.671875 14.328125,2 13.5,2 Z M13.5,14.3125 C13.5,14.415625 13.415625,14.5 13.3125,14.5 L2.6875,14.5 C2.584375,14.5 2.5,14.415625 2.5,14.3125 L2.5,5 L13.5,5 L13.5,14.3125 Z" id="Shape" fill="#35374C" fill-rule="nonzero"></path>
                    </g>
                </g>
            </g>
        </g>
    </g>
</svg>