<?xml version="1.0" encoding="UTF-8"?>
<svg width="16px" height="16px" viewBox="0 0 16 16" version="1.1" xmlns="http://www.w3.org/2000/svg" xmlns:xlink="http://www.w3.org/1999/xlink">
    <title>FA55167D-6EFD-4D91-BF2C-32C4DDDC78F4</title>
    <g id="Sim-016---K5---Materials-Uses" stroke="none" stroke-width="1" fill="none" fill-rule="evenodd">
        <g id="corrective-feedback" transform="translate(-184.000000, -267.000000)" fill-rule="nonzero">
            <g id="info-box" transform="translate(172.000000, 257.000000)">
                <g id="icon" transform="translate(12.000000, 10.000000)">
                    <path d="M8,0 C3.58064516,0 0,3.58322581 0,8 C0,12.4167742 3.58064516,16 8,16 C12.4193548,16 16,12.4193548 16,8 C16,3.58064516 12.4193548,0 8,0 Z" id="Path" fill="#BA5B08"></path>
                    <path d="M8.72,3.87096774 L7.28,3.87096774 C7.13419472,3.87096774 6.9951948,3.93265246 6.89735439,4.04075627 C6.79951398,4.14886009 6.75196221,4.29330354 6.76645161,4.4383871 L7.17935484,8.56741935 C7.20570687,8.83128445 7.42772552,9.03225806 7.69290323,9.03225806 L8.30580645,9.03225806 C8.57098416,9.03225806 8.7930028,8.83128445 8.81935484,8.56741935 L9.23225806,4.4383871 C9.24672564,4.29352685 9.19934328,4.1492934 9.10178859,4.04123377 C9.0042339,3.93317413 8.86558044,3.87133893 8.72,3.87096774 Z" id="Path" fill="#FFFFFF"></path>
                    <path d="M8,10.0645161 C7.42989961,10.0645161 6.96774194,10.5266738 6.96774194,11.0967742 C6.96774194,11.6668746 7.42989961,12.1290323 8,12.1290323 C8.57010039,12.1290323 9.03225806,11.6668746 9.03225806,11.0967742 C9.03225806,10.5266738 8.57010039,10.0645161 8,10.0645161 Z" id="Path" fill="#FFFFFF"></path>
                </g>
            </g>
        </g>
    </g>
</svg>