<?xml version="1.0" encoding="UTF-8"?>
<svg width="16px" height="16px" viewBox="0 0 16 16" version="1.1" xmlns="http://www.w3.org/2000/svg" xmlns:xlink="http://www.w3.org/1999/xlink">
    <title>44AEB099-B51B-404C-A495-EC2DFE97C1CB</title>
    <g id="Sim-016---K5---Materials-Uses" stroke="none" stroke-width="1" fill="none" fill-rule="evenodd">
        <g id="click-to-review" transform="translate(-576.000000, -336.000000)">
            <g id="info-box" transform="translate(564.000000, 328.000000)">
                <g id="icon" transform="translate(12.000000, 8.000000)">
                    <polygon id="Container" points="0 0 16 0 16 16 0 16"></polygon>
                    <path d="M13,0 C11.346875,0 10,1.346875 10,3 C10,4.653125 11.346875,6 13,6 C14.653125,6 16,4.653125 16,3 C16,1.346875 14.653125,0 13,0 Z M13,4 C12.446875,4 12,3.553125 12,3 C12,2.446875 12.446875,2 13,2 C13.553125,2 14,2.446875 14,3 C14,3.553125 13.553125,4 13,4 Z M8,3.5 C8,1.565625 6.434375,0 4.5,0 C2.565625,0 1,1.565625 1,3.5 L1,8.703125 C0.384375,9.475 0,10.4375 0,11.5 C0,13.984375 2.015625,16 4.5,16 C6.984375,16 9,13.984375 9,11.5 C9,10.4375 8.615625,9.471875 8,8.703125 L8,3.5 Z M4.5,14 C3.121875,14 2,12.878125 2,11.5 C2,10.703125 2.38125,9.971875 3,9.50625 L3,3.5 C3,2.671875 3.671875,2 4.5,2 C5.328125,2 6,2.671875 6,3.5 L6,9.50625 C6.61875,9.96875 7,10.703125 7,11.5 C7,12.878125 5.878125,14 4.5,14 Z M5,10.090625 L5,3.5 C5,3.225 4.775,3 4.5,3 C4.225,3 4,3.225 4,3.5 L4,10.090625 C3.41875,10.296875 3,10.846875 3,11.5 C3,12.328125 3.671875,13 4.5,13 C5.328125,13 6,12.328125 6,11.5 C6,10.846875 5.58125,10.296875 5,10.090625 Z" id="Shape" fill="#35374C" fill-rule="nonzero"></path>
                </g>
            </g>
        </g>
    </g>
</svg>