<?xml version="1.0" encoding="UTF-8"?>
<svg width="16px" height="16px" viewBox="0 0 16 16" version="1.1" xmlns="http://www.w3.org/2000/svg" xmlns:xlink="http://www.w3.org/1999/xlink">
    <title>EEEA5B93-432B-4A8C-845E-60B9DB112D42@2x</title>
    <g id="Sim-016---K5---Materials-Uses" stroke="none" stroke-width="1" fill="none" fill-rule="evenodd">
        <g id="click-to-review" transform="translate(-576.000000, -384.000000)">
            <g id="info-box" transform="translate(564.000000, 328.000000)">
                <g id="icon" transform="translate(12.000000, 56.000000)">
                    <polygon id="Container" points="0 0 16 0 16 16 0 16"></polygon>
                    <path d="M14,2 L11.9746875,2 C11.0609375,0.793125 9.6271875,0 8,0 C6.3728125,0 4.9390625,0.793125 4.0253125,2 L2,2 C0.8971875,2 0,2.8971875 0,4 L0,14 C0,15.1028125 0.8971875,16 2,16 L14,16 C15.1028125,16 16,15.1028125 16,14 L16,4 C16,2.8971875 15.1028125,2 14,2 Z M8,1.5 C9.933125,1.5 11.5,3.066875 11.5,5 C11.5,6.933125 9.933125,8.5 8,8.5 C6.066875,8.5 4.5,6.933125 4.5,5 C4.5,3.066875 6.066875,1.5 8,1.5 Z M14.5,14 C14.5,14.27625 14.27625,14.5 14,14.5 L2,14.5 C1.72375,14.5 1.5,14.27625 1.5,14 L1.5,4 C1.5,3.72375 1.72375,3.5 2,3.5 L3.2553125,3.5 C3.1040625,3.9765625 3,4.4740625 3,5 C3,7.756875 5.243125,10 8,10 C10.756875,10 13,7.756875 13,5 C13,4.4740625 12.8959375,3.9765625 12.7446875,3.5 L14,3.5 C14.27625,3.5 14.5,3.72375 14.5,4 L14.5,14 Z M8,7.5 C8.5521875,7.5 9,7.0521875 9,6.5 C9,6.248125 8.8984375,6.024375 8.744375,5.8484375 L9.474375,3.658125 C9.6825,3.030625 8.7359375,2.714375 8.525,3.341875 L7.7915625,5.5421875 C7.3428125,5.6403125 7,6.0215625 7,6.5 C7,7.0521875 7.4478125,7.5 8,7.5 Z" id="Shape" fill="#35374C" fill-rule="nonzero"></path>
                </g>
            </g>
        </g>
    </g>
</svg>