
<svg xmlns="http://www.w3.org/2000/svg" version="1.1" xmlns:xlink="http://www.w3.org/1999/xlink" preserveAspectRatio="none" x="0px" y="0px" width="71px" height="87px" viewBox="0 0 71 87">
<defs>
<g id="Layer0_0_FILL">
<path fill="#999999" stroke="none" d="
M 66.3 5.35
Q 66.45 5.2 66.55 5.15 66.8 4.75 66.8 4.45 66.85 4 66.6 3.65 66.3 3.3 65.95 3.2
L 65.2 3.1
Q 64.95 2.95 64.75 3 64.6 2.95 64.55 3.05 64.35 3.05 64.3 3.05 64.1 3.05 64 3.1 63.85 3.15 63.65 3.2 60.9 3.85 60.3 5.75 60.15 6.15 60.1 6.6 60.05 6.7 60.05 6.8 60 7.15 59.95 7.5
L 59.9 7.55
Q 59.45 7.65 58.85 7.85 58.8 7.85 58.75 7.9 58 8.1 57 8.55 55.15 9.2 53.95 8.7 53.5 8.5 53 8.65 52.45 8.8 52.2 9.25 51.85 9.75 51.55 10.3 51.25 10.8 51.05 11.25 50.75 11.85 50.55 12.35
L 50.55 12.3
Q 50.15 13.2 50.1 13.85
L 50.1 13.9 50.15 13.95 50.1 14 50.1 13.9 49.4 15.05
Q 47.15 14.9 43.25 17.55 39 20.55 36.95 20.75 35.25 20.85 32.65 22 31.45 22.55 30.75 22.95 28.95 21.85 26.05 22.2 22.3 22.5 21.15 24.65 21.05 24.7 20 29.55
L 20 29.5
Q 18.8 34.05 17.6 35.9 17.5 35.95 16.2 42.85
L 16.2 42.8
Q 14.85 49.15 14.1 50.5 13.3 51.6 11.05 52.95 7.9 54.75 7 56.25 6.25 57.4 5.4 63.2 4.4 69.45 3.45 71.55 2.15 74.05 4.6 78.15 6.6 81.55 7.35 82.95 8.15 85.05 16.7 83.7 25.1 82.35 25.65 80.1 26.15 78.7 27.35 77.8
L 27.4 77.8
Q 28.95 76.6 34.6 71.3 40.45 65.9 43.35 61.8
L 43.4 61.75
Q 44 60.85 44.65 59.9 47 56.35 49.5 51.7 50.15 50.55 50.65 49.5
L 50.7 49.45
Q 52.95 45.45 54.8 42.3
L 57.5 38.45
Q 57.65 38.3 57.6 38.15 57.55 37.95 57.4 37.9 57.35 37.85 57.3 37.8 58.65 35.3 59.85 32.75 60.1 32.25 60.25 31.8 61.55 28.85 62.3 27.15
L 62.3 27.05
Q 62.6 27.05 62.95 27 63.25 26.9 63.5 26.8 63.55 26.75 63.55 26.8 64.4 26.5 65.3 25.05 65.9 24.4 65.2 21.8
L 65.25 21.8
Q 64.75 19.9 65.35 18.05 65.45 17.75 66.85 15.55
L 66.9 15.5
Q 68.7 12.4 68.25 11.3
L 68.25 11.25
Q 67.25 7.75 66.95 6 66.75 5.25 66.3 5.35
M 65.05 3.2
Q 64.9984375 3.2015625 64.95 3.25
L 64.95 3.2 65.05 3.2 Z"/>
</g>

<g id="Layer0_1_FILL">
<path fill="#E7E3E3" stroke="none" d="
M 58.3 10
Q 58.3123046875 9.824609375 58.15 9.65 58.033984375 9.5162109375 57.8 9.5 57.76484375 9.49609375 57.7 9.5 57.8833984375 11.96015625 57.95 14.45
L 57.95 14.45
Q 57.9611328125 14.9880859375 57.95 15.5
L 58.3 10
M 55.8 41.75
Q 55.829296875 41.1875 55.85 40.6 55.8791015625 40.0353515625 55.9 39.45 55.9486328125 36.9951171875 55.85 34.2
L 55.6 38.4
Q 55.590234375 38.6431640625 55.55 38.85
L 55.5 40.45
Q 55.4955078125 40.5119140625 55.5 40.55 55.501953125 40.5876953125 55.5 40.6
L 55.5 40.8 55.6 41.4
Q 55.63125 41.613671875 55.8 41.75
M 39.5 -12.2
Q 38.9638671875 -11.5130859375 38.4 -11.05
L 38.4 -8.8
Q 38.4005859375 -8.2318359375 38 -7.8 37.642578125 -7.37265625 37.05 -7.3 36.9255859375 -7.2775390625 36.75 -7.2
L 36.75 -7.25
Q 36.5416015625 -7.0837890625 36.3 -6.9 36.3376953125 -6.7205078125 36.35 -6.6 36.5162109375 -6.0306640625 36.7 -5.7 36.803515625 -5.519140625 36.9 -5.4
L 36.9 -4.45 36.9 -3.8 36.9 -2.9
Q 34.85 -2.65 32.9 1.75 30.7 6.8 28.8 8.05 27.7 8.75 26.25 10.75 25.2 12.3 24.85 13.15 22.9 12.65 20.6 14.3 18.25 15.95 18.25 17.65 18.25 17.75 19.75 22.05 21.25 26.85 21.25 29.05 21.25 29.1 23.55 35.35 25.95 41.8 25.95 43.4 25.95 44.53828125 25.2 46.15 25.2560546875 46.5009765625 25.25 46.75 25.3091796875 48.937109375 23.35 52.45
L 23.35 52.45
Q 23.30078125 52.5875 23.2 52.7 23.6791015625 54.3798828125 25.25 57.95 27.8 64.15 28.1 66.4 28.35 68.7 31.8 70.75 35.35 72.85 36.7 73.6 38 74.45 43.5 70.05 48.95 65.7 48.65 63.95 48.35 62.2 48.9 60.5 49.6 58.8 51.55 51.65 53.173828125 45.9072265625 53.65 41.7 52.00390625 42.3734375 50.1 42.65
L 52.9 11.7 53.15 8.7 53.35 6.75 53.4 6.25
Q 53.4130859375 6.0390625 53.25 5.85 53.2533203125 5.8478515625 53.2 5.8 53.114453125 5.7142578125 52.95 5.7 52.8642578125 5.69453125 52.75 5.7 52.6724609375 5.74296875 52.55 5.8 52.4173828125 5.9513671875 52.4 6.15
L 52.35 6.7 49.1 42.65
Q 49.096875 42.698828125 49.1 42.75 48.594140625 42.78671875 48.05 42.8
L 47.6 42.8
Q 46.24140625 42.8 45.05 42.7
L 46.8 11.15
Q 46.8123046875 10.9748046875 46.65 10.8 46.65625 10.80390625 46.6 10.75 47.7662109375 9.7259765625 49.1 8.5 49.441796875 8.16953125 49.75 7.85 49.9755859375 7.6513671875 50.15 7.45 51.191015625 6.4326171875 52.1 5.4 51.6279296875 1.88046875 51.3 0.1 51.593359375 -0.0380859375 51.85 -0.2 52.0556640625 -0.3310546875 52.2 -0.5 52.4384765625 -0.6525390625 52.6 -0.85 52.7275390625 -1.0626953125 52.8 -1.4 52.9 -1.81796875 52.9 -2.45 52.9 -3 51.5 -4.4 49.85 -6.05 49.25 -8.3 49.2 -8.55 49.2 -11.45 49.15 -14.25 48.5 -14.85 43.15 -20.1 43.5 -20.5
L 42.8 -20.25
Q 41.598828125 -19.3185546875 41.2 -18.4 40.9673828125 -17.86953125 41 -17.35 41.05234375 -16.9455078125 41.25 -16.55 41.355078125 -16.3341796875 41.45 -16.15 41.5662109375 -15.858203125 41.65 -15.65 42.0203125 -14.6423828125 41.7 -14.5 41.2 -14.25 39.5 -12.2
M 42 15.2
Q 43.3416015625 13.8583984375 45.75 11.6
L 44.05 42.6
Q 40.933203125 42.2431640625 39.05 41.15 39.13984375 41.0556640625 39.15 40.9
L 40.4 18.55
Q 40.4123046875 18.374609375 40.25 18.2 40.1341796875 18.0662109375 39.9 18.05 39.724609375 18.0375 39.55 18.15 39.41640625 18.3158203125 39.4 18.5
L 38.15 40.5
Q 34.7 37.7138671875 34.7 30.3 34.7 22.5 42 15.2 Z"/>

<path fill="#3C6F7C" stroke="none" d="
M 55.8 -4.9
Q 55.8482421875 -4.7939453125 55.85 -4.7 55.8833984375 -4.6302734375 55.9 -4.6 56.234765625 -4.6783203125 56.5 -4.95 56.769921875 -5.2119140625 56.95 -5.5 56.9654296875 -5.4982421875 56.95 -5.55 56.8927734375 -5.416015625 56.8 -5.35 56.75625 -5.2408203125 56.7 -5.2 56.5123046875 -4.958984375 56.25 -4.8
L 56.4 -5.05
Q 56.212890625 -4.962109375 55.95 -4.95 55.899609375 -4.91328125 55.8 -4.9 Z"/>

<path fill="#2F626F" stroke="none" d="
M 40.35 -22.65
Q 40.323046875 -22.601953125 40.3 -22.6 39.68671875 -21.89609375 38.9 -20.95 37.5162109375 -19.153125 35.95 -19 35.385546875 -18.9671875 34.95 -18.55 34.55390625 -18.09453125 34.55 -17.5 34.54765625 -16.735546875 34.6 -16.05 34.6015625 -15.3287109375 34.65 -14.75 34.710546875 -13.9431640625 34.8 -13.35
L 34.8 -13.4
Q 34.9990234375 -12.223046875 35.35 -11.55 35.365234375 -11.5005859375 35.35 -11.5
L 35.4 -11.45 35.4 -11.4 35.4 -11.4 35.4 -11.45 35.4 -9.9
Q 33.0615234375 -8.7861328125 30.8 -3.85
L 30.8 -3.8
Q 28.388671875 1.678515625 26.45 3.05
L 26.4 3.05
Q 24.885546875 4.036328125 22.95 6.7
L 22.95 6.75
Q 22.1359375 7.93359375 21.6 8.8 19.2 8.64765625 16.45 10.55 12.959375 13.07109375 13.1 15.85 13.020703125 15.988671875 14.95 21.65
L 14.95 21.6
Q 16.6302734375 27.0015625 16.65 29.6 16.5625 29.736328125 19.55 37.6
L 19.55 37.6
Q 22.201171875 44.9578125 22.25 46.75 22.191015625 48.3623046875 20.7 51
L 20.7 51.05
Q 18.79140625 54.6306640625 18.85 56.75 18.776953125 58.338671875 21.55 64.85
L 21.55 64.8
Q 24.548046875 71.954296875 24.9 74.6 25.142578125 77.9873046875 30.15 80.9 34.2841796875 83.335546875 35.9 84.3
L 35.9 84.35
Q 38.098046875 86.07578125 45.8 79.9
L 45.85 79.9
Q 53.4052734375 73.8693359375 52.5 71.15 52.1990234375 69.4798828125 52.8 67.8
L 52.8 67.8
Q 53.5806640625 65.6810546875 56 57 58.450390625 48.1703125 58.8 42.25
L 58.8 42.2
Q 58.8498046875 40.95 58.9 39.55
L 58.9 39.5
Q 59.003125 34.5701171875 58.6 28.25 58.5017578125 26.726953125 58.4 25.35 58.401171875 25.3150390625 58.4 25.25 58.0890625 19.825 57.95 15.5 57.9611328125 14.9880859375 57.95 14.45
L 57.95 14.45
Q 57.8833984375 11.96015625 57.7 9.5 57.46953125 6.1189453125 57 2.8
L 57 2.75
Q 56.925 2.125 56.8 1.45 56.3232421875 -2.2546875 55.9 -4.45 55.9111328125 -4.5064453125 55.9 -4.6 55.8833984375 -4.6302734375 55.85 -4.7 55.8482421875 -4.7939453125 55.8 -4.9 55.899609375 -4.91328125 55.95 -4.95 56.212890625 -4.962109375 56.4 -5.05
L 56.25 -4.8
Q 56.5123046875 -4.958984375 56.7 -5.2 56.75625 -5.2408203125 56.8 -5.35 56.8927734375 -5.416015625 56.95 -5.55 57.655859375 -6.3111328125 57.65 -8.3 57.873046875 -9.2876953125 55.5 -11.65
L 55.5 -11.65
Q 53.881640625 -13.331640625 53.25 -15.6 53.2478515625 -16.0162109375 53.25 -19.1
L 53.25 -19.15
Q 53.1248046875 -23.4169921875 51.95 -24.3
L 51.9 -24.3
Q 48.7625 -27.415625 47.25 -29.1 46.6580078125 -29.7609375 46.25 -29.45 46.301171875 -29.5859375 46.3 -29.75 46.4060546875 -30.240625 46.15 -30.7 45.933203125 -31.1150390625 45.45 -31.35 45.0138671875 -31.533203125 44.5 -31.45
L 43.65 -31.2
Q 43.406640625 -31.109375 43.15 -30.95 43.0712890625 -30.878125 42.95 -30.8 42.8650390625 -30.713671875 42.75 -30.65 42.6490234375 -30.539453125 42.5 -30.45 42.38828125 -30.3060546875 42.25 -30.2 39.858984375 -27.9529296875 40.45 -25.6 40.5462890625 -25.1375 40.75 -24.6 40.82578125 -24.4912109375 40.9 -24.4
L 40.9 -24.4
Q 41.1015625 -23.9798828125 41.2 -23.65 41.2345703125 -23.597265625 41.25 -23.6 40.8447265625 -23.2068359375 40.35 -22.65
M 37.6 -16.15
Q 37.6017578125 -16.19609375 37.6 -16.25 39.4591796875 -16.8470703125 41.15 -18.9 41.2068359375 -18.988671875 41.25 -19.1 41.98359375 -19.96640625 42.55 -20.6 42.57265625 -20.6001953125 42.6 -20.65 43.0744140625 -21.192578125 43.2 -21.35 43.3005859375 -21.3724609375 43.35 -21.4 43.6197265625 -21.458984375 43.8 -21.6 44.1396484375 -21.756640625 44.3 -22.1 44.72109375 -22.8875 44.05 -24.6 44.062890625 -24.6123046875 44.05 -24.65 44.001171875 -24.794921875 43.95 -24.95 43.79921875 -25.32109375 43.6 -25.75 43.5349609375 -25.8462890625 43.45 -25.95 43.440234375 -26.0263671875 43.4 -26.1 43.4134765625 -26.1345703125 43.4 -26.2
L 43.4 -26.2
Q 43.3310546875 -27.0748046875 44.25 -28 44.6001953125 -27.552734375 45.05 -27.05 46.5814453125 -25.3412109375 49.85 -22.15
L 49.85 -22.1
Q 50.11015625 -21.6662109375 50.2 -20.05 50.2337890625 -19.6171875 50.25 -19.1
L 50.25 -19.05
Q 50.25078125 -17.95 50.25 -17.15 50.2744140625 -15.2736328125 50.3 -15.05 50.334375 -14.9916015625 50.35 -14.95 50.3744140625 -14.83046875 50.4 -14.75 50.59765625 -14.0201171875 50.85 -13.35 51.7375 -11.23203125 53.35 -9.55
L 53.4 -9.55
Q 54.4453125 -8.4939453125 54.65 -8.3 54.6482421875 -8.09765625 54.65 -7.95 54.328125 -8.0966796875 53.95 -8.1 53.828125 -8.0990234375 53.7 -8.1 53.2482421875 -8.0068359375 52.9 -7.65 52.8228515625 -7.5748046875 52.75 -7.5 52.454296875 -7.1091796875 52.45 -6.6 52.43359375 -6.3671875 52.55 -5.8 52.5822265625 -5.7517578125 52.6 -5.7
L 52.6 -5.7
Q 52.6478515625 -5.3900390625 52.75 -4.95 52.792578125 -4.6724609375 52.85 -4.4 52.8728515625 -4.237890625 52.9 -4.1 52.9318359375 -3.8873046875 53 -3.7 53.1318359375 -2.9841796875 53.25 -2.15
L 53.25 -2.1
Q 53.5591796875 -0.4078125 53.85 1.9
L 53.85 1.9
Q 53.973046875 2.562890625 54.05 3.2
L 54.05 3.2
Q 54.8072265625 8.77734375 54.95 14.5 55.0490234375 19.23671875 55.4 25.4 55.398046875 25.44921875 55.4 25.5 55.5 26.9001953125 55.6 28.45 55.794921875 31.4849609375 55.85 34.2 55.9486328125 36.9951171875 55.9 39.45 55.8791015625 40.0353515625 55.85 40.6 55.829296875 41.1875 55.8 41.75 55.8060546875 41.9056640625 55.8 42.05 55.449609375 47.7298828125 53.1 56.2 52.8826171875 56.9779296875 52.7 57.7
L 51.25 62.65
Q 50.56875 65.0283203125 50.15 66.2 50.061328125 66.5587890625 49.95 66.8
L 50 66.75
Q 49.8779296875 67.10703125 49.75 67.45 49.5701171875 68.1595703125 49.45 68.85 49.3568359375 69.84609375 49.45 70.8 49.48984375 71.275390625 49.55 71.7 49.515234375 73.1140625 43.95 77.55
L 43.95 77.55
Q 41.9828125 79.158203125 40.55 80.15 38.10703125 81.880078125 37.45 81.75
L 37.45 81.75
Q 37.240234375 81.630859375 36.95 81.45 35.2361328125 80.412890625 31.65 78.3
L 31.65 78.3
Q 28.2724609375 76.321484375 27.9 74.2
L 27.9 74.2
Q 27.8654296875 73.9169921875 27.8 73.55 27.4150390625 71.553515625 25.95 67.7 25.263671875 65.9064453125 24.3 63.65
L 24.3 63.65
Q 22.70703125 59.88515625 22.15 58.05 21.873828125 57.177734375 21.85 56.75 21.8693359375 56.2208984375 22.05 55.55 22.2357421875 54.877734375 22.6 54.05 22.6984375 53.79296875 22.8 53.5 23.0107421875 53.1349609375 23.2 52.7 23.30078125 52.5875 23.35 52.45
L 23.35 52.45
Q 25.3091796875 48.937109375 25.25 46.75 25.2560546875 46.5009765625 25.2 46.15 25.210546875 46.0302734375 25.2 45.9 25.185546875 45.8080078125 25.15 45.7 25.0478515625 44.989453125 24.75 43.95 24.0609375 41.324609375 22.35 36.6
L 22.35 36.55
Q 19.7369140625 29.6625 19.65 29.6 19.66953125 26.6982421875 17.8 20.7
L 17.8 20.65
Q 17.5259765625 19.7939453125 17.3 19.1
L 16.7 17.35
Q 16.144140625 15.8837890625 16.1 15.85 16.2375 14.4310546875 18.2 13 20.0666015625 11.713671875 21.65 11.85 21.865625 11.8568359375 22.05 11.9 22.603515625 12.037109375 23.1 11.8 23.1470703125 11.7779296875 23.2 11.75 23.617578125 11.5216796875 23.8 11.05 24.2400390625 10.16640625 25.4 8.45 26.914453125 6.36328125 28.05 5.55 30.0423828125 4.3705078125 32.25 0.15 32.9021484375 -1.0904296875 33.55 -2.6
L 33.55 -2.6
Q 33.6013671875 -2.6345703125 33.6 -2.7 34.6517578125 -4.973046875 35.6 -6.2 35.96953125 -6.5884765625 36.3 -6.9 36.5416015625 -7.0837890625 36.75 -7.25
L 36.75 -7.2
Q 36.9255859375 -7.2775390625 37.05 -7.3 37.642578125 -7.37265625 38 -7.8 38.4005859375 -8.2318359375 38.4 -8.8
L 38.4 -11.05 38.4 -11.8
Q 38.400390625 -11.975 38.35 -12.15 38.30703125 -12.3681640625 38.15 -12.6 38.151953125 -12.6486328125 38.1 -12.75 38.1005859375 -12.7728515625 38.05 -12.85 37.8833984375 -13.19296875 37.75 -13.85
L 37.75 -13.9
Q 37.75625 -13.9810546875 37.75 -14.1 37.68203125 -14.4826171875 37.65 -14.95
L 37.65 -15
Q 37.6375 -15.1185546875 37.6 -15.3 37.601953125 -15.684765625 37.6 -16.15
M 43.55 -30.85
L 43.65 -30.9
Q 43.623046875 -30.877734375 43.6 -30.85
L 43.55 -30.85
M 43.65 -27.9
Q 43.98359375 -27.909375 44.25 -28.05
L 44.25 -28
Q 43.9625 -27.853125 43.6 -27.85 43.635546875 -27.876953125 43.65 -27.9
L 43.65 -27.9
Q 43.8013671875 -28.202734375 43.9 -28.45 44.0205078125 -28.31171875 44.1 -28.2 44.01796875 -28.107421875 43.85 -28.05 43.7865234375 -27.9666015625 43.65 -27.9
M 44.8 -28.45
L 44.8 -28.45 44.75 -28.45 44.8 -28.45
M 44.65 -28.35
L 44.65 -28.3
Q 44.625390625 -28.274609375 44.6 -28.25 44.47578125 -28.1357421875 44.3 -28.05 44.3515625 -28.07109375 44.35 -28.1 44.427734375 -28.13359375 44.45 -28.2 44.5013671875 -28.201953125 44.5 -28.25
L 44.55 -28.25
Q 44.5806640625 -28.280078125 44.6 -28.3
L 44.65 -28.35 Z"/>

<path fill="#ACABA8" stroke="none" d="
M 44.5 -28.25
Q 44.5013671875 -28.201953125 44.45 -28.2 44.427734375 -28.13359375 44.35 -28.1 44.3515625 -28.07109375 44.3 -28.05 44.47578125 -28.1357421875 44.6 -28.25
L 44.5 -28.25
M 43.85 -28.05
L 43.8 -28
Q 43.7349609375 -27.9517578125 43.65 -27.9 43.7865234375 -27.9666015625 43.85 -28.05
M 44.25 -28.05
Q 43.98359375 -27.909375 43.65 -27.9 43.635546875 -27.876953125 43.6 -27.85 43.9625 -27.853125 44.25 -28
L 44.25 -28.05
M 50.5 64.9
Q 50.2744140625 65.559375 50.15 66.2 50.56875 65.0283203125 51.25 62.65 50.7728515625 64.1908203125 50.5 64.9
M 27.9 74.2
L 27.9 74.2
Q 28.2724609375 76.321484375 31.65 78.3
L 31.65 78.3
Q 35.2361328125 80.412890625 36.95 81.45 38.0146484375 81.7353515625 40.55 80.15 41.9828125 79.158203125 43.95 77.55
L 43.95 77.55
Q 49.515234375 73.1140625 49.55 71.7 49.48984375 71.275390625 49.45 70.8 48.1017578125 72.7205078125 44.4 75.7 38.2 80.65 36.7 79.7 35.15 78.8 31.2 76.45 28.8443359375 75.091015625 27.8 73.55 27.8654296875 73.9169921875 27.9 74.2
M 24.3 63.65
Q 25.263671875 65.9064453125 25.95 67.7 25.1525390625 65.3853515625 23.75 62 22.7392578125 59.6689453125 22.15 58.05 22.70703125 59.88515625 24.3 63.65
L 24.3 63.65
M 50.85 -13.35
Q 50.88359375 -12.932421875 50.9 -12.85 51.55 -10.25 53.4 -8.4 53.565234375 -8.234765625 53.7 -8.1 53.828125 -8.0990234375 53.95 -8.1 54.328125 -8.0966796875 54.65 -7.95 54.6482421875 -8.09765625 54.65 -8.3 54.4453125 -8.4939453125 53.4 -9.55
L 53.35 -9.55
Q 51.7375 -11.23203125 50.85 -13.35
M 43.6 -26.35
L 44.35 -26.6
Q 43.95 -26.2 50.05 -20.25 50.1328125 -20.1671875 50.2 -20.05 50.11015625 -21.6662109375 49.85 -22.1
L 49.85 -22.15
Q 46.5814453125 -25.3412109375 45.05 -27.05 44.6001953125 -27.552734375 44.25 -28 43.3310546875 -27.0748046875 43.4 -26.2 43.4966796875 -26.273828125 43.6 -26.35
M 36.35 -6.6
Q 36.3376953125 -6.7205078125 36.3 -6.9 35.96953125 -6.5884765625 35.6 -6.2 36.003125 -6.44140625 36.35 -6.6
M 37.6 -16.25
Q 37.6017578125 -16.19609375 37.6 -16.15 37.601953125 -15.684765625 37.6 -15.3 38.8095703125 -15.856640625 39.9 -17.25 40.6251953125 -18.1279296875 41.15 -18.7 41.1388671875 -18.80234375 41.15 -18.9 39.4591796875 -16.8470703125 37.6 -16.25 Z"/>

<path fill="#9F9E9A" stroke="none" d="
M 44.65 -28.3
L 44.65 -28.35 44.6 -28.3
Q 44.5806640625 -28.280078125 44.55 -28.25
L 44.5 -28.25 44.6 -28.25
Q 44.625390625 -28.274609375 44.65 -28.3
M 44.8 -28.45
L 44.8 -28.45 44.75 -28.45 44.8 -28.45
M 43.8 -28
L 43.85 -28.05
Q 44.01796875 -28.107421875 44.1 -28.2 44.0205078125 -28.31171875 43.9 -28.45 43.8013671875 -28.202734375 43.65 -27.9
L 43.65 -27.9
Q 43.7349609375 -27.9517578125 43.8 -28
M 37.45 81.75
L 37.45 81.75
Q 38.10703125 81.880078125 40.55 80.15 38.0146484375 81.7353515625 36.95 81.45 37.240234375 81.630859375 37.45 81.75 Z"/>

<path fill="#B6B6B2" stroke="none" d="
M 21.85 56.75
Q 21.873828125 57.177734375 22.15 58.05 22.7392578125 59.6689453125 23.75 62 25.1525390625 65.3853515625 25.95 67.7 27.4150390625 71.553515625 27.8 73.55 28.8443359375 75.091015625 31.2 76.45 35.15 78.8 36.7 79.7 38.2 80.65 44.4 75.7 48.1017578125 72.7205078125 49.45 70.8 49.3568359375 69.84609375 49.45 68.85 48.4328125 70.823828125 44.15 74.25 38.15 79.05 36.7 78.1 35.2 77.25 31.35 74.95 27.6 72.75 27.3 70.2 26.95 67.75 24.15 60.95 22.5955078125 57.3876953125 22.05 55.55 21.8693359375 56.2208984375 21.85 56.75
M 17.8 20.65
L 17.8 20.7
Q 19.66953125 26.6982421875 19.65 29.6 19.7369140625 29.6625 22.35 36.55
L 22.35 36.6
Q 24.0609375 41.324609375 24.75 43.95 24.3287109375 41.7009765625 22.3 36.2 19.75 29.4 19.75 29.3 19.75 26.85 18.15 21.6 17.976171875 21.099609375 17.8 20.65
M 18.2 13
Q 16.2375 14.4310546875 16.1 15.85 16.144140625 15.8837890625 16.7 17.35 16.5 16.784765625 16.5 16.75 16.5 14.9 19.05 13.1 20.400390625 12.127734375 21.65 11.85 20.0666015625 11.713671875 18.2 13
M 23.8 11.05
Q 23.617578125 11.5216796875 23.2 11.75 23.4482421875 11.785546875 23.7 11.85 24.1 10.95 25.25 9.25 26.8 7.05 28.05 6.25 29.9556640625 4.9951171875 32.25 0.15 30.0423828125 4.3705078125 28.05 5.55 26.914453125 6.36328125 25.4 8.45 24.2400390625 10.16640625 23.8 11.05
M 55.8 42.05
Q 55.8060546875 41.9056640625 55.8 41.75 55.63125 41.613671875 55.6 41.4
L 55.5 40.8 55.5 40.8
Q 55.2 46.1 53 54 50.8 61.85 50.1 63.75 49.468359375 65.5478515625 49.75 67.45 49.8779296875 67.10703125 50 66.75
L 49.95 66.8
Q 50.061328125 66.5587890625 50.15 66.2 50.2744140625 65.559375 50.5 64.9 50.7728515625 64.1908203125 51.25 62.65
L 52.7 57.7
Q 52.8826171875 56.9779296875 53.1 56.2 55.449609375 47.7298828125 55.8 42.05
M 53.1 -1.7
Q 52.9970703125 -1.57421875 52.85 -1.45 53.2150390625 0.4705078125 53.65 3.65
L 53.95 3.35
Q 54.0259765625 3.28828125 54.05 3.2
L 54.05 3.2
Q 53.973046875 2.562890625 53.85 1.9
L 53.85 1.9
Q 53.5591796875 -0.4078125 53.25 -2.1
L 53.25 -2.1
Q 53.191796875 -1.8529296875 53.1 -1.7
M 50.9 -12.85
Q 50.88359375 -12.932421875 50.85 -13.35 50.59765625 -14.0201171875 50.4 -14.75 50.4029296875 -11.8853515625 50.45 -11.65 51.07421875 -9.24921875 52.75 -7.5 52.8228515625 -7.5748046875 52.9 -7.65 53.2482421875 -8.0068359375 53.7 -8.1 53.565234375 -8.234765625 53.4 -8.4 51.55 -10.25 50.9 -12.85
M 43.6 -25.75
Q 43.79921875 -25.32109375 43.95 -24.95
L 44.1 -25
Q 43.75 -24.6 49.65 -18.85 50.072265625 -18.427734375 50.25 -17.15 50.25078125 -17.95 50.25 -19.05
L 50.25 -19.1
Q 50.2337890625 -19.6171875 50.2 -20.05 50.1328125 -20.1671875 50.05 -20.25 43.95 -26.2 44.35 -26.6
L 43.6 -26.35
Q 43.4966796875 -26.273828125 43.4 -26.2
L 43.4 -26.2
Q 43.4134765625 -26.1345703125 43.4 -26.1 43.440234375 -26.0263671875 43.45 -25.95 43.5349609375 -25.8462890625 43.6 -25.75
M 35.6 -6.2
Q 34.6517578125 -4.973046875 33.6 -2.7 35.150390625 -5.357421875 36.7 -5.7 36.5162109375 -6.0306640625 36.35 -6.6 36.003125 -6.44140625 35.6 -6.2
M 37.65 -14.95
Q 37.68203125 -14.4826171875 37.75 -14.1 38.8099609375 -14.676953125 39.8 -15.95 40.50625 -16.7896484375 41 -17.35 40.9673828125 -17.86953125 41.2 -18.4 41.166015625 -18.5556640625 41.15 -18.7 40.6251953125 -18.1279296875 39.9 -17.25 38.8095703125 -15.856640625 37.6 -15.3 37.6375 -15.1185546875 37.65 -15
L 37.65 -14.95 Z"/>

<path fill="#CBC9C6" stroke="none" d="
M 54.7 41.2
Q 54.502734375 41.3365234375 54.25 41.45 53.805078125 45.9962890625 52 52.4 50 59.8 49.3 61.55 48.7 63.3 49 65.1 49.35 66.9 43.7 71.4 38.05 75.95 36.7 75.05 35.3 74.3 31.65 72.1 28.1 70 27.85 67.65 27.55 65.3 24.9 58.9 23.285546875 55.2046875 22.8 53.5 22.6984375 53.79296875 22.6 54.05 23.058203125 55.7669921875 24.7 59.55 27.4 66.05 27.7 68.45 27.95 70.85 31.6 73 35.3 75.25 36.75 76 38.1 76.9 43.85 72.3 49.65 67.7 49.3 65.85 48.95 64 49.6 62.25 50.3 60.45 52.35 52.9 54.2970703125 46.0173828125 54.7 41.2
M 53.25 -2.1
L 53.25 -2.15
Q 53.259765625 -2.105859375 53.25 -2.1
L 53.25 -2.1
M 52.2 -0.5
Q 52.0556640625 -0.3310546875 51.85 -0.2 52.15546875 1.6314453125 52.65 4.85 52.82578125 4.668359375 53 4.45 52.5419921875 1.346875 52.2 -0.5
M 44.3 -22.1
Q 44.1396484375 -21.756640625 43.8 -21.6 44.501171875 -20.4197265625 48.85 -16.15 49.55 -15.5 49.6 -12.65 49.6 -9.65 49.65 -9.4 50.25 -7.05 51.95 -5.35 52.50546875 -4.79453125 52.85 -4.4 52.792578125 -4.6724609375 52.75 -4.95 52.6478515625 -5.3900390625 52.6 -5.7
L 52.6 -5.7
Q 52.4556640625 -5.8443359375 52.3 -6 50.55 -7.75 49.95 -10.15 49.9 -10.4 49.9 -13.45 49.85 -16.35 49.15 -17 45.422265625 -20.6619140625 44.3 -22.1
M 36.9 -3.8
L 36.9 -4.45
Q 34.776171875 -4.096484375 32.75 0.45 30.4 5.75 28.4 7.05 27.25 7.8 25.75 9.9 24.65 11.55 24.3 12.45 22.2 11.9 19.8 13.65 17.35 15.35 17.35 17.15 17.35 17.25 18.95 21.8 20.45 26.85 20.45 29.15 20.45 29.25 22.9 35.75 25.4 42.55 25.4 44.25 25.4 44.8984375 25.15 45.7 25.185546875 45.8080078125 25.2 45.9 25.6 44.7619140625 25.6 43.9 25.6 42.25 23.15 35.6 20.75 29.2 20.75 29.1 20.75 26.85 19.25 21.9 17.7 17.45 17.7 17.35 17.7 15.6 20.1 13.9 22.45 12.2 24.5 12.75 24.85 11.85 25.95 10.25 27.4 8.2 28.55 7.45 30.5 6.2 32.8 1 34.8 -3.55 36.9 -3.8
M 39.7 -14.2
Q 38.9373046875 -13.2578125 38.1 -12.75 38.151953125 -12.6486328125 38.15 -12.6 38.30703125 -12.3681640625 38.35 -12.15 38.9974609375 -12.6330078125 39.6 -13.4 41.0681640625 -15.16171875 41.65 -15.65 41.5662109375 -15.858203125 41.45 -16.15 40.8248046875 -15.543359375 39.7 -14.2 Z"/>

<path fill="#D0CFCC" stroke="none" d="
M 54.25 41.45
Q 53.9796875 41.5841796875 53.65 41.7 53.173828125 45.9072265625 51.55 51.65 49.6 58.8 48.9 60.5 48.35 62.2 48.65 63.95 48.95 65.7 43.5 70.05 38 74.45 36.7 73.6 35.35 72.85 31.8 70.75 28.35 68.7 28.1 66.4 27.8 64.15 25.25 57.95 23.6791015625 54.3798828125 23.2 52.7 23.0107421875 53.1349609375 22.8 53.5 23.285546875 55.2046875 24.9 58.9 27.55 65.3 27.85 67.65 28.1 70 31.65 72.1 35.3 74.3 36.7 75.05 38.05 75.95 43.7 71.4 49.35 66.9 49 65.1 48.7 63.3 49.3 61.55 50 59.8 52 52.4 53.805078125 45.9962890625 54.25 41.45
M 52.1 5.4
Q 52.391796875 5.1548828125 52.65 4.85 52.15546875 1.6314453125 51.85 -0.2 51.593359375 -0.0380859375 51.3 0.1 51.6279296875 1.88046875 52.1 5.4
M 41.25 -19.1
Q 41.2068359375 -18.988671875 41.15 -18.9 41.1388671875 -18.80234375 41.15 -18.7 41.166015625 -18.5556640625 41.2 -18.4 41.598828125 -19.3185546875 42.8 -20.25
L 43.5 -20.5
Q 43.15 -20.1 48.5 -14.85 49.15 -14.25 49.2 -11.45 49.2 -8.55 49.25 -8.3 49.85 -6.05 51.5 -4.4 52.9 -3 52.9 -2.45 52.9 -1.81796875 52.8 -1.4 52.8388671875 -1.416796875 52.85 -1.45 52.9970703125 -1.57421875 53.1 -1.7 53.191796875 -1.8529296875 53.25 -2.1 53.259765625 -2.105859375 53.25 -2.15 53.1318359375 -2.9841796875 53 -3.7 52.9318359375 -3.8873046875 52.9 -4.1 52.8728515625 -4.237890625 52.85 -4.4 52.50546875 -4.79453125 51.95 -5.35 50.25 -7.05 49.65 -9.4 49.6 -9.65 49.6 -12.65 49.55 -15.5 48.85 -16.15 44.501171875 -20.4197265625 43.8 -21.6 43.6197265625 -21.458984375 43.35 -21.4 43.3005859375 -21.3724609375 43.2 -21.35 43.0744140625 -21.192578125 42.6 -20.65 42.57265625 -20.6001953125 42.55 -20.6 41.98359375 -19.96640625 41.25 -19.1
M 36.9 -2.9
L 36.9 -3.8
Q 34.8 -3.55 32.8 1 30.5 6.2 28.55 7.45 27.4 8.2 25.95 10.25 24.85 11.85 24.5 12.75 22.45 12.2 20.1 13.9 17.7 15.6 17.7 17.35 17.7 17.45 19.25 21.9 20.75 26.85 20.75 29.1 20.75 29.2 23.15 35.6 25.6 42.25 25.6 43.9 25.6 44.7619140625 25.2 45.9 25.210546875 46.0302734375 25.2 46.15 25.95 44.53828125 25.95 43.4 25.95 41.8 23.55 35.35 21.25 29.1 21.25 29.05 21.25 26.85 19.75 22.05 18.25 17.75 18.25 17.65 18.25 15.95 20.6 14.3 22.9 12.65 24.85 13.15 25.2 12.3 26.25 10.75 27.7 8.75 28.8 8.05 30.7 6.8 32.9 1.75 34.85 -2.65 36.9 -2.9
M 38.4 -11.05
Q 38.9638671875 -11.5130859375 39.5 -12.2 41.2 -14.25 41.7 -14.5 42.0203125 -14.6423828125 41.65 -15.65 41.0681640625 -15.16171875 39.6 -13.4 38.9974609375 -12.6330078125 38.35 -12.15 38.400390625 -11.975 38.4 -11.8
L 38.4 -11.05 Z"/>

<path fill="#C0C0BC" stroke="none" d="
M 54.75 41.05
Q 54.7333984375 41.1349609375 54.7 41.2 54.2970703125 46.0173828125 52.35 52.9 50.3 60.45 49.6 62.25 48.95 64 49.3 65.85 49.65 67.7 43.85 72.3 38.1 76.9 36.75 76 35.3 75.25 31.6 73 27.95 70.85 27.7 68.45 27.4 66.05 24.7 59.55 23.058203125 55.7669921875 22.6 54.05 22.2357421875 54.877734375 22.05 55.55 22.5955078125 57.3876953125 24.15 60.95 26.95 67.75 27.3 70.2 27.6 72.75 31.35 74.95 35.2 77.25 36.7 78.1 38.15 79.05 44.15 74.25 48.4328125 70.823828125 49.45 68.85 49.5701171875 68.1595703125 49.75 67.45 49.468359375 65.5478515625 50.1 63.75 50.8 61.85 53 54 55.2 46.1 55.5 40.8
L 54.75 41.05
M 52.6 -0.85
Q 52.4384765625 -0.6525390625 52.2 -0.5 52.5419921875 1.346875 53 4.45 53.3431640625 4.0818359375 53.65 3.7
L 53.65 3.65
Q 53.2150390625 0.4705078125 52.85 -1.45 52.8388671875 -1.416796875 52.8 -1.4 52.7275390625 -1.0626953125 52.6 -0.85
M 44.1 -25
L 43.95 -24.95
Q 44.001171875 -24.794921875 44.05 -24.65 44.062890625 -24.6123046875 44.05 -24.6 44.72109375 -22.8875 44.3 -22.1 45.422265625 -20.6619140625 49.15 -17 49.85 -16.35 49.9 -13.45 49.9 -10.4 49.95 -10.15 50.55 -7.75 52.3 -6 52.4556640625 -5.8443359375 52.6 -5.7 52.5822265625 -5.7517578125 52.55 -5.8 52.43359375 -6.3671875 52.45 -6.6 52.454296875 -7.1091796875 52.75 -7.5 51.07421875 -9.24921875 50.45 -11.65 50.4029296875 -11.8853515625 50.4 -14.75 50.3744140625 -14.83046875 50.35 -14.95 50.334375 -14.9916015625 50.3 -15.05 50.2744140625 -15.2736328125 50.25 -17.15 50.072265625 -18.427734375 49.65 -18.85 43.75 -24.6 44.1 -25
M 33.55 -2.6
L 33.55 -2.6
Q 32.9021484375 -1.0904296875 32.25 0.15 29.9556640625 4.9951171875 28.05 6.25 26.8 7.05 25.25 9.25 24.1 10.95 23.7 11.85 23.4482421875 11.785546875 23.2 11.75 23.1470703125 11.7779296875 23.1 11.8 22.603515625 12.037109375 22.05 11.9 21.865625 11.8568359375 21.65 11.85 20.400390625 12.127734375 19.05 13.1 16.5 14.9 16.5 16.75 16.5 16.784765625 16.7 17.35
L 17.3 19.1
Q 17.5259765625 19.7939453125 17.8 20.65 17.976171875 21.099609375 18.15 21.6 19.75 26.85 19.75 29.3 19.75 29.4 22.3 36.2 24.3287109375 41.7009765625 24.75 43.95 25.0478515625 44.989453125 25.15 45.7 25.4 44.8984375 25.4 44.25 25.4 42.55 22.9 35.75 20.45 29.25 20.45 29.15 20.45 26.85 18.95 21.8 17.35 17.25 17.35 17.15 17.35 15.35 19.8 13.65 22.2 11.9 24.3 12.45 24.65 11.55 25.75 9.9 27.25 7.8 28.4 7.05 30.4 5.75 32.75 0.45 34.776171875 -4.096484375 36.9 -4.45
L 36.9 -5.4
Q 36.803515625 -5.519140625 36.7 -5.7 35.150390625 -5.357421875 33.6 -2.7 33.6013671875 -2.6345703125 33.55 -2.6
M 37.75 -13.9
L 37.75 -13.85
Q 37.8833984375 -13.19296875 38.05 -12.85 38.1005859375 -12.7728515625 38.1 -12.75 38.9373046875 -13.2578125 39.7 -14.2 40.8248046875 -15.543359375 41.45 -16.15 41.355078125 -16.3341796875 41.25 -16.55 41.05234375 -16.9455078125 41 -17.35 40.50625 -16.7896484375 39.8 -15.95 38.8099609375 -14.676953125 37.75 -14.1 37.75625 -13.9810546875 37.75 -13.9 Z"/>

<path fill="#723831" stroke="none" d="
M 55.5 40.8
L 55.5 40.6
Q 55.50390625 40.7091796875 55.5 40.8
L 55.5 40.8
M 53.7 3.9
Q 53.8 4.5 53.9 5.05 54.6 10.2 54.7 15.55 54.8 20.9 55.3 28.2 55.65 33.9 55.6 38.4
L 55.85 34.2
Q 55.794921875 31.4849609375 55.6 28.45 55.5 26.9001953125 55.4 25.5 55.398046875 25.44921875 55.4 25.4 55.0490234375 19.23671875 54.95 14.5 54.8072265625 8.77734375 54.05 3.2 54.0259765625 3.28828125 53.95 3.35
L 53.65 3.65 53.65 3.7
Q 53.686328125 3.8033203125 53.7 3.9 Z"/>

<path fill="#97524B" stroke="none" d="
M 53.1 16.5
Q 53.0751953125 14.098046875 52.9 11.7
L 50.1 42.65
Q 52.00390625 42.3734375 53.65 41.7 53.798046875 40.5978515625 53.85 39.6 53.9 38.5 53.95 37.35 54 33.3 53.65 28.05 53.2 21.35 53.1 16.5
M 52.2 5.9
Q 52.1654296875 5.6544921875 52.1 5.4 51.191015625 6.4326171875 50.15 7.45 49.9755859375 7.6513671875 49.75 7.85 49.441796875 8.16953125 49.1 8.5 47.7662109375 9.7259765625 46.6 10.75 46.65625 10.80390625 46.65 10.8 46.8123046875 10.9748046875 46.8 11.15
L 45.05 42.7
Q 46.24140625 42.8 47.6 42.8
L 48.05 42.8
Q 48.594140625 42.78671875 49.1 42.75 49.096875 42.698828125 49.1 42.65
L 52.35 6.7
Q 52.2751953125 6.3134765625 52.2 5.9
M 45.75 11.6
Q 43.3416015625 13.8583984375 42 15.2 34.7 22.5 34.7 30.3 34.7 37.7138671875 38.15 40.5
L 39.4 18.5
Q 39.41640625 18.3158203125 39.55 18.15 39.724609375 18.0375 39.9 18.05 40.1341796875 18.0662109375 40.25 18.2 40.4123046875 18.374609375 40.4 18.55
L 39.15 40.9
Q 39.13984375 41.0556640625 39.05 41.15 40.933203125 42.2431640625 44.05 42.6
L 45.75 11.6 Z"/>

<path fill="#884740" stroke="none" d="
M 53.15 8.7
L 52.9 11.7
Q 53.0751953125 14.098046875 53.1 16.5 53.2 21.35 53.65 28.05 54 33.3 53.95 37.35 53.9 38.5 53.85 39.6 53.798046875 40.5978515625 53.65 41.7 53.9796875 41.5841796875 54.25 41.45 54.3578125 40.6951171875 54.4 40 54.45 38.85 54.5 37.7 54.55 33.5 54.2 28.1 53.7 21.2 53.6 16.2 53.5619140625 12.400390625 53.15 8.7
M 52.4 6.15
Q 52.4173828125 5.9513671875 52.55 5.8 52.6724609375 5.74296875 52.75 5.7 52.742578125 5.4837890625 52.7 5.25 52.670703125 5.0544921875 52.65 4.85 52.391796875 5.1548828125 52.1 5.4 52.1654296875 5.6544921875 52.2 5.9 52.2751953125 6.3134765625 52.35 6.7
L 52.4 6.15 Z"/>

<path fill="#81423B" stroke="none" d="
M 53.35 6.75
L 53.15 8.7
Q 53.5619140625 12.400390625 53.6 16.2 53.7 21.2 54.2 28.1 54.55 33.5 54.5 37.7 54.45 38.85 54.4 40 54.3578125 40.6951171875 54.25 41.45 54.502734375 41.3365234375 54.7 41.2 54.7333984375 41.1349609375 54.75 41.05 54.7767578125 40.640625 54.8 40.25 54.85 39.1 54.9 37.9 54.95 33.6 54.6 28.1 54.05 21.05 53.95 15.95 53.9041015625 11.27109375 53.35 6.75
M 52.75 5.7
Q 52.8642578125 5.69453125 52.95 5.7 53.114453125 5.7142578125 53.2 5.8 53.139453125 5.2923828125 53.05 4.8 53.025390625 4.631640625 53 4.45 52.82578125 4.668359375 52.65 4.85 52.670703125 5.0544921875 52.7 5.25 52.742578125 5.4837890625 52.75 5.7 Z"/>

<path fill="#7F3E37" stroke="none" d="
M 53 4.45
Q 53.025390625 4.631640625 53.05 4.8 53.139453125 5.2923828125 53.2 5.8 53.2533203125 5.8478515625 53.25 5.85 53.4130859375 6.0390625 53.4 6.25
L 53.35 6.75
Q 53.9041015625 11.27109375 53.95 15.95 54.05 21.05 54.6 28.1 54.95 33.6 54.9 37.9 54.85 39.1 54.8 40.25 54.7767578125 40.640625 54.75 41.05
L 55.5 40.8
Q 55.50390625 40.7091796875 55.5 40.6 55.501953125 40.5876953125 55.5 40.55 55.4955078125 40.5119140625 55.5 40.45
L 55.55 38.85
Q 55.590234375 38.6431640625 55.6 38.4 55.65 33.9 55.3 28.2 54.8 20.9 54.7 15.55 54.6 10.2 53.9 5.05 53.8 4.5 53.7 3.9 53.686328125 3.8033203125 53.65 3.7 53.3431640625 4.0818359375 53 4.45 Z"/>
</g>

<path id="Layer0_0_1_STROKES" stroke="#FFFF00" stroke-opacity="0" stroke-width="6" stroke-linejoin="round" stroke-linecap="round" fill="none" d="
M 62.95 27
Q 63.25 26.9 63.5 26.8 63.55 26.75 63.55 26.8 64.4 26.5 65.3 25.05 65.9 24.4 65.2 21.8
L 65.25 21.8
Q 64.75 19.9 65.35 18.05 65.45 17.75 66.85 15.55
L 66.9 15.5
Q 68.7 12.4 68.25 11.3
L 68.25 11.25
Q 67.25 7.75 66.95 6 66.75 5.25 66.3 5.35 66.45 5.2 66.55 5.15 66.8 4.75 66.8 4.45 66.85 4 66.6 3.65 66.3 3.3 65.95 3.2
L 65.2 3.1
Q 64.95 2.95 64.75 3 64.6 2.95 64.55 3.05 64.35 3.05 64.3 3.05 64.1 3.05 64 3.1 63.85 3.15 63.65 3.2 60.9 3.85 60.3 5.75 60.15 6.15 60.1 6.6 60.05 6.7 60.05 6.8 60 7.15 59.95 7.5
L 59.9 7.55
Q 59.45 7.65 58.85 7.85 58.8 7.85 58.75 7.9 58 8.1 57 8.55 55.15 9.2 53.95 8.7 53.5 8.5 53 8.65 52.45 8.8 52.2 9.25 51.85 9.75 51.55 10.3 51.25 10.8 51.05 11.25 50.75 11.85 50.55 12.35
L 50.55 12.3
Q 50.15 13.2 50.1 13.85
L 50.1 13.9 50.15 13.95 50.1 14 50.1 13.9 49.4 15.05
Q 47.15 14.9 43.25 17.55 39 20.55 36.95 20.75 35.25 20.85 32.65 22 31.45 22.55 30.75 22.95 28.95 21.85 26.05 22.2 22.3 22.5 21.15 24.65 21.05 24.7 20 29.55
L 20 29.5
Q 18.8 34.05 17.6 35.9 17.5 35.95 16.2 42.85
L 16.2 42.8
Q 14.85 49.15 14.1 50.5 13.3 51.6 11.05 52.95 7.9 54.75 7 56.25 6.25 57.4 5.4 63.2 4.4 69.45 3.45 71.55 2.15 74.05 4.6 78.15 6.6 81.55 7.35 82.95 8.15 85.05 16.7 83.7 25.1 82.35 25.65 80.1 26.15 78.7 27.35 77.8
L 27.4 77.8
Q 28.95 76.6 34.6 71.3 40.45 65.9 43.35 61.8
L 43.4 61.75
Q 44 60.85 44.65 59.9 47 56.35 49.5 51.7 50.15 50.55 50.65 49.5
L 50.7 49.45
Q 52.95 45.45 54.8 42.3
L 57.5 38.45
Q 57.65 38.3 57.6 38.15 57.55 37.95 57.4 37.9 57.35 37.85 57.3 37.8 58.65 35.3 59.85 32.75 60.1 32.25 60.25 31.8 61.55 28.85 62.3 27.15
L 62.3 27.05
Q 62.6 27.05 62.95 27 Z
M 64.95 3.25
L 64.95 3.2 65.05 3.2
Q 64.9984375 3.2015625 64.95 3.25 Z"/>
</defs>

<g transform="matrix( 1, 0, 0, 1, 0,0) ">
<use xlink:href="#Layer0_0_FILL"/>

<use xlink:href="#Layer0_0_1_STROKES"/>
</g>

<g transform="matrix( 0.7459716796875, 0.398895263671875, -0.4507904052734375, 0.71820068359375, 18.55,8) ">
<use xlink:href="#Layer0_1_FILL"/>
</g>
</svg>
